G04 #@! TF.GenerationSoftware,KiCad,Pcbnew,8.0.3*
G04 #@! TF.CreationDate,2024-07-31T22:39:35+02:00*
G04 #@! TF.ProjectId,hw-tele-stern,68772d74-656c-4652-9d73-7465726e2e6b,rev2 w/ output diodes*
G04 #@! TF.SameCoordinates,Original*
G04 #@! TF.FileFunction,Paste,Top*
G04 #@! TF.FilePolarity,Positive*
%FSLAX46Y46*%
G04 Gerber Fmt 4.6, Leading zero omitted, Abs format (unit mm)*
G04 Created by KiCad (PCBNEW 8.0.3) date 2024-07-31 22:39:35*
%MOMM*%
%LPD*%
G01*
G04 APERTURE LIST*
G04 Aperture macros list*
%AMRoundRect*
0 Rectangle with rounded corners*
0 $1 Rounding radius*
0 $2 $3 $4 $5 $6 $7 $8 $9 X,Y pos of 4 corners*
0 Add a 4 corners polygon primitive as box body*
4,1,4,$2,$3,$4,$5,$6,$7,$8,$9,$2,$3,0*
0 Add four circle primitives for the rounded corners*
1,1,$1+$1,$2,$3*
1,1,$1+$1,$4,$5*
1,1,$1+$1,$6,$7*
1,1,$1+$1,$8,$9*
0 Add four rect primitives between the rounded corners*
20,1,$1+$1,$2,$3,$4,$5,0*
20,1,$1+$1,$4,$5,$6,$7,0*
20,1,$1+$1,$6,$7,$8,$9,0*
20,1,$1+$1,$8,$9,$2,$3,0*%
%AMRotRect*
0 Rectangle, with rotation*
0 The origin of the aperture is its center*
0 $1 length*
0 $2 width*
0 $3 Rotation angle, in degrees counterclockwise*
0 Add horizontal line*
21,1,$1,$2,0,0,$3*%
G04 Aperture macros list end*
%ADD10RotRect,0.920000X0.610000X315.000000*%
%ADD11RotRect,0.610000X0.920000X315.000000*%
%ADD12R,4.190000X2.665000*%
%ADD13R,4.190000X1.780000*%
%ADD14RoundRect,0.021200X0.243800X-0.633800X0.243800X0.633800X-0.243800X0.633800X-0.243800X-0.633800X0*%
%ADD15R,1.610000X0.610000*%
%ADD16R,0.580000X0.300000*%
%ADD17R,0.580000X0.250000*%
%ADD18R,0.350000X0.630000*%
%ADD19RoundRect,0.135000X-0.185000X0.135000X-0.185000X-0.135000X0.185000X-0.135000X0.185000X0.135000X0*%
%ADD20RoundRect,0.140000X-0.219203X-0.021213X-0.021213X-0.219203X0.219203X0.021213X0.021213X0.219203X0*%
%ADD21RoundRect,0.232500X-0.232500X-0.232500X0.232500X-0.232500X0.232500X0.232500X-0.232500X0.232500X0*%
%ADD22RoundRect,0.062500X-0.375000X-0.062500X0.375000X-0.062500X0.375000X0.062500X-0.375000X0.062500X0*%
%ADD23RoundRect,0.062500X-0.062500X-0.375000X0.062500X-0.375000X0.062500X0.375000X-0.062500X0.375000X0*%
%ADD24RoundRect,0.075000X-0.459619X-0.565685X0.565685X0.459619X0.459619X0.565685X-0.565685X-0.459619X0*%
%ADD25RoundRect,0.075000X0.459619X-0.565685X0.565685X-0.459619X-0.459619X0.565685X-0.565685X0.459619X0*%
%ADD26R,0.800000X0.600000*%
%ADD27R,0.300000X0.350000*%
%ADD28R,0.235000X0.870000*%
%ADD29R,0.600000X0.800000*%
%ADD30R,0.350000X0.300000*%
%ADD31R,0.870000X0.235000*%
%ADD32RoundRect,0.147500X-0.147500X-0.172500X0.147500X-0.172500X0.147500X0.172500X-0.147500X0.172500X0*%
%ADD33RoundRect,0.147500X0.017678X-0.226274X0.226274X-0.017678X-0.017678X0.226274X-0.226274X0.017678X0*%
%ADD34RoundRect,0.140000X0.170000X-0.140000X0.170000X0.140000X-0.170000X0.140000X-0.170000X-0.140000X0*%
%ADD35R,1.150000X1.400000*%
%ADD36RoundRect,0.135000X0.185000X-0.135000X0.185000X0.135000X-0.185000X0.135000X-0.185000X-0.135000X0*%
%ADD37RoundRect,0.218750X-0.218750X-0.381250X0.218750X-0.381250X0.218750X0.381250X-0.218750X0.381250X0*%
%ADD38RoundRect,0.135000X-0.135000X-0.185000X0.135000X-0.185000X0.135000X0.185000X-0.135000X0.185000X0*%
%ADD39RoundRect,0.135000X-0.035355X0.226274X-0.226274X0.035355X0.035355X-0.226274X0.226274X-0.035355X0*%
%ADD40RoundRect,0.135000X0.135000X0.185000X-0.135000X0.185000X-0.135000X-0.185000X0.135000X-0.185000X0*%
%ADD41RoundRect,0.140000X0.219203X0.021213X0.021213X0.219203X-0.219203X-0.021213X-0.021213X-0.219203X0*%
%ADD42RoundRect,0.140000X-0.140000X-0.170000X0.140000X-0.170000X0.140000X0.170000X-0.140000X0.170000X0*%
%ADD43RoundRect,0.147500X-0.172500X0.147500X-0.172500X-0.147500X0.172500X-0.147500X0.172500X0.147500X0*%
%ADD44RoundRect,0.140000X0.140000X0.170000X-0.140000X0.170000X-0.140000X-0.170000X0.140000X-0.170000X0*%
%ADD45R,1.100000X0.400000*%
%ADD46RoundRect,0.150000X0.512500X0.150000X-0.512500X0.150000X-0.512500X-0.150000X0.512500X-0.150000X0*%
%ADD47RotRect,0.800000X0.900000X45.000000*%
%ADD48RoundRect,0.225000X0.375000X-0.225000X0.375000X0.225000X-0.375000X0.225000X-0.375000X-0.225000X0*%
%ADD49R,1.500000X2.400000*%
%ADD50R,1.500000X1.050000*%
%ADD51RoundRect,0.140000X0.021213X-0.219203X0.219203X-0.021213X-0.021213X0.219203X-0.219203X0.021213X0*%
%ADD52RoundRect,0.147500X0.172500X-0.147500X0.172500X0.147500X-0.172500X0.147500X-0.172500X-0.147500X0*%
%ADD53RoundRect,0.135000X-0.226274X-0.035355X-0.035355X-0.226274X0.226274X0.035355X0.035355X0.226274X0*%
%ADD54RotRect,0.590000X0.350000X135.000000*%
%ADD55RotRect,0.590000X0.350000X45.000000*%
%ADD56RotRect,0.590000X0.350000X315.000000*%
%ADD57RotRect,0.590000X0.350000X225.000000*%
%ADD58RoundRect,0.140000X-0.170000X0.140000X-0.170000X-0.140000X0.170000X-0.140000X0.170000X0.140000X0*%
%ADD59RoundRect,0.135000X0.035355X-0.226274X0.226274X-0.035355X-0.035355X0.226274X-0.226274X0.035355X0*%
%ADD60RoundRect,0.150000X-0.512500X-0.150000X0.512500X-0.150000X0.512500X0.150000X-0.512500X0.150000X0*%
%ADD61RoundRect,0.135000X0.226274X0.035355X0.035355X0.226274X-0.226274X-0.035355X-0.035355X-0.226274X0*%
%ADD62RoundRect,0.140000X-0.021213X0.219203X-0.219203X0.021213X0.021213X-0.219203X0.219203X-0.021213X0*%
%ADD63R,0.700000X1.800000*%
%ADD64R,0.800000X1.800000*%
%ADD65R,1.000000X0.520000*%
%ADD66R,1.000000X0.270000*%
%ADD67R,2.000000X1.000000*%
%ADD68RotRect,0.450000X0.300000X135.000000*%
%ADD69RotRect,0.300000X0.450000X135.000000*%
%ADD70RoundRect,0.250000X0.475000X-0.250000X0.475000X0.250000X-0.475000X0.250000X-0.475000X-0.250000X0*%
%ADD71R,0.800000X1.000000*%
%ADD72R,0.325000X0.300000*%
%ADD73R,0.950000X0.613000*%
G04 APERTURE END LIST*
D10*
X142158931Y-89385432D03*
X141593245Y-89951117D03*
X141027560Y-90516802D03*
X140461874Y-91082488D03*
X139896189Y-91648173D03*
X139330504Y-92213859D03*
D11*
X140037610Y-92935108D03*
D10*
X140758859Y-93642214D03*
X141324545Y-93076529D03*
X141890230Y-92510844D03*
X142455916Y-91945158D03*
X143021601Y-91379473D03*
X143587286Y-90813787D03*
D11*
X142880180Y-90092538D03*
D12*
X174423895Y-95806323D03*
X174423895Y-88821323D03*
D13*
X174423895Y-92313823D03*
D14*
X148783895Y-112963823D03*
X150033895Y-112963823D03*
X151283895Y-112963823D03*
X152533895Y-112963823D03*
X152533895Y-110563823D03*
X151283895Y-110563823D03*
X150033895Y-110563823D03*
X148783895Y-110563823D03*
D15*
X150196395Y-116108823D03*
X150196395Y-117378823D03*
X150196395Y-118648823D03*
X150196395Y-119918823D03*
X157406395Y-119918823D03*
X157406395Y-118648823D03*
X157406395Y-117378823D03*
X157406395Y-116108823D03*
D16*
X99388895Y-115113823D03*
D17*
X99388895Y-115613823D03*
D16*
X99388895Y-116113823D03*
D18*
X100023895Y-116048823D03*
D16*
X100658895Y-116113823D03*
D17*
X100658895Y-115613823D03*
D16*
X100658895Y-115113823D03*
D18*
X100023895Y-115178823D03*
D19*
X115058895Y-102553823D03*
X115058895Y-103573823D03*
D20*
X153769484Y-85924412D03*
X154448306Y-86603234D03*
D21*
X160986395Y-85263823D03*
X160986395Y-86413823D03*
X160986395Y-87563823D03*
X162136395Y-85263823D03*
X162136395Y-86413823D03*
X162136395Y-87563823D03*
X163286395Y-85263823D03*
X163286395Y-86413823D03*
X163286395Y-87563823D03*
D22*
X159698895Y-84663823D03*
X159698895Y-85163823D03*
X159698895Y-85663823D03*
X159698895Y-86163823D03*
X159698895Y-86663823D03*
X159698895Y-87163823D03*
X159698895Y-87663823D03*
X159698895Y-88163823D03*
D23*
X160386395Y-88851323D03*
X160886395Y-88851323D03*
X161386395Y-88851323D03*
X161886395Y-88851323D03*
X162386395Y-88851323D03*
X162886395Y-88851323D03*
X163386395Y-88851323D03*
X163886395Y-88851323D03*
D22*
X164573895Y-88163823D03*
X164573895Y-87663823D03*
X164573895Y-87163823D03*
X164573895Y-86663823D03*
X164573895Y-86163823D03*
X164573895Y-85663823D03*
X164573895Y-85163823D03*
X164573895Y-84663823D03*
D23*
X163886395Y-83976323D03*
X163386395Y-83976323D03*
X162886395Y-83976323D03*
X162386395Y-83976323D03*
X161886395Y-83976323D03*
X161386395Y-83976323D03*
X160886395Y-83976323D03*
X160386395Y-83976323D03*
D24*
X141889210Y-99298227D03*
X142242763Y-99651780D03*
X142596317Y-100005334D03*
X142949870Y-100358887D03*
X143303423Y-100712440D03*
X143656977Y-101065994D03*
X144010530Y-101419547D03*
X144364084Y-101773101D03*
X144717637Y-102126654D03*
X145071190Y-102480207D03*
X145424744Y-102833761D03*
X145778297Y-103187314D03*
X146131850Y-103540868D03*
X146485404Y-103894421D03*
X146838957Y-104247974D03*
X147192511Y-104601528D03*
X147546064Y-104955081D03*
X147899617Y-105308634D03*
X148253171Y-105662188D03*
X148606724Y-106015741D03*
X148960278Y-106369295D03*
X149313831Y-106722848D03*
X149667384Y-107076401D03*
X150020938Y-107429955D03*
X150374491Y-107783508D03*
D25*
X152743299Y-107783508D03*
X153096852Y-107429955D03*
X153450406Y-107076401D03*
X153803959Y-106722848D03*
X154157512Y-106369295D03*
X154511066Y-106015741D03*
X154864619Y-105662188D03*
X155218173Y-105308634D03*
X155571726Y-104955081D03*
X155925279Y-104601528D03*
X156278833Y-104247974D03*
X156632386Y-103894421D03*
X156985940Y-103540868D03*
X157339493Y-103187314D03*
X157693046Y-102833761D03*
X158046600Y-102480207D03*
X158400153Y-102126654D03*
X158753706Y-101773101D03*
X159107260Y-101419547D03*
X159460813Y-101065994D03*
X159814367Y-100712440D03*
X160167920Y-100358887D03*
X160521473Y-100005334D03*
X160875027Y-99651780D03*
X161228580Y-99298227D03*
D24*
X161228580Y-96929419D03*
X160875027Y-96575866D03*
X160521473Y-96222312D03*
X160167920Y-95868759D03*
X159814367Y-95515206D03*
X159460813Y-95161652D03*
X159107260Y-94808099D03*
X158753706Y-94454545D03*
X158400153Y-94100992D03*
X158046600Y-93747439D03*
X157693046Y-93393885D03*
X157339493Y-93040332D03*
X156985940Y-92686778D03*
X156632386Y-92333225D03*
X156278833Y-91979672D03*
X155925279Y-91626118D03*
X155571726Y-91272565D03*
X155218173Y-90919012D03*
X154864619Y-90565458D03*
X154511066Y-90211905D03*
X154157512Y-89858351D03*
X153803959Y-89504798D03*
X153450406Y-89151245D03*
X153096852Y-88797691D03*
X152743299Y-88444138D03*
D25*
X150374491Y-88444138D03*
X150020938Y-88797691D03*
X149667384Y-89151245D03*
X149313831Y-89504798D03*
X148960278Y-89858351D03*
X148606724Y-90211905D03*
X148253171Y-90565458D03*
X147899617Y-90919012D03*
X147546064Y-91272565D03*
X147192511Y-91626118D03*
X146838957Y-91979672D03*
X146485404Y-92333225D03*
X146131850Y-92686778D03*
X145778297Y-93040332D03*
X145424744Y-93393885D03*
X145071190Y-93747439D03*
X144717637Y-94100992D03*
X144364084Y-94454545D03*
X144010530Y-94808099D03*
X143656977Y-95161652D03*
X143303423Y-95515206D03*
X142949870Y-95868759D03*
X142596317Y-96222312D03*
X142242763Y-96575866D03*
X141889210Y-96929419D03*
D26*
X126756863Y-114796359D03*
X126756863Y-114096359D03*
D27*
X127731863Y-115371359D03*
D28*
X127731863Y-114406359D03*
D27*
X127731863Y-113521359D03*
D29*
X131505002Y-108991969D03*
X130805002Y-108991969D03*
D30*
X132080002Y-108016969D03*
D31*
X131115002Y-108016969D03*
D30*
X130230002Y-108016969D03*
D32*
X168723895Y-87563823D03*
X169693895Y-87563823D03*
D33*
X146141253Y-108896181D03*
X146827147Y-108210287D03*
D34*
X167008895Y-84543823D03*
X167008895Y-83583823D03*
D35*
X159558895Y-81813823D03*
X159558895Y-79613823D03*
X157957895Y-79613823D03*
X157957895Y-81813823D03*
D29*
X124308895Y-89556323D03*
X125008895Y-89556323D03*
D30*
X123733895Y-90531323D03*
D31*
X124698895Y-90531323D03*
D30*
X125583895Y-90531323D03*
D36*
X120308895Y-103573823D03*
X120308895Y-102553823D03*
D37*
X103782500Y-99040000D03*
X101657500Y-99040000D03*
D38*
X111288895Y-100313823D03*
X112308895Y-100313823D03*
D39*
X158369519Y-105903199D03*
X157648271Y-106624447D03*
D38*
X105048895Y-117019419D03*
X106068895Y-117019419D03*
D40*
X115318895Y-98813823D03*
X114298895Y-98813823D03*
D41*
X147723611Y-107792645D03*
X147044789Y-107113823D03*
D29*
X120951863Y-109056359D03*
X120251863Y-109056359D03*
D30*
X121526863Y-108081359D03*
D31*
X120561863Y-108081359D03*
D30*
X119676863Y-108081359D03*
D19*
X96358895Y-93903823D03*
X96358895Y-94923823D03*
D29*
X137815002Y-108316969D03*
X138515002Y-108316969D03*
D30*
X137240002Y-109291969D03*
D31*
X138205002Y-109291969D03*
D30*
X139090002Y-109291969D03*
D19*
X136308895Y-102536359D03*
X136308895Y-103556359D03*
D42*
X113578895Y-100313823D03*
X114538895Y-100313823D03*
D43*
X170458895Y-87678823D03*
X170458895Y-88648823D03*
D36*
X144258895Y-82923823D03*
X144258895Y-81903823D03*
X155258895Y-82086323D03*
X155258895Y-81066323D03*
D38*
X106669895Y-88085323D03*
X107689895Y-88085323D03*
D29*
X118183895Y-90156323D03*
X117483895Y-90156323D03*
D30*
X118758895Y-89181323D03*
D31*
X117793895Y-89181323D03*
D30*
X116908895Y-89181323D03*
D38*
X117323895Y-88031323D03*
X118343895Y-88031323D03*
D42*
X168478895Y-92313823D03*
X169438895Y-92313823D03*
D44*
X121058895Y-98313823D03*
X120098895Y-98313823D03*
D45*
X121433895Y-92181323D03*
X121433895Y-92831323D03*
X121433895Y-93481323D03*
X123233895Y-93481323D03*
X123233895Y-92831323D03*
X123233895Y-92181323D03*
D46*
X133696395Y-96763823D03*
X133696395Y-95813823D03*
X133696395Y-94863823D03*
X131421395Y-94863823D03*
X131421395Y-96763823D03*
D47*
X140833590Y-106472402D03*
X142000316Y-107639128D03*
X142884200Y-106755244D03*
X141717474Y-105588518D03*
D34*
X157358895Y-87943823D03*
X157358895Y-86983823D03*
D48*
X99713895Y-97808823D03*
X99713895Y-94508823D03*
D34*
X147358895Y-113243823D03*
X147358895Y-112283823D03*
D49*
X105958895Y-99063823D03*
D50*
X105958895Y-101438823D03*
D40*
X133558895Y-99313823D03*
X132538895Y-99313823D03*
D51*
X143919484Y-85983564D03*
X144598306Y-85304742D03*
D29*
X131243895Y-89546323D03*
X131943895Y-89546323D03*
D30*
X130668895Y-90521323D03*
D31*
X131633895Y-90521323D03*
D30*
X132518895Y-90521323D03*
D34*
X165058895Y-82293823D03*
X165058895Y-81333823D03*
D52*
X167958895Y-87398823D03*
X167958895Y-86428823D03*
D29*
X120633895Y-89531323D03*
X121333895Y-89531323D03*
D30*
X120058895Y-90506323D03*
D31*
X121023895Y-90506323D03*
D30*
X121908895Y-90506323D03*
D52*
X169568895Y-106808823D03*
X169568895Y-105838823D03*
D36*
X109699074Y-103574586D03*
X109699074Y-102554586D03*
D19*
X128433895Y-91911323D03*
X128433895Y-92931323D03*
D32*
X168723895Y-85613823D03*
X169693895Y-85613823D03*
D51*
X140519484Y-96053234D03*
X141198306Y-95374412D03*
D34*
X164158895Y-82293823D03*
X164158895Y-81333823D03*
D53*
X158386436Y-104451537D03*
X159107684Y-105172785D03*
D26*
X115781863Y-114471359D03*
X115781863Y-113771359D03*
D27*
X116756863Y-115046359D03*
D28*
X116756863Y-114081359D03*
D27*
X116756863Y-113196359D03*
D44*
X158828895Y-78273823D03*
X157868895Y-78273823D03*
X158238895Y-84063823D03*
X157278895Y-84063823D03*
D29*
X128858895Y-90196323D03*
X128158895Y-90196323D03*
D30*
X129433895Y-89221323D03*
D31*
X128468895Y-89221323D03*
D30*
X127583895Y-89221323D03*
D19*
X114558895Y-95053823D03*
X114558895Y-96073823D03*
D54*
X165743335Y-103376942D03*
X165389781Y-103730496D03*
X165036228Y-104084049D03*
X164682674Y-104437602D03*
X164329121Y-104791156D03*
X163975568Y-105144709D03*
X163622014Y-105498263D03*
D55*
X162504786Y-104967932D03*
D56*
X161974455Y-103850704D03*
X162328009Y-103497150D03*
X162681562Y-103143597D03*
X163035116Y-102790044D03*
X163388669Y-102436490D03*
X163742222Y-102082937D03*
X164095776Y-101729383D03*
D57*
X165213004Y-102259714D03*
D38*
X105048895Y-116019419D03*
X106068895Y-116019419D03*
D58*
X163908895Y-90733823D03*
X163908895Y-91693823D03*
D59*
X156948271Y-105924447D03*
X157669519Y-105203199D03*
D29*
X97608895Y-97038823D03*
X96908895Y-97038823D03*
D30*
X98183895Y-96063823D03*
D31*
X97218895Y-96063823D03*
D30*
X96333895Y-96063823D03*
D60*
X111171395Y-101613823D03*
X111171395Y-102563823D03*
X111171395Y-103513823D03*
X113446395Y-103513823D03*
X113446395Y-101613823D03*
D36*
X109058895Y-96073823D03*
X109058895Y-95053823D03*
D19*
X128808895Y-94821323D03*
X128808895Y-95841323D03*
D61*
X159797512Y-104519748D03*
X159076264Y-103798500D03*
D40*
X123068895Y-99313823D03*
X122048895Y-99313823D03*
D32*
X96373895Y-90013823D03*
X97343895Y-90013823D03*
D34*
X168008895Y-84543823D03*
X168008895Y-83583823D03*
X162158895Y-82293823D03*
X162158895Y-81333823D03*
D42*
X169128895Y-84663823D03*
X170088895Y-84663823D03*
D36*
X142258895Y-82923823D03*
X142258895Y-81903823D03*
D43*
X165758895Y-88578823D03*
X165758895Y-89548823D03*
D19*
X112279895Y-89575323D03*
X112279895Y-90595323D03*
X133433895Y-89511323D03*
X133433895Y-90531323D03*
D38*
X135048895Y-97563823D03*
X136068895Y-97563823D03*
D29*
X110301863Y-109006359D03*
X109601863Y-109006359D03*
D30*
X110876863Y-108031359D03*
D31*
X109911863Y-108031359D03*
D30*
X109026863Y-108031359D03*
D19*
X130006863Y-102786359D03*
X130006863Y-103806359D03*
D36*
X137308895Y-103556359D03*
X137308895Y-102536359D03*
D58*
X161908895Y-90738823D03*
X161908895Y-91698823D03*
D38*
X132538895Y-100313823D03*
X133558895Y-100313823D03*
D58*
X166558895Y-90433823D03*
X166558895Y-91393823D03*
D62*
X162598306Y-100174412D03*
X161919484Y-100853234D03*
D19*
X101413895Y-94648823D03*
X101413895Y-95668823D03*
D38*
X127923895Y-88121323D03*
X128943895Y-88121323D03*
D19*
X96258895Y-91003823D03*
X96258895Y-92023823D03*
D43*
X104096395Y-115078823D03*
X104096395Y-116048823D03*
D40*
X125828895Y-98563823D03*
X124808895Y-98563823D03*
D36*
X127808895Y-95841323D03*
X127808895Y-94821323D03*
D51*
X142519484Y-87353234D03*
X143198306Y-86674412D03*
D62*
X146123611Y-107513823D03*
X145444789Y-108192645D03*
D38*
X124808895Y-97563823D03*
X125828895Y-97563823D03*
X122048895Y-100313823D03*
X123068895Y-100313823D03*
D36*
X143248895Y-82923823D03*
X143248895Y-81903823D03*
D42*
X134828895Y-100313823D03*
X135788895Y-100313823D03*
D40*
X136068895Y-98563823D03*
X135048895Y-98563823D03*
D45*
X113076863Y-106481359D03*
X113076863Y-105831359D03*
X113076863Y-105181359D03*
X111276863Y-105181359D03*
X111276863Y-105831359D03*
X111276863Y-106481359D03*
D62*
X141023611Y-104265833D03*
X140344789Y-104944655D03*
D36*
X138115002Y-106826969D03*
X138115002Y-105806969D03*
D29*
X124716863Y-109056359D03*
X124016863Y-109056359D03*
D30*
X125291863Y-108081359D03*
D31*
X124326863Y-108081359D03*
D30*
X123441863Y-108081359D03*
D32*
X167723895Y-89363823D03*
X168693895Y-89363823D03*
D26*
X128738895Y-84406323D03*
X128738895Y-85106323D03*
D27*
X127763895Y-83831323D03*
D28*
X127763895Y-84796323D03*
D27*
X127763895Y-85681323D03*
D19*
X138308895Y-102526359D03*
X138308895Y-103546359D03*
D43*
X169458895Y-90243823D03*
X169458895Y-91213823D03*
D63*
X160058895Y-119113823D03*
D64*
X161158895Y-119113823D03*
X162258895Y-119113823D03*
X163358895Y-119113823D03*
X164458895Y-119113823D03*
X165558895Y-119113823D03*
X166658895Y-119113823D03*
X167758895Y-119113823D03*
D63*
X168858895Y-119113823D03*
X168858895Y-109613823D03*
D64*
X167758895Y-109613823D03*
X166658895Y-109613823D03*
X165558895Y-109613823D03*
X164458895Y-109613823D03*
X163358895Y-109613823D03*
X162258895Y-109613823D03*
X161158895Y-109613823D03*
D63*
X160058895Y-109613823D03*
D36*
X116676863Y-106641359D03*
X116676863Y-105621359D03*
D40*
X127976863Y-110531359D03*
X126956863Y-110531359D03*
D38*
X97348895Y-113113823D03*
X98368895Y-113113823D03*
D45*
X132033895Y-92071323D03*
X132033895Y-92721323D03*
X132033895Y-93371323D03*
X133833895Y-93371323D03*
X133833895Y-92721323D03*
X133833895Y-92071323D03*
D36*
X126031697Y-95687963D03*
X126031697Y-94667963D03*
D19*
X119308895Y-102553823D03*
X119308895Y-103573823D03*
X100758895Y-113003823D03*
X100758895Y-114023823D03*
D36*
X119558895Y-95943823D03*
X119558895Y-94923823D03*
X156258895Y-82088823D03*
X156258895Y-81068823D03*
D32*
X164073895Y-96813823D03*
X165043895Y-96813823D03*
D45*
X134415002Y-106466969D03*
X134415002Y-105816969D03*
X134415002Y-105166969D03*
X132615002Y-105166969D03*
X132615002Y-105816969D03*
X132615002Y-106466969D03*
D34*
X101413895Y-97538823D03*
X101413895Y-96578823D03*
D65*
X94490000Y-89232000D03*
X94490000Y-89982000D03*
D66*
X94490000Y-91082000D03*
X94490000Y-91582000D03*
X94490000Y-92582000D03*
X94490000Y-93582000D03*
D65*
X94490000Y-94682000D03*
X94490000Y-95432000D03*
X94490000Y-95432000D03*
X94490000Y-94682000D03*
D66*
X94490000Y-94082000D03*
X94490000Y-93082000D03*
X94490000Y-92082000D03*
X94490000Y-90582000D03*
D65*
X94490000Y-89982000D03*
X94490000Y-89232000D03*
D67*
X90290000Y-93732000D03*
X90290000Y-90932000D03*
D60*
X121921395Y-101613823D03*
X121921395Y-102563823D03*
X121921395Y-103513823D03*
X124196395Y-103513823D03*
X124196395Y-101613823D03*
D38*
X97358895Y-114113823D03*
X98378895Y-114113823D03*
D40*
X107668895Y-80063823D03*
X106648895Y-80063823D03*
D68*
X145730126Y-89376044D03*
X146083679Y-89022491D03*
X146437233Y-88668937D03*
X146790786Y-88315384D03*
D69*
X146790786Y-87572922D03*
X146437233Y-87219369D03*
X146083679Y-86865815D03*
X145730126Y-86512262D03*
D68*
X144987664Y-86512262D03*
X144634111Y-86865815D03*
X144280557Y-87219369D03*
X143927004Y-87572922D03*
D69*
X143927004Y-88315384D03*
X144280557Y-88668937D03*
X144634111Y-89022491D03*
X144987664Y-89376044D03*
D40*
X138625002Y-110416969D03*
X137605002Y-110416969D03*
D62*
X154798306Y-108074412D03*
X154119484Y-108753234D03*
D34*
X98323895Y-116083823D03*
X98323895Y-115123823D03*
D51*
X143244789Y-108544655D03*
X143923611Y-107865833D03*
D29*
X113789895Y-89510323D03*
X114489895Y-89510323D03*
D30*
X113214895Y-90485323D03*
D31*
X114179895Y-90485323D03*
D30*
X115064895Y-90485323D03*
D58*
X157358895Y-85083823D03*
X157358895Y-86043823D03*
D42*
X124328895Y-100313823D03*
X125288895Y-100313823D03*
D58*
X166708895Y-88583823D03*
X166708895Y-89543823D03*
D38*
X164048895Y-97813823D03*
X165068895Y-97813823D03*
D19*
X135263895Y-94821323D03*
X135263895Y-95841323D03*
D70*
X103658895Y-102663823D03*
X103658895Y-100763823D03*
D32*
X170523895Y-91863823D03*
X171493895Y-91863823D03*
D45*
X123726863Y-106331359D03*
X123726863Y-105681359D03*
X123726863Y-105031359D03*
X121926863Y-105031359D03*
X121926863Y-105681359D03*
X121926863Y-106331359D03*
D20*
X165850589Y-104820589D03*
X166529411Y-105499411D03*
D51*
X162519484Y-101753234D03*
X163198306Y-101074412D03*
D29*
X107579895Y-90185323D03*
X106879895Y-90185323D03*
D30*
X108154895Y-89210323D03*
D31*
X107189895Y-89210323D03*
D30*
X106304895Y-89210323D03*
D19*
X162908895Y-90703823D03*
X162908895Y-91723823D03*
D41*
X143998306Y-103753234D03*
X143319484Y-103074412D03*
D29*
X127126863Y-108381359D03*
X127826863Y-108381359D03*
D30*
X126551863Y-109356359D03*
D31*
X127516863Y-109356359D03*
D30*
X128401863Y-109356359D03*
D26*
X118988895Y-84831323D03*
X118988895Y-85531323D03*
D27*
X118013895Y-84256323D03*
D28*
X118013895Y-85221323D03*
D27*
X118013895Y-86106323D03*
D19*
X118558895Y-94923823D03*
X118558895Y-95943823D03*
X165558895Y-90503823D03*
X165558895Y-91523823D03*
D44*
X168558895Y-104813823D03*
X167598895Y-104813823D03*
D40*
X112308895Y-99313823D03*
X111288895Y-99313823D03*
D62*
X141398306Y-88274412D03*
X140719484Y-88953234D03*
D19*
X117833895Y-91821323D03*
X117833895Y-92841323D03*
D34*
X166058895Y-84543823D03*
X166058895Y-83583823D03*
D36*
X136263895Y-95841323D03*
X136263895Y-94821323D03*
X117558895Y-95943823D03*
X117558895Y-94923823D03*
D40*
X107668895Y-81063823D03*
X106648895Y-81063823D03*
D38*
X114298895Y-97813823D03*
X115318895Y-97813823D03*
D29*
X134983895Y-89496323D03*
X135683895Y-89496323D03*
D30*
X134408895Y-90471323D03*
D31*
X135373895Y-90471323D03*
D30*
X136258895Y-90471323D03*
D13*
X174423895Y-106813823D03*
D12*
X174423895Y-103321323D03*
X174423895Y-110306323D03*
D44*
X110538895Y-98313823D03*
X109578895Y-98313823D03*
D48*
X106158895Y-108963823D03*
X106158895Y-105663823D03*
D19*
X125808895Y-102536359D03*
X125808895Y-103556359D03*
D71*
X143958895Y-77763823D03*
X142558895Y-77763823D03*
X142558895Y-80263823D03*
X143958895Y-80263823D03*
D58*
X169458895Y-88563823D03*
X169458895Y-89523823D03*
D46*
X100496395Y-93263823D03*
X100496395Y-92313823D03*
X100496395Y-91363823D03*
X98221395Y-91363823D03*
X98221395Y-92313823D03*
X98221395Y-93263823D03*
D42*
X98278895Y-90013823D03*
X99238895Y-90013823D03*
D29*
X113976863Y-109006359D03*
X113276863Y-109006359D03*
D30*
X114551863Y-108031359D03*
D31*
X113586863Y-108031359D03*
D30*
X112701863Y-108031359D03*
D42*
X168728895Y-86613823D03*
X169688895Y-86613823D03*
D45*
X110979895Y-92235323D03*
X110979895Y-92885323D03*
X110979895Y-93535323D03*
X112779895Y-93535323D03*
X112779895Y-92885323D03*
X112779895Y-92235323D03*
D44*
X131288895Y-98063823D03*
X130328895Y-98063823D03*
D19*
X169558895Y-103803823D03*
X169558895Y-104823823D03*
D36*
X131006863Y-103806359D03*
X131006863Y-102786359D03*
D40*
X117286863Y-110431359D03*
X116266863Y-110431359D03*
D19*
X97323895Y-115093823D03*
X97323895Y-116113823D03*
D62*
X145223611Y-105415833D03*
X144544789Y-106094655D03*
D51*
X138219484Y-91453234D03*
X138898306Y-90774412D03*
D42*
X170528895Y-92863823D03*
X171488895Y-92863823D03*
D29*
X110089895Y-89510323D03*
X110789895Y-89510323D03*
D30*
X109514895Y-90485323D03*
D31*
X110479895Y-90485323D03*
D30*
X111364895Y-90485323D03*
D19*
X122833895Y-89421323D03*
X122833895Y-90441323D03*
D72*
X94033895Y-113163823D03*
X94033895Y-113813823D03*
X94033895Y-114463823D03*
D73*
X94958895Y-114280323D03*
D72*
X95883895Y-114463823D03*
X95883895Y-113813823D03*
D73*
X94958895Y-113347323D03*
D72*
X95883895Y-113163823D03*
D36*
X111776863Y-109041359D03*
X111776863Y-108021359D03*
D19*
X106158895Y-103603823D03*
X106158895Y-104623823D03*
D43*
X155258895Y-79191323D03*
X155258895Y-80161323D03*
D36*
X115558895Y-96073823D03*
X115558895Y-95053823D03*
D60*
X132421395Y-101613823D03*
X132421395Y-102563823D03*
X132421395Y-103513823D03*
X134696395Y-103513823D03*
X134696395Y-101613823D03*
D42*
X167728895Y-90313823D03*
X168688895Y-90313823D03*
D19*
X107179895Y-91875323D03*
X107179895Y-92895323D03*
D46*
X112946395Y-97013823D03*
X112946395Y-96063823D03*
X112946395Y-95113823D03*
X110671395Y-95113823D03*
X110671395Y-97013823D03*
D36*
X107078895Y-96073823D03*
X107078895Y-95053823D03*
D20*
X153319484Y-86824412D03*
X153998306Y-87503234D03*
D36*
X122476863Y-109091359D03*
X122476863Y-108071359D03*
D19*
X127808895Y-102536359D03*
X127808895Y-103556359D03*
D42*
X167578895Y-91313823D03*
X168538895Y-91313823D03*
D51*
X146844789Y-109592645D03*
X147523611Y-108913823D03*
D46*
X123446395Y-97013823D03*
X123446395Y-96063823D03*
X123446395Y-95113823D03*
X121171395Y-95113823D03*
X121171395Y-97013823D03*
D19*
X108699074Y-102554586D03*
X108699074Y-103574586D03*
D43*
X156258878Y-79183776D03*
X156258878Y-80153776D03*
D26*
X138181863Y-112896359D03*
X138181863Y-112196359D03*
D27*
X139156863Y-113471359D03*
D28*
X139156863Y-112506359D03*
D27*
X139156863Y-111621359D03*
D36*
X126808895Y-103556359D03*
X126808895Y-102536359D03*
D58*
X167558895Y-92083823D03*
X167558895Y-93043823D03*
D19*
X125031697Y-94667963D03*
X125031697Y-95687963D03*
D36*
X133115002Y-109026969D03*
X133115002Y-108006969D03*
D19*
X117058895Y-102553823D03*
X117058895Y-103573823D03*
X108058895Y-95053823D03*
X108058895Y-96073823D03*
D36*
X116058895Y-103573823D03*
X116058895Y-102553823D03*
D34*
X163158895Y-82293823D03*
X163158895Y-81333823D03*
D26*
X108838895Y-84481323D03*
X108838895Y-85181323D03*
D27*
X107863895Y-83906323D03*
D28*
X107863895Y-84871323D03*
D27*
X107863895Y-85756323D03*
D29*
X116476863Y-108331359D03*
X117176863Y-108331359D03*
D30*
X115901863Y-109306359D03*
D31*
X116866863Y-109306359D03*
D30*
X117751863Y-109306359D03*
D62*
X142223611Y-102665833D03*
X141544789Y-103344655D03*
D36*
X129808895Y-95841323D03*
X129808895Y-94821323D03*
D29*
X135315002Y-108991969D03*
X134615002Y-108991969D03*
D30*
X135890002Y-108016969D03*
D31*
X134925002Y-108016969D03*
D30*
X134040002Y-108016969D03*
D36*
X127426863Y-106741359D03*
X127426863Y-105721359D03*
D42*
X157918895Y-83093823D03*
X158878895Y-83093823D03*
M02*
