M48
; DRILL file {KiCad 8.0.3} date 2024-07-31T22:40:00+0200
; FORMAT={-:-/ absolute / metric / decimal}
; #@! TF.CreationDate,2024-07-31T22:40:00+02:00
; #@! TF.GenerationSoftware,Kicad,Pcbnew,8.0.3
; #@! TF.FileFunction,Plated,1,6,PTH
FMAT,2
METRIC
; #@! TA.AperFunction,Plated,PTH,ViaDrill
T1C0.200
; #@! TA.AperFunction,Plated,PTH,ViaDrill
T2C0.300
; #@! TA.AperFunction,Plated,PTH,ComponentDrill
T3C0.460
; #@! TA.AperFunction,Plated,PTH,ViaDrill
T4C0.600
; #@! TA.AperFunction,Plated,PTH,ComponentDrill
T5C0.600
; #@! TA.AperFunction,Plated,PTH,ComponentDrill
T6C0.800
; #@! TA.AperFunction,Plated,PTH,ComponentDrill
T7C1.000
; #@! TA.AperFunction,Plated,PTH,ComponentDrill
T8C1.200
; #@! TA.AperFunction,Plated,PTH,ComponentDrill
T9C3.200
%
G90
G05
T1
X91.14Y-114.314
X92.509Y-111.964
X92.659Y-102.414
X92.868Y-92.414
X93.659Y-101.114
X93.759Y-105.184
X94.059Y-113.802
X95.359Y-89.214
X95.459Y-95.514
X95.524Y-111.289
X95.64Y-91.531
X95.659Y-99.114
X96.259Y-88.314
X96.374Y-90.014
X96.389Y-105.184
X96.459Y-99.914
X96.583Y-115.114
X97.059Y-120.564
X97.077Y-91.382
X97.219Y-96.064
X97.259Y-97.039
X97.349Y-113.114
X98.221Y-92.314
X99.459Y-92.314
X99.959Y-90.014
X100.059Y-116.814
X100.259Y-111.114
X100.614Y-96.159
X100.659Y-115.039
X101.559Y-113.214
X102.359Y-95.914
X102.559Y-114.364
X102.684Y-118.414
X103.259Y-93.914
X103.433Y-113.364
X104.059Y-96.714
X104.209Y-92.764
X104.209Y-95.014
X104.259Y-90.914
X104.27Y-97.78
X104.435Y-91.642
X104.859Y-112.514
X105.159Y-93.914
X105.209Y-95.914
X105.309Y-89.314
X105.459Y-115.171
X105.464Y-102.909
X105.859Y-91.614
X106.659Y-88.082
X106.696Y-111.005
X106.759Y-113.514
X107.079Y-95.054
X107.264Y-85.331
X108.059Y-97.064
X108.155Y-89.21
X108.172Y-92.928
X108.699Y-101.815
X109.059Y-96.814
X109.059Y-97.814
X109.515Y-90.485
X109.699Y-101.815
X110.539Y-98.314
X110.877Y-108.031
X111.026Y-84.986
X111.531Y-92.885
X111.555Y-105.832
X111.559Y-98.314
X111.68Y-91.785
X111.709Y-107.271
X112.309Y-102.564
X112.357Y-105.832
X112.377Y-106.931
X112.446Y-92.885
X113.215Y-90.485
X113.309Y-98.314
X113.883Y-91.119
X114.552Y-108.031
X114.559Y-96.814
X114.833Y-113.894
X115.059Y-101.814
X115.559Y-96.814
X115.827Y-105.631
X115.877Y-109.331
X116.559Y-97.814
X116.809Y-94.934
X117.287Y-110.431
X117.309Y-113.564
X117.324Y-88.031
X117.454Y-85.831
X118.292Y-102.581
X118.559Y-96.814
X118.559Y-97.814
X118.759Y-89.181
X118.834Y-92.931
X119.309Y-101.814
X119.559Y-96.684
X119.809Y-100.814
X120.059Y-90.506
X120.309Y-101.814
X120.809Y-100.314
X121.424Y-85.181
X121.527Y-108.081
X122.014Y-92.831
X122.205Y-105.682
X122.217Y-91.628
X122.501Y-107.146
X123.059Y-102.564
X123.134Y-92.831
X123.257Y-105.682
X123.449Y-106.962
X123.734Y-90.531
X124.196Y-101.614
X124.308Y-91.112
X125.032Y-96.428
X125.292Y-108.081
X125.809Y-101.796
X126.007Y-114.296
X126.031Y-100.314
X126.032Y-96.428
X126.477Y-109.356
X126.551Y-105.631
X126.809Y-101.796
X127.059Y-85.314
X127.309Y-97.064
X127.924Y-88.121
X127.977Y-110.531
X128.309Y-113.814
X128.809Y-95.841
X129.007Y-103.796
X129.264Y-86.581
X129.426Y-92.921
X129.434Y-89.221
X129.809Y-96.581
X129.809Y-97.564
X130.007Y-102.046
X130.514Y-84.031
X130.559Y-100.814
X130.708Y-90.521
X131.007Y-102.046
X131.559Y-100.314
X132.08Y-108.017
X132.559Y-95.814
X132.614Y-92.723
X132.776Y-91.563
X132.815Y-105.817
X132.97Y-107.282
X133.559Y-102.564
X133.662Y-106.996
X133.727Y-92.721
X133.907Y-105.817
X134.059Y-81.814
X134.457Y-90.421
X134.696Y-101.614
X135.264Y-96.581
X135.89Y-108.017
X136.264Y-96.581
X136.309Y-101.796
X136.507Y-116.046
X136.507Y-117.546
X136.559Y-100.314
X136.652Y-84.943
X137.007Y-112.796
X137.118Y-105.614
X137.24Y-109.292
X137.309Y-97.064
X137.809Y-81.064
X138.059Y-80.064
X138.559Y-101.814
X138.625Y-110.417
X138.809Y-100.796
X138.873Y-93.477
X139.059Y-103.546
X139.309Y-107.314
X139.359Y-90.314
X139.684Y-88.189
X139.757Y-112.046
X139.859Y-95.414
X140.159Y-89.514
X140.309Y-103.022
X140.309Y-108.064
X140.359Y-94.614
X140.459Y-103.814
X140.509Y-113.314
X140.559Y-109.564
X140.759Y-87.814
X140.759Y-92.214
X141.05Y-102.765
X141.359Y-108.214
X141.792Y-91.281
X141.959Y-86.814
X141.959Y-104.014
X142.259Y-82.924
X142.559Y-110.763
X142.659Y-86.214
X142.68Y-103.714
X142.759Y-88.914
X143.09Y-93.782
X143.169Y-88.003
X143.249Y-82.924
X143.359Y-104.393
X143.559Y-111.564
X143.763Y-97.565
X143.809Y-109.314
X143.926Y-92.708
X143.959Y-78.714
X144.165Y-99.22
X144.259Y-82.924
X144.459Y-91.514
X144.602Y-85.301
X144.809Y-77.764
X144.959Y-98.588
X144.959Y-106.614
X144.959Y-108.614
X145.259Y-87.444
X145.359Y-95.45
X145.559Y-88.444
X145.559Y-109.514
X145.563Y-106.131
X145.608Y-99.014
X146.162Y-87.999
X146.208Y-95.314
X146.259Y-110.114
X146.301Y-106.472
X146.559Y-112.314
X146.559Y-113.214
X146.659Y-90.137
X146.659Y-105.814
X146.672Y-94.422
X147.045Y-107.114
X147.203Y-102.814
X147.344Y-88.988
X147.777Y-101.565
X147.886Y-88.44
X148.059Y-95.414
X148.592Y-88.188
X148.759Y-94.614
X148.809Y-91.814
X148.959Y-118.664
X148.959Y-119.914
X149.309Y-102.873
X149.408Y-108.684
X149.498Y-112.964
X149.559Y-98.89
X149.559Y-104.814
X149.703Y-91.92
X149.759Y-97.864
X149.809Y-101.564
X149.959Y-95.014
X150.059Y-96.407
X150.259Y-116.114
X150.484Y-101.064
X150.709Y-83.604
X150.809Y-99.564
X151.309Y-100.314
X151.424Y-118.649
X151.459Y-119.914
X151.868Y-103.505
X152.25Y-94.75
X152.417Y-105.364
X152.534Y-110.564
X152.534Y-112.964
X152.559Y-116.519
X152.609Y-108.171
X152.809Y-85.814
X152.958Y-90.913
X153.059Y-98.064
X153.559Y-94.114
X153.559Y-94.914
X153.559Y-91.514
X153.809Y-96.314
X153.859Y-117.094
X154.135Y-108.75
X154.509Y-88.014
X154.559Y-94.114
X154.659Y-93.314
X155.0Y-96.5
X155.259Y-78.426
X155.329Y-92.979
X155.659Y-115.264
X155.815Y-89.612
X156.159Y-116.114
X156.159Y-117.364
X156.259Y-78.379
X156.409Y-112.964
X156.459Y-113.964
X156.559Y-85.064
X156.559Y-86.064
X156.559Y-96.314
X156.633Y-86.964
X156.683Y-99.361
X156.75Y-98.314
X157.059Y-83.214
X157.254Y-96.943
X157.309Y-112.664
X157.406Y-119.919
X157.559Y-111.414
X157.701Y-100.0
X157.958Y-81.814
X158.059Y-95.564
X158.159Y-86.114
X158.187Y-107.872
X158.203Y-87.058
X158.209Y-91.214
X158.233Y-97.738
X158.345Y-84.91
X158.624Y-117.379
X158.659Y-116.114
X158.704Y-85.568
X159.059Y-84.214
X159.25Y-98.5
X159.309Y-119.014
X159.409Y-111.414
X159.559Y-78.214
X159.559Y-106.065
X159.68Y-90.151
X159.859Y-83.914
X160.059Y-97.814
X160.059Y-117.914
X160.059Y-120.364
X160.333Y-102.495
X160.459Y-79.614
X160.629Y-91.021
X160.853Y-105.22
X160.946Y-102.927
X161.059Y-115.264
X161.158Y-101.515
X161.459Y-93.064
X161.683Y-95.064
X161.78Y-102.7
X161.909Y-89.939
X161.919Y-100.853
X162.159Y-80.514
X162.519Y-101.753
X162.598Y-100.174
X162.659Y-83.014
X162.909Y-92.464
X163.059Y-98.564
X163.111Y-104.266
X163.159Y-80.514
X163.559Y-95.564
X163.659Y-100.614
X163.859Y-92.414
X164.058Y-101.515
X164.159Y-80.514
X164.159Y-103.914
X164.159Y-105.814
X164.209Y-120.614
X164.259Y-117.514
X164.284Y-83.214
X164.459Y-107.814
X164.809Y-91.064
X165.059Y-80.514
X165.284Y-105.514
X165.349Y-100.874
X165.559Y-119.114
X165.629Y-114.284
X165.659Y-115.244
X166.51Y-85.563
X166.559Y-92.214
X166.659Y-108.414
X166.659Y-110.789
X166.659Y-117.764
X166.759Y-120.364
X166.959Y-82.814
X167.309Y-99.564
X167.559Y-93.714
X167.57Y-105.79
X167.759Y-117.764
X167.759Y-120.264
X167.809Y-113.864
X168.0Y-103.0
X168.059Y-82.814
X168.059Y-102.114
X168.659Y-115.714
X168.709Y-112.464
X168.759Y-83.614
X168.759Y-103.814
X168.859Y-108.414
X168.859Y-110.789
X168.859Y-119.114
X168.959Y-97.614
X169.609Y-109.439
X169.959Y-100.814
X169.959Y-101.814
X170.309Y-86.139
T2
X88.25Y-112.75
X88.5Y-110.0
X88.75Y-114.75
X89.54Y-109.45
X90.22Y-113.289
X97.25Y-85.07
X98.5Y-84.75
X99.83Y-82.85
X101.96Y-83.66
X103.359Y-107.814
X106.0Y-82.75
X113.579Y-100.314
X115.309Y-100.314
X116.809Y-100.314
X154.798Y-108.074
X161.259Y-85.614
X161.259Y-87.214
X162.859Y-85.614
X162.959Y-87.214
X166.032Y-97.841
X166.059Y-95.614
T3
X171.439Y-88.821
X171.439Y-95.806
X171.439Y-103.321
X171.439Y-110.306
T4
X105.196Y-109.526
X109.277Y-105.731
X109.814Y-87.426
X111.365Y-90.735
X113.367Y-107.604
X114.257Y-111.321
X114.672Y-92.928
X119.977Y-105.631
X120.214Y-87.472
X121.534Y-90.831
X124.309Y-107.564
X125.057Y-111.521
X125.334Y-92.931
X130.615Y-105.617
X132.034Y-90.821
X134.515Y-107.617
X135.414Y-92.231
X135.657Y-111.471
X135.997Y-83.564
T6
X96.852Y-118.614
X98.859Y-118.614
T7
X101.276Y-100.866
X101.276Y-103.406
X101.276Y-105.946
X139.559Y-78.614
X139.559Y-81.154
X139.559Y-83.694
X139.559Y-86.234
T8
X98.039Y-87.454
X98.331Y-100.664
X98.331Y-103.164
X98.331Y-105.664
X98.331Y-108.164
X100.539Y-87.454
X103.039Y-87.454
X110.007Y-111.806
X112.164Y-86.871
X112.507Y-111.806
X114.664Y-86.871
X120.007Y-111.631
X122.264Y-86.971
X122.507Y-111.631
X124.764Y-86.971
X130.757Y-111.646
X131.914Y-86.901
X133.257Y-111.646
X134.414Y-86.901
X139.209Y-117.094
X139.209Y-119.594
X141.709Y-117.094
X141.709Y-119.594
X144.209Y-117.094
X144.209Y-119.594
X146.709Y-117.094
X146.709Y-119.594
X147.359Y-78.414
X147.359Y-80.914
X149.859Y-78.414
X149.859Y-80.914
X152.359Y-78.414
X152.359Y-80.914
T9
X91.459Y-80.814
X91.459Y-117.814
X173.459Y-80.814
X173.459Y-117.814
T5
X90.94Y-88.012G85X89.64Y-88.012
G05
X90.94Y-96.652G85X89.64Y-96.652
G05
X94.615Y-88.012G85X93.615Y-88.012
G05
X94.615Y-96.652G85X93.615Y-96.652
G05
M30
