%TF.GenerationSoftware,KiCad,Pcbnew,8.0.3*%
%TF.CreationDate,2024-07-31T22:40:02+02:00*%
%TF.ProjectId,hw-tele-stern,68772d74-656c-4652-9d73-7465726e2e6b,rev2 w/ output diodes*%
%TF.SameCoordinates,Original*%
%TF.FileFunction,Drillmap*%
%TF.FilePolarity,Positive*%
%FSLAX45Y45*%
G04 Gerber Fmt 4.5, Leading zero omitted, Abs format (unit mm)*
G04 Created by KiCad (PCBNEW 8.0.3) date 2024-07-31 22:40:02*
%MOMM*%
%LPD*%
G01*
G04 APERTURE LIST*
%ADD10C,0.155000*%
%ADD11C,0.200000*%
%ADD12C,0.100000*%
%ADD13C,0.130000*%
%ADD14C,0.170000*%
G04 APERTURE END LIST*
D10*
X8745890Y-11681382D02*
X8745890Y-8181382D01*
X17245890Y-7681382D02*
G75*
G02*
X17745888Y-8181382I1J-499998D01*
G01*
X8745890Y-8181382D02*
G75*
G02*
X9245890Y-7681379I500001J2D01*
G01*
X17745890Y-8181382D02*
X17745890Y-11681382D01*
X17245890Y-12181382D02*
X9245890Y-12181382D01*
X17745890Y-11681382D02*
G75*
G02*
X17245890Y-12181379I-500000J2D01*
G01*
X9245890Y-12181382D02*
G75*
G02*
X8745888Y-11681382I1J500002D01*
G01*
X9245890Y-7681382D02*
X17245890Y-7681382D01*
D11*
D12*
X9309000Y-8903200D02*
X9369000Y-8963200D01*
X9369000Y-8903200D02*
X9309000Y-8963200D01*
X9309000Y-9503200D02*
X9369000Y-9563200D01*
X9369000Y-9503200D02*
X9309000Y-9563200D01*
X9309000Y-9520700D02*
X9309000Y-9545700D01*
X9369000Y-9545700D02*
G75*
G02*
X9309000Y-9545700I-30000J0D01*
G01*
X9369000Y-9545700D02*
X9369000Y-9520700D01*
X9369000Y-9520700D02*
G75*
G03*
X9309000Y-9520700I-30000J0D01*
G01*
D13*
X14360889Y-11575382D02*
G75*
G02*
X14230889Y-11575382I-65000J0D01*
G01*
X14230889Y-11575382D02*
G75*
G02*
X14360889Y-11575382I65000J0D01*
G01*
X14925889Y-8225382D02*
G75*
G02*
X14795889Y-8225382I-65000J0D01*
G01*
X14795889Y-8225382D02*
G75*
G02*
X14925889Y-8225382I65000J0D01*
G01*
D14*
X9115140Y-9981382D02*
X9115140Y-10151382D01*
X9030140Y-10066382D02*
X9200140Y-10066382D01*
X9115140Y-10731382D02*
X9115140Y-10901382D01*
X9030140Y-10816382D02*
X9200140Y-10816382D01*
X9803890Y-7942382D02*
X9803890Y-8112382D01*
X9718890Y-8027382D02*
X9888890Y-8027382D01*
X10303890Y-7942382D02*
X10303890Y-8112382D01*
X10218890Y-8027382D02*
X10388890Y-8027382D01*
X11000686Y-11813636D02*
X11000686Y-11983636D01*
X10915686Y-11898636D02*
X11085686Y-11898636D01*
X11216389Y-7884132D02*
X11216389Y-8054132D01*
X11131390Y-7969132D02*
X11301389Y-7969132D01*
X11250686Y-11813636D02*
X11250686Y-11983636D01*
X11165686Y-11898636D02*
X11335686Y-11898636D01*
X11466389Y-7884132D02*
X11466389Y-8054132D01*
X11381389Y-7969132D02*
X11551389Y-7969132D01*
X12000686Y-11796136D02*
X12000686Y-11966136D01*
X11915686Y-11881136D02*
X12085686Y-11881136D01*
X12226389Y-7894132D02*
X12226389Y-8064132D01*
X12141389Y-7979132D02*
X12311389Y-7979132D01*
X12250686Y-11796136D02*
X12250686Y-11966136D01*
X12165686Y-11881136D02*
X12335686Y-11881136D01*
X12476389Y-7894132D02*
X12476389Y-8064132D01*
X12391389Y-7979132D02*
X12561389Y-7979132D01*
X13075686Y-11797636D02*
X13075686Y-11967636D01*
X12990686Y-11882636D02*
X13160686Y-11882636D01*
X13191389Y-7887132D02*
X13191389Y-8057132D01*
X13106389Y-7972132D02*
X13276389Y-7972132D01*
X13325686Y-11797636D02*
X13325686Y-11967636D01*
X13240686Y-11882636D02*
X13410686Y-11882636D01*
X13441389Y-7887132D02*
X13441389Y-8057132D01*
X13356389Y-7972132D02*
X13526389Y-7972132D01*
D11*
X8998916Y-12500616D02*
X8998916Y-12300616D01*
X8998916Y-12300616D02*
X9046535Y-12300616D01*
X9046535Y-12300616D02*
X9075107Y-12310140D01*
X9075107Y-12310140D02*
X9094154Y-12329187D01*
X9094154Y-12329187D02*
X9103678Y-12348235D01*
X9103678Y-12348235D02*
X9113202Y-12386330D01*
X9113202Y-12386330D02*
X9113202Y-12414902D01*
X9113202Y-12414902D02*
X9103678Y-12452997D01*
X9103678Y-12452997D02*
X9094154Y-12472045D01*
X9094154Y-12472045D02*
X9075107Y-12491092D01*
X9075107Y-12491092D02*
X9046535Y-12500616D01*
X9046535Y-12500616D02*
X8998916Y-12500616D01*
X9198916Y-12500616D02*
X9198916Y-12367283D01*
X9198916Y-12405378D02*
X9208440Y-12386330D01*
X9208440Y-12386330D02*
X9217964Y-12376806D01*
X9217964Y-12376806D02*
X9237012Y-12367283D01*
X9237012Y-12367283D02*
X9256059Y-12367283D01*
X9322726Y-12500616D02*
X9322726Y-12367283D01*
X9322726Y-12300616D02*
X9313202Y-12310140D01*
X9313202Y-12310140D02*
X9322726Y-12319664D01*
X9322726Y-12319664D02*
X9332250Y-12310140D01*
X9332250Y-12310140D02*
X9322726Y-12300616D01*
X9322726Y-12300616D02*
X9322726Y-12319664D01*
X9446535Y-12500616D02*
X9427488Y-12491092D01*
X9427488Y-12491092D02*
X9417964Y-12472045D01*
X9417964Y-12472045D02*
X9417964Y-12300616D01*
X9551297Y-12500616D02*
X9532250Y-12491092D01*
X9532250Y-12491092D02*
X9522726Y-12472045D01*
X9522726Y-12472045D02*
X9522726Y-12300616D01*
X9779869Y-12500616D02*
X9779869Y-12300616D01*
X9779869Y-12300616D02*
X9846535Y-12443473D01*
X9846535Y-12443473D02*
X9913202Y-12300616D01*
X9913202Y-12300616D02*
X9913202Y-12500616D01*
X10094154Y-12500616D02*
X10094154Y-12395854D01*
X10094154Y-12395854D02*
X10084631Y-12376806D01*
X10084631Y-12376806D02*
X10065583Y-12367283D01*
X10065583Y-12367283D02*
X10027488Y-12367283D01*
X10027488Y-12367283D02*
X10008440Y-12376806D01*
X10094154Y-12491092D02*
X10075107Y-12500616D01*
X10075107Y-12500616D02*
X10027488Y-12500616D01*
X10027488Y-12500616D02*
X10008440Y-12491092D01*
X10008440Y-12491092D02*
X9998916Y-12472045D01*
X9998916Y-12472045D02*
X9998916Y-12452997D01*
X9998916Y-12452997D02*
X10008440Y-12433949D01*
X10008440Y-12433949D02*
X10027488Y-12424426D01*
X10027488Y-12424426D02*
X10075107Y-12424426D01*
X10075107Y-12424426D02*
X10094154Y-12414902D01*
X10189393Y-12367283D02*
X10189393Y-12567283D01*
X10189393Y-12376806D02*
X10208440Y-12367283D01*
X10208440Y-12367283D02*
X10246535Y-12367283D01*
X10246535Y-12367283D02*
X10265583Y-12376806D01*
X10265583Y-12376806D02*
X10275107Y-12386330D01*
X10275107Y-12386330D02*
X10284631Y-12405378D01*
X10284631Y-12405378D02*
X10284631Y-12462521D01*
X10284631Y-12462521D02*
X10275107Y-12481568D01*
X10275107Y-12481568D02*
X10265583Y-12491092D01*
X10265583Y-12491092D02*
X10246535Y-12500616D01*
X10246535Y-12500616D02*
X10208440Y-12500616D01*
X10208440Y-12500616D02*
X10189393Y-12491092D01*
X10370345Y-12481568D02*
X10379869Y-12491092D01*
X10379869Y-12491092D02*
X10370345Y-12500616D01*
X10370345Y-12500616D02*
X10360821Y-12491092D01*
X10360821Y-12491092D02*
X10370345Y-12481568D01*
X10370345Y-12481568D02*
X10370345Y-12500616D01*
X10370345Y-12376806D02*
X10379869Y-12386330D01*
X10379869Y-12386330D02*
X10370345Y-12395854D01*
X10370345Y-12395854D02*
X10360821Y-12386330D01*
X10360821Y-12386330D02*
X10370345Y-12376806D01*
X10370345Y-12376806D02*
X10370345Y-12395854D01*
D12*
X8678140Y-12799132D02*
X8738140Y-12859132D01*
X8738140Y-12799132D02*
X8678140Y-12859132D01*
D11*
X9037012Y-12720616D02*
X9056059Y-12720616D01*
X9056059Y-12720616D02*
X9075107Y-12730140D01*
X9075107Y-12730140D02*
X9084631Y-12739664D01*
X9084631Y-12739664D02*
X9094154Y-12758711D01*
X9094154Y-12758711D02*
X9103678Y-12796806D01*
X9103678Y-12796806D02*
X9103678Y-12844426D01*
X9103678Y-12844426D02*
X9094154Y-12882521D01*
X9094154Y-12882521D02*
X9084631Y-12901568D01*
X9084631Y-12901568D02*
X9075107Y-12911092D01*
X9075107Y-12911092D02*
X9056059Y-12920616D01*
X9056059Y-12920616D02*
X9037012Y-12920616D01*
X9037012Y-12920616D02*
X9017964Y-12911092D01*
X9017964Y-12911092D02*
X9008440Y-12901568D01*
X9008440Y-12901568D02*
X8998916Y-12882521D01*
X8998916Y-12882521D02*
X8989393Y-12844426D01*
X8989393Y-12844426D02*
X8989393Y-12796806D01*
X8989393Y-12796806D02*
X8998916Y-12758711D01*
X8998916Y-12758711D02*
X9008440Y-12739664D01*
X9008440Y-12739664D02*
X9017964Y-12730140D01*
X9017964Y-12730140D02*
X9037012Y-12720616D01*
X9189393Y-12901568D02*
X9198916Y-12911092D01*
X9198916Y-12911092D02*
X9189393Y-12920616D01*
X9189393Y-12920616D02*
X9179869Y-12911092D01*
X9179869Y-12911092D02*
X9189393Y-12901568D01*
X9189393Y-12901568D02*
X9189393Y-12920616D01*
X9370345Y-12720616D02*
X9332250Y-12720616D01*
X9332250Y-12720616D02*
X9313202Y-12730140D01*
X9313202Y-12730140D02*
X9303678Y-12739664D01*
X9303678Y-12739664D02*
X9284631Y-12768235D01*
X9284631Y-12768235D02*
X9275107Y-12806330D01*
X9275107Y-12806330D02*
X9275107Y-12882521D01*
X9275107Y-12882521D02*
X9284631Y-12901568D01*
X9284631Y-12901568D02*
X9294154Y-12911092D01*
X9294154Y-12911092D02*
X9313202Y-12920616D01*
X9313202Y-12920616D02*
X9351297Y-12920616D01*
X9351297Y-12920616D02*
X9370345Y-12911092D01*
X9370345Y-12911092D02*
X9379869Y-12901568D01*
X9379869Y-12901568D02*
X9389393Y-12882521D01*
X9389393Y-12882521D02*
X9389393Y-12834902D01*
X9389393Y-12834902D02*
X9379869Y-12815854D01*
X9379869Y-12815854D02*
X9370345Y-12806330D01*
X9370345Y-12806330D02*
X9351297Y-12796806D01*
X9351297Y-12796806D02*
X9313202Y-12796806D01*
X9313202Y-12796806D02*
X9294154Y-12806330D01*
X9294154Y-12806330D02*
X9284631Y-12815854D01*
X9284631Y-12815854D02*
X9275107Y-12834902D01*
X9513202Y-12720616D02*
X9532250Y-12720616D01*
X9532250Y-12720616D02*
X9551297Y-12730140D01*
X9551297Y-12730140D02*
X9560821Y-12739664D01*
X9560821Y-12739664D02*
X9570345Y-12758711D01*
X9570345Y-12758711D02*
X9579869Y-12796806D01*
X9579869Y-12796806D02*
X9579869Y-12844426D01*
X9579869Y-12844426D02*
X9570345Y-12882521D01*
X9570345Y-12882521D02*
X9560821Y-12901568D01*
X9560821Y-12901568D02*
X9551297Y-12911092D01*
X9551297Y-12911092D02*
X9532250Y-12920616D01*
X9532250Y-12920616D02*
X9513202Y-12920616D01*
X9513202Y-12920616D02*
X9494154Y-12911092D01*
X9494154Y-12911092D02*
X9484631Y-12901568D01*
X9484631Y-12901568D02*
X9475107Y-12882521D01*
X9475107Y-12882521D02*
X9465583Y-12844426D01*
X9465583Y-12844426D02*
X9465583Y-12796806D01*
X9465583Y-12796806D02*
X9475107Y-12758711D01*
X9475107Y-12758711D02*
X9484631Y-12739664D01*
X9484631Y-12739664D02*
X9494154Y-12730140D01*
X9494154Y-12730140D02*
X9513202Y-12720616D01*
X9703678Y-12720616D02*
X9722726Y-12720616D01*
X9722726Y-12720616D02*
X9741774Y-12730140D01*
X9741774Y-12730140D02*
X9751297Y-12739664D01*
X9751297Y-12739664D02*
X9760821Y-12758711D01*
X9760821Y-12758711D02*
X9770345Y-12796806D01*
X9770345Y-12796806D02*
X9770345Y-12844426D01*
X9770345Y-12844426D02*
X9760821Y-12882521D01*
X9760821Y-12882521D02*
X9751297Y-12901568D01*
X9751297Y-12901568D02*
X9741774Y-12911092D01*
X9741774Y-12911092D02*
X9722726Y-12920616D01*
X9722726Y-12920616D02*
X9703678Y-12920616D01*
X9703678Y-12920616D02*
X9684631Y-12911092D01*
X9684631Y-12911092D02*
X9675107Y-12901568D01*
X9675107Y-12901568D02*
X9665583Y-12882521D01*
X9665583Y-12882521D02*
X9656059Y-12844426D01*
X9656059Y-12844426D02*
X9656059Y-12796806D01*
X9656059Y-12796806D02*
X9665583Y-12758711D01*
X9665583Y-12758711D02*
X9675107Y-12739664D01*
X9675107Y-12739664D02*
X9684631Y-12730140D01*
X9684631Y-12730140D02*
X9703678Y-12720616D01*
X9856059Y-12920616D02*
X9856059Y-12787283D01*
X9856059Y-12806330D02*
X9865583Y-12796806D01*
X9865583Y-12796806D02*
X9884631Y-12787283D01*
X9884631Y-12787283D02*
X9913202Y-12787283D01*
X9913202Y-12787283D02*
X9932250Y-12796806D01*
X9932250Y-12796806D02*
X9941774Y-12815854D01*
X9941774Y-12815854D02*
X9941774Y-12920616D01*
X9941774Y-12815854D02*
X9951297Y-12796806D01*
X9951297Y-12796806D02*
X9970345Y-12787283D01*
X9970345Y-12787283D02*
X9998916Y-12787283D01*
X9998916Y-12787283D02*
X10017964Y-12796806D01*
X10017964Y-12796806D02*
X10027488Y-12815854D01*
X10027488Y-12815854D02*
X10027488Y-12920616D01*
X10122726Y-12920616D02*
X10122726Y-12787283D01*
X10122726Y-12806330D02*
X10132250Y-12796806D01*
X10132250Y-12796806D02*
X10151297Y-12787283D01*
X10151297Y-12787283D02*
X10179869Y-12787283D01*
X10179869Y-12787283D02*
X10198916Y-12796806D01*
X10198916Y-12796806D02*
X10208440Y-12815854D01*
X10208440Y-12815854D02*
X10208440Y-12920616D01*
X10208440Y-12815854D02*
X10217964Y-12796806D01*
X10217964Y-12796806D02*
X10237012Y-12787283D01*
X10237012Y-12787283D02*
X10265583Y-12787283D01*
X10265583Y-12787283D02*
X10284631Y-12796806D01*
X10284631Y-12796806D02*
X10294155Y-12815854D01*
X10294155Y-12815854D02*
X10294155Y-12920616D01*
X10684631Y-12711092D02*
X10513202Y-12968235D01*
X10941774Y-12720616D02*
X10960821Y-12720616D01*
X10960821Y-12720616D02*
X10979869Y-12730140D01*
X10979869Y-12730140D02*
X10989393Y-12739664D01*
X10989393Y-12739664D02*
X10998917Y-12758711D01*
X10998917Y-12758711D02*
X11008440Y-12796806D01*
X11008440Y-12796806D02*
X11008440Y-12844426D01*
X11008440Y-12844426D02*
X10998917Y-12882521D01*
X10998917Y-12882521D02*
X10989393Y-12901568D01*
X10989393Y-12901568D02*
X10979869Y-12911092D01*
X10979869Y-12911092D02*
X10960821Y-12920616D01*
X10960821Y-12920616D02*
X10941774Y-12920616D01*
X10941774Y-12920616D02*
X10922726Y-12911092D01*
X10922726Y-12911092D02*
X10913202Y-12901568D01*
X10913202Y-12901568D02*
X10903678Y-12882521D01*
X10903678Y-12882521D02*
X10894155Y-12844426D01*
X10894155Y-12844426D02*
X10894155Y-12796806D01*
X10894155Y-12796806D02*
X10903678Y-12758711D01*
X10903678Y-12758711D02*
X10913202Y-12739664D01*
X10913202Y-12739664D02*
X10922726Y-12730140D01*
X10922726Y-12730140D02*
X10941774Y-12720616D01*
X11094155Y-12901568D02*
X11103678Y-12911092D01*
X11103678Y-12911092D02*
X11094155Y-12920616D01*
X11094155Y-12920616D02*
X11084631Y-12911092D01*
X11084631Y-12911092D02*
X11094155Y-12901568D01*
X11094155Y-12901568D02*
X11094155Y-12920616D01*
X11227488Y-12720616D02*
X11246536Y-12720616D01*
X11246536Y-12720616D02*
X11265583Y-12730140D01*
X11265583Y-12730140D02*
X11275107Y-12739664D01*
X11275107Y-12739664D02*
X11284631Y-12758711D01*
X11284631Y-12758711D02*
X11294155Y-12796806D01*
X11294155Y-12796806D02*
X11294155Y-12844426D01*
X11294155Y-12844426D02*
X11284631Y-12882521D01*
X11284631Y-12882521D02*
X11275107Y-12901568D01*
X11275107Y-12901568D02*
X11265583Y-12911092D01*
X11265583Y-12911092D02*
X11246536Y-12920616D01*
X11246536Y-12920616D02*
X11227488Y-12920616D01*
X11227488Y-12920616D02*
X11208440Y-12911092D01*
X11208440Y-12911092D02*
X11198916Y-12901568D01*
X11198916Y-12901568D02*
X11189393Y-12882521D01*
X11189393Y-12882521D02*
X11179869Y-12844426D01*
X11179869Y-12844426D02*
X11179869Y-12796806D01*
X11179869Y-12796806D02*
X11189393Y-12758711D01*
X11189393Y-12758711D02*
X11198916Y-12739664D01*
X11198916Y-12739664D02*
X11208440Y-12730140D01*
X11208440Y-12730140D02*
X11227488Y-12720616D01*
X11370345Y-12739664D02*
X11379869Y-12730140D01*
X11379869Y-12730140D02*
X11398916Y-12720616D01*
X11398916Y-12720616D02*
X11446536Y-12720616D01*
X11446536Y-12720616D02*
X11465583Y-12730140D01*
X11465583Y-12730140D02*
X11475107Y-12739664D01*
X11475107Y-12739664D02*
X11484631Y-12758711D01*
X11484631Y-12758711D02*
X11484631Y-12777759D01*
X11484631Y-12777759D02*
X11475107Y-12806330D01*
X11475107Y-12806330D02*
X11360821Y-12920616D01*
X11360821Y-12920616D02*
X11484631Y-12920616D01*
X11551297Y-12720616D02*
X11675107Y-12720616D01*
X11675107Y-12720616D02*
X11608440Y-12796806D01*
X11608440Y-12796806D02*
X11637012Y-12796806D01*
X11637012Y-12796806D02*
X11656059Y-12806330D01*
X11656059Y-12806330D02*
X11665583Y-12815854D01*
X11665583Y-12815854D02*
X11675107Y-12834902D01*
X11675107Y-12834902D02*
X11675107Y-12882521D01*
X11675107Y-12882521D02*
X11665583Y-12901568D01*
X11665583Y-12901568D02*
X11656059Y-12911092D01*
X11656059Y-12911092D02*
X11637012Y-12920616D01*
X11637012Y-12920616D02*
X11579869Y-12920616D01*
X11579869Y-12920616D02*
X11560821Y-12911092D01*
X11560821Y-12911092D02*
X11551297Y-12901568D01*
X11846536Y-12720616D02*
X11808440Y-12720616D01*
X11808440Y-12720616D02*
X11789393Y-12730140D01*
X11789393Y-12730140D02*
X11779869Y-12739664D01*
X11779869Y-12739664D02*
X11760821Y-12768235D01*
X11760821Y-12768235D02*
X11751297Y-12806330D01*
X11751297Y-12806330D02*
X11751297Y-12882521D01*
X11751297Y-12882521D02*
X11760821Y-12901568D01*
X11760821Y-12901568D02*
X11770345Y-12911092D01*
X11770345Y-12911092D02*
X11789393Y-12920616D01*
X11789393Y-12920616D02*
X11827488Y-12920616D01*
X11827488Y-12920616D02*
X11846536Y-12911092D01*
X11846536Y-12911092D02*
X11856059Y-12901568D01*
X11856059Y-12901568D02*
X11865583Y-12882521D01*
X11865583Y-12882521D02*
X11865583Y-12834902D01*
X11865583Y-12834902D02*
X11856059Y-12815854D01*
X11856059Y-12815854D02*
X11846536Y-12806330D01*
X11846536Y-12806330D02*
X11827488Y-12796806D01*
X11827488Y-12796806D02*
X11789393Y-12796806D01*
X11789393Y-12796806D02*
X11770345Y-12806330D01*
X11770345Y-12806330D02*
X11760821Y-12815854D01*
X11760821Y-12815854D02*
X11751297Y-12834902D01*
X11941774Y-12720616D02*
X11941774Y-12758711D01*
X12017964Y-12720616D02*
X12017964Y-12758711D01*
X12313202Y-12996806D02*
X12303678Y-12987283D01*
X12303678Y-12987283D02*
X12284631Y-12958711D01*
X12284631Y-12958711D02*
X12275107Y-12939664D01*
X12275107Y-12939664D02*
X12265583Y-12911092D01*
X12265583Y-12911092D02*
X12256059Y-12863473D01*
X12256059Y-12863473D02*
X12256059Y-12825378D01*
X12256059Y-12825378D02*
X12265583Y-12777759D01*
X12265583Y-12777759D02*
X12275107Y-12749187D01*
X12275107Y-12749187D02*
X12284631Y-12730140D01*
X12284631Y-12730140D02*
X12303678Y-12701568D01*
X12303678Y-12701568D02*
X12313202Y-12692045D01*
X12494155Y-12920616D02*
X12379869Y-12920616D01*
X12437012Y-12920616D02*
X12437012Y-12720616D01*
X12437012Y-12720616D02*
X12417964Y-12749187D01*
X12417964Y-12749187D02*
X12398917Y-12768235D01*
X12398917Y-12768235D02*
X12379869Y-12777759D01*
X12732250Y-12920616D02*
X12732250Y-12720616D01*
X12817964Y-12920616D02*
X12817964Y-12815854D01*
X12817964Y-12815854D02*
X12808440Y-12796806D01*
X12808440Y-12796806D02*
X12789393Y-12787283D01*
X12789393Y-12787283D02*
X12760821Y-12787283D01*
X12760821Y-12787283D02*
X12741774Y-12796806D01*
X12741774Y-12796806D02*
X12732250Y-12806330D01*
X12941774Y-12920616D02*
X12922726Y-12911092D01*
X12922726Y-12911092D02*
X12913202Y-12901568D01*
X12913202Y-12901568D02*
X12903679Y-12882521D01*
X12903679Y-12882521D02*
X12903679Y-12825378D01*
X12903679Y-12825378D02*
X12913202Y-12806330D01*
X12913202Y-12806330D02*
X12922726Y-12796806D01*
X12922726Y-12796806D02*
X12941774Y-12787283D01*
X12941774Y-12787283D02*
X12970345Y-12787283D01*
X12970345Y-12787283D02*
X12989393Y-12796806D01*
X12989393Y-12796806D02*
X12998917Y-12806330D01*
X12998917Y-12806330D02*
X13008440Y-12825378D01*
X13008440Y-12825378D02*
X13008440Y-12882521D01*
X13008440Y-12882521D02*
X12998917Y-12901568D01*
X12998917Y-12901568D02*
X12989393Y-12911092D01*
X12989393Y-12911092D02*
X12970345Y-12920616D01*
X12970345Y-12920616D02*
X12941774Y-12920616D01*
X13122726Y-12920616D02*
X13103679Y-12911092D01*
X13103679Y-12911092D02*
X13094155Y-12892045D01*
X13094155Y-12892045D02*
X13094155Y-12720616D01*
X13275107Y-12911092D02*
X13256060Y-12920616D01*
X13256060Y-12920616D02*
X13217964Y-12920616D01*
X13217964Y-12920616D02*
X13198917Y-12911092D01*
X13198917Y-12911092D02*
X13189393Y-12892045D01*
X13189393Y-12892045D02*
X13189393Y-12815854D01*
X13189393Y-12815854D02*
X13198917Y-12796806D01*
X13198917Y-12796806D02*
X13217964Y-12787283D01*
X13217964Y-12787283D02*
X13256060Y-12787283D01*
X13256060Y-12787283D02*
X13275107Y-12796806D01*
X13275107Y-12796806D02*
X13284631Y-12815854D01*
X13284631Y-12815854D02*
X13284631Y-12834902D01*
X13284631Y-12834902D02*
X13189393Y-12853949D01*
X13360821Y-12911092D02*
X13379869Y-12920616D01*
X13379869Y-12920616D02*
X13417964Y-12920616D01*
X13417964Y-12920616D02*
X13437012Y-12911092D01*
X13437012Y-12911092D02*
X13446536Y-12892045D01*
X13446536Y-12892045D02*
X13446536Y-12882521D01*
X13446536Y-12882521D02*
X13437012Y-12863473D01*
X13437012Y-12863473D02*
X13417964Y-12853949D01*
X13417964Y-12853949D02*
X13389393Y-12853949D01*
X13389393Y-12853949D02*
X13370345Y-12844426D01*
X13370345Y-12844426D02*
X13360821Y-12825378D01*
X13360821Y-12825378D02*
X13360821Y-12815854D01*
X13360821Y-12815854D02*
X13370345Y-12796806D01*
X13370345Y-12796806D02*
X13389393Y-12787283D01*
X13389393Y-12787283D02*
X13417964Y-12787283D01*
X13417964Y-12787283D02*
X13437012Y-12796806D01*
X13684631Y-12844426D02*
X13837012Y-12844426D01*
X13760822Y-12920616D02*
X13760822Y-12768235D01*
X14189393Y-12920616D02*
X14075107Y-12920616D01*
X14132250Y-12920616D02*
X14132250Y-12720616D01*
X14132250Y-12720616D02*
X14113202Y-12749187D01*
X14113202Y-12749187D02*
X14094155Y-12768235D01*
X14094155Y-12768235D02*
X14075107Y-12777759D01*
X14417964Y-12911092D02*
X14437012Y-12920616D01*
X14437012Y-12920616D02*
X14475107Y-12920616D01*
X14475107Y-12920616D02*
X14494155Y-12911092D01*
X14494155Y-12911092D02*
X14503679Y-12892045D01*
X14503679Y-12892045D02*
X14503679Y-12882521D01*
X14503679Y-12882521D02*
X14494155Y-12863473D01*
X14494155Y-12863473D02*
X14475107Y-12853949D01*
X14475107Y-12853949D02*
X14446536Y-12853949D01*
X14446536Y-12853949D02*
X14427488Y-12844426D01*
X14427488Y-12844426D02*
X14417964Y-12825378D01*
X14417964Y-12825378D02*
X14417964Y-12815854D01*
X14417964Y-12815854D02*
X14427488Y-12796806D01*
X14427488Y-12796806D02*
X14446536Y-12787283D01*
X14446536Y-12787283D02*
X14475107Y-12787283D01*
X14475107Y-12787283D02*
X14494155Y-12796806D01*
X14617964Y-12920616D02*
X14598917Y-12911092D01*
X14598917Y-12911092D02*
X14589393Y-12892045D01*
X14589393Y-12892045D02*
X14589393Y-12720616D01*
X14722726Y-12920616D02*
X14703679Y-12911092D01*
X14703679Y-12911092D02*
X14694155Y-12901568D01*
X14694155Y-12901568D02*
X14684631Y-12882521D01*
X14684631Y-12882521D02*
X14684631Y-12825378D01*
X14684631Y-12825378D02*
X14694155Y-12806330D01*
X14694155Y-12806330D02*
X14703679Y-12796806D01*
X14703679Y-12796806D02*
X14722726Y-12787283D01*
X14722726Y-12787283D02*
X14751298Y-12787283D01*
X14751298Y-12787283D02*
X14770345Y-12796806D01*
X14770345Y-12796806D02*
X14779869Y-12806330D01*
X14779869Y-12806330D02*
X14789393Y-12825378D01*
X14789393Y-12825378D02*
X14789393Y-12882521D01*
X14789393Y-12882521D02*
X14779869Y-12901568D01*
X14779869Y-12901568D02*
X14770345Y-12911092D01*
X14770345Y-12911092D02*
X14751298Y-12920616D01*
X14751298Y-12920616D02*
X14722726Y-12920616D01*
X14846536Y-12787283D02*
X14922726Y-12787283D01*
X14875107Y-12720616D02*
X14875107Y-12892045D01*
X14875107Y-12892045D02*
X14884631Y-12911092D01*
X14884631Y-12911092D02*
X14903679Y-12920616D01*
X14903679Y-12920616D02*
X14922726Y-12920616D01*
X14970345Y-12996806D02*
X14979869Y-12987283D01*
X14979869Y-12987283D02*
X14998917Y-12958711D01*
X14998917Y-12958711D02*
X15008441Y-12939664D01*
X15008441Y-12939664D02*
X15017964Y-12911092D01*
X15017964Y-12911092D02*
X15027488Y-12863473D01*
X15027488Y-12863473D02*
X15027488Y-12825378D01*
X15027488Y-12825378D02*
X15017964Y-12777759D01*
X15017964Y-12777759D02*
X15008441Y-12749187D01*
X15008441Y-12749187D02*
X14998917Y-12730140D01*
X14998917Y-12730140D02*
X14979869Y-12701568D01*
X14979869Y-12701568D02*
X14970345Y-12692045D01*
X15332250Y-12996806D02*
X15322726Y-12987283D01*
X15322726Y-12987283D02*
X15303679Y-12958711D01*
X15303679Y-12958711D02*
X15294155Y-12939664D01*
X15294155Y-12939664D02*
X15284631Y-12911092D01*
X15284631Y-12911092D02*
X15275107Y-12863473D01*
X15275107Y-12863473D02*
X15275107Y-12825378D01*
X15275107Y-12825378D02*
X15284631Y-12777759D01*
X15284631Y-12777759D02*
X15294155Y-12749187D01*
X15294155Y-12749187D02*
X15303679Y-12730140D01*
X15303679Y-12730140D02*
X15322726Y-12701568D01*
X15322726Y-12701568D02*
X15332250Y-12692045D01*
X15408441Y-12787283D02*
X15408441Y-12920616D01*
X15408441Y-12806330D02*
X15417964Y-12796806D01*
X15417964Y-12796806D02*
X15437012Y-12787283D01*
X15437012Y-12787283D02*
X15465584Y-12787283D01*
X15465584Y-12787283D02*
X15484631Y-12796806D01*
X15484631Y-12796806D02*
X15494155Y-12815854D01*
X15494155Y-12815854D02*
X15494155Y-12920616D01*
X15617964Y-12920616D02*
X15598917Y-12911092D01*
X15598917Y-12911092D02*
X15589393Y-12901568D01*
X15589393Y-12901568D02*
X15579869Y-12882521D01*
X15579869Y-12882521D02*
X15579869Y-12825378D01*
X15579869Y-12825378D02*
X15589393Y-12806330D01*
X15589393Y-12806330D02*
X15598917Y-12796806D01*
X15598917Y-12796806D02*
X15617964Y-12787283D01*
X15617964Y-12787283D02*
X15646536Y-12787283D01*
X15646536Y-12787283D02*
X15665584Y-12796806D01*
X15665584Y-12796806D02*
X15675107Y-12806330D01*
X15675107Y-12806330D02*
X15684631Y-12825378D01*
X15684631Y-12825378D02*
X15684631Y-12882521D01*
X15684631Y-12882521D02*
X15675107Y-12901568D01*
X15675107Y-12901568D02*
X15665584Y-12911092D01*
X15665584Y-12911092D02*
X15646536Y-12920616D01*
X15646536Y-12920616D02*
X15617964Y-12920616D01*
X15741774Y-12787283D02*
X15817964Y-12787283D01*
X15770345Y-12720616D02*
X15770345Y-12892045D01*
X15770345Y-12892045D02*
X15779869Y-12911092D01*
X15779869Y-12911092D02*
X15798917Y-12920616D01*
X15798917Y-12920616D02*
X15817964Y-12920616D01*
X16037012Y-12787283D02*
X16037012Y-12987283D01*
X16037012Y-12796806D02*
X16056060Y-12787283D01*
X16056060Y-12787283D02*
X16094155Y-12787283D01*
X16094155Y-12787283D02*
X16113203Y-12796806D01*
X16113203Y-12796806D02*
X16122726Y-12806330D01*
X16122726Y-12806330D02*
X16132250Y-12825378D01*
X16132250Y-12825378D02*
X16132250Y-12882521D01*
X16132250Y-12882521D02*
X16122726Y-12901568D01*
X16122726Y-12901568D02*
X16113203Y-12911092D01*
X16113203Y-12911092D02*
X16094155Y-12920616D01*
X16094155Y-12920616D02*
X16056060Y-12920616D01*
X16056060Y-12920616D02*
X16037012Y-12911092D01*
X16246536Y-12920616D02*
X16227488Y-12911092D01*
X16227488Y-12911092D02*
X16217965Y-12892045D01*
X16217965Y-12892045D02*
X16217965Y-12720616D01*
X16408441Y-12920616D02*
X16408441Y-12815854D01*
X16408441Y-12815854D02*
X16398917Y-12796806D01*
X16398917Y-12796806D02*
X16379869Y-12787283D01*
X16379869Y-12787283D02*
X16341774Y-12787283D01*
X16341774Y-12787283D02*
X16322726Y-12796806D01*
X16408441Y-12911092D02*
X16389393Y-12920616D01*
X16389393Y-12920616D02*
X16341774Y-12920616D01*
X16341774Y-12920616D02*
X16322726Y-12911092D01*
X16322726Y-12911092D02*
X16313203Y-12892045D01*
X16313203Y-12892045D02*
X16313203Y-12872997D01*
X16313203Y-12872997D02*
X16322726Y-12853949D01*
X16322726Y-12853949D02*
X16341774Y-12844426D01*
X16341774Y-12844426D02*
X16389393Y-12844426D01*
X16389393Y-12844426D02*
X16408441Y-12834902D01*
X16475107Y-12787283D02*
X16551298Y-12787283D01*
X16503679Y-12720616D02*
X16503679Y-12892045D01*
X16503679Y-12892045D02*
X16513203Y-12911092D01*
X16513203Y-12911092D02*
X16532250Y-12920616D01*
X16532250Y-12920616D02*
X16551298Y-12920616D01*
X16694155Y-12911092D02*
X16675107Y-12920616D01*
X16675107Y-12920616D02*
X16637012Y-12920616D01*
X16637012Y-12920616D02*
X16617965Y-12911092D01*
X16617965Y-12911092D02*
X16608441Y-12892045D01*
X16608441Y-12892045D02*
X16608441Y-12815854D01*
X16608441Y-12815854D02*
X16617965Y-12796806D01*
X16617965Y-12796806D02*
X16637012Y-12787283D01*
X16637012Y-12787283D02*
X16675107Y-12787283D01*
X16675107Y-12787283D02*
X16694155Y-12796806D01*
X16694155Y-12796806D02*
X16703679Y-12815854D01*
X16703679Y-12815854D02*
X16703679Y-12834902D01*
X16703679Y-12834902D02*
X16608441Y-12853949D01*
X16875108Y-12920616D02*
X16875108Y-12720616D01*
X16875108Y-12911092D02*
X16856060Y-12920616D01*
X16856060Y-12920616D02*
X16817965Y-12920616D01*
X16817965Y-12920616D02*
X16798917Y-12911092D01*
X16798917Y-12911092D02*
X16789393Y-12901568D01*
X16789393Y-12901568D02*
X16779869Y-12882521D01*
X16779869Y-12882521D02*
X16779869Y-12825378D01*
X16779869Y-12825378D02*
X16789393Y-12806330D01*
X16789393Y-12806330D02*
X16798917Y-12796806D01*
X16798917Y-12796806D02*
X16817965Y-12787283D01*
X16817965Y-12787283D02*
X16856060Y-12787283D01*
X16856060Y-12787283D02*
X16875108Y-12796806D01*
X16951298Y-12996806D02*
X16960822Y-12987283D01*
X16960822Y-12987283D02*
X16979869Y-12958711D01*
X16979869Y-12958711D02*
X16989393Y-12939664D01*
X16989393Y-12939664D02*
X16998917Y-12911092D01*
X16998917Y-12911092D02*
X17008441Y-12863473D01*
X17008441Y-12863473D02*
X17008441Y-12825378D01*
X17008441Y-12825378D02*
X16998917Y-12777759D01*
X16998917Y-12777759D02*
X16989393Y-12749187D01*
X16989393Y-12749187D02*
X16979869Y-12730140D01*
X16979869Y-12730140D02*
X16960822Y-12701568D01*
X16960822Y-12701568D02*
X16951298Y-12692045D01*
D13*
X8738140Y-13093132D02*
G75*
G02*
X8608140Y-13093132I-65000J0D01*
G01*
X8608140Y-13093132D02*
G75*
G02*
X8738140Y-13093132I65000J0D01*
G01*
D11*
X9103678Y-13184616D02*
X8989393Y-13184616D01*
X9046535Y-13184616D02*
X9046535Y-12984616D01*
X9046535Y-12984616D02*
X9027488Y-13013187D01*
X9027488Y-13013187D02*
X9008440Y-13032235D01*
X9008440Y-13032235D02*
X8989393Y-13041759D01*
X9189393Y-13165568D02*
X9198916Y-13175092D01*
X9198916Y-13175092D02*
X9189393Y-13184616D01*
X9189393Y-13184616D02*
X9179869Y-13175092D01*
X9179869Y-13175092D02*
X9189393Y-13165568D01*
X9189393Y-13165568D02*
X9189393Y-13184616D01*
X9265583Y-12984616D02*
X9389393Y-12984616D01*
X9389393Y-12984616D02*
X9322726Y-13060806D01*
X9322726Y-13060806D02*
X9351297Y-13060806D01*
X9351297Y-13060806D02*
X9370345Y-13070330D01*
X9370345Y-13070330D02*
X9379869Y-13079854D01*
X9379869Y-13079854D02*
X9389393Y-13098902D01*
X9389393Y-13098902D02*
X9389393Y-13146521D01*
X9389393Y-13146521D02*
X9379869Y-13165568D01*
X9379869Y-13165568D02*
X9370345Y-13175092D01*
X9370345Y-13175092D02*
X9351297Y-13184616D01*
X9351297Y-13184616D02*
X9294154Y-13184616D01*
X9294154Y-13184616D02*
X9275107Y-13175092D01*
X9275107Y-13175092D02*
X9265583Y-13165568D01*
X9513202Y-12984616D02*
X9532250Y-12984616D01*
X9532250Y-12984616D02*
X9551297Y-12994140D01*
X9551297Y-12994140D02*
X9560821Y-13003664D01*
X9560821Y-13003664D02*
X9570345Y-13022711D01*
X9570345Y-13022711D02*
X9579869Y-13060806D01*
X9579869Y-13060806D02*
X9579869Y-13108426D01*
X9579869Y-13108426D02*
X9570345Y-13146521D01*
X9570345Y-13146521D02*
X9560821Y-13165568D01*
X9560821Y-13165568D02*
X9551297Y-13175092D01*
X9551297Y-13175092D02*
X9532250Y-13184616D01*
X9532250Y-13184616D02*
X9513202Y-13184616D01*
X9513202Y-13184616D02*
X9494154Y-13175092D01*
X9494154Y-13175092D02*
X9484631Y-13165568D01*
X9484631Y-13165568D02*
X9475107Y-13146521D01*
X9475107Y-13146521D02*
X9465583Y-13108426D01*
X9465583Y-13108426D02*
X9465583Y-13060806D01*
X9465583Y-13060806D02*
X9475107Y-13022711D01*
X9475107Y-13022711D02*
X9484631Y-13003664D01*
X9484631Y-13003664D02*
X9494154Y-12994140D01*
X9494154Y-12994140D02*
X9513202Y-12984616D01*
X9703678Y-12984616D02*
X9722726Y-12984616D01*
X9722726Y-12984616D02*
X9741774Y-12994140D01*
X9741774Y-12994140D02*
X9751297Y-13003664D01*
X9751297Y-13003664D02*
X9760821Y-13022711D01*
X9760821Y-13022711D02*
X9770345Y-13060806D01*
X9770345Y-13060806D02*
X9770345Y-13108426D01*
X9770345Y-13108426D02*
X9760821Y-13146521D01*
X9760821Y-13146521D02*
X9751297Y-13165568D01*
X9751297Y-13165568D02*
X9741774Y-13175092D01*
X9741774Y-13175092D02*
X9722726Y-13184616D01*
X9722726Y-13184616D02*
X9703678Y-13184616D01*
X9703678Y-13184616D02*
X9684631Y-13175092D01*
X9684631Y-13175092D02*
X9675107Y-13165568D01*
X9675107Y-13165568D02*
X9665583Y-13146521D01*
X9665583Y-13146521D02*
X9656059Y-13108426D01*
X9656059Y-13108426D02*
X9656059Y-13060806D01*
X9656059Y-13060806D02*
X9665583Y-13022711D01*
X9665583Y-13022711D02*
X9675107Y-13003664D01*
X9675107Y-13003664D02*
X9684631Y-12994140D01*
X9684631Y-12994140D02*
X9703678Y-12984616D01*
X9856059Y-13184616D02*
X9856059Y-13051283D01*
X9856059Y-13070330D02*
X9865583Y-13060806D01*
X9865583Y-13060806D02*
X9884631Y-13051283D01*
X9884631Y-13051283D02*
X9913202Y-13051283D01*
X9913202Y-13051283D02*
X9932250Y-13060806D01*
X9932250Y-13060806D02*
X9941774Y-13079854D01*
X9941774Y-13079854D02*
X9941774Y-13184616D01*
X9941774Y-13079854D02*
X9951297Y-13060806D01*
X9951297Y-13060806D02*
X9970345Y-13051283D01*
X9970345Y-13051283D02*
X9998916Y-13051283D01*
X9998916Y-13051283D02*
X10017964Y-13060806D01*
X10017964Y-13060806D02*
X10027488Y-13079854D01*
X10027488Y-13079854D02*
X10027488Y-13184616D01*
X10122726Y-13184616D02*
X10122726Y-13051283D01*
X10122726Y-13070330D02*
X10132250Y-13060806D01*
X10132250Y-13060806D02*
X10151297Y-13051283D01*
X10151297Y-13051283D02*
X10179869Y-13051283D01*
X10179869Y-13051283D02*
X10198916Y-13060806D01*
X10198916Y-13060806D02*
X10208440Y-13079854D01*
X10208440Y-13079854D02*
X10208440Y-13184616D01*
X10208440Y-13079854D02*
X10217964Y-13060806D01*
X10217964Y-13060806D02*
X10237012Y-13051283D01*
X10237012Y-13051283D02*
X10265583Y-13051283D01*
X10265583Y-13051283D02*
X10284631Y-13060806D01*
X10284631Y-13060806D02*
X10294155Y-13079854D01*
X10294155Y-13079854D02*
X10294155Y-13184616D01*
X10684631Y-12975092D02*
X10513202Y-13232235D01*
X10941774Y-12984616D02*
X10960821Y-12984616D01*
X10960821Y-12984616D02*
X10979869Y-12994140D01*
X10979869Y-12994140D02*
X10989393Y-13003664D01*
X10989393Y-13003664D02*
X10998917Y-13022711D01*
X10998917Y-13022711D02*
X11008440Y-13060806D01*
X11008440Y-13060806D02*
X11008440Y-13108426D01*
X11008440Y-13108426D02*
X10998917Y-13146521D01*
X10998917Y-13146521D02*
X10989393Y-13165568D01*
X10989393Y-13165568D02*
X10979869Y-13175092D01*
X10979869Y-13175092D02*
X10960821Y-13184616D01*
X10960821Y-13184616D02*
X10941774Y-13184616D01*
X10941774Y-13184616D02*
X10922726Y-13175092D01*
X10922726Y-13175092D02*
X10913202Y-13165568D01*
X10913202Y-13165568D02*
X10903678Y-13146521D01*
X10903678Y-13146521D02*
X10894155Y-13108426D01*
X10894155Y-13108426D02*
X10894155Y-13060806D01*
X10894155Y-13060806D02*
X10903678Y-13022711D01*
X10903678Y-13022711D02*
X10913202Y-13003664D01*
X10913202Y-13003664D02*
X10922726Y-12994140D01*
X10922726Y-12994140D02*
X10941774Y-12984616D01*
X11094155Y-13165568D02*
X11103678Y-13175092D01*
X11103678Y-13175092D02*
X11094155Y-13184616D01*
X11094155Y-13184616D02*
X11084631Y-13175092D01*
X11084631Y-13175092D02*
X11094155Y-13165568D01*
X11094155Y-13165568D02*
X11094155Y-13184616D01*
X11227488Y-12984616D02*
X11246536Y-12984616D01*
X11246536Y-12984616D02*
X11265583Y-12994140D01*
X11265583Y-12994140D02*
X11275107Y-13003664D01*
X11275107Y-13003664D02*
X11284631Y-13022711D01*
X11284631Y-13022711D02*
X11294155Y-13060806D01*
X11294155Y-13060806D02*
X11294155Y-13108426D01*
X11294155Y-13108426D02*
X11284631Y-13146521D01*
X11284631Y-13146521D02*
X11275107Y-13165568D01*
X11275107Y-13165568D02*
X11265583Y-13175092D01*
X11265583Y-13175092D02*
X11246536Y-13184616D01*
X11246536Y-13184616D02*
X11227488Y-13184616D01*
X11227488Y-13184616D02*
X11208440Y-13175092D01*
X11208440Y-13175092D02*
X11198916Y-13165568D01*
X11198916Y-13165568D02*
X11189393Y-13146521D01*
X11189393Y-13146521D02*
X11179869Y-13108426D01*
X11179869Y-13108426D02*
X11179869Y-13060806D01*
X11179869Y-13060806D02*
X11189393Y-13022711D01*
X11189393Y-13022711D02*
X11198916Y-13003664D01*
X11198916Y-13003664D02*
X11208440Y-12994140D01*
X11208440Y-12994140D02*
X11227488Y-12984616D01*
X11475107Y-12984616D02*
X11379869Y-12984616D01*
X11379869Y-12984616D02*
X11370345Y-13079854D01*
X11370345Y-13079854D02*
X11379869Y-13070330D01*
X11379869Y-13070330D02*
X11398916Y-13060806D01*
X11398916Y-13060806D02*
X11446536Y-13060806D01*
X11446536Y-13060806D02*
X11465583Y-13070330D01*
X11465583Y-13070330D02*
X11475107Y-13079854D01*
X11475107Y-13079854D02*
X11484631Y-13098902D01*
X11484631Y-13098902D02*
X11484631Y-13146521D01*
X11484631Y-13146521D02*
X11475107Y-13165568D01*
X11475107Y-13165568D02*
X11465583Y-13175092D01*
X11465583Y-13175092D02*
X11446536Y-13184616D01*
X11446536Y-13184616D02*
X11398916Y-13184616D01*
X11398916Y-13184616D02*
X11379869Y-13175092D01*
X11379869Y-13175092D02*
X11370345Y-13165568D01*
X11675107Y-13184616D02*
X11560821Y-13184616D01*
X11617964Y-13184616D02*
X11617964Y-12984616D01*
X11617964Y-12984616D02*
X11598916Y-13013187D01*
X11598916Y-13013187D02*
X11579869Y-13032235D01*
X11579869Y-13032235D02*
X11560821Y-13041759D01*
X11751297Y-13003664D02*
X11760821Y-12994140D01*
X11760821Y-12994140D02*
X11779869Y-12984616D01*
X11779869Y-12984616D02*
X11827488Y-12984616D01*
X11827488Y-12984616D02*
X11846536Y-12994140D01*
X11846536Y-12994140D02*
X11856059Y-13003664D01*
X11856059Y-13003664D02*
X11865583Y-13022711D01*
X11865583Y-13022711D02*
X11865583Y-13041759D01*
X11865583Y-13041759D02*
X11856059Y-13070330D01*
X11856059Y-13070330D02*
X11741774Y-13184616D01*
X11741774Y-13184616D02*
X11865583Y-13184616D01*
X11941774Y-12984616D02*
X11941774Y-13022711D01*
X12017964Y-12984616D02*
X12017964Y-13022711D01*
X12313202Y-13260806D02*
X12303678Y-13251283D01*
X12303678Y-13251283D02*
X12284631Y-13222711D01*
X12284631Y-13222711D02*
X12275107Y-13203664D01*
X12275107Y-13203664D02*
X12265583Y-13175092D01*
X12265583Y-13175092D02*
X12256059Y-13127473D01*
X12256059Y-13127473D02*
X12256059Y-13089378D01*
X12256059Y-13089378D02*
X12265583Y-13041759D01*
X12265583Y-13041759D02*
X12275107Y-13013187D01*
X12275107Y-13013187D02*
X12284631Y-12994140D01*
X12284631Y-12994140D02*
X12303678Y-12965568D01*
X12303678Y-12965568D02*
X12313202Y-12956045D01*
X12379869Y-13003664D02*
X12389393Y-12994140D01*
X12389393Y-12994140D02*
X12408440Y-12984616D01*
X12408440Y-12984616D02*
X12456059Y-12984616D01*
X12456059Y-12984616D02*
X12475107Y-12994140D01*
X12475107Y-12994140D02*
X12484631Y-13003664D01*
X12484631Y-13003664D02*
X12494155Y-13022711D01*
X12494155Y-13022711D02*
X12494155Y-13041759D01*
X12494155Y-13041759D02*
X12484631Y-13070330D01*
X12484631Y-13070330D02*
X12370345Y-13184616D01*
X12370345Y-13184616D02*
X12494155Y-13184616D01*
X12732250Y-13184616D02*
X12732250Y-12984616D01*
X12817964Y-13184616D02*
X12817964Y-13079854D01*
X12817964Y-13079854D02*
X12808440Y-13060806D01*
X12808440Y-13060806D02*
X12789393Y-13051283D01*
X12789393Y-13051283D02*
X12760821Y-13051283D01*
X12760821Y-13051283D02*
X12741774Y-13060806D01*
X12741774Y-13060806D02*
X12732250Y-13070330D01*
X12941774Y-13184616D02*
X12922726Y-13175092D01*
X12922726Y-13175092D02*
X12913202Y-13165568D01*
X12913202Y-13165568D02*
X12903679Y-13146521D01*
X12903679Y-13146521D02*
X12903679Y-13089378D01*
X12903679Y-13089378D02*
X12913202Y-13070330D01*
X12913202Y-13070330D02*
X12922726Y-13060806D01*
X12922726Y-13060806D02*
X12941774Y-13051283D01*
X12941774Y-13051283D02*
X12970345Y-13051283D01*
X12970345Y-13051283D02*
X12989393Y-13060806D01*
X12989393Y-13060806D02*
X12998917Y-13070330D01*
X12998917Y-13070330D02*
X13008440Y-13089378D01*
X13008440Y-13089378D02*
X13008440Y-13146521D01*
X13008440Y-13146521D02*
X12998917Y-13165568D01*
X12998917Y-13165568D02*
X12989393Y-13175092D01*
X12989393Y-13175092D02*
X12970345Y-13184616D01*
X12970345Y-13184616D02*
X12941774Y-13184616D01*
X13122726Y-13184616D02*
X13103679Y-13175092D01*
X13103679Y-13175092D02*
X13094155Y-13156045D01*
X13094155Y-13156045D02*
X13094155Y-12984616D01*
X13275107Y-13175092D02*
X13256060Y-13184616D01*
X13256060Y-13184616D02*
X13217964Y-13184616D01*
X13217964Y-13184616D02*
X13198917Y-13175092D01*
X13198917Y-13175092D02*
X13189393Y-13156045D01*
X13189393Y-13156045D02*
X13189393Y-13079854D01*
X13189393Y-13079854D02*
X13198917Y-13060806D01*
X13198917Y-13060806D02*
X13217964Y-13051283D01*
X13217964Y-13051283D02*
X13256060Y-13051283D01*
X13256060Y-13051283D02*
X13275107Y-13060806D01*
X13275107Y-13060806D02*
X13284631Y-13079854D01*
X13284631Y-13079854D02*
X13284631Y-13098902D01*
X13284631Y-13098902D02*
X13189393Y-13117949D01*
X13360821Y-13175092D02*
X13379869Y-13184616D01*
X13379869Y-13184616D02*
X13417964Y-13184616D01*
X13417964Y-13184616D02*
X13437012Y-13175092D01*
X13437012Y-13175092D02*
X13446536Y-13156045D01*
X13446536Y-13156045D02*
X13446536Y-13146521D01*
X13446536Y-13146521D02*
X13437012Y-13127473D01*
X13437012Y-13127473D02*
X13417964Y-13117949D01*
X13417964Y-13117949D02*
X13389393Y-13117949D01*
X13389393Y-13117949D02*
X13370345Y-13108426D01*
X13370345Y-13108426D02*
X13360821Y-13089378D01*
X13360821Y-13089378D02*
X13360821Y-13079854D01*
X13360821Y-13079854D02*
X13370345Y-13060806D01*
X13370345Y-13060806D02*
X13389393Y-13051283D01*
X13389393Y-13051283D02*
X13417964Y-13051283D01*
X13417964Y-13051283D02*
X13437012Y-13060806D01*
X13513202Y-13260806D02*
X13522726Y-13251283D01*
X13522726Y-13251283D02*
X13541774Y-13222711D01*
X13541774Y-13222711D02*
X13551298Y-13203664D01*
X13551298Y-13203664D02*
X13560821Y-13175092D01*
X13560821Y-13175092D02*
X13570345Y-13127473D01*
X13570345Y-13127473D02*
X13570345Y-13089378D01*
X13570345Y-13089378D02*
X13560821Y-13041759D01*
X13560821Y-13041759D02*
X13551298Y-13013187D01*
X13551298Y-13013187D02*
X13541774Y-12994140D01*
X13541774Y-12994140D02*
X13522726Y-12965568D01*
X13522726Y-12965568D02*
X13513202Y-12956045D01*
X13875107Y-13260806D02*
X13865583Y-13251283D01*
X13865583Y-13251283D02*
X13846536Y-13222711D01*
X13846536Y-13222711D02*
X13837012Y-13203664D01*
X13837012Y-13203664D02*
X13827488Y-13175092D01*
X13827488Y-13175092D02*
X13817964Y-13127473D01*
X13817964Y-13127473D02*
X13817964Y-13089378D01*
X13817964Y-13089378D02*
X13827488Y-13041759D01*
X13827488Y-13041759D02*
X13837012Y-13013187D01*
X13837012Y-13013187D02*
X13846536Y-12994140D01*
X13846536Y-12994140D02*
X13865583Y-12965568D01*
X13865583Y-12965568D02*
X13875107Y-12956045D01*
X13951298Y-13051283D02*
X13951298Y-13184616D01*
X13951298Y-13070330D02*
X13960821Y-13060806D01*
X13960821Y-13060806D02*
X13979869Y-13051283D01*
X13979869Y-13051283D02*
X14008441Y-13051283D01*
X14008441Y-13051283D02*
X14027488Y-13060806D01*
X14027488Y-13060806D02*
X14037012Y-13079854D01*
X14037012Y-13079854D02*
X14037012Y-13184616D01*
X14160821Y-13184616D02*
X14141774Y-13175092D01*
X14141774Y-13175092D02*
X14132250Y-13165568D01*
X14132250Y-13165568D02*
X14122726Y-13146521D01*
X14122726Y-13146521D02*
X14122726Y-13089378D01*
X14122726Y-13089378D02*
X14132250Y-13070330D01*
X14132250Y-13070330D02*
X14141774Y-13060806D01*
X14141774Y-13060806D02*
X14160821Y-13051283D01*
X14160821Y-13051283D02*
X14189393Y-13051283D01*
X14189393Y-13051283D02*
X14208441Y-13060806D01*
X14208441Y-13060806D02*
X14217964Y-13070330D01*
X14217964Y-13070330D02*
X14227488Y-13089378D01*
X14227488Y-13089378D02*
X14227488Y-13146521D01*
X14227488Y-13146521D02*
X14217964Y-13165568D01*
X14217964Y-13165568D02*
X14208441Y-13175092D01*
X14208441Y-13175092D02*
X14189393Y-13184616D01*
X14189393Y-13184616D02*
X14160821Y-13184616D01*
X14284631Y-13051283D02*
X14360821Y-13051283D01*
X14313202Y-12984616D02*
X14313202Y-13156045D01*
X14313202Y-13156045D02*
X14322726Y-13175092D01*
X14322726Y-13175092D02*
X14341774Y-13184616D01*
X14341774Y-13184616D02*
X14360821Y-13184616D01*
X14579869Y-13051283D02*
X14579869Y-13251283D01*
X14579869Y-13060806D02*
X14598917Y-13051283D01*
X14598917Y-13051283D02*
X14637012Y-13051283D01*
X14637012Y-13051283D02*
X14656060Y-13060806D01*
X14656060Y-13060806D02*
X14665583Y-13070330D01*
X14665583Y-13070330D02*
X14675107Y-13089378D01*
X14675107Y-13089378D02*
X14675107Y-13146521D01*
X14675107Y-13146521D02*
X14665583Y-13165568D01*
X14665583Y-13165568D02*
X14656060Y-13175092D01*
X14656060Y-13175092D02*
X14637012Y-13184616D01*
X14637012Y-13184616D02*
X14598917Y-13184616D01*
X14598917Y-13184616D02*
X14579869Y-13175092D01*
X14789393Y-13184616D02*
X14770345Y-13175092D01*
X14770345Y-13175092D02*
X14760822Y-13156045D01*
X14760822Y-13156045D02*
X14760822Y-12984616D01*
X14951298Y-13184616D02*
X14951298Y-13079854D01*
X14951298Y-13079854D02*
X14941774Y-13060806D01*
X14941774Y-13060806D02*
X14922726Y-13051283D01*
X14922726Y-13051283D02*
X14884631Y-13051283D01*
X14884631Y-13051283D02*
X14865583Y-13060806D01*
X14951298Y-13175092D02*
X14932250Y-13184616D01*
X14932250Y-13184616D02*
X14884631Y-13184616D01*
X14884631Y-13184616D02*
X14865583Y-13175092D01*
X14865583Y-13175092D02*
X14856060Y-13156045D01*
X14856060Y-13156045D02*
X14856060Y-13136997D01*
X14856060Y-13136997D02*
X14865583Y-13117949D01*
X14865583Y-13117949D02*
X14884631Y-13108426D01*
X14884631Y-13108426D02*
X14932250Y-13108426D01*
X14932250Y-13108426D02*
X14951298Y-13098902D01*
X15017964Y-13051283D02*
X15094155Y-13051283D01*
X15046536Y-12984616D02*
X15046536Y-13156045D01*
X15046536Y-13156045D02*
X15056060Y-13175092D01*
X15056060Y-13175092D02*
X15075107Y-13184616D01*
X15075107Y-13184616D02*
X15094155Y-13184616D01*
X15237012Y-13175092D02*
X15217964Y-13184616D01*
X15217964Y-13184616D02*
X15179869Y-13184616D01*
X15179869Y-13184616D02*
X15160822Y-13175092D01*
X15160822Y-13175092D02*
X15151298Y-13156045D01*
X15151298Y-13156045D02*
X15151298Y-13079854D01*
X15151298Y-13079854D02*
X15160822Y-13060806D01*
X15160822Y-13060806D02*
X15179869Y-13051283D01*
X15179869Y-13051283D02*
X15217964Y-13051283D01*
X15217964Y-13051283D02*
X15237012Y-13060806D01*
X15237012Y-13060806D02*
X15246536Y-13079854D01*
X15246536Y-13079854D02*
X15246536Y-13098902D01*
X15246536Y-13098902D02*
X15151298Y-13117949D01*
X15417964Y-13184616D02*
X15417964Y-12984616D01*
X15417964Y-13175092D02*
X15398917Y-13184616D01*
X15398917Y-13184616D02*
X15360822Y-13184616D01*
X15360822Y-13184616D02*
X15341774Y-13175092D01*
X15341774Y-13175092D02*
X15332250Y-13165568D01*
X15332250Y-13165568D02*
X15322726Y-13146521D01*
X15322726Y-13146521D02*
X15322726Y-13089378D01*
X15322726Y-13089378D02*
X15332250Y-13070330D01*
X15332250Y-13070330D02*
X15341774Y-13060806D01*
X15341774Y-13060806D02*
X15360822Y-13051283D01*
X15360822Y-13051283D02*
X15398917Y-13051283D01*
X15398917Y-13051283D02*
X15417964Y-13060806D01*
X15494155Y-13260806D02*
X15503679Y-13251283D01*
X15503679Y-13251283D02*
X15522726Y-13222711D01*
X15522726Y-13222711D02*
X15532250Y-13203664D01*
X15532250Y-13203664D02*
X15541774Y-13175092D01*
X15541774Y-13175092D02*
X15551298Y-13127473D01*
X15551298Y-13127473D02*
X15551298Y-13089378D01*
X15551298Y-13089378D02*
X15541774Y-13041759D01*
X15541774Y-13041759D02*
X15532250Y-13013187D01*
X15532250Y-13013187D02*
X15522726Y-12994140D01*
X15522726Y-12994140D02*
X15503679Y-12965568D01*
X15503679Y-12965568D02*
X15494155Y-12956045D01*
D14*
X8653140Y-13272132D02*
X8653140Y-13442132D01*
X8568140Y-13357132D02*
X8738140Y-13357132D01*
D11*
X9103678Y-13448616D02*
X8989393Y-13448616D01*
X9046535Y-13448616D02*
X9046535Y-13248616D01*
X9046535Y-13248616D02*
X9027488Y-13277187D01*
X9027488Y-13277187D02*
X9008440Y-13296235D01*
X9008440Y-13296235D02*
X8989393Y-13305759D01*
X9189393Y-13429568D02*
X9198916Y-13439092D01*
X9198916Y-13439092D02*
X9189393Y-13448616D01*
X9189393Y-13448616D02*
X9179869Y-13439092D01*
X9179869Y-13439092D02*
X9189393Y-13429568D01*
X9189393Y-13429568D02*
X9189393Y-13448616D01*
X9265583Y-13248616D02*
X9398916Y-13248616D01*
X9398916Y-13248616D02*
X9313202Y-13448616D01*
X9513202Y-13248616D02*
X9532250Y-13248616D01*
X9532250Y-13248616D02*
X9551297Y-13258140D01*
X9551297Y-13258140D02*
X9560821Y-13267664D01*
X9560821Y-13267664D02*
X9570345Y-13286711D01*
X9570345Y-13286711D02*
X9579869Y-13324806D01*
X9579869Y-13324806D02*
X9579869Y-13372426D01*
X9579869Y-13372426D02*
X9570345Y-13410521D01*
X9570345Y-13410521D02*
X9560821Y-13429568D01*
X9560821Y-13429568D02*
X9551297Y-13439092D01*
X9551297Y-13439092D02*
X9532250Y-13448616D01*
X9532250Y-13448616D02*
X9513202Y-13448616D01*
X9513202Y-13448616D02*
X9494154Y-13439092D01*
X9494154Y-13439092D02*
X9484631Y-13429568D01*
X9484631Y-13429568D02*
X9475107Y-13410521D01*
X9475107Y-13410521D02*
X9465583Y-13372426D01*
X9465583Y-13372426D02*
X9465583Y-13324806D01*
X9465583Y-13324806D02*
X9475107Y-13286711D01*
X9475107Y-13286711D02*
X9484631Y-13267664D01*
X9484631Y-13267664D02*
X9494154Y-13258140D01*
X9494154Y-13258140D02*
X9513202Y-13248616D01*
X9703678Y-13248616D02*
X9722726Y-13248616D01*
X9722726Y-13248616D02*
X9741774Y-13258140D01*
X9741774Y-13258140D02*
X9751297Y-13267664D01*
X9751297Y-13267664D02*
X9760821Y-13286711D01*
X9760821Y-13286711D02*
X9770345Y-13324806D01*
X9770345Y-13324806D02*
X9770345Y-13372426D01*
X9770345Y-13372426D02*
X9760821Y-13410521D01*
X9760821Y-13410521D02*
X9751297Y-13429568D01*
X9751297Y-13429568D02*
X9741774Y-13439092D01*
X9741774Y-13439092D02*
X9722726Y-13448616D01*
X9722726Y-13448616D02*
X9703678Y-13448616D01*
X9703678Y-13448616D02*
X9684631Y-13439092D01*
X9684631Y-13439092D02*
X9675107Y-13429568D01*
X9675107Y-13429568D02*
X9665583Y-13410521D01*
X9665583Y-13410521D02*
X9656059Y-13372426D01*
X9656059Y-13372426D02*
X9656059Y-13324806D01*
X9656059Y-13324806D02*
X9665583Y-13286711D01*
X9665583Y-13286711D02*
X9675107Y-13267664D01*
X9675107Y-13267664D02*
X9684631Y-13258140D01*
X9684631Y-13258140D02*
X9703678Y-13248616D01*
X9856059Y-13448616D02*
X9856059Y-13315283D01*
X9856059Y-13334330D02*
X9865583Y-13324806D01*
X9865583Y-13324806D02*
X9884631Y-13315283D01*
X9884631Y-13315283D02*
X9913202Y-13315283D01*
X9913202Y-13315283D02*
X9932250Y-13324806D01*
X9932250Y-13324806D02*
X9941774Y-13343854D01*
X9941774Y-13343854D02*
X9941774Y-13448616D01*
X9941774Y-13343854D02*
X9951297Y-13324806D01*
X9951297Y-13324806D02*
X9970345Y-13315283D01*
X9970345Y-13315283D02*
X9998916Y-13315283D01*
X9998916Y-13315283D02*
X10017964Y-13324806D01*
X10017964Y-13324806D02*
X10027488Y-13343854D01*
X10027488Y-13343854D02*
X10027488Y-13448616D01*
X10122726Y-13448616D02*
X10122726Y-13315283D01*
X10122726Y-13334330D02*
X10132250Y-13324806D01*
X10132250Y-13324806D02*
X10151297Y-13315283D01*
X10151297Y-13315283D02*
X10179869Y-13315283D01*
X10179869Y-13315283D02*
X10198916Y-13324806D01*
X10198916Y-13324806D02*
X10208440Y-13343854D01*
X10208440Y-13343854D02*
X10208440Y-13448616D01*
X10208440Y-13343854D02*
X10217964Y-13324806D01*
X10217964Y-13324806D02*
X10237012Y-13315283D01*
X10237012Y-13315283D02*
X10265583Y-13315283D01*
X10265583Y-13315283D02*
X10284631Y-13324806D01*
X10284631Y-13324806D02*
X10294155Y-13343854D01*
X10294155Y-13343854D02*
X10294155Y-13448616D01*
X10684631Y-13239092D02*
X10513202Y-13496235D01*
X10941774Y-13248616D02*
X10960821Y-13248616D01*
X10960821Y-13248616D02*
X10979869Y-13258140D01*
X10979869Y-13258140D02*
X10989393Y-13267664D01*
X10989393Y-13267664D02*
X10998917Y-13286711D01*
X10998917Y-13286711D02*
X11008440Y-13324806D01*
X11008440Y-13324806D02*
X11008440Y-13372426D01*
X11008440Y-13372426D02*
X10998917Y-13410521D01*
X10998917Y-13410521D02*
X10989393Y-13429568D01*
X10989393Y-13429568D02*
X10979869Y-13439092D01*
X10979869Y-13439092D02*
X10960821Y-13448616D01*
X10960821Y-13448616D02*
X10941774Y-13448616D01*
X10941774Y-13448616D02*
X10922726Y-13439092D01*
X10922726Y-13439092D02*
X10913202Y-13429568D01*
X10913202Y-13429568D02*
X10903678Y-13410521D01*
X10903678Y-13410521D02*
X10894155Y-13372426D01*
X10894155Y-13372426D02*
X10894155Y-13324806D01*
X10894155Y-13324806D02*
X10903678Y-13286711D01*
X10903678Y-13286711D02*
X10913202Y-13267664D01*
X10913202Y-13267664D02*
X10922726Y-13258140D01*
X10922726Y-13258140D02*
X10941774Y-13248616D01*
X11094155Y-13429568D02*
X11103678Y-13439092D01*
X11103678Y-13439092D02*
X11094155Y-13448616D01*
X11094155Y-13448616D02*
X11084631Y-13439092D01*
X11084631Y-13439092D02*
X11094155Y-13429568D01*
X11094155Y-13429568D02*
X11094155Y-13448616D01*
X11227488Y-13248616D02*
X11246536Y-13248616D01*
X11246536Y-13248616D02*
X11265583Y-13258140D01*
X11265583Y-13258140D02*
X11275107Y-13267664D01*
X11275107Y-13267664D02*
X11284631Y-13286711D01*
X11284631Y-13286711D02*
X11294155Y-13324806D01*
X11294155Y-13324806D02*
X11294155Y-13372426D01*
X11294155Y-13372426D02*
X11284631Y-13410521D01*
X11284631Y-13410521D02*
X11275107Y-13429568D01*
X11275107Y-13429568D02*
X11265583Y-13439092D01*
X11265583Y-13439092D02*
X11246536Y-13448616D01*
X11246536Y-13448616D02*
X11227488Y-13448616D01*
X11227488Y-13448616D02*
X11208440Y-13439092D01*
X11208440Y-13439092D02*
X11198916Y-13429568D01*
X11198916Y-13429568D02*
X11189393Y-13410521D01*
X11189393Y-13410521D02*
X11179869Y-13372426D01*
X11179869Y-13372426D02*
X11179869Y-13324806D01*
X11179869Y-13324806D02*
X11189393Y-13286711D01*
X11189393Y-13286711D02*
X11198916Y-13267664D01*
X11198916Y-13267664D02*
X11208440Y-13258140D01*
X11208440Y-13258140D02*
X11227488Y-13248616D01*
X11465583Y-13248616D02*
X11427488Y-13248616D01*
X11427488Y-13248616D02*
X11408440Y-13258140D01*
X11408440Y-13258140D02*
X11398916Y-13267664D01*
X11398916Y-13267664D02*
X11379869Y-13296235D01*
X11379869Y-13296235D02*
X11370345Y-13334330D01*
X11370345Y-13334330D02*
X11370345Y-13410521D01*
X11370345Y-13410521D02*
X11379869Y-13429568D01*
X11379869Y-13429568D02*
X11389393Y-13439092D01*
X11389393Y-13439092D02*
X11408440Y-13448616D01*
X11408440Y-13448616D02*
X11446536Y-13448616D01*
X11446536Y-13448616D02*
X11465583Y-13439092D01*
X11465583Y-13439092D02*
X11475107Y-13429568D01*
X11475107Y-13429568D02*
X11484631Y-13410521D01*
X11484631Y-13410521D02*
X11484631Y-13362902D01*
X11484631Y-13362902D02*
X11475107Y-13343854D01*
X11475107Y-13343854D02*
X11465583Y-13334330D01*
X11465583Y-13334330D02*
X11446536Y-13324806D01*
X11446536Y-13324806D02*
X11408440Y-13324806D01*
X11408440Y-13324806D02*
X11389393Y-13334330D01*
X11389393Y-13334330D02*
X11379869Y-13343854D01*
X11379869Y-13343854D02*
X11370345Y-13362902D01*
X11656059Y-13248616D02*
X11617964Y-13248616D01*
X11617964Y-13248616D02*
X11598916Y-13258140D01*
X11598916Y-13258140D02*
X11589393Y-13267664D01*
X11589393Y-13267664D02*
X11570345Y-13296235D01*
X11570345Y-13296235D02*
X11560821Y-13334330D01*
X11560821Y-13334330D02*
X11560821Y-13410521D01*
X11560821Y-13410521D02*
X11570345Y-13429568D01*
X11570345Y-13429568D02*
X11579869Y-13439092D01*
X11579869Y-13439092D02*
X11598916Y-13448616D01*
X11598916Y-13448616D02*
X11637012Y-13448616D01*
X11637012Y-13448616D02*
X11656059Y-13439092D01*
X11656059Y-13439092D02*
X11665583Y-13429568D01*
X11665583Y-13429568D02*
X11675107Y-13410521D01*
X11675107Y-13410521D02*
X11675107Y-13362902D01*
X11675107Y-13362902D02*
X11665583Y-13343854D01*
X11665583Y-13343854D02*
X11656059Y-13334330D01*
X11656059Y-13334330D02*
X11637012Y-13324806D01*
X11637012Y-13324806D02*
X11598916Y-13324806D01*
X11598916Y-13324806D02*
X11579869Y-13334330D01*
X11579869Y-13334330D02*
X11570345Y-13343854D01*
X11570345Y-13343854D02*
X11560821Y-13362902D01*
X11770345Y-13448616D02*
X11808440Y-13448616D01*
X11808440Y-13448616D02*
X11827488Y-13439092D01*
X11827488Y-13439092D02*
X11837012Y-13429568D01*
X11837012Y-13429568D02*
X11856059Y-13400997D01*
X11856059Y-13400997D02*
X11865583Y-13362902D01*
X11865583Y-13362902D02*
X11865583Y-13286711D01*
X11865583Y-13286711D02*
X11856059Y-13267664D01*
X11856059Y-13267664D02*
X11846536Y-13258140D01*
X11846536Y-13258140D02*
X11827488Y-13248616D01*
X11827488Y-13248616D02*
X11789393Y-13248616D01*
X11789393Y-13248616D02*
X11770345Y-13258140D01*
X11770345Y-13258140D02*
X11760821Y-13267664D01*
X11760821Y-13267664D02*
X11751297Y-13286711D01*
X11751297Y-13286711D02*
X11751297Y-13334330D01*
X11751297Y-13334330D02*
X11760821Y-13353378D01*
X11760821Y-13353378D02*
X11770345Y-13362902D01*
X11770345Y-13362902D02*
X11789393Y-13372426D01*
X11789393Y-13372426D02*
X11827488Y-13372426D01*
X11827488Y-13372426D02*
X11846536Y-13362902D01*
X11846536Y-13362902D02*
X11856059Y-13353378D01*
X11856059Y-13353378D02*
X11865583Y-13334330D01*
X11941774Y-13248616D02*
X11941774Y-13286711D01*
X12017964Y-13248616D02*
X12017964Y-13286711D01*
X12313202Y-13524806D02*
X12303678Y-13515283D01*
X12303678Y-13515283D02*
X12284631Y-13486711D01*
X12284631Y-13486711D02*
X12275107Y-13467664D01*
X12275107Y-13467664D02*
X12265583Y-13439092D01*
X12265583Y-13439092D02*
X12256059Y-13391473D01*
X12256059Y-13391473D02*
X12256059Y-13353378D01*
X12256059Y-13353378D02*
X12265583Y-13305759D01*
X12265583Y-13305759D02*
X12275107Y-13277187D01*
X12275107Y-13277187D02*
X12284631Y-13258140D01*
X12284631Y-13258140D02*
X12303678Y-13229568D01*
X12303678Y-13229568D02*
X12313202Y-13220045D01*
X12494155Y-13448616D02*
X12379869Y-13448616D01*
X12437012Y-13448616D02*
X12437012Y-13248616D01*
X12437012Y-13248616D02*
X12417964Y-13277187D01*
X12417964Y-13277187D02*
X12398917Y-13296235D01*
X12398917Y-13296235D02*
X12379869Y-13305759D01*
X12665583Y-13248616D02*
X12627488Y-13248616D01*
X12627488Y-13248616D02*
X12608440Y-13258140D01*
X12608440Y-13258140D02*
X12598917Y-13267664D01*
X12598917Y-13267664D02*
X12579869Y-13296235D01*
X12579869Y-13296235D02*
X12570345Y-13334330D01*
X12570345Y-13334330D02*
X12570345Y-13410521D01*
X12570345Y-13410521D02*
X12579869Y-13429568D01*
X12579869Y-13429568D02*
X12589393Y-13439092D01*
X12589393Y-13439092D02*
X12608440Y-13448616D01*
X12608440Y-13448616D02*
X12646536Y-13448616D01*
X12646536Y-13448616D02*
X12665583Y-13439092D01*
X12665583Y-13439092D02*
X12675107Y-13429568D01*
X12675107Y-13429568D02*
X12684631Y-13410521D01*
X12684631Y-13410521D02*
X12684631Y-13362902D01*
X12684631Y-13362902D02*
X12675107Y-13343854D01*
X12675107Y-13343854D02*
X12665583Y-13334330D01*
X12665583Y-13334330D02*
X12646536Y-13324806D01*
X12646536Y-13324806D02*
X12608440Y-13324806D01*
X12608440Y-13324806D02*
X12589393Y-13334330D01*
X12589393Y-13334330D02*
X12579869Y-13343854D01*
X12579869Y-13343854D02*
X12570345Y-13362902D01*
X12922726Y-13448616D02*
X12922726Y-13248616D01*
X13008440Y-13448616D02*
X13008440Y-13343854D01*
X13008440Y-13343854D02*
X12998917Y-13324806D01*
X12998917Y-13324806D02*
X12979869Y-13315283D01*
X12979869Y-13315283D02*
X12951298Y-13315283D01*
X12951298Y-13315283D02*
X12932250Y-13324806D01*
X12932250Y-13324806D02*
X12922726Y-13334330D01*
X13132250Y-13448616D02*
X13113202Y-13439092D01*
X13113202Y-13439092D02*
X13103679Y-13429568D01*
X13103679Y-13429568D02*
X13094155Y-13410521D01*
X13094155Y-13410521D02*
X13094155Y-13353378D01*
X13094155Y-13353378D02*
X13103679Y-13334330D01*
X13103679Y-13334330D02*
X13113202Y-13324806D01*
X13113202Y-13324806D02*
X13132250Y-13315283D01*
X13132250Y-13315283D02*
X13160821Y-13315283D01*
X13160821Y-13315283D02*
X13179869Y-13324806D01*
X13179869Y-13324806D02*
X13189393Y-13334330D01*
X13189393Y-13334330D02*
X13198917Y-13353378D01*
X13198917Y-13353378D02*
X13198917Y-13410521D01*
X13198917Y-13410521D02*
X13189393Y-13429568D01*
X13189393Y-13429568D02*
X13179869Y-13439092D01*
X13179869Y-13439092D02*
X13160821Y-13448616D01*
X13160821Y-13448616D02*
X13132250Y-13448616D01*
X13313202Y-13448616D02*
X13294155Y-13439092D01*
X13294155Y-13439092D02*
X13284631Y-13420045D01*
X13284631Y-13420045D02*
X13284631Y-13248616D01*
X13465583Y-13439092D02*
X13446536Y-13448616D01*
X13446536Y-13448616D02*
X13408440Y-13448616D01*
X13408440Y-13448616D02*
X13389393Y-13439092D01*
X13389393Y-13439092D02*
X13379869Y-13420045D01*
X13379869Y-13420045D02*
X13379869Y-13343854D01*
X13379869Y-13343854D02*
X13389393Y-13324806D01*
X13389393Y-13324806D02*
X13408440Y-13315283D01*
X13408440Y-13315283D02*
X13446536Y-13315283D01*
X13446536Y-13315283D02*
X13465583Y-13324806D01*
X13465583Y-13324806D02*
X13475107Y-13343854D01*
X13475107Y-13343854D02*
X13475107Y-13362902D01*
X13475107Y-13362902D02*
X13379869Y-13381949D01*
X13551298Y-13439092D02*
X13570345Y-13448616D01*
X13570345Y-13448616D02*
X13608440Y-13448616D01*
X13608440Y-13448616D02*
X13627488Y-13439092D01*
X13627488Y-13439092D02*
X13637012Y-13420045D01*
X13637012Y-13420045D02*
X13637012Y-13410521D01*
X13637012Y-13410521D02*
X13627488Y-13391473D01*
X13627488Y-13391473D02*
X13608440Y-13381949D01*
X13608440Y-13381949D02*
X13579869Y-13381949D01*
X13579869Y-13381949D02*
X13560821Y-13372426D01*
X13560821Y-13372426D02*
X13551298Y-13353378D01*
X13551298Y-13353378D02*
X13551298Y-13343854D01*
X13551298Y-13343854D02*
X13560821Y-13324806D01*
X13560821Y-13324806D02*
X13579869Y-13315283D01*
X13579869Y-13315283D02*
X13608440Y-13315283D01*
X13608440Y-13315283D02*
X13627488Y-13324806D01*
X13703679Y-13524806D02*
X13713202Y-13515283D01*
X13713202Y-13515283D02*
X13732250Y-13486711D01*
X13732250Y-13486711D02*
X13741774Y-13467664D01*
X13741774Y-13467664D02*
X13751298Y-13439092D01*
X13751298Y-13439092D02*
X13760821Y-13391473D01*
X13760821Y-13391473D02*
X13760821Y-13353378D01*
X13760821Y-13353378D02*
X13751298Y-13305759D01*
X13751298Y-13305759D02*
X13741774Y-13277187D01*
X13741774Y-13277187D02*
X13732250Y-13258140D01*
X13732250Y-13258140D02*
X13713202Y-13229568D01*
X13713202Y-13229568D02*
X13703679Y-13220045D01*
X14065583Y-13524806D02*
X14056060Y-13515283D01*
X14056060Y-13515283D02*
X14037012Y-13486711D01*
X14037012Y-13486711D02*
X14027488Y-13467664D01*
X14027488Y-13467664D02*
X14017964Y-13439092D01*
X14017964Y-13439092D02*
X14008441Y-13391473D01*
X14008441Y-13391473D02*
X14008441Y-13353378D01*
X14008441Y-13353378D02*
X14017964Y-13305759D01*
X14017964Y-13305759D02*
X14027488Y-13277187D01*
X14027488Y-13277187D02*
X14037012Y-13258140D01*
X14037012Y-13258140D02*
X14056060Y-13229568D01*
X14056060Y-13229568D02*
X14065583Y-13220045D01*
X14141774Y-13315283D02*
X14141774Y-13448616D01*
X14141774Y-13334330D02*
X14151298Y-13324806D01*
X14151298Y-13324806D02*
X14170345Y-13315283D01*
X14170345Y-13315283D02*
X14198917Y-13315283D01*
X14198917Y-13315283D02*
X14217964Y-13324806D01*
X14217964Y-13324806D02*
X14227488Y-13343854D01*
X14227488Y-13343854D02*
X14227488Y-13448616D01*
X14351298Y-13448616D02*
X14332250Y-13439092D01*
X14332250Y-13439092D02*
X14322726Y-13429568D01*
X14322726Y-13429568D02*
X14313202Y-13410521D01*
X14313202Y-13410521D02*
X14313202Y-13353378D01*
X14313202Y-13353378D02*
X14322726Y-13334330D01*
X14322726Y-13334330D02*
X14332250Y-13324806D01*
X14332250Y-13324806D02*
X14351298Y-13315283D01*
X14351298Y-13315283D02*
X14379869Y-13315283D01*
X14379869Y-13315283D02*
X14398917Y-13324806D01*
X14398917Y-13324806D02*
X14408441Y-13334330D01*
X14408441Y-13334330D02*
X14417964Y-13353378D01*
X14417964Y-13353378D02*
X14417964Y-13410521D01*
X14417964Y-13410521D02*
X14408441Y-13429568D01*
X14408441Y-13429568D02*
X14398917Y-13439092D01*
X14398917Y-13439092D02*
X14379869Y-13448616D01*
X14379869Y-13448616D02*
X14351298Y-13448616D01*
X14475107Y-13315283D02*
X14551298Y-13315283D01*
X14503679Y-13248616D02*
X14503679Y-13420045D01*
X14503679Y-13420045D02*
X14513202Y-13439092D01*
X14513202Y-13439092D02*
X14532250Y-13448616D01*
X14532250Y-13448616D02*
X14551298Y-13448616D01*
X14770345Y-13315283D02*
X14770345Y-13515283D01*
X14770345Y-13324806D02*
X14789393Y-13315283D01*
X14789393Y-13315283D02*
X14827488Y-13315283D01*
X14827488Y-13315283D02*
X14846536Y-13324806D01*
X14846536Y-13324806D02*
X14856060Y-13334330D01*
X14856060Y-13334330D02*
X14865583Y-13353378D01*
X14865583Y-13353378D02*
X14865583Y-13410521D01*
X14865583Y-13410521D02*
X14856060Y-13429568D01*
X14856060Y-13429568D02*
X14846536Y-13439092D01*
X14846536Y-13439092D02*
X14827488Y-13448616D01*
X14827488Y-13448616D02*
X14789393Y-13448616D01*
X14789393Y-13448616D02*
X14770345Y-13439092D01*
X14979869Y-13448616D02*
X14960822Y-13439092D01*
X14960822Y-13439092D02*
X14951298Y-13420045D01*
X14951298Y-13420045D02*
X14951298Y-13248616D01*
X15141774Y-13448616D02*
X15141774Y-13343854D01*
X15141774Y-13343854D02*
X15132250Y-13324806D01*
X15132250Y-13324806D02*
X15113203Y-13315283D01*
X15113203Y-13315283D02*
X15075107Y-13315283D01*
X15075107Y-13315283D02*
X15056060Y-13324806D01*
X15141774Y-13439092D02*
X15122726Y-13448616D01*
X15122726Y-13448616D02*
X15075107Y-13448616D01*
X15075107Y-13448616D02*
X15056060Y-13439092D01*
X15056060Y-13439092D02*
X15046536Y-13420045D01*
X15046536Y-13420045D02*
X15046536Y-13400997D01*
X15046536Y-13400997D02*
X15056060Y-13381949D01*
X15056060Y-13381949D02*
X15075107Y-13372426D01*
X15075107Y-13372426D02*
X15122726Y-13372426D01*
X15122726Y-13372426D02*
X15141774Y-13362902D01*
X15208441Y-13315283D02*
X15284631Y-13315283D01*
X15237012Y-13248616D02*
X15237012Y-13420045D01*
X15237012Y-13420045D02*
X15246536Y-13439092D01*
X15246536Y-13439092D02*
X15265583Y-13448616D01*
X15265583Y-13448616D02*
X15284631Y-13448616D01*
X15427488Y-13439092D02*
X15408441Y-13448616D01*
X15408441Y-13448616D02*
X15370345Y-13448616D01*
X15370345Y-13448616D02*
X15351298Y-13439092D01*
X15351298Y-13439092D02*
X15341774Y-13420045D01*
X15341774Y-13420045D02*
X15341774Y-13343854D01*
X15341774Y-13343854D02*
X15351298Y-13324806D01*
X15351298Y-13324806D02*
X15370345Y-13315283D01*
X15370345Y-13315283D02*
X15408441Y-13315283D01*
X15408441Y-13315283D02*
X15427488Y-13324806D01*
X15427488Y-13324806D02*
X15437012Y-13343854D01*
X15437012Y-13343854D02*
X15437012Y-13362902D01*
X15437012Y-13362902D02*
X15341774Y-13381949D01*
X15608441Y-13448616D02*
X15608441Y-13248616D01*
X15608441Y-13439092D02*
X15589393Y-13448616D01*
X15589393Y-13448616D02*
X15551298Y-13448616D01*
X15551298Y-13448616D02*
X15532250Y-13439092D01*
X15532250Y-13439092D02*
X15522726Y-13429568D01*
X15522726Y-13429568D02*
X15513203Y-13410521D01*
X15513203Y-13410521D02*
X15513203Y-13353378D01*
X15513203Y-13353378D02*
X15522726Y-13334330D01*
X15522726Y-13334330D02*
X15532250Y-13324806D01*
X15532250Y-13324806D02*
X15551298Y-13315283D01*
X15551298Y-13315283D02*
X15589393Y-13315283D01*
X15589393Y-13315283D02*
X15608441Y-13324806D01*
X15684631Y-13524806D02*
X15694155Y-13515283D01*
X15694155Y-13515283D02*
X15713203Y-13486711D01*
X15713203Y-13486711D02*
X15722726Y-13467664D01*
X15722726Y-13467664D02*
X15732250Y-13439092D01*
X15732250Y-13439092D02*
X15741774Y-13391473D01*
X15741774Y-13391473D02*
X15741774Y-13353378D01*
X15741774Y-13353378D02*
X15732250Y-13305759D01*
X15732250Y-13305759D02*
X15722726Y-13277187D01*
X15722726Y-13277187D02*
X15713203Y-13258140D01*
X15713203Y-13258140D02*
X15694155Y-13229568D01*
X15694155Y-13229568D02*
X15684631Y-13220045D01*
M02*
