G04 #@! TF.GenerationSoftware,KiCad,Pcbnew,8.0.3*
G04 #@! TF.CreationDate,2024-07-31T22:39:35+02:00*
G04 #@! TF.ProjectId,hw-tele-stern,68772d74-656c-4652-9d73-7465726e2e6b,rev2 w/ output diodes*
G04 #@! TF.SameCoordinates,Original*
G04 #@! TF.FileFunction,Soldermask,Bot*
G04 #@! TF.FilePolarity,Negative*
%FSLAX46Y46*%
G04 Gerber Fmt 4.6, Leading zero omitted, Abs format (unit mm)*
G04 Created by KiCad (PCBNEW 8.0.3) date 2024-07-31 22:39:35*
%MOMM*%
%LPD*%
G01*
G04 APERTURE LIST*
G04 Aperture macros list*
%AMRoundRect*
0 Rectangle with rounded corners*
0 $1 Rounding radius*
0 $2 $3 $4 $5 $6 $7 $8 $9 X,Y pos of 4 corners*
0 Add a 4 corners polygon primitive as box body*
4,1,4,$2,$3,$4,$5,$6,$7,$8,$9,$2,$3,0*
0 Add four circle primitives for the rounded corners*
1,1,$1+$1,$2,$3*
1,1,$1+$1,$4,$5*
1,1,$1+$1,$6,$7*
1,1,$1+$1,$8,$9*
0 Add four rect primitives between the rounded corners*
20,1,$1+$1,$2,$3,$4,$5,0*
20,1,$1+$1,$4,$5,$6,$7,0*
20,1,$1+$1,$6,$7,$8,$9,0*
20,1,$1+$1,$8,$9,$2,$3,0*%
%AMFreePoly0*
4,1,22,0.695671,0.830970,0.776777,0.776777,0.830970,0.695671,0.850000,0.600000,0.850000,-0.600000,0.830970,-0.695671,0.776777,-0.776777,0.695671,-0.830970,0.600000,-0.850000,-0.200000,-0.850000,-0.295671,-0.830970,-0.376777,-0.776777,-0.776777,-0.376777,-0.830970,-0.295671,-0.850000,-0.200000,-0.850000,0.600000,-0.830970,0.695671,-0.776777,0.776777,-0.695671,0.830970,-0.600000,0.850000,
0.600000,0.850000,0.695671,0.830970,0.695671,0.830970,$1*%
%AMFreePoly1*
4,1,15,1.100000,0.175000,0.750000,0.175000,0.750000,-0.175000,1.100000,-0.175000,1.100000,-0.475000,0.750000,-0.475000,-0.750000,-0.475000,-1.100000,-0.475000,-1.100000,-0.175000,-0.750000,-0.175000,-0.750000,0.175000,-1.100000,0.175000,-1.100000,0.475000,1.100000,0.475000,1.100000,0.175000,1.100000,0.175000,$1*%
G04 Aperture macros list end*
%ADD10RoundRect,0.147500X0.172500X-0.147500X0.172500X0.147500X-0.172500X0.147500X-0.172500X-0.147500X0*%
%ADD11R,2.500000X1.500000*%
%ADD12O,2.500000X1.500000*%
%ADD13R,1.150000X1.150000*%
%ADD14C,1.150000*%
%ADD15R,4.190000X2.665000*%
%ADD16C,1.700000*%
%ADD17RoundRect,0.250000X0.850000X0.600000X-0.850000X0.600000X-0.850000X-0.600000X0.850000X-0.600000X0*%
%ADD18O,2.200000X1.700000*%
%ADD19C,5.600000*%
%ADD20RoundRect,0.250000X-0.600000X0.850000X-0.600000X-0.850000X0.600000X-0.850000X0.600000X0.850000X0*%
%ADD21O,1.700000X2.200000*%
%ADD22C,1.300000*%
%ADD23FreePoly0,90.000000*%
%ADD24O,2.600000X1.300000*%
%ADD25O,2.300000X1.200000*%
%ADD26O,2.300000X1.300000*%
%ADD27O,0.600000X0.850000*%
%ADD28C,0.600000*%
%ADD29R,1.700000X1.700000*%
%ADD30O,1.700000X1.700000*%
%ADD31RoundRect,0.250000X0.600000X-0.850000X0.600000X0.850000X-0.600000X0.850000X-0.600000X-0.850000X0*%
%ADD32RoundRect,0.250000X-0.600000X0.600000X-0.600000X-0.600000X0.600000X-0.600000X0.600000X0.600000X0*%
%ADD33RoundRect,0.250000X-1.500000X-1.000000X1.500000X-1.000000X1.500000X1.000000X-1.500000X1.000000X0*%
%ADD34R,2.000000X1.200000*%
%ADD35R,2.000000X1.000000*%
%ADD36RoundRect,0.135000X0.185000X-0.135000X0.185000X0.135000X-0.185000X0.135000X-0.185000X-0.135000X0*%
%ADD37RoundRect,0.250000X-0.250000X-0.475000X0.250000X-0.475000X0.250000X0.475000X-0.250000X0.475000X0*%
%ADD38RoundRect,0.135000X-0.135000X-0.185000X0.135000X-0.185000X0.135000X0.185000X-0.135000X0.185000X0*%
%ADD39RoundRect,0.140000X-0.170000X0.140000X-0.170000X-0.140000X0.170000X-0.140000X0.170000X0.140000X0*%
%ADD40RoundRect,0.225000X0.375000X-0.225000X0.375000X0.225000X-0.375000X0.225000X-0.375000X-0.225000X0*%
%ADD41RoundRect,0.135000X-0.185000X0.135000X-0.185000X-0.135000X0.185000X-0.135000X0.185000X0.135000X0*%
%ADD42R,1.200000X0.800000*%
%ADD43RoundRect,0.135000X0.135000X0.185000X-0.135000X0.185000X-0.135000X-0.185000X0.135000X-0.185000X0*%
%ADD44RoundRect,0.140000X0.170000X-0.140000X0.170000X0.140000X-0.170000X0.140000X-0.170000X-0.140000X0*%
%ADD45R,2.400000X1.500000*%
%ADD46R,1.050000X1.500000*%
%ADD47RoundRect,0.150000X0.512500X0.150000X-0.512500X0.150000X-0.512500X-0.150000X0.512500X-0.150000X0*%
%ADD48R,1.500000X2.400000*%
%ADD49R,1.500000X1.050000*%
%ADD50RoundRect,0.250000X1.500000X1.000000X-1.500000X1.000000X-1.500000X-1.000000X1.500000X-1.000000X0*%
%ADD51R,0.300000X0.350000*%
%ADD52R,0.235000X0.870000*%
%ADD53FreePoly1,90.000000*%
%ADD54RoundRect,0.147500X-0.172500X0.147500X-0.172500X-0.147500X0.172500X-0.147500X0.172500X0.147500X0*%
%ADD55R,0.350000X0.300000*%
%ADD56R,0.870000X0.235000*%
%ADD57FreePoly1,0.000000*%
%ADD58R,0.300000X0.750000*%
%ADD59R,1.300000X0.900000*%
%ADD60RoundRect,0.150000X0.150000X-0.512500X0.150000X0.512500X-0.150000X0.512500X-0.150000X-0.512500X0*%
%ADD61R,2.350000X5.100000*%
%ADD62RoundRect,0.150000X0.150000X-0.587500X0.150000X0.587500X-0.150000X0.587500X-0.150000X-0.587500X0*%
%ADD63RoundRect,0.140000X0.140000X0.170000X-0.140000X0.170000X-0.140000X-0.170000X0.140000X-0.170000X0*%
%ADD64RoundRect,0.150000X-0.587500X-0.150000X0.587500X-0.150000X0.587500X0.150000X-0.587500X0.150000X0*%
%ADD65RoundRect,0.140000X-0.140000X-0.170000X0.140000X-0.170000X0.140000X0.170000X-0.140000X0.170000X0*%
%ADD66R,0.300000X0.325000*%
%ADD67R,0.613000X0.950000*%
%ADD68R,1.000000X1.000000*%
%ADD69R,1.500000X1.000000*%
%ADD70RoundRect,0.250000X0.250000X0.475000X-0.250000X0.475000X-0.250000X-0.475000X0.250000X-0.475000X0*%
G04 APERTURE END LIST*
D10*
X94558895Y-102868823D03*
X94558895Y-101898823D03*
D11*
X101276395Y-105946323D03*
D12*
X101276395Y-103406323D03*
X101276395Y-100866323D03*
D13*
X96851895Y-118613823D03*
D14*
X98858895Y-118613823D03*
D15*
X174423895Y-95806323D03*
X174423895Y-88821323D03*
D16*
X91151395Y-108163823D03*
X91151395Y-100663823D03*
D17*
X98331395Y-108163823D03*
D18*
X98331395Y-105663823D03*
X98331395Y-103163823D03*
X98331395Y-100663823D03*
D19*
X91458895Y-80813823D03*
D16*
X122506863Y-118811359D03*
X120006863Y-118811359D03*
D20*
X122506863Y-111631359D03*
D21*
X120006863Y-111631359D03*
D22*
X148608895Y-82253823D03*
D23*
X147358895Y-80913823D03*
D16*
X149858895Y-80913823D03*
X152358895Y-80913823D03*
X147358895Y-78413823D03*
X149858895Y-78413823D03*
X152358895Y-78413823D03*
X112506863Y-118986359D03*
X110006863Y-118986359D03*
D20*
X112506863Y-111806359D03*
D21*
X110006863Y-111806359D03*
D19*
X91458895Y-117813823D03*
D24*
X90290000Y-96652000D03*
D25*
X94115000Y-96652000D03*
D24*
X90290000Y-88012000D03*
D26*
X94115000Y-88012000D03*
D27*
X93390000Y-95332000D03*
D28*
X93390000Y-89332000D03*
D29*
X139558895Y-78613823D03*
D30*
X139558895Y-81153823D03*
X139558895Y-83693823D03*
X139558895Y-86233823D03*
D16*
X133256863Y-118826359D03*
X130756863Y-118826359D03*
D20*
X133256863Y-111646359D03*
D21*
X130756863Y-111646359D03*
D19*
X173458895Y-80813823D03*
D15*
X174423895Y-103321323D03*
X174423895Y-110306323D03*
D16*
X131913895Y-79721323D03*
X134413895Y-79721323D03*
D31*
X131913895Y-86901323D03*
D21*
X134413895Y-86901323D03*
D22*
X142958895Y-115753823D03*
D32*
X146708895Y-117093823D03*
D16*
X144208895Y-117093823D03*
X141708895Y-117093823D03*
X139208895Y-117093823D03*
X146708895Y-119593823D03*
X144208895Y-119593823D03*
X141708895Y-119593823D03*
X139208895Y-119593823D03*
D19*
X173458895Y-117813823D03*
D16*
X98038895Y-80273823D03*
X103038895Y-80273823D03*
D31*
X98038895Y-87453823D03*
D21*
X100538895Y-87453823D03*
X103038895Y-87453823D03*
D16*
X122263895Y-79791323D03*
X124763895Y-79791323D03*
D31*
X122263895Y-86971323D03*
D21*
X124763895Y-86971323D03*
D16*
X112163895Y-79691323D03*
X114663895Y-79691323D03*
D31*
X112163895Y-86871323D03*
D21*
X114663895Y-86871323D03*
D33*
X129426395Y-92921323D03*
X135926395Y-92921323D03*
D34*
X168708895Y-99563823D03*
X165008895Y-99563823D03*
D35*
X168708895Y-95863823D03*
D36*
X93458895Y-102908823D03*
X93458895Y-101888823D03*
D37*
X105196395Y-110713823D03*
X107096395Y-110713823D03*
D38*
X106659160Y-88082255D03*
X107679160Y-88082255D03*
D39*
X169258895Y-100833823D03*
X169258895Y-101793823D03*
D40*
X92964000Y-113536000D03*
X92964000Y-110236000D03*
D41*
X147658895Y-83603823D03*
X147658895Y-84623823D03*
D42*
X101500000Y-82510000D03*
X101500000Y-85050000D03*
X95500000Y-85050000D03*
X95500000Y-82510000D03*
D41*
X94558895Y-99888823D03*
X94558895Y-100908823D03*
D43*
X138622889Y-110400741D03*
X137602889Y-110400741D03*
D36*
X95658895Y-100908823D03*
X95658895Y-99888823D03*
D44*
X91310000Y-112390000D03*
X91310000Y-111430000D03*
D43*
X127968170Y-110569126D03*
X126948170Y-110569126D03*
D45*
X111856863Y-114546359D03*
D46*
X109481863Y-114546359D03*
D47*
X95296395Y-104233823D03*
X95296395Y-105183823D03*
X95296395Y-106133823D03*
X93021395Y-106133823D03*
X93021395Y-104233823D03*
D48*
X114833035Y-113893793D03*
D49*
X114833035Y-111518793D03*
D50*
X115826863Y-105631359D03*
X109326863Y-105631359D03*
D43*
X103946395Y-111163823D03*
X102926395Y-111163823D03*
D41*
X117256863Y-111336359D03*
X117256863Y-112356359D03*
X91310000Y-109560000D03*
X91310000Y-110580000D03*
D44*
X91558895Y-106143823D03*
X91558895Y-105183823D03*
D36*
X103000000Y-83760000D03*
X103000000Y-82740000D03*
D45*
X123238895Y-84231323D03*
D46*
X125613895Y-84231323D03*
D50*
X137115002Y-105616969D03*
X130615002Y-105616969D03*
D48*
X129263895Y-84231323D03*
D49*
X129263895Y-86606323D03*
D51*
X165383895Y-102688823D03*
D52*
X165383895Y-101723823D03*
D51*
X165383895Y-100838823D03*
D53*
X166358895Y-101763823D03*
D54*
X95658895Y-101913823D03*
X95658895Y-102883823D03*
D37*
X98358895Y-120563823D03*
X100258895Y-120563823D03*
D48*
X125056863Y-113896359D03*
D49*
X125056863Y-111521359D03*
D41*
X150708895Y-83603823D03*
X150708895Y-84623823D03*
D33*
X118833895Y-92931323D03*
X125333895Y-92931323D03*
D45*
X122106863Y-114446359D03*
D46*
X119731863Y-114446359D03*
D55*
X94558895Y-111288823D03*
D56*
X95523895Y-111288823D03*
D55*
X96408895Y-111288823D03*
D57*
X95483895Y-112263823D03*
D43*
X102046395Y-111163823D03*
X101026395Y-111163823D03*
D58*
X106458895Y-114513823D03*
X105958895Y-114513823D03*
X105458895Y-114513823D03*
X104958895Y-114513823D03*
X104958895Y-112513823D03*
X105458895Y-112513823D03*
X105958895Y-112513823D03*
X106458895Y-112513823D03*
D59*
X105708895Y-113513823D03*
D60*
X105158895Y-93913823D03*
X104208895Y-93913823D03*
X103258895Y-93913823D03*
X103258895Y-91638823D03*
X105158895Y-91638823D03*
D61*
X102683895Y-118413823D03*
X106833895Y-118413823D03*
D41*
X149458895Y-83603823D03*
X149458895Y-84623823D03*
D38*
X127904124Y-88025469D03*
X128924124Y-88025469D03*
D62*
X169658895Y-115701323D03*
X167758895Y-115701323D03*
X168708895Y-113826323D03*
D63*
X105688895Y-90076323D03*
X104728895Y-90076323D03*
D64*
X101471395Y-114313823D03*
X101471395Y-112413823D03*
X103346395Y-113363823D03*
D45*
X112838895Y-84031323D03*
D46*
X115213895Y-84031323D03*
D63*
X165838895Y-120613823D03*
X164878895Y-120613823D03*
D43*
X161818895Y-104063823D03*
X160798895Y-104063823D03*
D44*
X166408895Y-115243823D03*
X166408895Y-114283823D03*
D43*
X165868895Y-116463823D03*
X164848895Y-116463823D03*
D65*
X102828895Y-90076323D03*
X103788895Y-90076323D03*
D63*
X90220000Y-113288823D03*
X89260000Y-113288823D03*
D48*
X109813895Y-85056323D03*
D49*
X109813895Y-87431323D03*
D63*
X165838895Y-117513823D03*
X164878895Y-117513823D03*
D39*
X152258895Y-118733823D03*
X152258895Y-119693823D03*
D66*
X90183500Y-112313823D03*
X89533500Y-112313823D03*
X88883500Y-112313823D03*
D67*
X89067000Y-111388823D03*
D66*
X88883500Y-110463823D03*
X89533500Y-110463823D03*
D67*
X90000000Y-111388823D03*
D66*
X90183500Y-110463823D03*
D45*
X132238895Y-84031323D03*
D46*
X134613895Y-84031323D03*
D41*
X151858895Y-83603823D03*
X151858895Y-84623823D03*
D36*
X143558895Y-113323823D03*
X143558895Y-112303823D03*
D48*
X120213895Y-85181323D03*
D49*
X120213895Y-87556323D03*
D68*
X91694000Y-92436350D03*
D69*
X106000000Y-85250000D03*
X106000000Y-83950000D03*
D44*
X96258895Y-89993823D03*
X96258895Y-89033823D03*
D38*
X100834722Y-89326613D03*
X101854722Y-89326613D03*
X117344385Y-88008264D03*
X118364385Y-88008264D03*
D41*
X142558895Y-112303823D03*
X142558895Y-113323823D03*
D48*
X135656863Y-113846359D03*
D49*
X135656863Y-111471359D03*
D33*
X108172395Y-92927823D03*
X114672395Y-92927823D03*
D43*
X90250000Y-114288823D03*
X89230000Y-114288823D03*
D70*
X105208895Y-95913823D03*
X103308895Y-95913823D03*
D45*
X132631863Y-114446359D03*
D46*
X130256863Y-114446359D03*
D50*
X126476863Y-105631359D03*
X119976863Y-105631359D03*
M02*
