M48
; DRILL file {KiCad 8.0.3} date 2024-07-31T22:40:00+0200
; FORMAT={-:-/ absolute / metric / decimal}
; #@! TF.CreationDate,2024-07-31T22:40:00+02:00
; #@! TF.GenerationSoftware,Kicad,Pcbnew,8.0.3
; #@! TF.FileFunction,NonPlated,1,6,NPTH
FMAT,2
METRIC
; #@! TA.AperFunction,NonPlated,NPTH,ComponentDrill
T1C0.600
; #@! TA.AperFunction,NonPlated,NPTH,ComponentDrill
T2C1.300
; #@! TA.AperFunction,NonPlated,NPTH,ComponentDrill
T3C1.700
%
G90
G05
T1
X93.39Y-89.332
T2
X142.959Y-115.754
X148.609Y-82.254
T3
X91.151Y-100.664
X91.151Y-108.164
X98.039Y-80.274
X103.039Y-80.274
X110.007Y-118.986
X112.164Y-79.691
X112.507Y-118.986
X114.664Y-79.691
X120.007Y-118.811
X122.264Y-79.791
X122.507Y-118.811
X124.764Y-79.791
X130.757Y-118.826
X131.914Y-79.721
X133.257Y-118.826
X134.414Y-79.721
T1
X93.39Y-95.207G85X93.39Y-95.457
G05
M30
