%TF.GenerationSoftware,KiCad,Pcbnew,8.0.3*%
%TF.CreationDate,2024-07-31T22:40:02+02:00*%
%TF.ProjectId,hw-tele-stern,68772d74-656c-4652-9d73-7465726e2e6b,rev2 w/ output diodes*%
%TF.SameCoordinates,Original*%
%TF.FileFunction,Drillmap*%
%TF.FilePolarity,Positive*%
%FSLAX45Y45*%
G04 Gerber Fmt 4.5, Leading zero omitted, Abs format (unit mm)*
G04 Created by KiCad (PCBNEW 8.0.3) date 2024-07-31 22:40:02*
%MOMM*%
%LPD*%
G01*
G04 APERTURE LIST*
%ADD10C,0.155000*%
%ADD11C,0.200000*%
%ADD12C,0.100000*%
%ADD13C,0.120000*%
%ADD14C,0.320000*%
G04 APERTURE END LIST*
D10*
X8745890Y-11681382D02*
X8745890Y-8181382D01*
X17245890Y-7681382D02*
G75*
G02*
X17745888Y-8181382I1J-499998D01*
G01*
X8745890Y-8181382D02*
G75*
G02*
X9245890Y-7681379I500001J2D01*
G01*
X17745890Y-8181382D02*
X17745890Y-11681382D01*
X17245890Y-12181382D02*
X9245890Y-12181382D01*
X17745890Y-11681382D02*
G75*
G02*
X17245890Y-12181379I-500000J2D01*
G01*
X9245890Y-12181382D02*
G75*
G02*
X8745888Y-11681382I1J500002D01*
G01*
X9245890Y-7681382D02*
X17245890Y-7681382D01*
D11*
D12*
X9104000Y-11421382D02*
X9124000Y-11441382D01*
X9124000Y-11421382D02*
X9104000Y-11441382D01*
X9240890Y-11186382D02*
X9260890Y-11206382D01*
X9260890Y-11186382D02*
X9240890Y-11206382D01*
X9255890Y-10231382D02*
X9275890Y-10251382D01*
X9275890Y-10231382D02*
X9255890Y-10251382D01*
X9276824Y-9231382D02*
X9296824Y-9251382D01*
X9296824Y-9231382D02*
X9276824Y-9251382D01*
X9355890Y-10101382D02*
X9375890Y-10121382D01*
X9375890Y-10101382D02*
X9355890Y-10121382D01*
X9365890Y-10508382D02*
X9385890Y-10528382D01*
X9385890Y-10508382D02*
X9365890Y-10528382D01*
X9395940Y-11370167D02*
X9415940Y-11390167D01*
X9415940Y-11370167D02*
X9395940Y-11390167D01*
X9525890Y-8911382D02*
X9545890Y-8931382D01*
X9545890Y-8911382D02*
X9525890Y-8931382D01*
X9535890Y-9541382D02*
X9555890Y-9561382D01*
X9555890Y-9541382D02*
X9535890Y-9561382D01*
X9542390Y-11118882D02*
X9562390Y-11138882D01*
X9562390Y-11118882D02*
X9542390Y-11138882D01*
X9554022Y-9143070D02*
X9574022Y-9163070D01*
X9574022Y-9143070D02*
X9554022Y-9163070D01*
X9555890Y-9901382D02*
X9575890Y-9921382D01*
X9575890Y-9901382D02*
X9555890Y-9921382D01*
X9615890Y-8821382D02*
X9635890Y-8841382D01*
X9635890Y-8821382D02*
X9615890Y-8841382D01*
X9627390Y-8991382D02*
X9647390Y-9011382D01*
X9647390Y-8991382D02*
X9627390Y-9011382D01*
X9628890Y-10508382D02*
X9648890Y-10528382D01*
X9648890Y-10508382D02*
X9628890Y-10528382D01*
X9635890Y-9981382D02*
X9655890Y-10001382D01*
X9655890Y-9981382D02*
X9635890Y-10001382D01*
X9648340Y-11501382D02*
X9668340Y-11521382D01*
X9668340Y-11501382D02*
X9648340Y-11521382D01*
X9695890Y-12046382D02*
X9715890Y-12066382D01*
X9715890Y-12046382D02*
X9695890Y-12066382D01*
X9697739Y-9128182D02*
X9717739Y-9148182D01*
X9717739Y-9128182D02*
X9697739Y-9148182D01*
X9711890Y-9596382D02*
X9731890Y-9616382D01*
X9731890Y-9596382D02*
X9711890Y-9616382D01*
X9715890Y-9693882D02*
X9735890Y-9713882D01*
X9735890Y-9693882D02*
X9715890Y-9713882D01*
X9724890Y-11301382D02*
X9744890Y-11321382D01*
X9744890Y-11301382D02*
X9724890Y-11321382D01*
X9812140Y-9221382D02*
X9832140Y-9241382D01*
X9832140Y-9221382D02*
X9812140Y-9241382D01*
X9935890Y-9221382D02*
X9955890Y-9241382D01*
X9955890Y-9221382D02*
X9935890Y-9241382D01*
X9985890Y-8991382D02*
X10005890Y-9011382D01*
X10005890Y-8991382D02*
X9985890Y-9011382D01*
X9995890Y-11671382D02*
X10015890Y-11691382D01*
X10015890Y-11671382D02*
X9995890Y-11691382D01*
X10015890Y-11101382D02*
X10035890Y-11121382D01*
X10035890Y-11101382D02*
X10015890Y-11121382D01*
X10051390Y-9605882D02*
X10071390Y-9625882D01*
X10071390Y-9605882D02*
X10051390Y-9625882D01*
X10055890Y-11493932D02*
X10075890Y-11513932D01*
X10075890Y-11493932D02*
X10055890Y-11513932D01*
X10145890Y-11311382D02*
X10165890Y-11331382D01*
X10165890Y-11311382D02*
X10145890Y-11331382D01*
X10225890Y-9581382D02*
X10245890Y-9601382D01*
X10245890Y-9581382D02*
X10225890Y-9601382D01*
X10245890Y-11426382D02*
X10265890Y-11446382D01*
X10265890Y-11426382D02*
X10245890Y-11446382D01*
X10258390Y-11831382D02*
X10278390Y-11851382D01*
X10278390Y-11831382D02*
X10258390Y-11851382D01*
X10315890Y-9381382D02*
X10335890Y-9401382D01*
X10335890Y-9381382D02*
X10315890Y-9401382D01*
X10333340Y-11326382D02*
X10353340Y-11346382D01*
X10353340Y-11326382D02*
X10333340Y-11346382D01*
X10395890Y-9661382D02*
X10415890Y-9681382D01*
X10415890Y-9661382D02*
X10395890Y-9681382D01*
X10410890Y-9266382D02*
X10430890Y-9286382D01*
X10430890Y-9266382D02*
X10410890Y-9286382D01*
X10410890Y-9491382D02*
X10430890Y-9511382D01*
X10430890Y-9491382D02*
X10410890Y-9511382D01*
X10415890Y-9081382D02*
X10435890Y-9101382D01*
X10435890Y-9081382D02*
X10415890Y-9101382D01*
X10417000Y-9768000D02*
X10437000Y-9788000D01*
X10437000Y-9768000D02*
X10417000Y-9788000D01*
X10433476Y-9154240D02*
X10453476Y-9174240D01*
X10453476Y-9154240D02*
X10433476Y-9174240D01*
X10475939Y-11241382D02*
X10495939Y-11261382D01*
X10495939Y-11241382D02*
X10475939Y-11261382D01*
X10505890Y-9381382D02*
X10525890Y-9401382D01*
X10525890Y-9381382D02*
X10505890Y-9401382D01*
X10510890Y-9581382D02*
X10530890Y-9601382D01*
X10530890Y-9581382D02*
X10510890Y-9601382D01*
X10520890Y-8921382D02*
X10540890Y-8941382D01*
X10540890Y-8921382D02*
X10520890Y-8941382D01*
X10535890Y-11507087D02*
X10555890Y-11527087D01*
X10555890Y-11507087D02*
X10535890Y-11527087D01*
X10536390Y-10280882D02*
X10556390Y-10300882D01*
X10556390Y-10280882D02*
X10536390Y-10300882D01*
X10575890Y-9151382D02*
X10595890Y-9171382D01*
X10595890Y-9151382D02*
X10575890Y-9171382D01*
X10655916Y-8798226D02*
X10675916Y-8818226D01*
X10675916Y-8798226D02*
X10655916Y-8818226D01*
X10659586Y-11090476D02*
X10679586Y-11110476D01*
X10679586Y-11090476D02*
X10659586Y-11110476D01*
X10665890Y-11341382D02*
X10685890Y-11361382D01*
X10685890Y-11341382D02*
X10665890Y-11361382D01*
X10697890Y-9495382D02*
X10717890Y-9515382D01*
X10717890Y-9495382D02*
X10697890Y-9515382D01*
X10716390Y-8523132D02*
X10736390Y-8543132D01*
X10736390Y-8523132D02*
X10716390Y-8543132D01*
X10795890Y-9696382D02*
X10815890Y-9716382D01*
X10815890Y-9696382D02*
X10795890Y-9716382D01*
X10805490Y-8911032D02*
X10825490Y-8931032D01*
X10825490Y-8911032D02*
X10805490Y-8931032D01*
X10807240Y-9282782D02*
X10827240Y-9302782D01*
X10827240Y-9282782D02*
X10807240Y-9302782D01*
X10859907Y-10171459D02*
X10879907Y-10191459D01*
X10879907Y-10171459D02*
X10859907Y-10191459D01*
X10895890Y-9671382D02*
X10915890Y-9691382D01*
X10915890Y-9671382D02*
X10895890Y-9691382D01*
X10895890Y-9771382D02*
X10915890Y-9791382D01*
X10915890Y-9771382D02*
X10895890Y-9791382D01*
X10941490Y-9038532D02*
X10961490Y-9058532D01*
X10961490Y-9038532D02*
X10941490Y-9058532D01*
X10959907Y-10171459D02*
X10979907Y-10191459D01*
X10979907Y-10171459D02*
X10959907Y-10191459D01*
X11043890Y-9821382D02*
X11063890Y-9841382D01*
X11063890Y-9821382D02*
X11043890Y-9841382D01*
X11077686Y-10793136D02*
X11097686Y-10813136D01*
X11097686Y-10793136D02*
X11077686Y-10813136D01*
X11092628Y-8488616D02*
X11112628Y-8508616D01*
X11112628Y-8488616D02*
X11092628Y-8508616D01*
X11143084Y-9278482D02*
X11163084Y-9298482D01*
X11163084Y-9278482D02*
X11143084Y-9298482D01*
X11145482Y-10573186D02*
X11165482Y-10593186D01*
X11165482Y-10573186D02*
X11145482Y-10593186D01*
X11145890Y-9821382D02*
X11165890Y-9841382D01*
X11165890Y-9821382D02*
X11145890Y-9841382D01*
X11157990Y-9168532D02*
X11177990Y-9188532D01*
X11177990Y-9168532D02*
X11157990Y-9188532D01*
X11160866Y-10717085D02*
X11180866Y-10737085D01*
X11180866Y-10717085D02*
X11160866Y-10737085D01*
X11220889Y-10246382D02*
X11240889Y-10266382D01*
X11240889Y-10246382D02*
X11220889Y-10266382D01*
X11225686Y-10573186D02*
X11245686Y-10593186D01*
X11245686Y-10573186D02*
X11225686Y-10593186D01*
X11227686Y-10683136D02*
X11247686Y-10703136D01*
X11247686Y-10683136D02*
X11227686Y-10703136D01*
X11234554Y-9278482D02*
X11254554Y-9298482D01*
X11254554Y-9278482D02*
X11234554Y-9298482D01*
X11311489Y-9038532D02*
X11331489Y-9058532D01*
X11331489Y-9038532D02*
X11311489Y-9058532D01*
X11320889Y-9821382D02*
X11340889Y-9841382D01*
X11340889Y-9821382D02*
X11320889Y-9841382D01*
X11378280Y-9101860D02*
X11398280Y-9121860D01*
X11398280Y-9101860D02*
X11378280Y-9121860D01*
X11445186Y-10793136D02*
X11465186Y-10813136D01*
X11465186Y-10793136D02*
X11445186Y-10813136D01*
X11445889Y-9671382D02*
X11465889Y-9691382D01*
X11465889Y-9671382D02*
X11445889Y-9691382D01*
X11473303Y-11379379D02*
X11493303Y-11399379D01*
X11493303Y-11379379D02*
X11473303Y-11399379D01*
X11495889Y-10171382D02*
X11515889Y-10191382D01*
X11515889Y-10171382D02*
X11495889Y-10191382D01*
X11545889Y-9671382D02*
X11565889Y-9691382D01*
X11565889Y-9671382D02*
X11545889Y-9691382D01*
X11572686Y-10553136D02*
X11592686Y-10573136D01*
X11592686Y-10553136D02*
X11572686Y-10573136D01*
X11577686Y-10923136D02*
X11597686Y-10943136D01*
X11597686Y-10923136D02*
X11577686Y-10943136D01*
X11645889Y-9771382D02*
X11665889Y-9791382D01*
X11665889Y-9771382D02*
X11645889Y-9791382D01*
X11670889Y-9483382D02*
X11690889Y-9503382D01*
X11690889Y-9483382D02*
X11670889Y-9503382D01*
X11718686Y-11033136D02*
X11738686Y-11053136D01*
X11738686Y-11033136D02*
X11718686Y-11053136D01*
X11720889Y-11346382D02*
X11740889Y-11366382D01*
X11740889Y-11346382D02*
X11720889Y-11366382D01*
X11722389Y-8793132D02*
X11742389Y-8813132D01*
X11742389Y-8793132D02*
X11722389Y-8813132D01*
X11735389Y-8573132D02*
X11755389Y-8593132D01*
X11755389Y-8573132D02*
X11735389Y-8593132D01*
X11819161Y-10248111D02*
X11839161Y-10268111D01*
X11839161Y-10248111D02*
X11819161Y-10268111D01*
X11845889Y-9671382D02*
X11865889Y-9691382D01*
X11865889Y-9671382D02*
X11845889Y-9691382D01*
X11845889Y-9771382D02*
X11865889Y-9791382D01*
X11865889Y-9771382D02*
X11845889Y-9791382D01*
X11865889Y-8908132D02*
X11885889Y-8928132D01*
X11885889Y-8908132D02*
X11865889Y-8928132D01*
X11873389Y-9283132D02*
X11893389Y-9303132D01*
X11893389Y-9283132D02*
X11873389Y-9303132D01*
X11920889Y-10171382D02*
X11940889Y-10191382D01*
X11940889Y-10171382D02*
X11920889Y-10191382D01*
X11945889Y-9658382D02*
X11965889Y-9678382D01*
X11965889Y-9658382D02*
X11945889Y-9678382D01*
X11970889Y-10071382D02*
X11990889Y-10091382D01*
X11990889Y-10071382D02*
X11970889Y-10091382D01*
X11995889Y-9040632D02*
X12015889Y-9060632D01*
X12015889Y-9040632D02*
X11995889Y-9060632D01*
X12020889Y-10171382D02*
X12040889Y-10191382D01*
X12040889Y-10171382D02*
X12020889Y-10191382D01*
X12070889Y-10021382D02*
X12090889Y-10041382D01*
X12090889Y-10021382D02*
X12070889Y-10041382D01*
X12132378Y-8508132D02*
X12152378Y-8528132D01*
X12152378Y-8508132D02*
X12132378Y-8528132D01*
X12142686Y-10798136D02*
X12162686Y-10818136D01*
X12162686Y-10798136D02*
X12142686Y-10818136D01*
X12191389Y-9273132D02*
X12211389Y-9293132D01*
X12211389Y-9273132D02*
X12191389Y-9293132D01*
X12210482Y-10558186D02*
X12230482Y-10578186D01*
X12230482Y-10558186D02*
X12210482Y-10578186D01*
X12211690Y-9152817D02*
X12231690Y-9172817D01*
X12231690Y-9152817D02*
X12211690Y-9172817D01*
X12240136Y-10704636D02*
X12260136Y-10724636D01*
X12260136Y-10704636D02*
X12240136Y-10724636D01*
X12295889Y-10246382D02*
X12315889Y-10266382D01*
X12315889Y-10246382D02*
X12295889Y-10266382D01*
X12303439Y-9273132D02*
X12323439Y-9293132D01*
X12323439Y-9273132D02*
X12303439Y-9293132D01*
X12315686Y-10558186D02*
X12335686Y-10578186D01*
X12335686Y-10558186D02*
X12315686Y-10578186D01*
X12334913Y-10686194D02*
X12354913Y-10706194D01*
X12354913Y-10686194D02*
X12334913Y-10706194D01*
X12363389Y-9043132D02*
X12383389Y-9063132D01*
X12383389Y-9043132D02*
X12363389Y-9063132D01*
X12409639Y-10151382D02*
X12429639Y-10171382D01*
X12429639Y-10151382D02*
X12409639Y-10171382D01*
X12420839Y-9101168D02*
X12440839Y-9121168D01*
X12440839Y-9101168D02*
X12420839Y-9121168D01*
X12493170Y-9632796D02*
X12513170Y-9652796D01*
X12513170Y-9632796D02*
X12493170Y-9652796D01*
X12519186Y-10798136D02*
X12539186Y-10818136D01*
X12539186Y-10798136D02*
X12519186Y-10818136D01*
X12570889Y-10169636D02*
X12590889Y-10189636D01*
X12590889Y-10169636D02*
X12570889Y-10189636D01*
X12590686Y-11419636D02*
X12610686Y-11439636D01*
X12610686Y-11419636D02*
X12590686Y-11439636D01*
X12593116Y-10021382D02*
X12613116Y-10041382D01*
X12613116Y-10021382D02*
X12593116Y-10041382D01*
X12593170Y-9632796D02*
X12613170Y-9652796D01*
X12613170Y-9632796D02*
X12593170Y-9652796D01*
X12637736Y-10925636D02*
X12657736Y-10945636D01*
X12657736Y-10925636D02*
X12637736Y-10945636D01*
X12645136Y-10553136D02*
X12665136Y-10573136D01*
X12665136Y-10553136D02*
X12645136Y-10573136D01*
X12670889Y-10169636D02*
X12690889Y-10189636D01*
X12690889Y-10169636D02*
X12670889Y-10189636D01*
X12695889Y-8521382D02*
X12715889Y-8541382D01*
X12715889Y-8521382D02*
X12695889Y-8541382D01*
X12720889Y-9696382D02*
X12740889Y-9716382D01*
X12740889Y-9696382D02*
X12720889Y-9716382D01*
X12782389Y-8802132D02*
X12802389Y-8822132D01*
X12802389Y-8802132D02*
X12782389Y-8822132D01*
X12787686Y-11043136D02*
X12807686Y-11063136D01*
X12807686Y-11043136D02*
X12787686Y-11063136D01*
X12820889Y-11371382D02*
X12840889Y-11391382D01*
X12840889Y-11371382D02*
X12820889Y-11391382D01*
X12870889Y-9574132D02*
X12890889Y-9594132D01*
X12890889Y-9574132D02*
X12870889Y-9594132D01*
X12890686Y-10369636D02*
X12910686Y-10389636D01*
X12910686Y-10369636D02*
X12890686Y-10389636D01*
X12916389Y-8648132D02*
X12936389Y-8668132D01*
X12936389Y-8648132D02*
X12916389Y-8668132D01*
X12932639Y-9282132D02*
X12952639Y-9302132D01*
X12952639Y-9282132D02*
X12932639Y-9302132D01*
X12933389Y-8912132D02*
X12953389Y-8932132D01*
X12953389Y-8912132D02*
X12933389Y-8932132D01*
X12970889Y-9648132D02*
X12990889Y-9668132D01*
X12990889Y-9648132D02*
X12970889Y-9668132D01*
X12970889Y-9746382D02*
X12990889Y-9766382D01*
X12990889Y-9746382D02*
X12970889Y-9766382D01*
X12990686Y-10194636D02*
X13010686Y-10214636D01*
X13010686Y-10194636D02*
X12990686Y-10214636D01*
X13041389Y-8393132D02*
X13061389Y-8413132D01*
X13061389Y-8393132D02*
X13041389Y-8413132D01*
X13045889Y-10071382D02*
X13065889Y-10091382D01*
X13065889Y-10071382D02*
X13045889Y-10091382D01*
X13060839Y-9042132D02*
X13080839Y-9062132D01*
X13080839Y-9042132D02*
X13060839Y-9062132D01*
X13090686Y-10194636D02*
X13110686Y-10214636D01*
X13110686Y-10194636D02*
X13090686Y-10214636D01*
X13145889Y-10021382D02*
X13165889Y-10041382D01*
X13165889Y-10021382D02*
X13145889Y-10041382D01*
X13198000Y-10791697D02*
X13218000Y-10811697D01*
X13218000Y-10791697D02*
X13198000Y-10811697D01*
X13245889Y-9571382D02*
X13265889Y-9591382D01*
X13265889Y-9571382D02*
X13245889Y-9591382D01*
X13251447Y-9262286D02*
X13271447Y-9282286D01*
X13271447Y-9262286D02*
X13251447Y-9282286D01*
X13267601Y-9146343D02*
X13287601Y-9166343D01*
X13287601Y-9146343D02*
X13267601Y-9166343D01*
X13271450Y-10571697D02*
X13291450Y-10591697D01*
X13291450Y-10571697D02*
X13271450Y-10591697D01*
X13286993Y-10718234D02*
X13306993Y-10738234D01*
X13306993Y-10718234D02*
X13286993Y-10738234D01*
X13345889Y-10246382D02*
X13365889Y-10266382D01*
X13365889Y-10246382D02*
X13345889Y-10266382D01*
X13356247Y-10689575D02*
X13376247Y-10709575D01*
X13376247Y-10689575D02*
X13356247Y-10709575D01*
X13362689Y-9262132D02*
X13382689Y-9282132D01*
X13382689Y-9262132D02*
X13362689Y-9282132D01*
X13380686Y-10571747D02*
X13400686Y-10591747D01*
X13400686Y-10571747D02*
X13380686Y-10591747D01*
X13395889Y-8171382D02*
X13415889Y-8191382D01*
X13415889Y-8171382D02*
X13395889Y-8191382D01*
X13435691Y-9032082D02*
X13455691Y-9052082D01*
X13455691Y-9032082D02*
X13435691Y-9052082D01*
X13459639Y-10151382D02*
X13479639Y-10171382D01*
X13479639Y-10151382D02*
X13459639Y-10171382D01*
X13516389Y-9648132D02*
X13536389Y-9668132D01*
X13536389Y-9648132D02*
X13516389Y-9668132D01*
X13579000Y-10791697D02*
X13599000Y-10811697D01*
X13599000Y-10791697D02*
X13579000Y-10811697D01*
X13616389Y-9648132D02*
X13636389Y-9668132D01*
X13636389Y-9648132D02*
X13616389Y-9668132D01*
X13620889Y-10169636D02*
X13640889Y-10189636D01*
X13640889Y-10169636D02*
X13620889Y-10189636D01*
X13640686Y-11594636D02*
X13660686Y-11614636D01*
X13660686Y-11594636D02*
X13640686Y-11614636D01*
X13640686Y-11744636D02*
X13660686Y-11764636D01*
X13660686Y-11744636D02*
X13640686Y-11764636D01*
X13645889Y-10021382D02*
X13665889Y-10041382D01*
X13665889Y-10021382D02*
X13645889Y-10041382D01*
X13655217Y-8484305D02*
X13675217Y-8504305D01*
X13675217Y-8484305D02*
X13655217Y-8504305D01*
X13690686Y-11269636D02*
X13710686Y-11289636D01*
X13710686Y-11269636D02*
X13690686Y-11289636D01*
X13701808Y-10551389D02*
X13721808Y-10571389D01*
X13721808Y-10551389D02*
X13701808Y-10571389D01*
X13714000Y-10919197D02*
X13734000Y-10939197D01*
X13734000Y-10919197D02*
X13714000Y-10939197D01*
X13720889Y-9696382D02*
X13740889Y-9716382D01*
X13740889Y-9696382D02*
X13720889Y-9716382D01*
X13770889Y-8096382D02*
X13790889Y-8116382D01*
X13790889Y-8096382D02*
X13770889Y-8116382D01*
X13795889Y-7996382D02*
X13815889Y-8016382D01*
X13815889Y-7996382D02*
X13795889Y-8016382D01*
X13845889Y-10171382D02*
X13865889Y-10191382D01*
X13865889Y-10171382D02*
X13845889Y-10191382D01*
X13852500Y-11031697D02*
X13872500Y-11051697D01*
X13872500Y-11031697D02*
X13852500Y-11051697D01*
X13870889Y-10069636D02*
X13890889Y-10089636D01*
X13890889Y-10069636D02*
X13870889Y-10089636D01*
X13877300Y-9337655D02*
X13897300Y-9357655D01*
X13897300Y-9337655D02*
X13877300Y-9357655D01*
X13895889Y-10344636D02*
X13915889Y-10364636D01*
X13915889Y-10344636D02*
X13895889Y-10364636D01*
X13920889Y-10721382D02*
X13940889Y-10741382D01*
X13940889Y-10721382D02*
X13920889Y-10741382D01*
X13925889Y-9021382D02*
X13945889Y-9041382D01*
X13945889Y-9021382D02*
X13925889Y-9041382D01*
X13958389Y-8808882D02*
X13978389Y-8828882D01*
X13978389Y-8808882D02*
X13958389Y-8828882D01*
X13965686Y-11194636D02*
X13985686Y-11214636D01*
X13985686Y-11194636D02*
X13965686Y-11214636D01*
X13975889Y-9531382D02*
X13995889Y-9551382D01*
X13995889Y-9531382D02*
X13975889Y-9551382D01*
X14005889Y-8941382D02*
X14025889Y-8961382D01*
X14025889Y-8941382D02*
X14005889Y-8961382D01*
X14020889Y-10292157D02*
X14040889Y-10312157D01*
X14040889Y-10292157D02*
X14020889Y-10312157D01*
X14020889Y-10796382D02*
X14040889Y-10816382D01*
X14040889Y-10796382D02*
X14020889Y-10816382D01*
X14025889Y-9451382D02*
X14045889Y-9471382D01*
X14045889Y-9451382D02*
X14025889Y-9471382D01*
X14035889Y-10371382D02*
X14055889Y-10391382D01*
X14055889Y-10371382D02*
X14035889Y-10391382D01*
X14040939Y-11321382D02*
X14060939Y-11341382D01*
X14060939Y-11321382D02*
X14040939Y-11341382D01*
X14045889Y-10946382D02*
X14065889Y-10966382D01*
X14065889Y-10946382D02*
X14045889Y-10966382D01*
X14065889Y-8771382D02*
X14085889Y-8791382D01*
X14085889Y-8771382D02*
X14065889Y-8791382D01*
X14065889Y-9211382D02*
X14085889Y-9231382D01*
X14085889Y-9211382D02*
X14065889Y-9231382D01*
X14095043Y-10266492D02*
X14115043Y-10286492D01*
X14115043Y-10266492D02*
X14095043Y-10286492D01*
X14125889Y-10811382D02*
X14145889Y-10831382D01*
X14145889Y-10811382D02*
X14125889Y-10831382D01*
X14169174Y-9118098D02*
X14189174Y-9138098D01*
X14189174Y-9118098D02*
X14169174Y-9138098D01*
X14185889Y-8671382D02*
X14205889Y-8691382D01*
X14205889Y-8671382D02*
X14185889Y-8691382D01*
X14185889Y-10391382D02*
X14205889Y-10411382D01*
X14205889Y-10391382D02*
X14185889Y-10411382D01*
X14215889Y-8282382D02*
X14235889Y-8302382D01*
X14235889Y-8282382D02*
X14215889Y-8302382D01*
X14245889Y-11066272D02*
X14265889Y-11086272D01*
X14265889Y-11066272D02*
X14245889Y-11086272D01*
X14255889Y-8611382D02*
X14275889Y-8631382D01*
X14275889Y-8611382D02*
X14255889Y-8631382D01*
X14257980Y-10361410D02*
X14277980Y-10381410D01*
X14277980Y-10361410D02*
X14257980Y-10381410D01*
X14265889Y-8881382D02*
X14285889Y-8901382D01*
X14285889Y-8881382D02*
X14265889Y-8901382D01*
X14299025Y-9368246D02*
X14319025Y-9388246D01*
X14319025Y-9368246D02*
X14299025Y-9388246D01*
X14306948Y-8790323D02*
X14326948Y-8810323D01*
X14326948Y-8790323D02*
X14306948Y-8810323D01*
X14314889Y-8282382D02*
X14334889Y-8302382D01*
X14334889Y-8282382D02*
X14314889Y-8302382D01*
X14325862Y-10429292D02*
X14345862Y-10449292D01*
X14345862Y-10429292D02*
X14325862Y-10449292D01*
X14345889Y-11146382D02*
X14365889Y-11166382D01*
X14365889Y-11146382D02*
X14345889Y-11166382D01*
X14366263Y-9746492D02*
X14386263Y-9766492D01*
X14386263Y-9746492D02*
X14366263Y-9766492D01*
X14370889Y-10921382D02*
X14390889Y-10941382D01*
X14390889Y-10921382D02*
X14370889Y-10941382D01*
X14382647Y-9260808D02*
X14402647Y-9280808D01*
X14402647Y-9260808D02*
X14382647Y-9280808D01*
X14385889Y-7861382D02*
X14405889Y-7881382D01*
X14405889Y-7861382D02*
X14385889Y-7881382D01*
X14406513Y-9912006D02*
X14426513Y-9932006D01*
X14426513Y-9912006D02*
X14406513Y-9932006D01*
X14415889Y-8282382D02*
X14435889Y-8302382D01*
X14435889Y-8282382D02*
X14415889Y-8302382D01*
X14435889Y-9141382D02*
X14455889Y-9161382D01*
X14455889Y-9141382D02*
X14435889Y-9161382D01*
X14450228Y-8520077D02*
X14470228Y-8540077D01*
X14470228Y-8520077D02*
X14450228Y-8540077D01*
X14470889Y-7766382D02*
X14490889Y-7786382D01*
X14490889Y-7766382D02*
X14470889Y-7786382D01*
X14485889Y-9848832D02*
X14505889Y-9868832D01*
X14505889Y-9848832D02*
X14485889Y-9868832D01*
X14485889Y-10651382D02*
X14505889Y-10671382D01*
X14505889Y-10651382D02*
X14485889Y-10671382D01*
X14485889Y-10851382D02*
X14505889Y-10871382D01*
X14505889Y-10851382D02*
X14485889Y-10871382D01*
X14515889Y-8734415D02*
X14535889Y-8754415D01*
X14535889Y-8734415D02*
X14515889Y-8754415D01*
X14525851Y-9534955D02*
X14545851Y-9554955D01*
X14545851Y-9534955D02*
X14525851Y-9554955D01*
X14545889Y-8834415D02*
X14565889Y-8854415D01*
X14565889Y-8834415D02*
X14545889Y-8854415D01*
X14545889Y-10941382D02*
X14565889Y-10961382D01*
X14565889Y-10941382D02*
X14545889Y-10961382D01*
X14546339Y-10603105D02*
X14566339Y-10623105D01*
X14566339Y-10603105D02*
X14546339Y-10623105D01*
X14550779Y-9891382D02*
X14570779Y-9911382D01*
X14570779Y-9891382D02*
X14550779Y-9911382D01*
X14606161Y-8789863D02*
X14626161Y-8809863D01*
X14626161Y-8789863D02*
X14606161Y-8809863D01*
X14610799Y-9521382D02*
X14630799Y-9541382D01*
X14630799Y-9521382D02*
X14610799Y-9541382D01*
X14615889Y-11001382D02*
X14635889Y-11021382D01*
X14635889Y-11001382D02*
X14615889Y-11021382D01*
X14620080Y-10637225D02*
X14640080Y-10657225D01*
X14640080Y-10637225D02*
X14620080Y-10657225D01*
X14645889Y-11221382D02*
X14665889Y-11241382D01*
X14665889Y-11221382D02*
X14645889Y-11241382D01*
X14645889Y-11311382D02*
X14665889Y-11331382D01*
X14665889Y-11311382D02*
X14645889Y-11331382D01*
X14655889Y-9003716D02*
X14675889Y-9023716D01*
X14675889Y-9003716D02*
X14655889Y-9023716D01*
X14655889Y-10571382D02*
X14675889Y-10591382D01*
X14675889Y-10571382D02*
X14655889Y-10591382D01*
X14657200Y-9432200D02*
X14677200Y-9452200D01*
X14677200Y-9432200D02*
X14657200Y-9452200D01*
X14694479Y-10701382D02*
X14714479Y-10721382D01*
X14714479Y-10701382D02*
X14694479Y-10721382D01*
X14710266Y-10271382D02*
X14730266Y-10291382D01*
X14730266Y-10271382D02*
X14710266Y-10291382D01*
X14724417Y-8888832D02*
X14744417Y-8908832D01*
X14744417Y-8888832D02*
X14724417Y-8908832D01*
X14767716Y-10146492D02*
X14787716Y-10166492D01*
X14787716Y-10146492D02*
X14767716Y-10166492D01*
X14778573Y-8833989D02*
X14798573Y-8853989D01*
X14798573Y-8833989D02*
X14778573Y-8853989D01*
X14795889Y-9531382D02*
X14815889Y-9551382D01*
X14815889Y-9531382D02*
X14795889Y-9551382D01*
X14849175Y-8808832D02*
X14869175Y-8828832D01*
X14869175Y-8808832D02*
X14849175Y-8828832D01*
X14865889Y-9451382D02*
X14885889Y-9471382D01*
X14885889Y-9451382D02*
X14865889Y-9471382D01*
X14870889Y-9171382D02*
X14890889Y-9191382D01*
X14890889Y-9171382D02*
X14870889Y-9191382D01*
X14885889Y-11856382D02*
X14905889Y-11876382D01*
X14905889Y-11856382D02*
X14885889Y-11876382D01*
X14885889Y-11981382D02*
X14905889Y-12001382D01*
X14905889Y-11981382D02*
X14885889Y-12001382D01*
X14920889Y-10277276D02*
X14940889Y-10297276D01*
X14940889Y-10277276D02*
X14920889Y-10297276D01*
X14930839Y-10858432D02*
X14950839Y-10878432D01*
X14950839Y-10858432D02*
X14930839Y-10878432D01*
X14939839Y-11286382D02*
X14959839Y-11306382D01*
X14959839Y-11286382D02*
X14939839Y-11306382D01*
X14945889Y-9879020D02*
X14965889Y-9899020D01*
X14965889Y-9879020D02*
X14945889Y-9899020D01*
X14945889Y-10471382D02*
X14965889Y-10491382D01*
X14965889Y-10471382D02*
X14945889Y-10491382D01*
X14960266Y-9182006D02*
X14980266Y-9202006D01*
X14980266Y-9182006D02*
X14960266Y-9202006D01*
X14965889Y-9776382D02*
X14985889Y-9796382D01*
X14985889Y-9776382D02*
X14965889Y-9796382D01*
X14970889Y-10146382D02*
X14990889Y-10166382D01*
X14990889Y-10146382D02*
X14970889Y-10166382D01*
X14985889Y-9491382D02*
X15005889Y-9511382D01*
X15005889Y-9491382D02*
X14985889Y-9511382D01*
X14995889Y-9630749D02*
X15015889Y-9650749D01*
X15015889Y-9630749D02*
X14995889Y-9650749D01*
X15015889Y-11601382D02*
X15035889Y-11621382D01*
X15035889Y-11601382D02*
X15015889Y-11621382D01*
X15038389Y-10096382D02*
X15058389Y-10116382D01*
X15058389Y-10096382D02*
X15038389Y-10116382D01*
X15060889Y-8350382D02*
X15080889Y-8370382D01*
X15080889Y-8350382D02*
X15060889Y-8370382D01*
X15070889Y-9946382D02*
X15090889Y-9966382D01*
X15090889Y-9946382D02*
X15070889Y-9966382D01*
X15120889Y-10021382D02*
X15140889Y-10041382D01*
X15140889Y-10021382D02*
X15120889Y-10041382D01*
X15132389Y-11854882D02*
X15152389Y-11874882D01*
X15152389Y-11854882D02*
X15132389Y-11874882D01*
X15135889Y-11981382D02*
X15155889Y-12001382D01*
X15155889Y-11981382D02*
X15135889Y-12001382D01*
X15176799Y-10340473D02*
X15196799Y-10360473D01*
X15196799Y-10340473D02*
X15176799Y-10360473D01*
X15215000Y-9465000D02*
X15235000Y-9485000D01*
X15235000Y-9465000D02*
X15215000Y-9485000D01*
X15231737Y-10526378D02*
X15251737Y-10546378D01*
X15251737Y-10526378D02*
X15231737Y-10546378D01*
X15243389Y-11046382D02*
X15263389Y-11066382D01*
X15263389Y-11046382D02*
X15243389Y-11066382D01*
X15243389Y-11286382D02*
X15263389Y-11306382D01*
X15263389Y-11286382D02*
X15243389Y-11306382D01*
X15245889Y-11641932D02*
X15265889Y-11661932D01*
X15265889Y-11641932D02*
X15245889Y-11661932D01*
X15250871Y-10807058D02*
X15270871Y-10827058D01*
X15270871Y-10807058D02*
X15250871Y-10827058D01*
X15270889Y-8571382D02*
X15290889Y-8591382D01*
X15290889Y-8571382D02*
X15270889Y-8591382D01*
X15285837Y-9081330D02*
X15305837Y-9101330D01*
X15305837Y-9081330D02*
X15285837Y-9101330D01*
X15295889Y-9796382D02*
X15315889Y-9816382D01*
X15315889Y-9796382D02*
X15295889Y-9816382D01*
X15345889Y-9401382D02*
X15365889Y-9421382D01*
X15365889Y-9401382D02*
X15345889Y-9421382D01*
X15345889Y-9481382D02*
X15365889Y-9501382D01*
X15365889Y-9481382D02*
X15345889Y-9501382D01*
X15345942Y-9141434D02*
X15365942Y-9161434D01*
X15365942Y-9141434D02*
X15345942Y-9161434D01*
X15370889Y-9621382D02*
X15390889Y-9641382D01*
X15390889Y-9621382D02*
X15370889Y-9641382D01*
X15375889Y-11699382D02*
X15395889Y-11719382D01*
X15395889Y-11699382D02*
X15375889Y-11719382D01*
X15403503Y-10865000D02*
X15423503Y-10885000D01*
X15423503Y-10865000D02*
X15403503Y-10885000D01*
X15440889Y-8791382D02*
X15460889Y-8811382D01*
X15460889Y-8791382D02*
X15440889Y-8811382D01*
X15445889Y-9401382D02*
X15465889Y-9421382D01*
X15465889Y-9401382D02*
X15445889Y-9421382D01*
X15455889Y-9321382D02*
X15475889Y-9341382D01*
X15475889Y-9321382D02*
X15455889Y-9341382D01*
X15490000Y-9640000D02*
X15510000Y-9660000D01*
X15510000Y-9640000D02*
X15490000Y-9660000D01*
X15515889Y-7832632D02*
X15535889Y-7852632D01*
X15535889Y-7832632D02*
X15515889Y-7852632D01*
X15522927Y-9287864D02*
X15542927Y-9307864D01*
X15542927Y-9287864D02*
X15522927Y-9307864D01*
X15555889Y-11516382D02*
X15575889Y-11536382D01*
X15575889Y-11516382D02*
X15555889Y-11536382D01*
X15571467Y-8951167D02*
X15591467Y-8971167D01*
X15591467Y-8951167D02*
X15571467Y-8971167D01*
X15605889Y-11601382D02*
X15625889Y-11621382D01*
X15625889Y-11601382D02*
X15605889Y-11621382D01*
X15605889Y-11726382D02*
X15625889Y-11746382D01*
X15625889Y-11726382D02*
X15605889Y-11746382D01*
X15615889Y-7827882D02*
X15635889Y-7847882D01*
X15635889Y-7827882D02*
X15615889Y-7847882D01*
X15630889Y-11286382D02*
X15650889Y-11306382D01*
X15650889Y-11286382D02*
X15630889Y-11306382D01*
X15635889Y-11386382D02*
X15655889Y-11406382D01*
X15655889Y-11386382D02*
X15635889Y-11406382D01*
X15645889Y-8496382D02*
X15665889Y-8516382D01*
X15665889Y-8496382D02*
X15645889Y-8516382D01*
X15645889Y-8596382D02*
X15665889Y-8616382D01*
X15665889Y-8596382D02*
X15645889Y-8616382D01*
X15645889Y-9621382D02*
X15665889Y-9641382D01*
X15665889Y-9621382D02*
X15645889Y-9641382D01*
X15653339Y-8686382D02*
X15673339Y-8706382D01*
X15673339Y-8686382D02*
X15653339Y-8706382D01*
X15658258Y-9926106D02*
X15678258Y-9946106D01*
X15678258Y-9926106D02*
X15658258Y-9946106D01*
X15665000Y-9821382D02*
X15685000Y-9841382D01*
X15685000Y-9821382D02*
X15665000Y-9841382D01*
X15695889Y-8311382D02*
X15715889Y-8331382D01*
X15715889Y-8311382D02*
X15695889Y-8331382D01*
X15715422Y-9684267D02*
X15735422Y-9704267D01*
X15735422Y-9684267D02*
X15715422Y-9704267D01*
X15720854Y-11256418D02*
X15740854Y-11276418D01*
X15740854Y-11256418D02*
X15720854Y-11276418D01*
X15730639Y-11981882D02*
X15750639Y-12001882D01*
X15750639Y-11981882D02*
X15730639Y-12001882D01*
X15745889Y-11131382D02*
X15765889Y-11151382D01*
X15765889Y-11131382D02*
X15745889Y-11151382D01*
X15760050Y-9990000D02*
X15780050Y-10010000D01*
X15780050Y-9990000D02*
X15760050Y-10010000D01*
X15785789Y-8171382D02*
X15805789Y-8191382D01*
X15805789Y-8171382D02*
X15785789Y-8191382D01*
X15795889Y-9546382D02*
X15815889Y-9566382D01*
X15815889Y-9546382D02*
X15795889Y-9566382D01*
X15805889Y-8601382D02*
X15825889Y-8621382D01*
X15825889Y-8601382D02*
X15805889Y-8621382D01*
X15808722Y-10777151D02*
X15828722Y-10797151D01*
X15828722Y-10777151D02*
X15808722Y-10797151D01*
X15810266Y-8695759D02*
X15830266Y-8715759D01*
X15830266Y-8695759D02*
X15810266Y-8715759D01*
X15810889Y-9111382D02*
X15830889Y-9131382D01*
X15830889Y-9111382D02*
X15810889Y-9131382D01*
X15813341Y-9763834D02*
X15833341Y-9783834D01*
X15833341Y-9763834D02*
X15813341Y-9783834D01*
X15824538Y-8480981D02*
X15844538Y-8500981D01*
X15844538Y-8480981D02*
X15824538Y-8500981D01*
X15852389Y-11727882D02*
X15872389Y-11747882D01*
X15872389Y-11727882D02*
X15852389Y-11747882D01*
X15855889Y-11601382D02*
X15875889Y-11621382D01*
X15875889Y-11601382D02*
X15855889Y-11621382D01*
X15860441Y-8546772D02*
X15880441Y-8566772D01*
X15880441Y-8546772D02*
X15860441Y-8566772D01*
X15895889Y-8411382D02*
X15915889Y-8431382D01*
X15915889Y-8411382D02*
X15895889Y-8431382D01*
X15915000Y-9840000D02*
X15935000Y-9860000D01*
X15935000Y-9840000D02*
X15915000Y-9860000D01*
X15920889Y-11891382D02*
X15940889Y-11911382D01*
X15940889Y-11891382D02*
X15920889Y-11911382D01*
X15930889Y-11131382D02*
X15950889Y-11151382D01*
X15950889Y-11131382D02*
X15930889Y-11151382D01*
X15945889Y-7811382D02*
X15965889Y-7831382D01*
X15965889Y-7811382D02*
X15945889Y-7831382D01*
X15945889Y-10596492D02*
X15965889Y-10616492D01*
X15965889Y-10596492D02*
X15945889Y-10616492D01*
X15958029Y-9005134D02*
X15978029Y-9025134D01*
X15978029Y-9005134D02*
X15958029Y-9025134D01*
X15975889Y-8381382D02*
X15995889Y-8401382D01*
X15995889Y-8381382D02*
X15975889Y-8401382D01*
X15995889Y-9771382D02*
X16015889Y-9791382D01*
X16015889Y-9771382D02*
X15995889Y-9791382D01*
X15995889Y-11781382D02*
X16015889Y-11801382D01*
X16015889Y-11781382D02*
X15995889Y-11801382D01*
X15995889Y-12026382D02*
X16015889Y-12046382D01*
X16015889Y-12026382D02*
X15995889Y-12046382D01*
X16023339Y-10239472D02*
X16043339Y-10259472D01*
X16043339Y-10239472D02*
X16023339Y-10259472D01*
X16035889Y-7951382D02*
X16055889Y-7971382D01*
X16055889Y-7951382D02*
X16035889Y-7971382D01*
X16052920Y-9092063D02*
X16072920Y-9112063D01*
X16072920Y-9092063D02*
X16052920Y-9112063D01*
X16075266Y-10512006D02*
X16095266Y-10532006D01*
X16095266Y-10512006D02*
X16075266Y-10532006D01*
X16084555Y-10282716D02*
X16104555Y-10302716D01*
X16104555Y-10282716D02*
X16084555Y-10302716D01*
X16095889Y-11516382D02*
X16115889Y-11536382D01*
X16115889Y-11516382D02*
X16095889Y-11536382D01*
X16105802Y-10141470D02*
X16125802Y-10161470D01*
X16125802Y-10141470D02*
X16105802Y-10161470D01*
X16135889Y-9296382D02*
X16155889Y-9316382D01*
X16155889Y-9296382D02*
X16135889Y-9316382D01*
X16158262Y-9496382D02*
X16178262Y-9516382D01*
X16178262Y-9496382D02*
X16158262Y-9516382D01*
X16168000Y-10260000D02*
X16188000Y-10280000D01*
X16188000Y-10260000D02*
X16168000Y-10280000D01*
X16180889Y-8983882D02*
X16200889Y-9003882D01*
X16200889Y-8983882D02*
X16180889Y-9003882D01*
X16181948Y-10075323D02*
X16201948Y-10095323D01*
X16201948Y-10075323D02*
X16181948Y-10095323D01*
X16205889Y-8041382D02*
X16225889Y-8061382D01*
X16225889Y-8041382D02*
X16205889Y-8061382D01*
X16241948Y-10165323D02*
X16261948Y-10185323D01*
X16261948Y-10165323D02*
X16241948Y-10185323D01*
X16249831Y-10007441D02*
X16269831Y-10027441D01*
X16269831Y-10007441D02*
X16249831Y-10027441D01*
X16255889Y-8291382D02*
X16275889Y-8311382D01*
X16275889Y-8291382D02*
X16255889Y-8311382D01*
X16280889Y-9236382D02*
X16300889Y-9256382D01*
X16300889Y-9236382D02*
X16280889Y-9256382D01*
X16295889Y-9846382D02*
X16315889Y-9866382D01*
X16315889Y-9846382D02*
X16295889Y-9866382D01*
X16301131Y-10416624D02*
X16321131Y-10436624D01*
X16321131Y-10416624D02*
X16301131Y-10436624D01*
X16305889Y-8041382D02*
X16325889Y-8061382D01*
X16325889Y-8041382D02*
X16305889Y-8061382D01*
X16345889Y-9546382D02*
X16365889Y-9566382D01*
X16365889Y-9546382D02*
X16345889Y-9566382D01*
X16355889Y-10051382D02*
X16375889Y-10071382D01*
X16375889Y-10051382D02*
X16355889Y-10071382D01*
X16375889Y-9231382D02*
X16395889Y-9251382D01*
X16395889Y-9231382D02*
X16375889Y-9251382D01*
X16395759Y-10141513D02*
X16415759Y-10161513D01*
X16415759Y-10141513D02*
X16395759Y-10161513D01*
X16405889Y-8041382D02*
X16425889Y-8061382D01*
X16425889Y-8041382D02*
X16405889Y-8061382D01*
X16405889Y-10381382D02*
X16425889Y-10401382D01*
X16425889Y-10381382D02*
X16405889Y-10401382D01*
X16405889Y-10571382D02*
X16425889Y-10591382D01*
X16425889Y-10571382D02*
X16405889Y-10591382D01*
X16410889Y-12051382D02*
X16430889Y-12071382D01*
X16430889Y-12051382D02*
X16410889Y-12071382D01*
X16415889Y-11741382D02*
X16435889Y-11761382D01*
X16435889Y-11741382D02*
X16415889Y-11761382D01*
X16418389Y-8311382D02*
X16438389Y-8331382D01*
X16438389Y-8311382D02*
X16418389Y-8331382D01*
X16435889Y-10771382D02*
X16455889Y-10791382D01*
X16455889Y-10771382D02*
X16435889Y-10791382D01*
X16470889Y-9096382D02*
X16490889Y-9116382D01*
X16490889Y-9096382D02*
X16470889Y-9116382D01*
X16495889Y-8041382D02*
X16515889Y-8061382D01*
X16515889Y-8041382D02*
X16495889Y-8061382D01*
X16518439Y-10541382D02*
X16538439Y-10561382D01*
X16538439Y-10541382D02*
X16518439Y-10561382D01*
X16524889Y-10077383D02*
X16544889Y-10097383D01*
X16544889Y-10077383D02*
X16524889Y-10097383D01*
X16545889Y-11901382D02*
X16565889Y-11921382D01*
X16565889Y-11901382D02*
X16545889Y-11921382D01*
X16552889Y-11418382D02*
X16572889Y-11438382D01*
X16572889Y-11418382D02*
X16552889Y-11438382D01*
X16555889Y-11514382D02*
X16575889Y-11534382D01*
X16575889Y-11514382D02*
X16555889Y-11534382D01*
X16640999Y-8546272D02*
X16660999Y-8566272D01*
X16660999Y-8546272D02*
X16640999Y-8566272D01*
X16645889Y-9211382D02*
X16665889Y-9231382D01*
X16665889Y-9211382D02*
X16645889Y-9231382D01*
X16655889Y-10831382D02*
X16675889Y-10851382D01*
X16675889Y-10831382D02*
X16655889Y-10851382D01*
X16655889Y-11068882D02*
X16675889Y-11088882D01*
X16675889Y-11068882D02*
X16655889Y-11088882D01*
X16655889Y-11766382D02*
X16675889Y-11786382D01*
X16675889Y-11766382D02*
X16655889Y-11786382D01*
X16665889Y-12026382D02*
X16685889Y-12046382D01*
X16685889Y-12026382D02*
X16665889Y-12046382D01*
X16685889Y-8271382D02*
X16705889Y-8291382D01*
X16705889Y-8271382D02*
X16685889Y-8291382D01*
X16720889Y-9946382D02*
X16740889Y-9966382D01*
X16740889Y-9946382D02*
X16720889Y-9966382D01*
X16745889Y-9361382D02*
X16765889Y-9381382D01*
X16765889Y-9361382D02*
X16745889Y-9381382D01*
X16747000Y-10569000D02*
X16767000Y-10589000D01*
X16767000Y-10569000D02*
X16747000Y-10589000D01*
X16765889Y-11766382D02*
X16785890Y-11786382D01*
X16785890Y-11766382D02*
X16765889Y-11786382D01*
X16765889Y-12016382D02*
X16785890Y-12036382D01*
X16785890Y-12016382D02*
X16765889Y-12036382D01*
X16770889Y-11376382D02*
X16790890Y-11396382D01*
X16790890Y-11376382D02*
X16770889Y-11396382D01*
X16790000Y-10290000D02*
X16810000Y-10310000D01*
X16810000Y-10290000D02*
X16790000Y-10310000D01*
X16795890Y-8271382D02*
X16815890Y-8291382D01*
X16815890Y-8271382D02*
X16795890Y-8291382D01*
X16795890Y-10201382D02*
X16815890Y-10221382D01*
X16815890Y-10201382D02*
X16795890Y-10221382D01*
X16855890Y-11561382D02*
X16875890Y-11581382D01*
X16875890Y-11561382D02*
X16855890Y-11581382D01*
X16860890Y-11236382D02*
X16880890Y-11256382D01*
X16880890Y-11236382D02*
X16860890Y-11256382D01*
X16865890Y-8351382D02*
X16885890Y-8371382D01*
X16885890Y-8351382D02*
X16865890Y-8371382D01*
X16865890Y-10371382D02*
X16885890Y-10391382D01*
X16885890Y-10371382D02*
X16865890Y-10391382D01*
X16875890Y-10831382D02*
X16895890Y-10851382D01*
X16895890Y-10831382D02*
X16875890Y-10851382D01*
X16875890Y-11068882D02*
X16895890Y-11088882D01*
X16895890Y-11068882D02*
X16875890Y-11088882D01*
X16875890Y-11901382D02*
X16895890Y-11921382D01*
X16895890Y-11901382D02*
X16875890Y-11921382D01*
X16885890Y-9751382D02*
X16905890Y-9771382D01*
X16905890Y-9751382D02*
X16885890Y-9771382D01*
X16950890Y-10933882D02*
X16970890Y-10953882D01*
X16970890Y-10933882D02*
X16950890Y-10953882D01*
X16985890Y-10071382D02*
X17005890Y-10091382D01*
X17005890Y-10071382D02*
X16985890Y-10091382D01*
X16985890Y-10171382D02*
X17005890Y-10191382D01*
X17005890Y-10171382D02*
X16985890Y-10191382D01*
X17020890Y-8603882D02*
X17040890Y-8623882D01*
X17040890Y-8603882D02*
X17020890Y-8623882D01*
X8840000Y-11275000D02*
G75*
G02*
X8810000Y-11275000I-15000J0D01*
G01*
X8810000Y-11275000D02*
G75*
G02*
X8840000Y-11275000I15000J0D01*
G01*
X8865000Y-11000000D02*
G75*
G02*
X8835000Y-11000000I-15000J0D01*
G01*
X8835000Y-11000000D02*
G75*
G02*
X8865000Y-11000000I15000J0D01*
G01*
X8890000Y-11475000D02*
G75*
G02*
X8860000Y-11475000I-15000J0D01*
G01*
X8860000Y-11475000D02*
G75*
G02*
X8890000Y-11475000I15000J0D01*
G01*
X8969000Y-10945000D02*
G75*
G02*
X8939000Y-10945000I-15000J0D01*
G01*
X8939000Y-10945000D02*
G75*
G02*
X8969000Y-10945000I15000J0D01*
G01*
X9037000Y-11328882D02*
G75*
G02*
X9007000Y-11328882I-15000J0D01*
G01*
X9007000Y-11328882D02*
G75*
G02*
X9037000Y-11328882I15000J0D01*
G01*
X9740000Y-8507000D02*
G75*
G02*
X9710000Y-8507000I-15000J0D01*
G01*
X9710000Y-8507000D02*
G75*
G02*
X9740000Y-8507000I15000J0D01*
G01*
X9865000Y-8475000D02*
G75*
G02*
X9835000Y-8475000I-15000J0D01*
G01*
X9835000Y-8475000D02*
G75*
G02*
X9865000Y-8475000I15000J0D01*
G01*
X9998000Y-8285000D02*
G75*
G02*
X9968000Y-8285000I-15000J0D01*
G01*
X9968000Y-8285000D02*
G75*
G02*
X9998000Y-8285000I15000J0D01*
G01*
X10211000Y-8366000D02*
G75*
G02*
X10181000Y-8366000I-15000J0D01*
G01*
X10181000Y-8366000D02*
G75*
G02*
X10211000Y-8366000I15000J0D01*
G01*
X10350890Y-10781382D02*
G75*
G02*
X10320890Y-10781382I-15000J0D01*
G01*
X10320890Y-10781382D02*
G75*
G02*
X10350890Y-10781382I15000J0D01*
G01*
X10615000Y-8275000D02*
G75*
G02*
X10585000Y-8275000I-15000J0D01*
G01*
X10585000Y-8275000D02*
G75*
G02*
X10615000Y-8275000I15000J0D01*
G01*
X11372889Y-10031382D02*
G75*
G02*
X11342889Y-10031382I-15000J0D01*
G01*
X11342889Y-10031382D02*
G75*
G02*
X11372889Y-10031382I15000J0D01*
G01*
X11545889Y-10031382D02*
G75*
G02*
X11515889Y-10031382I-15000J0D01*
G01*
X11515889Y-10031382D02*
G75*
G02*
X11545889Y-10031382I15000J0D01*
G01*
X11695889Y-10031382D02*
G75*
G02*
X11665889Y-10031382I-15000J0D01*
G01*
X11665889Y-10031382D02*
G75*
G02*
X11695889Y-10031382I15000J0D01*
G01*
X15494831Y-10807441D02*
G75*
G02*
X15464831Y-10807441I-15000J0D01*
G01*
X15464831Y-10807441D02*
G75*
G02*
X15494831Y-10807441I15000J0D01*
G01*
X16140889Y-8561382D02*
G75*
G02*
X16110889Y-8561382I-15000J0D01*
G01*
X16110889Y-8561382D02*
G75*
G02*
X16140889Y-8561382I15000J0D01*
G01*
X16140889Y-8721382D02*
G75*
G02*
X16110889Y-8721382I-15000J0D01*
G01*
X16110889Y-8721382D02*
G75*
G02*
X16140889Y-8721382I15000J0D01*
G01*
X16300889Y-8561382D02*
G75*
G02*
X16270889Y-8561382I-15000J0D01*
G01*
X16270889Y-8561382D02*
G75*
G02*
X16300889Y-8561382I15000J0D01*
G01*
X16310889Y-8721382D02*
G75*
G02*
X16280889Y-8721382I-15000J0D01*
G01*
X16280889Y-8721382D02*
G75*
G02*
X16310889Y-8721382I15000J0D01*
G01*
X16618195Y-9784077D02*
G75*
G02*
X16588195Y-9784077I-15000J0D01*
G01*
X16588195Y-9784077D02*
G75*
G02*
X16618195Y-9784077I15000J0D01*
G01*
X16620889Y-9561382D02*
G75*
G02*
X16590889Y-9561382I-15000J0D01*
G01*
X16590889Y-9561382D02*
G75*
G02*
X16620889Y-9561382I15000J0D01*
G01*
X17143890Y-8859132D02*
X17143890Y-8905132D01*
X17120890Y-8882132D02*
X17166890Y-8882132D01*
X17143890Y-9557632D02*
X17143890Y-9603632D01*
X17120890Y-9580632D02*
X17166890Y-9580632D01*
X17143890Y-10309132D02*
X17143890Y-10355132D01*
X17120890Y-10332132D02*
X17166890Y-10332132D01*
X17143890Y-11007632D02*
X17143890Y-11053632D01*
X17120890Y-11030632D02*
X17166890Y-11030632D01*
X10540853Y-10973846D02*
X10540853Y-10931419D01*
X10498426Y-10931419D01*
X10498426Y-10973846D01*
X10540853Y-10973846D01*
X10948900Y-10594349D02*
X10948900Y-10551923D01*
X10906473Y-10551923D01*
X10906473Y-10594349D01*
X10948900Y-10594349D01*
X11002603Y-8763796D02*
X11002603Y-8721369D01*
X10960176Y-8721369D01*
X10960176Y-8763796D01*
X11002603Y-8763796D01*
X11157703Y-9094696D02*
X11157703Y-9052269D01*
X11115276Y-9052269D01*
X11115276Y-9094696D01*
X11157703Y-9094696D01*
X11357937Y-10781663D02*
X11357937Y-10739236D01*
X11315510Y-10739236D01*
X11315510Y-10781663D01*
X11357937Y-10781663D01*
X11446900Y-11153349D02*
X11446900Y-11110923D01*
X11404473Y-11110923D01*
X11404473Y-11153349D01*
X11446900Y-11153349D01*
X11488453Y-9313996D02*
X11488453Y-9271569D01*
X11446026Y-9271569D01*
X11446026Y-9313996D01*
X11488453Y-9313996D01*
X12018900Y-10584349D02*
X12018900Y-10541923D01*
X11976473Y-10541923D01*
X11976473Y-10584349D01*
X12018900Y-10584349D01*
X12042603Y-8768396D02*
X12042603Y-8725969D01*
X12000176Y-8725969D01*
X12000176Y-8768396D01*
X12042603Y-8768396D01*
X12174603Y-9104346D02*
X12174603Y-9061919D01*
X12132176Y-9061919D01*
X12132176Y-9104346D01*
X12174603Y-9104346D01*
X12452103Y-10777596D02*
X12452103Y-10735169D01*
X12409676Y-10735169D01*
X12409676Y-10777596D01*
X12452103Y-10777596D01*
X12526900Y-11173349D02*
X12526900Y-11130923D01*
X12484473Y-11130923D01*
X12484473Y-11173349D01*
X12526900Y-11173349D01*
X12554603Y-9314346D02*
X12554603Y-9271919D01*
X12512176Y-9271919D01*
X12512176Y-9314346D01*
X12554603Y-9314346D01*
X13082714Y-10582910D02*
X13082714Y-10540484D01*
X13040287Y-10540484D01*
X13040287Y-10582910D01*
X13082714Y-10582910D01*
X13224603Y-9103346D02*
X13224603Y-9060919D01*
X13182176Y-9060919D01*
X13182176Y-9103346D01*
X13224603Y-9103346D01*
X13472714Y-10782910D02*
X13472714Y-10740484D01*
X13430287Y-10740484D01*
X13430287Y-10782910D01*
X13472714Y-10782910D01*
X13562603Y-9244346D02*
X13562603Y-9201919D01*
X13520176Y-9201919D01*
X13520176Y-9244346D01*
X13562603Y-9244346D01*
X13586900Y-11168349D02*
X13586900Y-11125923D01*
X13544473Y-11125923D01*
X13544473Y-11168349D01*
X13586900Y-11168349D01*
X13620942Y-8377596D02*
X13620942Y-8335169D01*
X13578515Y-8335169D01*
X13578515Y-8377596D01*
X13620942Y-8377596D01*
X9029000Y-8831200D02*
X9059000Y-8801200D01*
X9029000Y-8771200D01*
X8999000Y-8801200D01*
X9029000Y-8831200D01*
X9094000Y-8771200D02*
X8964000Y-8771200D01*
X8964000Y-8831200D02*
G75*
G02*
X8964000Y-8771200I0J30000D01*
G01*
X8964000Y-8831200D02*
X9094000Y-8831200D01*
X9094000Y-8831200D02*
G75*
G03*
X9094000Y-8771200I0J30000D01*
G01*
X9029000Y-9695200D02*
X9059000Y-9665200D01*
X9029000Y-9635200D01*
X8999000Y-9665200D01*
X9029000Y-9695200D01*
X9094000Y-9635200D02*
X8964000Y-9635200D01*
X8964000Y-9695200D02*
G75*
G02*
X8964000Y-9635200I0J30000D01*
G01*
X8964000Y-9695200D02*
X9094000Y-9695200D01*
X9094000Y-9695200D02*
G75*
G03*
X9094000Y-9635200I0J30000D01*
G01*
X9411500Y-8831200D02*
X9441500Y-8801200D01*
X9411500Y-8771200D01*
X9381500Y-8801200D01*
X9411500Y-8831200D01*
X9461500Y-8771200D02*
X9361500Y-8771200D01*
X9361500Y-8831200D02*
G75*
G02*
X9361500Y-8771200I0J30000D01*
G01*
X9361500Y-8831200D02*
X9461500Y-8831200D01*
X9461500Y-8831200D02*
G75*
G03*
X9461500Y-8771200I0J30000D01*
G01*
X9411500Y-9695200D02*
X9441500Y-9665200D01*
X9411500Y-9635200D01*
X9381500Y-9665200D01*
X9411500Y-9695200D01*
X9461500Y-9635200D02*
X9361500Y-9635200D01*
X9361500Y-9695200D02*
G75*
G02*
X9361500Y-9635200I0J30000D01*
G01*
X9361500Y-9695200D02*
X9461500Y-9695200D01*
X9461500Y-9695200D02*
G75*
G03*
X9461500Y-9635200I0J30000D01*
G01*
X9645190Y-11821382D02*
X9725190Y-11901382D01*
X9725190Y-11821382D02*
X9645190Y-11901382D01*
X9725190Y-11861382D02*
G75*
G02*
X9645190Y-11861382I-40000J0D01*
G01*
X9645190Y-11861382D02*
G75*
G02*
X9725190Y-11861382I40000J0D01*
G01*
X9845890Y-11821382D02*
X9925890Y-11901382D01*
X9925890Y-11821382D02*
X9845890Y-11901382D01*
X9925890Y-11861382D02*
G75*
G02*
X9845890Y-11861382I-40000J0D01*
G01*
X9845890Y-11861382D02*
G75*
G02*
X9925890Y-11861382I40000J0D01*
G01*
X10077640Y-10036632D02*
X10177640Y-10136632D01*
X10177640Y-10036632D02*
X10077640Y-10136632D01*
X10127640Y-10036632D02*
X10127640Y-10136632D01*
X10077640Y-10086632D02*
X10177640Y-10086632D01*
X10077640Y-10290632D02*
X10177640Y-10390632D01*
X10177640Y-10290632D02*
X10077640Y-10390632D01*
X10127640Y-10290632D02*
X10127640Y-10390632D01*
X10077640Y-10340632D02*
X10177640Y-10340632D01*
X10077640Y-10544632D02*
X10177640Y-10644632D01*
X10177640Y-10544632D02*
X10077640Y-10644632D01*
X10127640Y-10544632D02*
X10127640Y-10644632D01*
X10077640Y-10594632D02*
X10177640Y-10594632D01*
X13905889Y-7811382D02*
X14005889Y-7911382D01*
X14005889Y-7811382D02*
X13905889Y-7911382D01*
X13955889Y-7811382D02*
X13955889Y-7911382D01*
X13905889Y-7861382D02*
X14005889Y-7861382D01*
X13905889Y-8065382D02*
X14005889Y-8165382D01*
X14005889Y-8065382D02*
X13905889Y-8165382D01*
X13955889Y-8065382D02*
X13955889Y-8165382D01*
X13905889Y-8115382D02*
X14005889Y-8115382D01*
X13905889Y-8319382D02*
X14005889Y-8419382D01*
X14005889Y-8319382D02*
X13905889Y-8419382D01*
X13955889Y-8319382D02*
X13955889Y-8419382D01*
X13905889Y-8369382D02*
X14005889Y-8369382D01*
X13905889Y-8573382D02*
X14005889Y-8673382D01*
X14005889Y-8573382D02*
X13905889Y-8673382D01*
X13955889Y-8573382D02*
X13955889Y-8673382D01*
X13905889Y-8623382D02*
X14005889Y-8623382D01*
D13*
X9743890Y-8685382D02*
X9863890Y-8805382D01*
X9863890Y-8685382D02*
X9743890Y-8805382D01*
X9846316Y-8787809D02*
X9846316Y-8702956D01*
X9761463Y-8702956D01*
X9761463Y-8787809D01*
X9846316Y-8787809D01*
X9773140Y-10006382D02*
X9893140Y-10126382D01*
X9893140Y-10006382D02*
X9773140Y-10126382D01*
X9875566Y-10108809D02*
X9875566Y-10023956D01*
X9790713Y-10023956D01*
X9790713Y-10108809D01*
X9875566Y-10108809D01*
X9773140Y-10256382D02*
X9893140Y-10376382D01*
X9893140Y-10256382D02*
X9773140Y-10376382D01*
X9875566Y-10358809D02*
X9875566Y-10273956D01*
X9790713Y-10273956D01*
X9790713Y-10358809D01*
X9875566Y-10358809D01*
X9773140Y-10506382D02*
X9893140Y-10626382D01*
X9893140Y-10506382D02*
X9773140Y-10626382D01*
X9875566Y-10608809D02*
X9875566Y-10523956D01*
X9790713Y-10523956D01*
X9790713Y-10608809D01*
X9875566Y-10608809D01*
X9773140Y-10756382D02*
X9893140Y-10876382D01*
X9893140Y-10756382D02*
X9773140Y-10876382D01*
X9875566Y-10858809D02*
X9875566Y-10773956D01*
X9790713Y-10773956D01*
X9790713Y-10858809D01*
X9875566Y-10858809D01*
X9993890Y-8685382D02*
X10113890Y-8805382D01*
X10113890Y-8685382D02*
X9993890Y-8805382D01*
X10096316Y-8787809D02*
X10096316Y-8702956D01*
X10011463Y-8702956D01*
X10011463Y-8787809D01*
X10096316Y-8787809D01*
X10243890Y-8685382D02*
X10363890Y-8805382D01*
X10363890Y-8685382D02*
X10243890Y-8805382D01*
X10346316Y-8787809D02*
X10346316Y-8702956D01*
X10261463Y-8702956D01*
X10261463Y-8787809D01*
X10346316Y-8787809D01*
X10940686Y-11120636D02*
X11060686Y-11240636D01*
X11060686Y-11120636D02*
X10940686Y-11240636D01*
X11043113Y-11223063D02*
X11043113Y-11138209D01*
X10958260Y-11138209D01*
X10958260Y-11223063D01*
X11043113Y-11223063D01*
X11156390Y-8627132D02*
X11276389Y-8747132D01*
X11276389Y-8627132D02*
X11156390Y-8747132D01*
X11258816Y-8729559D02*
X11258816Y-8644706D01*
X11173963Y-8644706D01*
X11173963Y-8729559D01*
X11258816Y-8729559D01*
X11190686Y-11120636D02*
X11310686Y-11240636D01*
X11310686Y-11120636D02*
X11190686Y-11240636D01*
X11293113Y-11223063D02*
X11293113Y-11138209D01*
X11208259Y-11138209D01*
X11208259Y-11223063D01*
X11293113Y-11223063D01*
X11406389Y-8627132D02*
X11526389Y-8747132D01*
X11526389Y-8627132D02*
X11406389Y-8747132D01*
X11508816Y-8729559D02*
X11508816Y-8644706D01*
X11423963Y-8644706D01*
X11423963Y-8729559D01*
X11508816Y-8729559D01*
X11940686Y-11103136D02*
X12060686Y-11223136D01*
X12060686Y-11103136D02*
X11940686Y-11223136D01*
X12043113Y-11205563D02*
X12043113Y-11120709D01*
X11958259Y-11120709D01*
X11958259Y-11205563D01*
X12043113Y-11205563D01*
X12166389Y-8637132D02*
X12286389Y-8757132D01*
X12286389Y-8637132D02*
X12166389Y-8757132D01*
X12268816Y-8739559D02*
X12268816Y-8654706D01*
X12183963Y-8654706D01*
X12183963Y-8739559D01*
X12268816Y-8739559D01*
X12190686Y-11103136D02*
X12310686Y-11223136D01*
X12310686Y-11103136D02*
X12190686Y-11223136D01*
X12293113Y-11205563D02*
X12293113Y-11120709D01*
X12208259Y-11120709D01*
X12208259Y-11205563D01*
X12293113Y-11205563D01*
X12416389Y-8637132D02*
X12536389Y-8757132D01*
X12536389Y-8637132D02*
X12416389Y-8757132D01*
X12518816Y-8739559D02*
X12518816Y-8654706D01*
X12433963Y-8654706D01*
X12433963Y-8739559D01*
X12518816Y-8739559D01*
X13015686Y-11104636D02*
X13135686Y-11224636D01*
X13135686Y-11104636D02*
X13015686Y-11224636D01*
X13118113Y-11207063D02*
X13118113Y-11122209D01*
X13033259Y-11122209D01*
X13033259Y-11207063D01*
X13118113Y-11207063D01*
X13131389Y-8630132D02*
X13251389Y-8750132D01*
X13251389Y-8630132D02*
X13131389Y-8750132D01*
X13233816Y-8732559D02*
X13233816Y-8647706D01*
X13148963Y-8647706D01*
X13148963Y-8732559D01*
X13233816Y-8732559D01*
X13265686Y-11104636D02*
X13385686Y-11224636D01*
X13385686Y-11104636D02*
X13265686Y-11224636D01*
X13368113Y-11207063D02*
X13368113Y-11122209D01*
X13283259Y-11122209D01*
X13283259Y-11207063D01*
X13368113Y-11207063D01*
X13381389Y-8630132D02*
X13501389Y-8750132D01*
X13501389Y-8630132D02*
X13381389Y-8750132D01*
X13483816Y-8732559D02*
X13483816Y-8647706D01*
X13398963Y-8647706D01*
X13398963Y-8732559D01*
X13483816Y-8732559D01*
X13860889Y-11649382D02*
X13980889Y-11769382D01*
X13980889Y-11649382D02*
X13860889Y-11769382D01*
X13963316Y-11751809D02*
X13963316Y-11666955D01*
X13878463Y-11666955D01*
X13878463Y-11751809D01*
X13963316Y-11751809D01*
X13860889Y-11899382D02*
X13980889Y-12019382D01*
X13980889Y-11899382D02*
X13860889Y-12019382D01*
X13963316Y-12001809D02*
X13963316Y-11916955D01*
X13878463Y-11916955D01*
X13878463Y-12001809D01*
X13963316Y-12001809D01*
X14110889Y-11649382D02*
X14230889Y-11769382D01*
X14230889Y-11649382D02*
X14110889Y-11769382D01*
X14213316Y-11751809D02*
X14213316Y-11666955D01*
X14128463Y-11666955D01*
X14128463Y-11751809D01*
X14213316Y-11751809D01*
X14110889Y-11899382D02*
X14230889Y-12019382D01*
X14230889Y-11899382D02*
X14110889Y-12019382D01*
X14213316Y-12001809D02*
X14213316Y-11916955D01*
X14128463Y-11916955D01*
X14128463Y-12001809D01*
X14213316Y-12001809D01*
X14360889Y-11649382D02*
X14480889Y-11769382D01*
X14480889Y-11649382D02*
X14360889Y-11769382D01*
X14463316Y-11751809D02*
X14463316Y-11666955D01*
X14378463Y-11666955D01*
X14378463Y-11751809D01*
X14463316Y-11751809D01*
X14360889Y-11899382D02*
X14480889Y-12019382D01*
X14480889Y-11899382D02*
X14360889Y-12019382D01*
X14463316Y-12001809D02*
X14463316Y-11916955D01*
X14378463Y-11916955D01*
X14378463Y-12001809D01*
X14463316Y-12001809D01*
X14610889Y-11649382D02*
X14730889Y-11769382D01*
X14730889Y-11649382D02*
X14610889Y-11769382D01*
X14713316Y-11751809D02*
X14713316Y-11666955D01*
X14628463Y-11666955D01*
X14628463Y-11751809D01*
X14713316Y-11751809D01*
X14610889Y-11899382D02*
X14730889Y-12019382D01*
X14730889Y-11899382D02*
X14610889Y-12019382D01*
X14713316Y-12001809D02*
X14713316Y-11916955D01*
X14628463Y-11916955D01*
X14628463Y-12001809D01*
X14713316Y-12001809D01*
X14675889Y-7781382D02*
X14795889Y-7901382D01*
X14795889Y-7781382D02*
X14675889Y-7901382D01*
X14778316Y-7883809D02*
X14778316Y-7798955D01*
X14693463Y-7798955D01*
X14693463Y-7883809D01*
X14778316Y-7883809D01*
X14675889Y-8031382D02*
X14795889Y-8151382D01*
X14795889Y-8031382D02*
X14675889Y-8151382D01*
X14778316Y-8133809D02*
X14778316Y-8048955D01*
X14693463Y-8048955D01*
X14693463Y-8133809D01*
X14778316Y-8133809D01*
X14925889Y-7781382D02*
X15045889Y-7901382D01*
X15045889Y-7781382D02*
X14925889Y-7901382D01*
X15028316Y-7883809D02*
X15028316Y-7798955D01*
X14943463Y-7798955D01*
X14943463Y-7883809D01*
X15028316Y-7883809D01*
X14925889Y-8031382D02*
X15045889Y-8151382D01*
X15045889Y-8031382D02*
X14925889Y-8151382D01*
X15028316Y-8133809D02*
X15028316Y-8048955D01*
X14943463Y-8048955D01*
X14943463Y-8133809D01*
X15028316Y-8133809D01*
X15175889Y-7781382D02*
X15295889Y-7901382D01*
X15295889Y-7781382D02*
X15175889Y-7901382D01*
X15278316Y-7883809D02*
X15278316Y-7798955D01*
X15193463Y-7798955D01*
X15193463Y-7883809D01*
X15278316Y-7883809D01*
X15175889Y-8031382D02*
X15295889Y-8151382D01*
X15295889Y-8031382D02*
X15175889Y-8151382D01*
X15278316Y-8133809D02*
X15278316Y-8048955D01*
X15193463Y-8048955D01*
X15193463Y-8133809D01*
X15278316Y-8133809D01*
D14*
X8985890Y-7921382D02*
X9305890Y-8241382D01*
X9305890Y-7921382D02*
X8985890Y-8241382D01*
X9145890Y-8241382D02*
X9305890Y-8081382D01*
X9145890Y-7921382D01*
X8985890Y-8081382D01*
X9145890Y-8241382D01*
X8985890Y-11621382D02*
X9305890Y-11941382D01*
X9305890Y-11621382D02*
X8985890Y-11941382D01*
X9145890Y-11941382D02*
X9305890Y-11781382D01*
X9145890Y-11621382D01*
X8985890Y-11781382D01*
X9145890Y-11941382D01*
X17185890Y-7921382D02*
X17505890Y-8241382D01*
X17505890Y-7921382D02*
X17185890Y-8241382D01*
X17345890Y-8241382D02*
X17505890Y-8081382D01*
X17345890Y-7921382D01*
X17185890Y-8081382D01*
X17345890Y-8241382D01*
X17185890Y-11621382D02*
X17505890Y-11941382D01*
X17505890Y-11621382D02*
X17185890Y-11941382D01*
X17345890Y-11941382D02*
X17505890Y-11781382D01*
X17345890Y-11621382D01*
X17185890Y-11781382D01*
X17345890Y-11941382D01*
D11*
X8998916Y-12500616D02*
X8998916Y-12300616D01*
X8998916Y-12300616D02*
X9046535Y-12300616D01*
X9046535Y-12300616D02*
X9075107Y-12310140D01*
X9075107Y-12310140D02*
X9094154Y-12329187D01*
X9094154Y-12329187D02*
X9103678Y-12348235D01*
X9103678Y-12348235D02*
X9113202Y-12386330D01*
X9113202Y-12386330D02*
X9113202Y-12414902D01*
X9113202Y-12414902D02*
X9103678Y-12452997D01*
X9103678Y-12452997D02*
X9094154Y-12472045D01*
X9094154Y-12472045D02*
X9075107Y-12491092D01*
X9075107Y-12491092D02*
X9046535Y-12500616D01*
X9046535Y-12500616D02*
X8998916Y-12500616D01*
X9198916Y-12500616D02*
X9198916Y-12367283D01*
X9198916Y-12405378D02*
X9208440Y-12386330D01*
X9208440Y-12386330D02*
X9217964Y-12376806D01*
X9217964Y-12376806D02*
X9237012Y-12367283D01*
X9237012Y-12367283D02*
X9256059Y-12367283D01*
X9322726Y-12500616D02*
X9322726Y-12367283D01*
X9322726Y-12300616D02*
X9313202Y-12310140D01*
X9313202Y-12310140D02*
X9322726Y-12319664D01*
X9322726Y-12319664D02*
X9332250Y-12310140D01*
X9332250Y-12310140D02*
X9322726Y-12300616D01*
X9322726Y-12300616D02*
X9322726Y-12319664D01*
X9446535Y-12500616D02*
X9427488Y-12491092D01*
X9427488Y-12491092D02*
X9417964Y-12472045D01*
X9417964Y-12472045D02*
X9417964Y-12300616D01*
X9551297Y-12500616D02*
X9532250Y-12491092D01*
X9532250Y-12491092D02*
X9522726Y-12472045D01*
X9522726Y-12472045D02*
X9522726Y-12300616D01*
X9779869Y-12500616D02*
X9779869Y-12300616D01*
X9779869Y-12300616D02*
X9846535Y-12443473D01*
X9846535Y-12443473D02*
X9913202Y-12300616D01*
X9913202Y-12300616D02*
X9913202Y-12500616D01*
X10094154Y-12500616D02*
X10094154Y-12395854D01*
X10094154Y-12395854D02*
X10084631Y-12376806D01*
X10084631Y-12376806D02*
X10065583Y-12367283D01*
X10065583Y-12367283D02*
X10027488Y-12367283D01*
X10027488Y-12367283D02*
X10008440Y-12376806D01*
X10094154Y-12491092D02*
X10075107Y-12500616D01*
X10075107Y-12500616D02*
X10027488Y-12500616D01*
X10027488Y-12500616D02*
X10008440Y-12491092D01*
X10008440Y-12491092D02*
X9998916Y-12472045D01*
X9998916Y-12472045D02*
X9998916Y-12452997D01*
X9998916Y-12452997D02*
X10008440Y-12433949D01*
X10008440Y-12433949D02*
X10027488Y-12424426D01*
X10027488Y-12424426D02*
X10075107Y-12424426D01*
X10075107Y-12424426D02*
X10094154Y-12414902D01*
X10189393Y-12367283D02*
X10189393Y-12567283D01*
X10189393Y-12376806D02*
X10208440Y-12367283D01*
X10208440Y-12367283D02*
X10246535Y-12367283D01*
X10246535Y-12367283D02*
X10265583Y-12376806D01*
X10265583Y-12376806D02*
X10275107Y-12386330D01*
X10275107Y-12386330D02*
X10284631Y-12405378D01*
X10284631Y-12405378D02*
X10284631Y-12462521D01*
X10284631Y-12462521D02*
X10275107Y-12481568D01*
X10275107Y-12481568D02*
X10265583Y-12491092D01*
X10265583Y-12491092D02*
X10246535Y-12500616D01*
X10246535Y-12500616D02*
X10208440Y-12500616D01*
X10208440Y-12500616D02*
X10189393Y-12491092D01*
X10370345Y-12481568D02*
X10379869Y-12491092D01*
X10379869Y-12491092D02*
X10370345Y-12500616D01*
X10370345Y-12500616D02*
X10360821Y-12491092D01*
X10360821Y-12491092D02*
X10370345Y-12481568D01*
X10370345Y-12481568D02*
X10370345Y-12500616D01*
X10370345Y-12376806D02*
X10379869Y-12386330D01*
X10379869Y-12386330D02*
X10370345Y-12395854D01*
X10370345Y-12395854D02*
X10360821Y-12386330D01*
X10360821Y-12386330D02*
X10370345Y-12376806D01*
X10370345Y-12376806D02*
X10370345Y-12395854D01*
D12*
X8718140Y-12819132D02*
X8738140Y-12839132D01*
X8738140Y-12819132D02*
X8718140Y-12839132D01*
D11*
X9037012Y-12720616D02*
X9056059Y-12720616D01*
X9056059Y-12720616D02*
X9075107Y-12730140D01*
X9075107Y-12730140D02*
X9084631Y-12739664D01*
X9084631Y-12739664D02*
X9094154Y-12758711D01*
X9094154Y-12758711D02*
X9103678Y-12796806D01*
X9103678Y-12796806D02*
X9103678Y-12844426D01*
X9103678Y-12844426D02*
X9094154Y-12882521D01*
X9094154Y-12882521D02*
X9084631Y-12901568D01*
X9084631Y-12901568D02*
X9075107Y-12911092D01*
X9075107Y-12911092D02*
X9056059Y-12920616D01*
X9056059Y-12920616D02*
X9037012Y-12920616D01*
X9037012Y-12920616D02*
X9017964Y-12911092D01*
X9017964Y-12911092D02*
X9008440Y-12901568D01*
X9008440Y-12901568D02*
X8998916Y-12882521D01*
X8998916Y-12882521D02*
X8989393Y-12844426D01*
X8989393Y-12844426D02*
X8989393Y-12796806D01*
X8989393Y-12796806D02*
X8998916Y-12758711D01*
X8998916Y-12758711D02*
X9008440Y-12739664D01*
X9008440Y-12739664D02*
X9017964Y-12730140D01*
X9017964Y-12730140D02*
X9037012Y-12720616D01*
X9189393Y-12901568D02*
X9198916Y-12911092D01*
X9198916Y-12911092D02*
X9189393Y-12920616D01*
X9189393Y-12920616D02*
X9179869Y-12911092D01*
X9179869Y-12911092D02*
X9189393Y-12901568D01*
X9189393Y-12901568D02*
X9189393Y-12920616D01*
X9275107Y-12739664D02*
X9284631Y-12730140D01*
X9284631Y-12730140D02*
X9303678Y-12720616D01*
X9303678Y-12720616D02*
X9351297Y-12720616D01*
X9351297Y-12720616D02*
X9370345Y-12730140D01*
X9370345Y-12730140D02*
X9379869Y-12739664D01*
X9379869Y-12739664D02*
X9389393Y-12758711D01*
X9389393Y-12758711D02*
X9389393Y-12777759D01*
X9389393Y-12777759D02*
X9379869Y-12806330D01*
X9379869Y-12806330D02*
X9265583Y-12920616D01*
X9265583Y-12920616D02*
X9389393Y-12920616D01*
X9513202Y-12720616D02*
X9532250Y-12720616D01*
X9532250Y-12720616D02*
X9551297Y-12730140D01*
X9551297Y-12730140D02*
X9560821Y-12739664D01*
X9560821Y-12739664D02*
X9570345Y-12758711D01*
X9570345Y-12758711D02*
X9579869Y-12796806D01*
X9579869Y-12796806D02*
X9579869Y-12844426D01*
X9579869Y-12844426D02*
X9570345Y-12882521D01*
X9570345Y-12882521D02*
X9560821Y-12901568D01*
X9560821Y-12901568D02*
X9551297Y-12911092D01*
X9551297Y-12911092D02*
X9532250Y-12920616D01*
X9532250Y-12920616D02*
X9513202Y-12920616D01*
X9513202Y-12920616D02*
X9494154Y-12911092D01*
X9494154Y-12911092D02*
X9484631Y-12901568D01*
X9484631Y-12901568D02*
X9475107Y-12882521D01*
X9475107Y-12882521D02*
X9465583Y-12844426D01*
X9465583Y-12844426D02*
X9465583Y-12796806D01*
X9465583Y-12796806D02*
X9475107Y-12758711D01*
X9475107Y-12758711D02*
X9484631Y-12739664D01*
X9484631Y-12739664D02*
X9494154Y-12730140D01*
X9494154Y-12730140D02*
X9513202Y-12720616D01*
X9703678Y-12720616D02*
X9722726Y-12720616D01*
X9722726Y-12720616D02*
X9741774Y-12730140D01*
X9741774Y-12730140D02*
X9751297Y-12739664D01*
X9751297Y-12739664D02*
X9760821Y-12758711D01*
X9760821Y-12758711D02*
X9770345Y-12796806D01*
X9770345Y-12796806D02*
X9770345Y-12844426D01*
X9770345Y-12844426D02*
X9760821Y-12882521D01*
X9760821Y-12882521D02*
X9751297Y-12901568D01*
X9751297Y-12901568D02*
X9741774Y-12911092D01*
X9741774Y-12911092D02*
X9722726Y-12920616D01*
X9722726Y-12920616D02*
X9703678Y-12920616D01*
X9703678Y-12920616D02*
X9684631Y-12911092D01*
X9684631Y-12911092D02*
X9675107Y-12901568D01*
X9675107Y-12901568D02*
X9665583Y-12882521D01*
X9665583Y-12882521D02*
X9656059Y-12844426D01*
X9656059Y-12844426D02*
X9656059Y-12796806D01*
X9656059Y-12796806D02*
X9665583Y-12758711D01*
X9665583Y-12758711D02*
X9675107Y-12739664D01*
X9675107Y-12739664D02*
X9684631Y-12730140D01*
X9684631Y-12730140D02*
X9703678Y-12720616D01*
X9856059Y-12920616D02*
X9856059Y-12787283D01*
X9856059Y-12806330D02*
X9865583Y-12796806D01*
X9865583Y-12796806D02*
X9884631Y-12787283D01*
X9884631Y-12787283D02*
X9913202Y-12787283D01*
X9913202Y-12787283D02*
X9932250Y-12796806D01*
X9932250Y-12796806D02*
X9941774Y-12815854D01*
X9941774Y-12815854D02*
X9941774Y-12920616D01*
X9941774Y-12815854D02*
X9951297Y-12796806D01*
X9951297Y-12796806D02*
X9970345Y-12787283D01*
X9970345Y-12787283D02*
X9998916Y-12787283D01*
X9998916Y-12787283D02*
X10017964Y-12796806D01*
X10017964Y-12796806D02*
X10027488Y-12815854D01*
X10027488Y-12815854D02*
X10027488Y-12920616D01*
X10122726Y-12920616D02*
X10122726Y-12787283D01*
X10122726Y-12806330D02*
X10132250Y-12796806D01*
X10132250Y-12796806D02*
X10151297Y-12787283D01*
X10151297Y-12787283D02*
X10179869Y-12787283D01*
X10179869Y-12787283D02*
X10198916Y-12796806D01*
X10198916Y-12796806D02*
X10208440Y-12815854D01*
X10208440Y-12815854D02*
X10208440Y-12920616D01*
X10208440Y-12815854D02*
X10217964Y-12796806D01*
X10217964Y-12796806D02*
X10237012Y-12787283D01*
X10237012Y-12787283D02*
X10265583Y-12787283D01*
X10265583Y-12787283D02*
X10284631Y-12796806D01*
X10284631Y-12796806D02*
X10294155Y-12815854D01*
X10294155Y-12815854D02*
X10294155Y-12920616D01*
X10684631Y-12711092D02*
X10513202Y-12968235D01*
X10941774Y-12720616D02*
X10960821Y-12720616D01*
X10960821Y-12720616D02*
X10979869Y-12730140D01*
X10979869Y-12730140D02*
X10989393Y-12739664D01*
X10989393Y-12739664D02*
X10998917Y-12758711D01*
X10998917Y-12758711D02*
X11008440Y-12796806D01*
X11008440Y-12796806D02*
X11008440Y-12844426D01*
X11008440Y-12844426D02*
X10998917Y-12882521D01*
X10998917Y-12882521D02*
X10989393Y-12901568D01*
X10989393Y-12901568D02*
X10979869Y-12911092D01*
X10979869Y-12911092D02*
X10960821Y-12920616D01*
X10960821Y-12920616D02*
X10941774Y-12920616D01*
X10941774Y-12920616D02*
X10922726Y-12911092D01*
X10922726Y-12911092D02*
X10913202Y-12901568D01*
X10913202Y-12901568D02*
X10903678Y-12882521D01*
X10903678Y-12882521D02*
X10894155Y-12844426D01*
X10894155Y-12844426D02*
X10894155Y-12796806D01*
X10894155Y-12796806D02*
X10903678Y-12758711D01*
X10903678Y-12758711D02*
X10913202Y-12739664D01*
X10913202Y-12739664D02*
X10922726Y-12730140D01*
X10922726Y-12730140D02*
X10941774Y-12720616D01*
X11094155Y-12901568D02*
X11103678Y-12911092D01*
X11103678Y-12911092D02*
X11094155Y-12920616D01*
X11094155Y-12920616D02*
X11084631Y-12911092D01*
X11084631Y-12911092D02*
X11094155Y-12901568D01*
X11094155Y-12901568D02*
X11094155Y-12920616D01*
X11227488Y-12720616D02*
X11246536Y-12720616D01*
X11246536Y-12720616D02*
X11265583Y-12730140D01*
X11265583Y-12730140D02*
X11275107Y-12739664D01*
X11275107Y-12739664D02*
X11284631Y-12758711D01*
X11284631Y-12758711D02*
X11294155Y-12796806D01*
X11294155Y-12796806D02*
X11294155Y-12844426D01*
X11294155Y-12844426D02*
X11284631Y-12882521D01*
X11284631Y-12882521D02*
X11275107Y-12901568D01*
X11275107Y-12901568D02*
X11265583Y-12911092D01*
X11265583Y-12911092D02*
X11246536Y-12920616D01*
X11246536Y-12920616D02*
X11227488Y-12920616D01*
X11227488Y-12920616D02*
X11208440Y-12911092D01*
X11208440Y-12911092D02*
X11198916Y-12901568D01*
X11198916Y-12901568D02*
X11189393Y-12882521D01*
X11189393Y-12882521D02*
X11179869Y-12844426D01*
X11179869Y-12844426D02*
X11179869Y-12796806D01*
X11179869Y-12796806D02*
X11189393Y-12758711D01*
X11189393Y-12758711D02*
X11198916Y-12739664D01*
X11198916Y-12739664D02*
X11208440Y-12730140D01*
X11208440Y-12730140D02*
X11227488Y-12720616D01*
X11417964Y-12720616D02*
X11437012Y-12720616D01*
X11437012Y-12720616D02*
X11456059Y-12730140D01*
X11456059Y-12730140D02*
X11465583Y-12739664D01*
X11465583Y-12739664D02*
X11475107Y-12758711D01*
X11475107Y-12758711D02*
X11484631Y-12796806D01*
X11484631Y-12796806D02*
X11484631Y-12844426D01*
X11484631Y-12844426D02*
X11475107Y-12882521D01*
X11475107Y-12882521D02*
X11465583Y-12901568D01*
X11465583Y-12901568D02*
X11456059Y-12911092D01*
X11456059Y-12911092D02*
X11437012Y-12920616D01*
X11437012Y-12920616D02*
X11417964Y-12920616D01*
X11417964Y-12920616D02*
X11398916Y-12911092D01*
X11398916Y-12911092D02*
X11389393Y-12901568D01*
X11389393Y-12901568D02*
X11379869Y-12882521D01*
X11379869Y-12882521D02*
X11370345Y-12844426D01*
X11370345Y-12844426D02*
X11370345Y-12796806D01*
X11370345Y-12796806D02*
X11379869Y-12758711D01*
X11379869Y-12758711D02*
X11389393Y-12739664D01*
X11389393Y-12739664D02*
X11398916Y-12730140D01*
X11398916Y-12730140D02*
X11417964Y-12720616D01*
X11551297Y-12720616D02*
X11684631Y-12720616D01*
X11684631Y-12720616D02*
X11598916Y-12920616D01*
X11770345Y-12920616D02*
X11808440Y-12920616D01*
X11808440Y-12920616D02*
X11827488Y-12911092D01*
X11827488Y-12911092D02*
X11837012Y-12901568D01*
X11837012Y-12901568D02*
X11856059Y-12872997D01*
X11856059Y-12872997D02*
X11865583Y-12834902D01*
X11865583Y-12834902D02*
X11865583Y-12758711D01*
X11865583Y-12758711D02*
X11856059Y-12739664D01*
X11856059Y-12739664D02*
X11846536Y-12730140D01*
X11846536Y-12730140D02*
X11827488Y-12720616D01*
X11827488Y-12720616D02*
X11789393Y-12720616D01*
X11789393Y-12720616D02*
X11770345Y-12730140D01*
X11770345Y-12730140D02*
X11760821Y-12739664D01*
X11760821Y-12739664D02*
X11751297Y-12758711D01*
X11751297Y-12758711D02*
X11751297Y-12806330D01*
X11751297Y-12806330D02*
X11760821Y-12825378D01*
X11760821Y-12825378D02*
X11770345Y-12834902D01*
X11770345Y-12834902D02*
X11789393Y-12844426D01*
X11789393Y-12844426D02*
X11827488Y-12844426D01*
X11827488Y-12844426D02*
X11846536Y-12834902D01*
X11846536Y-12834902D02*
X11856059Y-12825378D01*
X11856059Y-12825378D02*
X11865583Y-12806330D01*
X11941774Y-12720616D02*
X11941774Y-12758711D01*
X12017964Y-12720616D02*
X12017964Y-12758711D01*
X12313202Y-12996806D02*
X12303678Y-12987283D01*
X12303678Y-12987283D02*
X12284631Y-12958711D01*
X12284631Y-12958711D02*
X12275107Y-12939664D01*
X12275107Y-12939664D02*
X12265583Y-12911092D01*
X12265583Y-12911092D02*
X12256059Y-12863473D01*
X12256059Y-12863473D02*
X12256059Y-12825378D01*
X12256059Y-12825378D02*
X12265583Y-12777759D01*
X12265583Y-12777759D02*
X12275107Y-12749187D01*
X12275107Y-12749187D02*
X12284631Y-12730140D01*
X12284631Y-12730140D02*
X12303678Y-12701568D01*
X12303678Y-12701568D02*
X12313202Y-12692045D01*
X12370345Y-12720616D02*
X12494155Y-12720616D01*
X12494155Y-12720616D02*
X12427488Y-12796806D01*
X12427488Y-12796806D02*
X12456059Y-12796806D01*
X12456059Y-12796806D02*
X12475107Y-12806330D01*
X12475107Y-12806330D02*
X12484631Y-12815854D01*
X12484631Y-12815854D02*
X12494155Y-12834902D01*
X12494155Y-12834902D02*
X12494155Y-12882521D01*
X12494155Y-12882521D02*
X12484631Y-12901568D01*
X12484631Y-12901568D02*
X12475107Y-12911092D01*
X12475107Y-12911092D02*
X12456059Y-12920616D01*
X12456059Y-12920616D02*
X12398917Y-12920616D01*
X12398917Y-12920616D02*
X12379869Y-12911092D01*
X12379869Y-12911092D02*
X12370345Y-12901568D01*
X12608440Y-12806330D02*
X12589393Y-12796806D01*
X12589393Y-12796806D02*
X12579869Y-12787283D01*
X12579869Y-12787283D02*
X12570345Y-12768235D01*
X12570345Y-12768235D02*
X12570345Y-12758711D01*
X12570345Y-12758711D02*
X12579869Y-12739664D01*
X12579869Y-12739664D02*
X12589393Y-12730140D01*
X12589393Y-12730140D02*
X12608440Y-12720616D01*
X12608440Y-12720616D02*
X12646536Y-12720616D01*
X12646536Y-12720616D02*
X12665583Y-12730140D01*
X12665583Y-12730140D02*
X12675107Y-12739664D01*
X12675107Y-12739664D02*
X12684631Y-12758711D01*
X12684631Y-12758711D02*
X12684631Y-12768235D01*
X12684631Y-12768235D02*
X12675107Y-12787283D01*
X12675107Y-12787283D02*
X12665583Y-12796806D01*
X12665583Y-12796806D02*
X12646536Y-12806330D01*
X12646536Y-12806330D02*
X12608440Y-12806330D01*
X12608440Y-12806330D02*
X12589393Y-12815854D01*
X12589393Y-12815854D02*
X12579869Y-12825378D01*
X12579869Y-12825378D02*
X12570345Y-12844426D01*
X12570345Y-12844426D02*
X12570345Y-12882521D01*
X12570345Y-12882521D02*
X12579869Y-12901568D01*
X12579869Y-12901568D02*
X12589393Y-12911092D01*
X12589393Y-12911092D02*
X12608440Y-12920616D01*
X12608440Y-12920616D02*
X12646536Y-12920616D01*
X12646536Y-12920616D02*
X12665583Y-12911092D01*
X12665583Y-12911092D02*
X12675107Y-12901568D01*
X12675107Y-12901568D02*
X12684631Y-12882521D01*
X12684631Y-12882521D02*
X12684631Y-12844426D01*
X12684631Y-12844426D02*
X12675107Y-12825378D01*
X12675107Y-12825378D02*
X12665583Y-12815854D01*
X12665583Y-12815854D02*
X12646536Y-12806330D01*
X12865583Y-12720616D02*
X12770345Y-12720616D01*
X12770345Y-12720616D02*
X12760821Y-12815854D01*
X12760821Y-12815854D02*
X12770345Y-12806330D01*
X12770345Y-12806330D02*
X12789393Y-12796806D01*
X12789393Y-12796806D02*
X12837012Y-12796806D01*
X12837012Y-12796806D02*
X12856059Y-12806330D01*
X12856059Y-12806330D02*
X12865583Y-12815854D01*
X12865583Y-12815854D02*
X12875107Y-12834902D01*
X12875107Y-12834902D02*
X12875107Y-12882521D01*
X12875107Y-12882521D02*
X12865583Y-12901568D01*
X12865583Y-12901568D02*
X12856059Y-12911092D01*
X12856059Y-12911092D02*
X12837012Y-12920616D01*
X12837012Y-12920616D02*
X12789393Y-12920616D01*
X12789393Y-12920616D02*
X12770345Y-12911092D01*
X12770345Y-12911092D02*
X12760821Y-12901568D01*
X13113202Y-12920616D02*
X13113202Y-12720616D01*
X13198917Y-12920616D02*
X13198917Y-12815854D01*
X13198917Y-12815854D02*
X13189393Y-12796806D01*
X13189393Y-12796806D02*
X13170345Y-12787283D01*
X13170345Y-12787283D02*
X13141774Y-12787283D01*
X13141774Y-12787283D02*
X13122726Y-12796806D01*
X13122726Y-12796806D02*
X13113202Y-12806330D01*
X13322726Y-12920616D02*
X13303679Y-12911092D01*
X13303679Y-12911092D02*
X13294155Y-12901568D01*
X13294155Y-12901568D02*
X13284631Y-12882521D01*
X13284631Y-12882521D02*
X13284631Y-12825378D01*
X13284631Y-12825378D02*
X13294155Y-12806330D01*
X13294155Y-12806330D02*
X13303679Y-12796806D01*
X13303679Y-12796806D02*
X13322726Y-12787283D01*
X13322726Y-12787283D02*
X13351298Y-12787283D01*
X13351298Y-12787283D02*
X13370345Y-12796806D01*
X13370345Y-12796806D02*
X13379869Y-12806330D01*
X13379869Y-12806330D02*
X13389393Y-12825378D01*
X13389393Y-12825378D02*
X13389393Y-12882521D01*
X13389393Y-12882521D02*
X13379869Y-12901568D01*
X13379869Y-12901568D02*
X13370345Y-12911092D01*
X13370345Y-12911092D02*
X13351298Y-12920616D01*
X13351298Y-12920616D02*
X13322726Y-12920616D01*
X13503679Y-12920616D02*
X13484631Y-12911092D01*
X13484631Y-12911092D02*
X13475107Y-12892045D01*
X13475107Y-12892045D02*
X13475107Y-12720616D01*
X13656060Y-12911092D02*
X13637012Y-12920616D01*
X13637012Y-12920616D02*
X13598917Y-12920616D01*
X13598917Y-12920616D02*
X13579869Y-12911092D01*
X13579869Y-12911092D02*
X13570345Y-12892045D01*
X13570345Y-12892045D02*
X13570345Y-12815854D01*
X13570345Y-12815854D02*
X13579869Y-12796806D01*
X13579869Y-12796806D02*
X13598917Y-12787283D01*
X13598917Y-12787283D02*
X13637012Y-12787283D01*
X13637012Y-12787283D02*
X13656060Y-12796806D01*
X13656060Y-12796806D02*
X13665583Y-12815854D01*
X13665583Y-12815854D02*
X13665583Y-12834902D01*
X13665583Y-12834902D02*
X13570345Y-12853949D01*
X13741774Y-12911092D02*
X13760821Y-12920616D01*
X13760821Y-12920616D02*
X13798917Y-12920616D01*
X13798917Y-12920616D02*
X13817964Y-12911092D01*
X13817964Y-12911092D02*
X13827488Y-12892045D01*
X13827488Y-12892045D02*
X13827488Y-12882521D01*
X13827488Y-12882521D02*
X13817964Y-12863473D01*
X13817964Y-12863473D02*
X13798917Y-12853949D01*
X13798917Y-12853949D02*
X13770345Y-12853949D01*
X13770345Y-12853949D02*
X13751298Y-12844426D01*
X13751298Y-12844426D02*
X13741774Y-12825378D01*
X13741774Y-12825378D02*
X13741774Y-12815854D01*
X13741774Y-12815854D02*
X13751298Y-12796806D01*
X13751298Y-12796806D02*
X13770345Y-12787283D01*
X13770345Y-12787283D02*
X13798917Y-12787283D01*
X13798917Y-12787283D02*
X13817964Y-12796806D01*
X13894155Y-12996806D02*
X13903679Y-12987283D01*
X13903679Y-12987283D02*
X13922726Y-12958711D01*
X13922726Y-12958711D02*
X13932250Y-12939664D01*
X13932250Y-12939664D02*
X13941774Y-12911092D01*
X13941774Y-12911092D02*
X13951298Y-12863473D01*
X13951298Y-12863473D02*
X13951298Y-12825378D01*
X13951298Y-12825378D02*
X13941774Y-12777759D01*
X13941774Y-12777759D02*
X13932250Y-12749187D01*
X13932250Y-12749187D02*
X13922726Y-12730140D01*
X13922726Y-12730140D02*
X13903679Y-12701568D01*
X13903679Y-12701568D02*
X13894155Y-12692045D01*
D12*
X8738140Y-13093132D02*
G75*
G02*
X8708140Y-13093132I-15000J0D01*
G01*
X8708140Y-13093132D02*
G75*
G02*
X8738140Y-13093132I15000J0D01*
G01*
D11*
X9037012Y-12984616D02*
X9056059Y-12984616D01*
X9056059Y-12984616D02*
X9075107Y-12994140D01*
X9075107Y-12994140D02*
X9084631Y-13003664D01*
X9084631Y-13003664D02*
X9094154Y-13022711D01*
X9094154Y-13022711D02*
X9103678Y-13060806D01*
X9103678Y-13060806D02*
X9103678Y-13108426D01*
X9103678Y-13108426D02*
X9094154Y-13146521D01*
X9094154Y-13146521D02*
X9084631Y-13165568D01*
X9084631Y-13165568D02*
X9075107Y-13175092D01*
X9075107Y-13175092D02*
X9056059Y-13184616D01*
X9056059Y-13184616D02*
X9037012Y-13184616D01*
X9037012Y-13184616D02*
X9017964Y-13175092D01*
X9017964Y-13175092D02*
X9008440Y-13165568D01*
X9008440Y-13165568D02*
X8998916Y-13146521D01*
X8998916Y-13146521D02*
X8989393Y-13108426D01*
X8989393Y-13108426D02*
X8989393Y-13060806D01*
X8989393Y-13060806D02*
X8998916Y-13022711D01*
X8998916Y-13022711D02*
X9008440Y-13003664D01*
X9008440Y-13003664D02*
X9017964Y-12994140D01*
X9017964Y-12994140D02*
X9037012Y-12984616D01*
X9189393Y-13165568D02*
X9198916Y-13175092D01*
X9198916Y-13175092D02*
X9189393Y-13184616D01*
X9189393Y-13184616D02*
X9179869Y-13175092D01*
X9179869Y-13175092D02*
X9189393Y-13165568D01*
X9189393Y-13165568D02*
X9189393Y-13184616D01*
X9265583Y-12984616D02*
X9389393Y-12984616D01*
X9389393Y-12984616D02*
X9322726Y-13060806D01*
X9322726Y-13060806D02*
X9351297Y-13060806D01*
X9351297Y-13060806D02*
X9370345Y-13070330D01*
X9370345Y-13070330D02*
X9379869Y-13079854D01*
X9379869Y-13079854D02*
X9389393Y-13098902D01*
X9389393Y-13098902D02*
X9389393Y-13146521D01*
X9389393Y-13146521D02*
X9379869Y-13165568D01*
X9379869Y-13165568D02*
X9370345Y-13175092D01*
X9370345Y-13175092D02*
X9351297Y-13184616D01*
X9351297Y-13184616D02*
X9294154Y-13184616D01*
X9294154Y-13184616D02*
X9275107Y-13175092D01*
X9275107Y-13175092D02*
X9265583Y-13165568D01*
X9513202Y-12984616D02*
X9532250Y-12984616D01*
X9532250Y-12984616D02*
X9551297Y-12994140D01*
X9551297Y-12994140D02*
X9560821Y-13003664D01*
X9560821Y-13003664D02*
X9570345Y-13022711D01*
X9570345Y-13022711D02*
X9579869Y-13060806D01*
X9579869Y-13060806D02*
X9579869Y-13108426D01*
X9579869Y-13108426D02*
X9570345Y-13146521D01*
X9570345Y-13146521D02*
X9560821Y-13165568D01*
X9560821Y-13165568D02*
X9551297Y-13175092D01*
X9551297Y-13175092D02*
X9532250Y-13184616D01*
X9532250Y-13184616D02*
X9513202Y-13184616D01*
X9513202Y-13184616D02*
X9494154Y-13175092D01*
X9494154Y-13175092D02*
X9484631Y-13165568D01*
X9484631Y-13165568D02*
X9475107Y-13146521D01*
X9475107Y-13146521D02*
X9465583Y-13108426D01*
X9465583Y-13108426D02*
X9465583Y-13060806D01*
X9465583Y-13060806D02*
X9475107Y-13022711D01*
X9475107Y-13022711D02*
X9484631Y-13003664D01*
X9484631Y-13003664D02*
X9494154Y-12994140D01*
X9494154Y-12994140D02*
X9513202Y-12984616D01*
X9703678Y-12984616D02*
X9722726Y-12984616D01*
X9722726Y-12984616D02*
X9741774Y-12994140D01*
X9741774Y-12994140D02*
X9751297Y-13003664D01*
X9751297Y-13003664D02*
X9760821Y-13022711D01*
X9760821Y-13022711D02*
X9770345Y-13060806D01*
X9770345Y-13060806D02*
X9770345Y-13108426D01*
X9770345Y-13108426D02*
X9760821Y-13146521D01*
X9760821Y-13146521D02*
X9751297Y-13165568D01*
X9751297Y-13165568D02*
X9741774Y-13175092D01*
X9741774Y-13175092D02*
X9722726Y-13184616D01*
X9722726Y-13184616D02*
X9703678Y-13184616D01*
X9703678Y-13184616D02*
X9684631Y-13175092D01*
X9684631Y-13175092D02*
X9675107Y-13165568D01*
X9675107Y-13165568D02*
X9665583Y-13146521D01*
X9665583Y-13146521D02*
X9656059Y-13108426D01*
X9656059Y-13108426D02*
X9656059Y-13060806D01*
X9656059Y-13060806D02*
X9665583Y-13022711D01*
X9665583Y-13022711D02*
X9675107Y-13003664D01*
X9675107Y-13003664D02*
X9684631Y-12994140D01*
X9684631Y-12994140D02*
X9703678Y-12984616D01*
X9856059Y-13184616D02*
X9856059Y-13051283D01*
X9856059Y-13070330D02*
X9865583Y-13060806D01*
X9865583Y-13060806D02*
X9884631Y-13051283D01*
X9884631Y-13051283D02*
X9913202Y-13051283D01*
X9913202Y-13051283D02*
X9932250Y-13060806D01*
X9932250Y-13060806D02*
X9941774Y-13079854D01*
X9941774Y-13079854D02*
X9941774Y-13184616D01*
X9941774Y-13079854D02*
X9951297Y-13060806D01*
X9951297Y-13060806D02*
X9970345Y-13051283D01*
X9970345Y-13051283D02*
X9998916Y-13051283D01*
X9998916Y-13051283D02*
X10017964Y-13060806D01*
X10017964Y-13060806D02*
X10027488Y-13079854D01*
X10027488Y-13079854D02*
X10027488Y-13184616D01*
X10122726Y-13184616D02*
X10122726Y-13051283D01*
X10122726Y-13070330D02*
X10132250Y-13060806D01*
X10132250Y-13060806D02*
X10151297Y-13051283D01*
X10151297Y-13051283D02*
X10179869Y-13051283D01*
X10179869Y-13051283D02*
X10198916Y-13060806D01*
X10198916Y-13060806D02*
X10208440Y-13079854D01*
X10208440Y-13079854D02*
X10208440Y-13184616D01*
X10208440Y-13079854D02*
X10217964Y-13060806D01*
X10217964Y-13060806D02*
X10237012Y-13051283D01*
X10237012Y-13051283D02*
X10265583Y-13051283D01*
X10265583Y-13051283D02*
X10284631Y-13060806D01*
X10284631Y-13060806D02*
X10294155Y-13079854D01*
X10294155Y-13079854D02*
X10294155Y-13184616D01*
X10684631Y-12975092D02*
X10513202Y-13232235D01*
X10941774Y-12984616D02*
X10960821Y-12984616D01*
X10960821Y-12984616D02*
X10979869Y-12994140D01*
X10979869Y-12994140D02*
X10989393Y-13003664D01*
X10989393Y-13003664D02*
X10998917Y-13022711D01*
X10998917Y-13022711D02*
X11008440Y-13060806D01*
X11008440Y-13060806D02*
X11008440Y-13108426D01*
X11008440Y-13108426D02*
X10998917Y-13146521D01*
X10998917Y-13146521D02*
X10989393Y-13165568D01*
X10989393Y-13165568D02*
X10979869Y-13175092D01*
X10979869Y-13175092D02*
X10960821Y-13184616D01*
X10960821Y-13184616D02*
X10941774Y-13184616D01*
X10941774Y-13184616D02*
X10922726Y-13175092D01*
X10922726Y-13175092D02*
X10913202Y-13165568D01*
X10913202Y-13165568D02*
X10903678Y-13146521D01*
X10903678Y-13146521D02*
X10894155Y-13108426D01*
X10894155Y-13108426D02*
X10894155Y-13060806D01*
X10894155Y-13060806D02*
X10903678Y-13022711D01*
X10903678Y-13022711D02*
X10913202Y-13003664D01*
X10913202Y-13003664D02*
X10922726Y-12994140D01*
X10922726Y-12994140D02*
X10941774Y-12984616D01*
X11094155Y-13165568D02*
X11103678Y-13175092D01*
X11103678Y-13175092D02*
X11094155Y-13184616D01*
X11094155Y-13184616D02*
X11084631Y-13175092D01*
X11084631Y-13175092D02*
X11094155Y-13165568D01*
X11094155Y-13165568D02*
X11094155Y-13184616D01*
X11227488Y-12984616D02*
X11246536Y-12984616D01*
X11246536Y-12984616D02*
X11265583Y-12994140D01*
X11265583Y-12994140D02*
X11275107Y-13003664D01*
X11275107Y-13003664D02*
X11284631Y-13022711D01*
X11284631Y-13022711D02*
X11294155Y-13060806D01*
X11294155Y-13060806D02*
X11294155Y-13108426D01*
X11294155Y-13108426D02*
X11284631Y-13146521D01*
X11284631Y-13146521D02*
X11275107Y-13165568D01*
X11275107Y-13165568D02*
X11265583Y-13175092D01*
X11265583Y-13175092D02*
X11246536Y-13184616D01*
X11246536Y-13184616D02*
X11227488Y-13184616D01*
X11227488Y-13184616D02*
X11208440Y-13175092D01*
X11208440Y-13175092D02*
X11198916Y-13165568D01*
X11198916Y-13165568D02*
X11189393Y-13146521D01*
X11189393Y-13146521D02*
X11179869Y-13108426D01*
X11179869Y-13108426D02*
X11179869Y-13060806D01*
X11179869Y-13060806D02*
X11189393Y-13022711D01*
X11189393Y-13022711D02*
X11198916Y-13003664D01*
X11198916Y-13003664D02*
X11208440Y-12994140D01*
X11208440Y-12994140D02*
X11227488Y-12984616D01*
X11484631Y-13184616D02*
X11370345Y-13184616D01*
X11427488Y-13184616D02*
X11427488Y-12984616D01*
X11427488Y-12984616D02*
X11408440Y-13013187D01*
X11408440Y-13013187D02*
X11389393Y-13032235D01*
X11389393Y-13032235D02*
X11370345Y-13041759D01*
X11675107Y-13184616D02*
X11560821Y-13184616D01*
X11617964Y-13184616D02*
X11617964Y-12984616D01*
X11617964Y-12984616D02*
X11598916Y-13013187D01*
X11598916Y-13013187D02*
X11579869Y-13032235D01*
X11579869Y-13032235D02*
X11560821Y-13041759D01*
X11789393Y-13070330D02*
X11770345Y-13060806D01*
X11770345Y-13060806D02*
X11760821Y-13051283D01*
X11760821Y-13051283D02*
X11751297Y-13032235D01*
X11751297Y-13032235D02*
X11751297Y-13022711D01*
X11751297Y-13022711D02*
X11760821Y-13003664D01*
X11760821Y-13003664D02*
X11770345Y-12994140D01*
X11770345Y-12994140D02*
X11789393Y-12984616D01*
X11789393Y-12984616D02*
X11827488Y-12984616D01*
X11827488Y-12984616D02*
X11846536Y-12994140D01*
X11846536Y-12994140D02*
X11856059Y-13003664D01*
X11856059Y-13003664D02*
X11865583Y-13022711D01*
X11865583Y-13022711D02*
X11865583Y-13032235D01*
X11865583Y-13032235D02*
X11856059Y-13051283D01*
X11856059Y-13051283D02*
X11846536Y-13060806D01*
X11846536Y-13060806D02*
X11827488Y-13070330D01*
X11827488Y-13070330D02*
X11789393Y-13070330D01*
X11789393Y-13070330D02*
X11770345Y-13079854D01*
X11770345Y-13079854D02*
X11760821Y-13089378D01*
X11760821Y-13089378D02*
X11751297Y-13108426D01*
X11751297Y-13108426D02*
X11751297Y-13146521D01*
X11751297Y-13146521D02*
X11760821Y-13165568D01*
X11760821Y-13165568D02*
X11770345Y-13175092D01*
X11770345Y-13175092D02*
X11789393Y-13184616D01*
X11789393Y-13184616D02*
X11827488Y-13184616D01*
X11827488Y-13184616D02*
X11846536Y-13175092D01*
X11846536Y-13175092D02*
X11856059Y-13165568D01*
X11856059Y-13165568D02*
X11865583Y-13146521D01*
X11865583Y-13146521D02*
X11865583Y-13108426D01*
X11865583Y-13108426D02*
X11856059Y-13089378D01*
X11856059Y-13089378D02*
X11846536Y-13079854D01*
X11846536Y-13079854D02*
X11827488Y-13070330D01*
X11941774Y-12984616D02*
X11941774Y-13022711D01*
X12017964Y-12984616D02*
X12017964Y-13022711D01*
X12313202Y-13260806D02*
X12303678Y-13251283D01*
X12303678Y-13251283D02*
X12284631Y-13222711D01*
X12284631Y-13222711D02*
X12275107Y-13203664D01*
X12275107Y-13203664D02*
X12265583Y-13175092D01*
X12265583Y-13175092D02*
X12256059Y-13127473D01*
X12256059Y-13127473D02*
X12256059Y-13089378D01*
X12256059Y-13089378D02*
X12265583Y-13041759D01*
X12265583Y-13041759D02*
X12275107Y-13013187D01*
X12275107Y-13013187D02*
X12284631Y-12994140D01*
X12284631Y-12994140D02*
X12303678Y-12965568D01*
X12303678Y-12965568D02*
X12313202Y-12956045D01*
X12379869Y-13003664D02*
X12389393Y-12994140D01*
X12389393Y-12994140D02*
X12408440Y-12984616D01*
X12408440Y-12984616D02*
X12456059Y-12984616D01*
X12456059Y-12984616D02*
X12475107Y-12994140D01*
X12475107Y-12994140D02*
X12484631Y-13003664D01*
X12484631Y-13003664D02*
X12494155Y-13022711D01*
X12494155Y-13022711D02*
X12494155Y-13041759D01*
X12494155Y-13041759D02*
X12484631Y-13070330D01*
X12484631Y-13070330D02*
X12370345Y-13184616D01*
X12370345Y-13184616D02*
X12494155Y-13184616D01*
X12684631Y-13184616D02*
X12570345Y-13184616D01*
X12627488Y-13184616D02*
X12627488Y-12984616D01*
X12627488Y-12984616D02*
X12608440Y-13013187D01*
X12608440Y-13013187D02*
X12589393Y-13032235D01*
X12589393Y-13032235D02*
X12570345Y-13041759D01*
X12922726Y-13184616D02*
X12922726Y-12984616D01*
X13008440Y-13184616D02*
X13008440Y-13079854D01*
X13008440Y-13079854D02*
X12998917Y-13060806D01*
X12998917Y-13060806D02*
X12979869Y-13051283D01*
X12979869Y-13051283D02*
X12951298Y-13051283D01*
X12951298Y-13051283D02*
X12932250Y-13060806D01*
X12932250Y-13060806D02*
X12922726Y-13070330D01*
X13132250Y-13184616D02*
X13113202Y-13175092D01*
X13113202Y-13175092D02*
X13103679Y-13165568D01*
X13103679Y-13165568D02*
X13094155Y-13146521D01*
X13094155Y-13146521D02*
X13094155Y-13089378D01*
X13094155Y-13089378D02*
X13103679Y-13070330D01*
X13103679Y-13070330D02*
X13113202Y-13060806D01*
X13113202Y-13060806D02*
X13132250Y-13051283D01*
X13132250Y-13051283D02*
X13160821Y-13051283D01*
X13160821Y-13051283D02*
X13179869Y-13060806D01*
X13179869Y-13060806D02*
X13189393Y-13070330D01*
X13189393Y-13070330D02*
X13198917Y-13089378D01*
X13198917Y-13089378D02*
X13198917Y-13146521D01*
X13198917Y-13146521D02*
X13189393Y-13165568D01*
X13189393Y-13165568D02*
X13179869Y-13175092D01*
X13179869Y-13175092D02*
X13160821Y-13184616D01*
X13160821Y-13184616D02*
X13132250Y-13184616D01*
X13313202Y-13184616D02*
X13294155Y-13175092D01*
X13294155Y-13175092D02*
X13284631Y-13156045D01*
X13284631Y-13156045D02*
X13284631Y-12984616D01*
X13465583Y-13175092D02*
X13446536Y-13184616D01*
X13446536Y-13184616D02*
X13408440Y-13184616D01*
X13408440Y-13184616D02*
X13389393Y-13175092D01*
X13389393Y-13175092D02*
X13379869Y-13156045D01*
X13379869Y-13156045D02*
X13379869Y-13079854D01*
X13379869Y-13079854D02*
X13389393Y-13060806D01*
X13389393Y-13060806D02*
X13408440Y-13051283D01*
X13408440Y-13051283D02*
X13446536Y-13051283D01*
X13446536Y-13051283D02*
X13465583Y-13060806D01*
X13465583Y-13060806D02*
X13475107Y-13079854D01*
X13475107Y-13079854D02*
X13475107Y-13098902D01*
X13475107Y-13098902D02*
X13379869Y-13117949D01*
X13551298Y-13175092D02*
X13570345Y-13184616D01*
X13570345Y-13184616D02*
X13608440Y-13184616D01*
X13608440Y-13184616D02*
X13627488Y-13175092D01*
X13627488Y-13175092D02*
X13637012Y-13156045D01*
X13637012Y-13156045D02*
X13637012Y-13146521D01*
X13637012Y-13146521D02*
X13627488Y-13127473D01*
X13627488Y-13127473D02*
X13608440Y-13117949D01*
X13608440Y-13117949D02*
X13579869Y-13117949D01*
X13579869Y-13117949D02*
X13560821Y-13108426D01*
X13560821Y-13108426D02*
X13551298Y-13089378D01*
X13551298Y-13089378D02*
X13551298Y-13079854D01*
X13551298Y-13079854D02*
X13560821Y-13060806D01*
X13560821Y-13060806D02*
X13579869Y-13051283D01*
X13579869Y-13051283D02*
X13608440Y-13051283D01*
X13608440Y-13051283D02*
X13627488Y-13060806D01*
X13703679Y-13260806D02*
X13713202Y-13251283D01*
X13713202Y-13251283D02*
X13732250Y-13222711D01*
X13732250Y-13222711D02*
X13741774Y-13203664D01*
X13741774Y-13203664D02*
X13751298Y-13175092D01*
X13751298Y-13175092D02*
X13760821Y-13127473D01*
X13760821Y-13127473D02*
X13760821Y-13089378D01*
X13760821Y-13089378D02*
X13751298Y-13041759D01*
X13751298Y-13041759D02*
X13741774Y-13013187D01*
X13741774Y-13013187D02*
X13732250Y-12994140D01*
X13732250Y-12994140D02*
X13713202Y-12965568D01*
X13713202Y-12965568D02*
X13703679Y-12956045D01*
D12*
X8715140Y-13334132D02*
X8715140Y-13380132D01*
X8692140Y-13357132D02*
X8738140Y-13357132D01*
D11*
X9037012Y-13248616D02*
X9056059Y-13248616D01*
X9056059Y-13248616D02*
X9075107Y-13258140D01*
X9075107Y-13258140D02*
X9084631Y-13267664D01*
X9084631Y-13267664D02*
X9094154Y-13286711D01*
X9094154Y-13286711D02*
X9103678Y-13324806D01*
X9103678Y-13324806D02*
X9103678Y-13372426D01*
X9103678Y-13372426D02*
X9094154Y-13410521D01*
X9094154Y-13410521D02*
X9084631Y-13429568D01*
X9084631Y-13429568D02*
X9075107Y-13439092D01*
X9075107Y-13439092D02*
X9056059Y-13448616D01*
X9056059Y-13448616D02*
X9037012Y-13448616D01*
X9037012Y-13448616D02*
X9017964Y-13439092D01*
X9017964Y-13439092D02*
X9008440Y-13429568D01*
X9008440Y-13429568D02*
X8998916Y-13410521D01*
X8998916Y-13410521D02*
X8989393Y-13372426D01*
X8989393Y-13372426D02*
X8989393Y-13324806D01*
X8989393Y-13324806D02*
X8998916Y-13286711D01*
X8998916Y-13286711D02*
X9008440Y-13267664D01*
X9008440Y-13267664D02*
X9017964Y-13258140D01*
X9017964Y-13258140D02*
X9037012Y-13248616D01*
X9189393Y-13429568D02*
X9198916Y-13439092D01*
X9198916Y-13439092D02*
X9189393Y-13448616D01*
X9189393Y-13448616D02*
X9179869Y-13439092D01*
X9179869Y-13439092D02*
X9189393Y-13429568D01*
X9189393Y-13429568D02*
X9189393Y-13448616D01*
X9370345Y-13315283D02*
X9370345Y-13448616D01*
X9322726Y-13239092D02*
X9275107Y-13381949D01*
X9275107Y-13381949D02*
X9398916Y-13381949D01*
X9560821Y-13248616D02*
X9522726Y-13248616D01*
X9522726Y-13248616D02*
X9503678Y-13258140D01*
X9503678Y-13258140D02*
X9494154Y-13267664D01*
X9494154Y-13267664D02*
X9475107Y-13296235D01*
X9475107Y-13296235D02*
X9465583Y-13334330D01*
X9465583Y-13334330D02*
X9465583Y-13410521D01*
X9465583Y-13410521D02*
X9475107Y-13429568D01*
X9475107Y-13429568D02*
X9484631Y-13439092D01*
X9484631Y-13439092D02*
X9503678Y-13448616D01*
X9503678Y-13448616D02*
X9541774Y-13448616D01*
X9541774Y-13448616D02*
X9560821Y-13439092D01*
X9560821Y-13439092D02*
X9570345Y-13429568D01*
X9570345Y-13429568D02*
X9579869Y-13410521D01*
X9579869Y-13410521D02*
X9579869Y-13362902D01*
X9579869Y-13362902D02*
X9570345Y-13343854D01*
X9570345Y-13343854D02*
X9560821Y-13334330D01*
X9560821Y-13334330D02*
X9541774Y-13324806D01*
X9541774Y-13324806D02*
X9503678Y-13324806D01*
X9503678Y-13324806D02*
X9484631Y-13334330D01*
X9484631Y-13334330D02*
X9475107Y-13343854D01*
X9475107Y-13343854D02*
X9465583Y-13362902D01*
X9703678Y-13248616D02*
X9722726Y-13248616D01*
X9722726Y-13248616D02*
X9741774Y-13258140D01*
X9741774Y-13258140D02*
X9751297Y-13267664D01*
X9751297Y-13267664D02*
X9760821Y-13286711D01*
X9760821Y-13286711D02*
X9770345Y-13324806D01*
X9770345Y-13324806D02*
X9770345Y-13372426D01*
X9770345Y-13372426D02*
X9760821Y-13410521D01*
X9760821Y-13410521D02*
X9751297Y-13429568D01*
X9751297Y-13429568D02*
X9741774Y-13439092D01*
X9741774Y-13439092D02*
X9722726Y-13448616D01*
X9722726Y-13448616D02*
X9703678Y-13448616D01*
X9703678Y-13448616D02*
X9684631Y-13439092D01*
X9684631Y-13439092D02*
X9675107Y-13429568D01*
X9675107Y-13429568D02*
X9665583Y-13410521D01*
X9665583Y-13410521D02*
X9656059Y-13372426D01*
X9656059Y-13372426D02*
X9656059Y-13324806D01*
X9656059Y-13324806D02*
X9665583Y-13286711D01*
X9665583Y-13286711D02*
X9675107Y-13267664D01*
X9675107Y-13267664D02*
X9684631Y-13258140D01*
X9684631Y-13258140D02*
X9703678Y-13248616D01*
X9856059Y-13448616D02*
X9856059Y-13315283D01*
X9856059Y-13334330D02*
X9865583Y-13324806D01*
X9865583Y-13324806D02*
X9884631Y-13315283D01*
X9884631Y-13315283D02*
X9913202Y-13315283D01*
X9913202Y-13315283D02*
X9932250Y-13324806D01*
X9932250Y-13324806D02*
X9941774Y-13343854D01*
X9941774Y-13343854D02*
X9941774Y-13448616D01*
X9941774Y-13343854D02*
X9951297Y-13324806D01*
X9951297Y-13324806D02*
X9970345Y-13315283D01*
X9970345Y-13315283D02*
X9998916Y-13315283D01*
X9998916Y-13315283D02*
X10017964Y-13324806D01*
X10017964Y-13324806D02*
X10027488Y-13343854D01*
X10027488Y-13343854D02*
X10027488Y-13448616D01*
X10122726Y-13448616D02*
X10122726Y-13315283D01*
X10122726Y-13334330D02*
X10132250Y-13324806D01*
X10132250Y-13324806D02*
X10151297Y-13315283D01*
X10151297Y-13315283D02*
X10179869Y-13315283D01*
X10179869Y-13315283D02*
X10198916Y-13324806D01*
X10198916Y-13324806D02*
X10208440Y-13343854D01*
X10208440Y-13343854D02*
X10208440Y-13448616D01*
X10208440Y-13343854D02*
X10217964Y-13324806D01*
X10217964Y-13324806D02*
X10237012Y-13315283D01*
X10237012Y-13315283D02*
X10265583Y-13315283D01*
X10265583Y-13315283D02*
X10284631Y-13324806D01*
X10284631Y-13324806D02*
X10294155Y-13343854D01*
X10294155Y-13343854D02*
X10294155Y-13448616D01*
X10684631Y-13239092D02*
X10513202Y-13496235D01*
X10941774Y-13248616D02*
X10960821Y-13248616D01*
X10960821Y-13248616D02*
X10979869Y-13258140D01*
X10979869Y-13258140D02*
X10989393Y-13267664D01*
X10989393Y-13267664D02*
X10998917Y-13286711D01*
X10998917Y-13286711D02*
X11008440Y-13324806D01*
X11008440Y-13324806D02*
X11008440Y-13372426D01*
X11008440Y-13372426D02*
X10998917Y-13410521D01*
X10998917Y-13410521D02*
X10989393Y-13429568D01*
X10989393Y-13429568D02*
X10979869Y-13439092D01*
X10979869Y-13439092D02*
X10960821Y-13448616D01*
X10960821Y-13448616D02*
X10941774Y-13448616D01*
X10941774Y-13448616D02*
X10922726Y-13439092D01*
X10922726Y-13439092D02*
X10913202Y-13429568D01*
X10913202Y-13429568D02*
X10903678Y-13410521D01*
X10903678Y-13410521D02*
X10894155Y-13372426D01*
X10894155Y-13372426D02*
X10894155Y-13324806D01*
X10894155Y-13324806D02*
X10903678Y-13286711D01*
X10903678Y-13286711D02*
X10913202Y-13267664D01*
X10913202Y-13267664D02*
X10922726Y-13258140D01*
X10922726Y-13258140D02*
X10941774Y-13248616D01*
X11094155Y-13429568D02*
X11103678Y-13439092D01*
X11103678Y-13439092D02*
X11094155Y-13448616D01*
X11094155Y-13448616D02*
X11084631Y-13439092D01*
X11084631Y-13439092D02*
X11094155Y-13429568D01*
X11094155Y-13429568D02*
X11094155Y-13448616D01*
X11227488Y-13248616D02*
X11246536Y-13248616D01*
X11246536Y-13248616D02*
X11265583Y-13258140D01*
X11265583Y-13258140D02*
X11275107Y-13267664D01*
X11275107Y-13267664D02*
X11284631Y-13286711D01*
X11284631Y-13286711D02*
X11294155Y-13324806D01*
X11294155Y-13324806D02*
X11294155Y-13372426D01*
X11294155Y-13372426D02*
X11284631Y-13410521D01*
X11284631Y-13410521D02*
X11275107Y-13429568D01*
X11275107Y-13429568D02*
X11265583Y-13439092D01*
X11265583Y-13439092D02*
X11246536Y-13448616D01*
X11246536Y-13448616D02*
X11227488Y-13448616D01*
X11227488Y-13448616D02*
X11208440Y-13439092D01*
X11208440Y-13439092D02*
X11198916Y-13429568D01*
X11198916Y-13429568D02*
X11189393Y-13410521D01*
X11189393Y-13410521D02*
X11179869Y-13372426D01*
X11179869Y-13372426D02*
X11179869Y-13324806D01*
X11179869Y-13324806D02*
X11189393Y-13286711D01*
X11189393Y-13286711D02*
X11198916Y-13267664D01*
X11198916Y-13267664D02*
X11208440Y-13258140D01*
X11208440Y-13258140D02*
X11227488Y-13248616D01*
X11484631Y-13448616D02*
X11370345Y-13448616D01*
X11427488Y-13448616D02*
X11427488Y-13248616D01*
X11427488Y-13248616D02*
X11408440Y-13277187D01*
X11408440Y-13277187D02*
X11389393Y-13296235D01*
X11389393Y-13296235D02*
X11370345Y-13305759D01*
X11598916Y-13334330D02*
X11579869Y-13324806D01*
X11579869Y-13324806D02*
X11570345Y-13315283D01*
X11570345Y-13315283D02*
X11560821Y-13296235D01*
X11560821Y-13296235D02*
X11560821Y-13286711D01*
X11560821Y-13286711D02*
X11570345Y-13267664D01*
X11570345Y-13267664D02*
X11579869Y-13258140D01*
X11579869Y-13258140D02*
X11598916Y-13248616D01*
X11598916Y-13248616D02*
X11637012Y-13248616D01*
X11637012Y-13248616D02*
X11656059Y-13258140D01*
X11656059Y-13258140D02*
X11665583Y-13267664D01*
X11665583Y-13267664D02*
X11675107Y-13286711D01*
X11675107Y-13286711D02*
X11675107Y-13296235D01*
X11675107Y-13296235D02*
X11665583Y-13315283D01*
X11665583Y-13315283D02*
X11656059Y-13324806D01*
X11656059Y-13324806D02*
X11637012Y-13334330D01*
X11637012Y-13334330D02*
X11598916Y-13334330D01*
X11598916Y-13334330D02*
X11579869Y-13343854D01*
X11579869Y-13343854D02*
X11570345Y-13353378D01*
X11570345Y-13353378D02*
X11560821Y-13372426D01*
X11560821Y-13372426D02*
X11560821Y-13410521D01*
X11560821Y-13410521D02*
X11570345Y-13429568D01*
X11570345Y-13429568D02*
X11579869Y-13439092D01*
X11579869Y-13439092D02*
X11598916Y-13448616D01*
X11598916Y-13448616D02*
X11637012Y-13448616D01*
X11637012Y-13448616D02*
X11656059Y-13439092D01*
X11656059Y-13439092D02*
X11665583Y-13429568D01*
X11665583Y-13429568D02*
X11675107Y-13410521D01*
X11675107Y-13410521D02*
X11675107Y-13372426D01*
X11675107Y-13372426D02*
X11665583Y-13353378D01*
X11665583Y-13353378D02*
X11656059Y-13343854D01*
X11656059Y-13343854D02*
X11637012Y-13334330D01*
X11865583Y-13448616D02*
X11751297Y-13448616D01*
X11808440Y-13448616D02*
X11808440Y-13248616D01*
X11808440Y-13248616D02*
X11789393Y-13277187D01*
X11789393Y-13277187D02*
X11770345Y-13296235D01*
X11770345Y-13296235D02*
X11751297Y-13305759D01*
X11941774Y-13248616D02*
X11941774Y-13286711D01*
X12017964Y-13248616D02*
X12017964Y-13286711D01*
X12313202Y-13524806D02*
X12303678Y-13515283D01*
X12303678Y-13515283D02*
X12284631Y-13486711D01*
X12284631Y-13486711D02*
X12275107Y-13467664D01*
X12275107Y-13467664D02*
X12265583Y-13439092D01*
X12265583Y-13439092D02*
X12256059Y-13391473D01*
X12256059Y-13391473D02*
X12256059Y-13353378D01*
X12256059Y-13353378D02*
X12265583Y-13305759D01*
X12265583Y-13305759D02*
X12275107Y-13277187D01*
X12275107Y-13277187D02*
X12284631Y-13258140D01*
X12284631Y-13258140D02*
X12303678Y-13229568D01*
X12303678Y-13229568D02*
X12313202Y-13220045D01*
X12475107Y-13315283D02*
X12475107Y-13448616D01*
X12427488Y-13239092D02*
X12379869Y-13381949D01*
X12379869Y-13381949D02*
X12503678Y-13381949D01*
X12732250Y-13448616D02*
X12732250Y-13248616D01*
X12817964Y-13448616D02*
X12817964Y-13343854D01*
X12817964Y-13343854D02*
X12808440Y-13324806D01*
X12808440Y-13324806D02*
X12789393Y-13315283D01*
X12789393Y-13315283D02*
X12760821Y-13315283D01*
X12760821Y-13315283D02*
X12741774Y-13324806D01*
X12741774Y-13324806D02*
X12732250Y-13334330D01*
X12941774Y-13448616D02*
X12922726Y-13439092D01*
X12922726Y-13439092D02*
X12913202Y-13429568D01*
X12913202Y-13429568D02*
X12903679Y-13410521D01*
X12903679Y-13410521D02*
X12903679Y-13353378D01*
X12903679Y-13353378D02*
X12913202Y-13334330D01*
X12913202Y-13334330D02*
X12922726Y-13324806D01*
X12922726Y-13324806D02*
X12941774Y-13315283D01*
X12941774Y-13315283D02*
X12970345Y-13315283D01*
X12970345Y-13315283D02*
X12989393Y-13324806D01*
X12989393Y-13324806D02*
X12998917Y-13334330D01*
X12998917Y-13334330D02*
X13008440Y-13353378D01*
X13008440Y-13353378D02*
X13008440Y-13410521D01*
X13008440Y-13410521D02*
X12998917Y-13429568D01*
X12998917Y-13429568D02*
X12989393Y-13439092D01*
X12989393Y-13439092D02*
X12970345Y-13448616D01*
X12970345Y-13448616D02*
X12941774Y-13448616D01*
X13122726Y-13448616D02*
X13103679Y-13439092D01*
X13103679Y-13439092D02*
X13094155Y-13420045D01*
X13094155Y-13420045D02*
X13094155Y-13248616D01*
X13275107Y-13439092D02*
X13256060Y-13448616D01*
X13256060Y-13448616D02*
X13217964Y-13448616D01*
X13217964Y-13448616D02*
X13198917Y-13439092D01*
X13198917Y-13439092D02*
X13189393Y-13420045D01*
X13189393Y-13420045D02*
X13189393Y-13343854D01*
X13189393Y-13343854D02*
X13198917Y-13324806D01*
X13198917Y-13324806D02*
X13217964Y-13315283D01*
X13217964Y-13315283D02*
X13256060Y-13315283D01*
X13256060Y-13315283D02*
X13275107Y-13324806D01*
X13275107Y-13324806D02*
X13284631Y-13343854D01*
X13284631Y-13343854D02*
X13284631Y-13362902D01*
X13284631Y-13362902D02*
X13189393Y-13381949D01*
X13360821Y-13439092D02*
X13379869Y-13448616D01*
X13379869Y-13448616D02*
X13417964Y-13448616D01*
X13417964Y-13448616D02*
X13437012Y-13439092D01*
X13437012Y-13439092D02*
X13446536Y-13420045D01*
X13446536Y-13420045D02*
X13446536Y-13410521D01*
X13446536Y-13410521D02*
X13437012Y-13391473D01*
X13437012Y-13391473D02*
X13417964Y-13381949D01*
X13417964Y-13381949D02*
X13389393Y-13381949D01*
X13389393Y-13381949D02*
X13370345Y-13372426D01*
X13370345Y-13372426D02*
X13360821Y-13353378D01*
X13360821Y-13353378D02*
X13360821Y-13343854D01*
X13360821Y-13343854D02*
X13370345Y-13324806D01*
X13370345Y-13324806D02*
X13389393Y-13315283D01*
X13389393Y-13315283D02*
X13417964Y-13315283D01*
X13417964Y-13315283D02*
X13437012Y-13324806D01*
X13513202Y-13524806D02*
X13522726Y-13515283D01*
X13522726Y-13515283D02*
X13541774Y-13486711D01*
X13541774Y-13486711D02*
X13551298Y-13467664D01*
X13551298Y-13467664D02*
X13560821Y-13439092D01*
X13560821Y-13439092D02*
X13570345Y-13391473D01*
X13570345Y-13391473D02*
X13570345Y-13353378D01*
X13570345Y-13353378D02*
X13560821Y-13305759D01*
X13560821Y-13305759D02*
X13551298Y-13277187D01*
X13551298Y-13277187D02*
X13541774Y-13258140D01*
X13541774Y-13258140D02*
X13522726Y-13229568D01*
X13522726Y-13229568D02*
X13513202Y-13220045D01*
D12*
X8729353Y-13642346D02*
X8729353Y-13599919D01*
X8686926Y-13599919D01*
X8686926Y-13642346D01*
X8729353Y-13642346D01*
D11*
X9037012Y-13512616D02*
X9056059Y-13512616D01*
X9056059Y-13512616D02*
X9075107Y-13522140D01*
X9075107Y-13522140D02*
X9084631Y-13531664D01*
X9084631Y-13531664D02*
X9094154Y-13550711D01*
X9094154Y-13550711D02*
X9103678Y-13588806D01*
X9103678Y-13588806D02*
X9103678Y-13636426D01*
X9103678Y-13636426D02*
X9094154Y-13674521D01*
X9094154Y-13674521D02*
X9084631Y-13693568D01*
X9084631Y-13693568D02*
X9075107Y-13703092D01*
X9075107Y-13703092D02*
X9056059Y-13712616D01*
X9056059Y-13712616D02*
X9037012Y-13712616D01*
X9037012Y-13712616D02*
X9017964Y-13703092D01*
X9017964Y-13703092D02*
X9008440Y-13693568D01*
X9008440Y-13693568D02*
X8998916Y-13674521D01*
X8998916Y-13674521D02*
X8989393Y-13636426D01*
X8989393Y-13636426D02*
X8989393Y-13588806D01*
X8989393Y-13588806D02*
X8998916Y-13550711D01*
X8998916Y-13550711D02*
X9008440Y-13531664D01*
X9008440Y-13531664D02*
X9017964Y-13522140D01*
X9017964Y-13522140D02*
X9037012Y-13512616D01*
X9189393Y-13693568D02*
X9198916Y-13703092D01*
X9198916Y-13703092D02*
X9189393Y-13712616D01*
X9189393Y-13712616D02*
X9179869Y-13703092D01*
X9179869Y-13703092D02*
X9189393Y-13693568D01*
X9189393Y-13693568D02*
X9189393Y-13712616D01*
X9370345Y-13512616D02*
X9332250Y-13512616D01*
X9332250Y-13512616D02*
X9313202Y-13522140D01*
X9313202Y-13522140D02*
X9303678Y-13531664D01*
X9303678Y-13531664D02*
X9284631Y-13560235D01*
X9284631Y-13560235D02*
X9275107Y-13598330D01*
X9275107Y-13598330D02*
X9275107Y-13674521D01*
X9275107Y-13674521D02*
X9284631Y-13693568D01*
X9284631Y-13693568D02*
X9294154Y-13703092D01*
X9294154Y-13703092D02*
X9313202Y-13712616D01*
X9313202Y-13712616D02*
X9351297Y-13712616D01*
X9351297Y-13712616D02*
X9370345Y-13703092D01*
X9370345Y-13703092D02*
X9379869Y-13693568D01*
X9379869Y-13693568D02*
X9389393Y-13674521D01*
X9389393Y-13674521D02*
X9389393Y-13626902D01*
X9389393Y-13626902D02*
X9379869Y-13607854D01*
X9379869Y-13607854D02*
X9370345Y-13598330D01*
X9370345Y-13598330D02*
X9351297Y-13588806D01*
X9351297Y-13588806D02*
X9313202Y-13588806D01*
X9313202Y-13588806D02*
X9294154Y-13598330D01*
X9294154Y-13598330D02*
X9284631Y-13607854D01*
X9284631Y-13607854D02*
X9275107Y-13626902D01*
X9513202Y-13512616D02*
X9532250Y-13512616D01*
X9532250Y-13512616D02*
X9551297Y-13522140D01*
X9551297Y-13522140D02*
X9560821Y-13531664D01*
X9560821Y-13531664D02*
X9570345Y-13550711D01*
X9570345Y-13550711D02*
X9579869Y-13588806D01*
X9579869Y-13588806D02*
X9579869Y-13636426D01*
X9579869Y-13636426D02*
X9570345Y-13674521D01*
X9570345Y-13674521D02*
X9560821Y-13693568D01*
X9560821Y-13693568D02*
X9551297Y-13703092D01*
X9551297Y-13703092D02*
X9532250Y-13712616D01*
X9532250Y-13712616D02*
X9513202Y-13712616D01*
X9513202Y-13712616D02*
X9494154Y-13703092D01*
X9494154Y-13703092D02*
X9484631Y-13693568D01*
X9484631Y-13693568D02*
X9475107Y-13674521D01*
X9475107Y-13674521D02*
X9465583Y-13636426D01*
X9465583Y-13636426D02*
X9465583Y-13588806D01*
X9465583Y-13588806D02*
X9475107Y-13550711D01*
X9475107Y-13550711D02*
X9484631Y-13531664D01*
X9484631Y-13531664D02*
X9494154Y-13522140D01*
X9494154Y-13522140D02*
X9513202Y-13512616D01*
X9703678Y-13512616D02*
X9722726Y-13512616D01*
X9722726Y-13512616D02*
X9741774Y-13522140D01*
X9741774Y-13522140D02*
X9751297Y-13531664D01*
X9751297Y-13531664D02*
X9760821Y-13550711D01*
X9760821Y-13550711D02*
X9770345Y-13588806D01*
X9770345Y-13588806D02*
X9770345Y-13636426D01*
X9770345Y-13636426D02*
X9760821Y-13674521D01*
X9760821Y-13674521D02*
X9751297Y-13693568D01*
X9751297Y-13693568D02*
X9741774Y-13703092D01*
X9741774Y-13703092D02*
X9722726Y-13712616D01*
X9722726Y-13712616D02*
X9703678Y-13712616D01*
X9703678Y-13712616D02*
X9684631Y-13703092D01*
X9684631Y-13703092D02*
X9675107Y-13693568D01*
X9675107Y-13693568D02*
X9665583Y-13674521D01*
X9665583Y-13674521D02*
X9656059Y-13636426D01*
X9656059Y-13636426D02*
X9656059Y-13588806D01*
X9656059Y-13588806D02*
X9665583Y-13550711D01*
X9665583Y-13550711D02*
X9675107Y-13531664D01*
X9675107Y-13531664D02*
X9684631Y-13522140D01*
X9684631Y-13522140D02*
X9703678Y-13512616D01*
X9856059Y-13712616D02*
X9856059Y-13579283D01*
X9856059Y-13598330D02*
X9865583Y-13588806D01*
X9865583Y-13588806D02*
X9884631Y-13579283D01*
X9884631Y-13579283D02*
X9913202Y-13579283D01*
X9913202Y-13579283D02*
X9932250Y-13588806D01*
X9932250Y-13588806D02*
X9941774Y-13607854D01*
X9941774Y-13607854D02*
X9941774Y-13712616D01*
X9941774Y-13607854D02*
X9951297Y-13588806D01*
X9951297Y-13588806D02*
X9970345Y-13579283D01*
X9970345Y-13579283D02*
X9998916Y-13579283D01*
X9998916Y-13579283D02*
X10017964Y-13588806D01*
X10017964Y-13588806D02*
X10027488Y-13607854D01*
X10027488Y-13607854D02*
X10027488Y-13712616D01*
X10122726Y-13712616D02*
X10122726Y-13579283D01*
X10122726Y-13598330D02*
X10132250Y-13588806D01*
X10132250Y-13588806D02*
X10151297Y-13579283D01*
X10151297Y-13579283D02*
X10179869Y-13579283D01*
X10179869Y-13579283D02*
X10198916Y-13588806D01*
X10198916Y-13588806D02*
X10208440Y-13607854D01*
X10208440Y-13607854D02*
X10208440Y-13712616D01*
X10208440Y-13607854D02*
X10217964Y-13588806D01*
X10217964Y-13588806D02*
X10237012Y-13579283D01*
X10237012Y-13579283D02*
X10265583Y-13579283D01*
X10265583Y-13579283D02*
X10284631Y-13588806D01*
X10284631Y-13588806D02*
X10294155Y-13607854D01*
X10294155Y-13607854D02*
X10294155Y-13712616D01*
X10684631Y-13503092D02*
X10513202Y-13760235D01*
X10941774Y-13512616D02*
X10960821Y-13512616D01*
X10960821Y-13512616D02*
X10979869Y-13522140D01*
X10979869Y-13522140D02*
X10989393Y-13531664D01*
X10989393Y-13531664D02*
X10998917Y-13550711D01*
X10998917Y-13550711D02*
X11008440Y-13588806D01*
X11008440Y-13588806D02*
X11008440Y-13636426D01*
X11008440Y-13636426D02*
X10998917Y-13674521D01*
X10998917Y-13674521D02*
X10989393Y-13693568D01*
X10989393Y-13693568D02*
X10979869Y-13703092D01*
X10979869Y-13703092D02*
X10960821Y-13712616D01*
X10960821Y-13712616D02*
X10941774Y-13712616D01*
X10941774Y-13712616D02*
X10922726Y-13703092D01*
X10922726Y-13703092D02*
X10913202Y-13693568D01*
X10913202Y-13693568D02*
X10903678Y-13674521D01*
X10903678Y-13674521D02*
X10894155Y-13636426D01*
X10894155Y-13636426D02*
X10894155Y-13588806D01*
X10894155Y-13588806D02*
X10903678Y-13550711D01*
X10903678Y-13550711D02*
X10913202Y-13531664D01*
X10913202Y-13531664D02*
X10922726Y-13522140D01*
X10922726Y-13522140D02*
X10941774Y-13512616D01*
X11094155Y-13693568D02*
X11103678Y-13703092D01*
X11103678Y-13703092D02*
X11094155Y-13712616D01*
X11094155Y-13712616D02*
X11084631Y-13703092D01*
X11084631Y-13703092D02*
X11094155Y-13693568D01*
X11094155Y-13693568D02*
X11094155Y-13712616D01*
X11227488Y-13512616D02*
X11246536Y-13512616D01*
X11246536Y-13512616D02*
X11265583Y-13522140D01*
X11265583Y-13522140D02*
X11275107Y-13531664D01*
X11275107Y-13531664D02*
X11284631Y-13550711D01*
X11284631Y-13550711D02*
X11294155Y-13588806D01*
X11294155Y-13588806D02*
X11294155Y-13636426D01*
X11294155Y-13636426D02*
X11284631Y-13674521D01*
X11284631Y-13674521D02*
X11275107Y-13693568D01*
X11275107Y-13693568D02*
X11265583Y-13703092D01*
X11265583Y-13703092D02*
X11246536Y-13712616D01*
X11246536Y-13712616D02*
X11227488Y-13712616D01*
X11227488Y-13712616D02*
X11208440Y-13703092D01*
X11208440Y-13703092D02*
X11198916Y-13693568D01*
X11198916Y-13693568D02*
X11189393Y-13674521D01*
X11189393Y-13674521D02*
X11179869Y-13636426D01*
X11179869Y-13636426D02*
X11179869Y-13588806D01*
X11179869Y-13588806D02*
X11189393Y-13550711D01*
X11189393Y-13550711D02*
X11198916Y-13531664D01*
X11198916Y-13531664D02*
X11208440Y-13522140D01*
X11208440Y-13522140D02*
X11227488Y-13512616D01*
X11370345Y-13531664D02*
X11379869Y-13522140D01*
X11379869Y-13522140D02*
X11398916Y-13512616D01*
X11398916Y-13512616D02*
X11446536Y-13512616D01*
X11446536Y-13512616D02*
X11465583Y-13522140D01*
X11465583Y-13522140D02*
X11475107Y-13531664D01*
X11475107Y-13531664D02*
X11484631Y-13550711D01*
X11484631Y-13550711D02*
X11484631Y-13569759D01*
X11484631Y-13569759D02*
X11475107Y-13598330D01*
X11475107Y-13598330D02*
X11360821Y-13712616D01*
X11360821Y-13712616D02*
X11484631Y-13712616D01*
X11551297Y-13512616D02*
X11675107Y-13512616D01*
X11675107Y-13512616D02*
X11608440Y-13588806D01*
X11608440Y-13588806D02*
X11637012Y-13588806D01*
X11637012Y-13588806D02*
X11656059Y-13598330D01*
X11656059Y-13598330D02*
X11665583Y-13607854D01*
X11665583Y-13607854D02*
X11675107Y-13626902D01*
X11675107Y-13626902D02*
X11675107Y-13674521D01*
X11675107Y-13674521D02*
X11665583Y-13693568D01*
X11665583Y-13693568D02*
X11656059Y-13703092D01*
X11656059Y-13703092D02*
X11637012Y-13712616D01*
X11637012Y-13712616D02*
X11579869Y-13712616D01*
X11579869Y-13712616D02*
X11560821Y-13703092D01*
X11560821Y-13703092D02*
X11551297Y-13693568D01*
X11846536Y-13512616D02*
X11808440Y-13512616D01*
X11808440Y-13512616D02*
X11789393Y-13522140D01*
X11789393Y-13522140D02*
X11779869Y-13531664D01*
X11779869Y-13531664D02*
X11760821Y-13560235D01*
X11760821Y-13560235D02*
X11751297Y-13598330D01*
X11751297Y-13598330D02*
X11751297Y-13674521D01*
X11751297Y-13674521D02*
X11760821Y-13693568D01*
X11760821Y-13693568D02*
X11770345Y-13703092D01*
X11770345Y-13703092D02*
X11789393Y-13712616D01*
X11789393Y-13712616D02*
X11827488Y-13712616D01*
X11827488Y-13712616D02*
X11846536Y-13703092D01*
X11846536Y-13703092D02*
X11856059Y-13693568D01*
X11856059Y-13693568D02*
X11865583Y-13674521D01*
X11865583Y-13674521D02*
X11865583Y-13626902D01*
X11865583Y-13626902D02*
X11856059Y-13607854D01*
X11856059Y-13607854D02*
X11846536Y-13598330D01*
X11846536Y-13598330D02*
X11827488Y-13588806D01*
X11827488Y-13588806D02*
X11789393Y-13588806D01*
X11789393Y-13588806D02*
X11770345Y-13598330D01*
X11770345Y-13598330D02*
X11760821Y-13607854D01*
X11760821Y-13607854D02*
X11751297Y-13626902D01*
X11941774Y-13512616D02*
X11941774Y-13550711D01*
X12017964Y-13512616D02*
X12017964Y-13550711D01*
X12313202Y-13788806D02*
X12303678Y-13779283D01*
X12303678Y-13779283D02*
X12284631Y-13750711D01*
X12284631Y-13750711D02*
X12275107Y-13731664D01*
X12275107Y-13731664D02*
X12265583Y-13703092D01*
X12265583Y-13703092D02*
X12256059Y-13655473D01*
X12256059Y-13655473D02*
X12256059Y-13617378D01*
X12256059Y-13617378D02*
X12265583Y-13569759D01*
X12265583Y-13569759D02*
X12275107Y-13541187D01*
X12275107Y-13541187D02*
X12284631Y-13522140D01*
X12284631Y-13522140D02*
X12303678Y-13493568D01*
X12303678Y-13493568D02*
X12313202Y-13484045D01*
X12494155Y-13712616D02*
X12379869Y-13712616D01*
X12437012Y-13712616D02*
X12437012Y-13512616D01*
X12437012Y-13512616D02*
X12417964Y-13541187D01*
X12417964Y-13541187D02*
X12398917Y-13560235D01*
X12398917Y-13560235D02*
X12379869Y-13569759D01*
X12589393Y-13712616D02*
X12627488Y-13712616D01*
X12627488Y-13712616D02*
X12646536Y-13703092D01*
X12646536Y-13703092D02*
X12656059Y-13693568D01*
X12656059Y-13693568D02*
X12675107Y-13664997D01*
X12675107Y-13664997D02*
X12684631Y-13626902D01*
X12684631Y-13626902D02*
X12684631Y-13550711D01*
X12684631Y-13550711D02*
X12675107Y-13531664D01*
X12675107Y-13531664D02*
X12665583Y-13522140D01*
X12665583Y-13522140D02*
X12646536Y-13512616D01*
X12646536Y-13512616D02*
X12608440Y-13512616D01*
X12608440Y-13512616D02*
X12589393Y-13522140D01*
X12589393Y-13522140D02*
X12579869Y-13531664D01*
X12579869Y-13531664D02*
X12570345Y-13550711D01*
X12570345Y-13550711D02*
X12570345Y-13598330D01*
X12570345Y-13598330D02*
X12579869Y-13617378D01*
X12579869Y-13617378D02*
X12589393Y-13626902D01*
X12589393Y-13626902D02*
X12608440Y-13636426D01*
X12608440Y-13636426D02*
X12646536Y-13636426D01*
X12646536Y-13636426D02*
X12665583Y-13626902D01*
X12665583Y-13626902D02*
X12675107Y-13617378D01*
X12675107Y-13617378D02*
X12684631Y-13598330D01*
X12922726Y-13712616D02*
X12922726Y-13512616D01*
X13008440Y-13712616D02*
X13008440Y-13607854D01*
X13008440Y-13607854D02*
X12998917Y-13588806D01*
X12998917Y-13588806D02*
X12979869Y-13579283D01*
X12979869Y-13579283D02*
X12951298Y-13579283D01*
X12951298Y-13579283D02*
X12932250Y-13588806D01*
X12932250Y-13588806D02*
X12922726Y-13598330D01*
X13132250Y-13712616D02*
X13113202Y-13703092D01*
X13113202Y-13703092D02*
X13103679Y-13693568D01*
X13103679Y-13693568D02*
X13094155Y-13674521D01*
X13094155Y-13674521D02*
X13094155Y-13617378D01*
X13094155Y-13617378D02*
X13103679Y-13598330D01*
X13103679Y-13598330D02*
X13113202Y-13588806D01*
X13113202Y-13588806D02*
X13132250Y-13579283D01*
X13132250Y-13579283D02*
X13160821Y-13579283D01*
X13160821Y-13579283D02*
X13179869Y-13588806D01*
X13179869Y-13588806D02*
X13189393Y-13598330D01*
X13189393Y-13598330D02*
X13198917Y-13617378D01*
X13198917Y-13617378D02*
X13198917Y-13674521D01*
X13198917Y-13674521D02*
X13189393Y-13693568D01*
X13189393Y-13693568D02*
X13179869Y-13703092D01*
X13179869Y-13703092D02*
X13160821Y-13712616D01*
X13160821Y-13712616D02*
X13132250Y-13712616D01*
X13313202Y-13712616D02*
X13294155Y-13703092D01*
X13294155Y-13703092D02*
X13284631Y-13684045D01*
X13284631Y-13684045D02*
X13284631Y-13512616D01*
X13465583Y-13703092D02*
X13446536Y-13712616D01*
X13446536Y-13712616D02*
X13408440Y-13712616D01*
X13408440Y-13712616D02*
X13389393Y-13703092D01*
X13389393Y-13703092D02*
X13379869Y-13684045D01*
X13379869Y-13684045D02*
X13379869Y-13607854D01*
X13379869Y-13607854D02*
X13389393Y-13588806D01*
X13389393Y-13588806D02*
X13408440Y-13579283D01*
X13408440Y-13579283D02*
X13446536Y-13579283D01*
X13446536Y-13579283D02*
X13465583Y-13588806D01*
X13465583Y-13588806D02*
X13475107Y-13607854D01*
X13475107Y-13607854D02*
X13475107Y-13626902D01*
X13475107Y-13626902D02*
X13379869Y-13645949D01*
X13551298Y-13703092D02*
X13570345Y-13712616D01*
X13570345Y-13712616D02*
X13608440Y-13712616D01*
X13608440Y-13712616D02*
X13627488Y-13703092D01*
X13627488Y-13703092D02*
X13637012Y-13684045D01*
X13637012Y-13684045D02*
X13637012Y-13674521D01*
X13637012Y-13674521D02*
X13627488Y-13655473D01*
X13627488Y-13655473D02*
X13608440Y-13645949D01*
X13608440Y-13645949D02*
X13579869Y-13645949D01*
X13579869Y-13645949D02*
X13560821Y-13636426D01*
X13560821Y-13636426D02*
X13551298Y-13617378D01*
X13551298Y-13617378D02*
X13551298Y-13607854D01*
X13551298Y-13607854D02*
X13560821Y-13588806D01*
X13560821Y-13588806D02*
X13579869Y-13579283D01*
X13579869Y-13579283D02*
X13608440Y-13579283D01*
X13608440Y-13579283D02*
X13627488Y-13588806D01*
X13703679Y-13788806D02*
X13713202Y-13779283D01*
X13713202Y-13779283D02*
X13732250Y-13750711D01*
X13732250Y-13750711D02*
X13741774Y-13731664D01*
X13741774Y-13731664D02*
X13751298Y-13703092D01*
X13751298Y-13703092D02*
X13760821Y-13655473D01*
X13760821Y-13655473D02*
X13760821Y-13617378D01*
X13760821Y-13617378D02*
X13751298Y-13569759D01*
X13751298Y-13569759D02*
X13741774Y-13541187D01*
X13741774Y-13541187D02*
X13732250Y-13522140D01*
X13732250Y-13522140D02*
X13713202Y-13493568D01*
X13713202Y-13493568D02*
X13703679Y-13484045D01*
D12*
X8708140Y-13915132D02*
X8738140Y-13885132D01*
X8708140Y-13855132D01*
X8678140Y-13885132D01*
X8708140Y-13915132D01*
D11*
X9037012Y-13776616D02*
X9056059Y-13776616D01*
X9056059Y-13776616D02*
X9075107Y-13786140D01*
X9075107Y-13786140D02*
X9084631Y-13795664D01*
X9084631Y-13795664D02*
X9094154Y-13814711D01*
X9094154Y-13814711D02*
X9103678Y-13852806D01*
X9103678Y-13852806D02*
X9103678Y-13900426D01*
X9103678Y-13900426D02*
X9094154Y-13938521D01*
X9094154Y-13938521D02*
X9084631Y-13957568D01*
X9084631Y-13957568D02*
X9075107Y-13967092D01*
X9075107Y-13967092D02*
X9056059Y-13976616D01*
X9056059Y-13976616D02*
X9037012Y-13976616D01*
X9037012Y-13976616D02*
X9017964Y-13967092D01*
X9017964Y-13967092D02*
X9008440Y-13957568D01*
X9008440Y-13957568D02*
X8998916Y-13938521D01*
X8998916Y-13938521D02*
X8989393Y-13900426D01*
X8989393Y-13900426D02*
X8989393Y-13852806D01*
X8989393Y-13852806D02*
X8998916Y-13814711D01*
X8998916Y-13814711D02*
X9008440Y-13795664D01*
X9008440Y-13795664D02*
X9017964Y-13786140D01*
X9017964Y-13786140D02*
X9037012Y-13776616D01*
X9189393Y-13957568D02*
X9198916Y-13967092D01*
X9198916Y-13967092D02*
X9189393Y-13976616D01*
X9189393Y-13976616D02*
X9179869Y-13967092D01*
X9179869Y-13967092D02*
X9189393Y-13957568D01*
X9189393Y-13957568D02*
X9189393Y-13976616D01*
X9370345Y-13776616D02*
X9332250Y-13776616D01*
X9332250Y-13776616D02*
X9313202Y-13786140D01*
X9313202Y-13786140D02*
X9303678Y-13795664D01*
X9303678Y-13795664D02*
X9284631Y-13824235D01*
X9284631Y-13824235D02*
X9275107Y-13862330D01*
X9275107Y-13862330D02*
X9275107Y-13938521D01*
X9275107Y-13938521D02*
X9284631Y-13957568D01*
X9284631Y-13957568D02*
X9294154Y-13967092D01*
X9294154Y-13967092D02*
X9313202Y-13976616D01*
X9313202Y-13976616D02*
X9351297Y-13976616D01*
X9351297Y-13976616D02*
X9370345Y-13967092D01*
X9370345Y-13967092D02*
X9379869Y-13957568D01*
X9379869Y-13957568D02*
X9389393Y-13938521D01*
X9389393Y-13938521D02*
X9389393Y-13890902D01*
X9389393Y-13890902D02*
X9379869Y-13871854D01*
X9379869Y-13871854D02*
X9370345Y-13862330D01*
X9370345Y-13862330D02*
X9351297Y-13852806D01*
X9351297Y-13852806D02*
X9313202Y-13852806D01*
X9313202Y-13852806D02*
X9294154Y-13862330D01*
X9294154Y-13862330D02*
X9284631Y-13871854D01*
X9284631Y-13871854D02*
X9275107Y-13890902D01*
X9513202Y-13776616D02*
X9532250Y-13776616D01*
X9532250Y-13776616D02*
X9551297Y-13786140D01*
X9551297Y-13786140D02*
X9560821Y-13795664D01*
X9560821Y-13795664D02*
X9570345Y-13814711D01*
X9570345Y-13814711D02*
X9579869Y-13852806D01*
X9579869Y-13852806D02*
X9579869Y-13900426D01*
X9579869Y-13900426D02*
X9570345Y-13938521D01*
X9570345Y-13938521D02*
X9560821Y-13957568D01*
X9560821Y-13957568D02*
X9551297Y-13967092D01*
X9551297Y-13967092D02*
X9532250Y-13976616D01*
X9532250Y-13976616D02*
X9513202Y-13976616D01*
X9513202Y-13976616D02*
X9494154Y-13967092D01*
X9494154Y-13967092D02*
X9484631Y-13957568D01*
X9484631Y-13957568D02*
X9475107Y-13938521D01*
X9475107Y-13938521D02*
X9465583Y-13900426D01*
X9465583Y-13900426D02*
X9465583Y-13852806D01*
X9465583Y-13852806D02*
X9475107Y-13814711D01*
X9475107Y-13814711D02*
X9484631Y-13795664D01*
X9484631Y-13795664D02*
X9494154Y-13786140D01*
X9494154Y-13786140D02*
X9513202Y-13776616D01*
X9703678Y-13776616D02*
X9722726Y-13776616D01*
X9722726Y-13776616D02*
X9741774Y-13786140D01*
X9741774Y-13786140D02*
X9751297Y-13795664D01*
X9751297Y-13795664D02*
X9760821Y-13814711D01*
X9760821Y-13814711D02*
X9770345Y-13852806D01*
X9770345Y-13852806D02*
X9770345Y-13900426D01*
X9770345Y-13900426D02*
X9760821Y-13938521D01*
X9760821Y-13938521D02*
X9751297Y-13957568D01*
X9751297Y-13957568D02*
X9741774Y-13967092D01*
X9741774Y-13967092D02*
X9722726Y-13976616D01*
X9722726Y-13976616D02*
X9703678Y-13976616D01*
X9703678Y-13976616D02*
X9684631Y-13967092D01*
X9684631Y-13967092D02*
X9675107Y-13957568D01*
X9675107Y-13957568D02*
X9665583Y-13938521D01*
X9665583Y-13938521D02*
X9656059Y-13900426D01*
X9656059Y-13900426D02*
X9656059Y-13852806D01*
X9656059Y-13852806D02*
X9665583Y-13814711D01*
X9665583Y-13814711D02*
X9675107Y-13795664D01*
X9675107Y-13795664D02*
X9684631Y-13786140D01*
X9684631Y-13786140D02*
X9703678Y-13776616D01*
X9856059Y-13976616D02*
X9856059Y-13843283D01*
X9856059Y-13862330D02*
X9865583Y-13852806D01*
X9865583Y-13852806D02*
X9884631Y-13843283D01*
X9884631Y-13843283D02*
X9913202Y-13843283D01*
X9913202Y-13843283D02*
X9932250Y-13852806D01*
X9932250Y-13852806D02*
X9941774Y-13871854D01*
X9941774Y-13871854D02*
X9941774Y-13976616D01*
X9941774Y-13871854D02*
X9951297Y-13852806D01*
X9951297Y-13852806D02*
X9970345Y-13843283D01*
X9970345Y-13843283D02*
X9998916Y-13843283D01*
X9998916Y-13843283D02*
X10017964Y-13852806D01*
X10017964Y-13852806D02*
X10027488Y-13871854D01*
X10027488Y-13871854D02*
X10027488Y-13976616D01*
X10122726Y-13976616D02*
X10122726Y-13843283D01*
X10122726Y-13862330D02*
X10132250Y-13852806D01*
X10132250Y-13852806D02*
X10151297Y-13843283D01*
X10151297Y-13843283D02*
X10179869Y-13843283D01*
X10179869Y-13843283D02*
X10198916Y-13852806D01*
X10198916Y-13852806D02*
X10208440Y-13871854D01*
X10208440Y-13871854D02*
X10208440Y-13976616D01*
X10208440Y-13871854D02*
X10217964Y-13852806D01*
X10217964Y-13852806D02*
X10237012Y-13843283D01*
X10237012Y-13843283D02*
X10265583Y-13843283D01*
X10265583Y-13843283D02*
X10284631Y-13852806D01*
X10284631Y-13852806D02*
X10294155Y-13871854D01*
X10294155Y-13871854D02*
X10294155Y-13976616D01*
X10684631Y-13767092D02*
X10513202Y-14024235D01*
X10941774Y-13776616D02*
X10960821Y-13776616D01*
X10960821Y-13776616D02*
X10979869Y-13786140D01*
X10979869Y-13786140D02*
X10989393Y-13795664D01*
X10989393Y-13795664D02*
X10998917Y-13814711D01*
X10998917Y-13814711D02*
X11008440Y-13852806D01*
X11008440Y-13852806D02*
X11008440Y-13900426D01*
X11008440Y-13900426D02*
X10998917Y-13938521D01*
X10998917Y-13938521D02*
X10989393Y-13957568D01*
X10989393Y-13957568D02*
X10979869Y-13967092D01*
X10979869Y-13967092D02*
X10960821Y-13976616D01*
X10960821Y-13976616D02*
X10941774Y-13976616D01*
X10941774Y-13976616D02*
X10922726Y-13967092D01*
X10922726Y-13967092D02*
X10913202Y-13957568D01*
X10913202Y-13957568D02*
X10903678Y-13938521D01*
X10903678Y-13938521D02*
X10894155Y-13900426D01*
X10894155Y-13900426D02*
X10894155Y-13852806D01*
X10894155Y-13852806D02*
X10903678Y-13814711D01*
X10903678Y-13814711D02*
X10913202Y-13795664D01*
X10913202Y-13795664D02*
X10922726Y-13786140D01*
X10922726Y-13786140D02*
X10941774Y-13776616D01*
X11094155Y-13957568D02*
X11103678Y-13967092D01*
X11103678Y-13967092D02*
X11094155Y-13976616D01*
X11094155Y-13976616D02*
X11084631Y-13967092D01*
X11084631Y-13967092D02*
X11094155Y-13957568D01*
X11094155Y-13957568D02*
X11094155Y-13976616D01*
X11227488Y-13776616D02*
X11246536Y-13776616D01*
X11246536Y-13776616D02*
X11265583Y-13786140D01*
X11265583Y-13786140D02*
X11275107Y-13795664D01*
X11275107Y-13795664D02*
X11284631Y-13814711D01*
X11284631Y-13814711D02*
X11294155Y-13852806D01*
X11294155Y-13852806D02*
X11294155Y-13900426D01*
X11294155Y-13900426D02*
X11284631Y-13938521D01*
X11284631Y-13938521D02*
X11275107Y-13957568D01*
X11275107Y-13957568D02*
X11265583Y-13967092D01*
X11265583Y-13967092D02*
X11246536Y-13976616D01*
X11246536Y-13976616D02*
X11227488Y-13976616D01*
X11227488Y-13976616D02*
X11208440Y-13967092D01*
X11208440Y-13967092D02*
X11198916Y-13957568D01*
X11198916Y-13957568D02*
X11189393Y-13938521D01*
X11189393Y-13938521D02*
X11179869Y-13900426D01*
X11179869Y-13900426D02*
X11179869Y-13852806D01*
X11179869Y-13852806D02*
X11189393Y-13814711D01*
X11189393Y-13814711D02*
X11198916Y-13795664D01*
X11198916Y-13795664D02*
X11208440Y-13786140D01*
X11208440Y-13786140D02*
X11227488Y-13776616D01*
X11370345Y-13795664D02*
X11379869Y-13786140D01*
X11379869Y-13786140D02*
X11398916Y-13776616D01*
X11398916Y-13776616D02*
X11446536Y-13776616D01*
X11446536Y-13776616D02*
X11465583Y-13786140D01*
X11465583Y-13786140D02*
X11475107Y-13795664D01*
X11475107Y-13795664D02*
X11484631Y-13814711D01*
X11484631Y-13814711D02*
X11484631Y-13833759D01*
X11484631Y-13833759D02*
X11475107Y-13862330D01*
X11475107Y-13862330D02*
X11360821Y-13976616D01*
X11360821Y-13976616D02*
X11484631Y-13976616D01*
X11551297Y-13776616D02*
X11675107Y-13776616D01*
X11675107Y-13776616D02*
X11608440Y-13852806D01*
X11608440Y-13852806D02*
X11637012Y-13852806D01*
X11637012Y-13852806D02*
X11656059Y-13862330D01*
X11656059Y-13862330D02*
X11665583Y-13871854D01*
X11665583Y-13871854D02*
X11675107Y-13890902D01*
X11675107Y-13890902D02*
X11675107Y-13938521D01*
X11675107Y-13938521D02*
X11665583Y-13957568D01*
X11665583Y-13957568D02*
X11656059Y-13967092D01*
X11656059Y-13967092D02*
X11637012Y-13976616D01*
X11637012Y-13976616D02*
X11579869Y-13976616D01*
X11579869Y-13976616D02*
X11560821Y-13967092D01*
X11560821Y-13967092D02*
X11551297Y-13957568D01*
X11846536Y-13776616D02*
X11808440Y-13776616D01*
X11808440Y-13776616D02*
X11789393Y-13786140D01*
X11789393Y-13786140D02*
X11779869Y-13795664D01*
X11779869Y-13795664D02*
X11760821Y-13824235D01*
X11760821Y-13824235D02*
X11751297Y-13862330D01*
X11751297Y-13862330D02*
X11751297Y-13938521D01*
X11751297Y-13938521D02*
X11760821Y-13957568D01*
X11760821Y-13957568D02*
X11770345Y-13967092D01*
X11770345Y-13967092D02*
X11789393Y-13976616D01*
X11789393Y-13976616D02*
X11827488Y-13976616D01*
X11827488Y-13976616D02*
X11846536Y-13967092D01*
X11846536Y-13967092D02*
X11856059Y-13957568D01*
X11856059Y-13957568D02*
X11865583Y-13938521D01*
X11865583Y-13938521D02*
X11865583Y-13890902D01*
X11865583Y-13890902D02*
X11856059Y-13871854D01*
X11856059Y-13871854D02*
X11846536Y-13862330D01*
X11846536Y-13862330D02*
X11827488Y-13852806D01*
X11827488Y-13852806D02*
X11789393Y-13852806D01*
X11789393Y-13852806D02*
X11770345Y-13862330D01*
X11770345Y-13862330D02*
X11760821Y-13871854D01*
X11760821Y-13871854D02*
X11751297Y-13890902D01*
X11941774Y-13776616D02*
X11941774Y-13814711D01*
X12017964Y-13776616D02*
X12017964Y-13814711D01*
X12313202Y-14052806D02*
X12303678Y-14043283D01*
X12303678Y-14043283D02*
X12284631Y-14014711D01*
X12284631Y-14014711D02*
X12275107Y-13995664D01*
X12275107Y-13995664D02*
X12265583Y-13967092D01*
X12265583Y-13967092D02*
X12256059Y-13919473D01*
X12256059Y-13919473D02*
X12256059Y-13881378D01*
X12256059Y-13881378D02*
X12265583Y-13833759D01*
X12265583Y-13833759D02*
X12275107Y-13805187D01*
X12275107Y-13805187D02*
X12284631Y-13786140D01*
X12284631Y-13786140D02*
X12303678Y-13757568D01*
X12303678Y-13757568D02*
X12313202Y-13748045D01*
X12427488Y-13776616D02*
X12446536Y-13776616D01*
X12446536Y-13776616D02*
X12465583Y-13786140D01*
X12465583Y-13786140D02*
X12475107Y-13795664D01*
X12475107Y-13795664D02*
X12484631Y-13814711D01*
X12484631Y-13814711D02*
X12494155Y-13852806D01*
X12494155Y-13852806D02*
X12494155Y-13900426D01*
X12494155Y-13900426D02*
X12484631Y-13938521D01*
X12484631Y-13938521D02*
X12475107Y-13957568D01*
X12475107Y-13957568D02*
X12465583Y-13967092D01*
X12465583Y-13967092D02*
X12446536Y-13976616D01*
X12446536Y-13976616D02*
X12427488Y-13976616D01*
X12427488Y-13976616D02*
X12408440Y-13967092D01*
X12408440Y-13967092D02*
X12398917Y-13957568D01*
X12398917Y-13957568D02*
X12389393Y-13938521D01*
X12389393Y-13938521D02*
X12379869Y-13900426D01*
X12379869Y-13900426D02*
X12379869Y-13852806D01*
X12379869Y-13852806D02*
X12389393Y-13814711D01*
X12389393Y-13814711D02*
X12398917Y-13795664D01*
X12398917Y-13795664D02*
X12408440Y-13786140D01*
X12408440Y-13786140D02*
X12427488Y-13776616D01*
X12732250Y-13976616D02*
X12732250Y-13776616D01*
X12817964Y-13976616D02*
X12817964Y-13871854D01*
X12817964Y-13871854D02*
X12808440Y-13852806D01*
X12808440Y-13852806D02*
X12789393Y-13843283D01*
X12789393Y-13843283D02*
X12760821Y-13843283D01*
X12760821Y-13843283D02*
X12741774Y-13852806D01*
X12741774Y-13852806D02*
X12732250Y-13862330D01*
X12941774Y-13976616D02*
X12922726Y-13967092D01*
X12922726Y-13967092D02*
X12913202Y-13957568D01*
X12913202Y-13957568D02*
X12903679Y-13938521D01*
X12903679Y-13938521D02*
X12903679Y-13881378D01*
X12903679Y-13881378D02*
X12913202Y-13862330D01*
X12913202Y-13862330D02*
X12922726Y-13852806D01*
X12922726Y-13852806D02*
X12941774Y-13843283D01*
X12941774Y-13843283D02*
X12970345Y-13843283D01*
X12970345Y-13843283D02*
X12989393Y-13852806D01*
X12989393Y-13852806D02*
X12998917Y-13862330D01*
X12998917Y-13862330D02*
X13008440Y-13881378D01*
X13008440Y-13881378D02*
X13008440Y-13938521D01*
X13008440Y-13938521D02*
X12998917Y-13957568D01*
X12998917Y-13957568D02*
X12989393Y-13967092D01*
X12989393Y-13967092D02*
X12970345Y-13976616D01*
X12970345Y-13976616D02*
X12941774Y-13976616D01*
X13122726Y-13976616D02*
X13103679Y-13967092D01*
X13103679Y-13967092D02*
X13094155Y-13948045D01*
X13094155Y-13948045D02*
X13094155Y-13776616D01*
X13275107Y-13967092D02*
X13256060Y-13976616D01*
X13256060Y-13976616D02*
X13217964Y-13976616D01*
X13217964Y-13976616D02*
X13198917Y-13967092D01*
X13198917Y-13967092D02*
X13189393Y-13948045D01*
X13189393Y-13948045D02*
X13189393Y-13871854D01*
X13189393Y-13871854D02*
X13198917Y-13852806D01*
X13198917Y-13852806D02*
X13217964Y-13843283D01*
X13217964Y-13843283D02*
X13256060Y-13843283D01*
X13256060Y-13843283D02*
X13275107Y-13852806D01*
X13275107Y-13852806D02*
X13284631Y-13871854D01*
X13284631Y-13871854D02*
X13284631Y-13890902D01*
X13284631Y-13890902D02*
X13189393Y-13909949D01*
X13360821Y-13967092D02*
X13379869Y-13976616D01*
X13379869Y-13976616D02*
X13417964Y-13976616D01*
X13417964Y-13976616D02*
X13437012Y-13967092D01*
X13437012Y-13967092D02*
X13446536Y-13948045D01*
X13446536Y-13948045D02*
X13446536Y-13938521D01*
X13446536Y-13938521D02*
X13437012Y-13919473D01*
X13437012Y-13919473D02*
X13417964Y-13909949D01*
X13417964Y-13909949D02*
X13389393Y-13909949D01*
X13389393Y-13909949D02*
X13370345Y-13900426D01*
X13370345Y-13900426D02*
X13360821Y-13881378D01*
X13360821Y-13881378D02*
X13360821Y-13871854D01*
X13360821Y-13871854D02*
X13370345Y-13852806D01*
X13370345Y-13852806D02*
X13389393Y-13843283D01*
X13389393Y-13843283D02*
X13417964Y-13843283D01*
X13417964Y-13843283D02*
X13437012Y-13852806D01*
X13684631Y-13900426D02*
X13837012Y-13900426D01*
X13760822Y-13976616D02*
X13760822Y-13824235D01*
X14170345Y-13843283D02*
X14170345Y-13976616D01*
X14122726Y-13767092D02*
X14075107Y-13909949D01*
X14075107Y-13909949D02*
X14198917Y-13909949D01*
X14417964Y-13967092D02*
X14437012Y-13976616D01*
X14437012Y-13976616D02*
X14475107Y-13976616D01*
X14475107Y-13976616D02*
X14494155Y-13967092D01*
X14494155Y-13967092D02*
X14503679Y-13948045D01*
X14503679Y-13948045D02*
X14503679Y-13938521D01*
X14503679Y-13938521D02*
X14494155Y-13919473D01*
X14494155Y-13919473D02*
X14475107Y-13909949D01*
X14475107Y-13909949D02*
X14446536Y-13909949D01*
X14446536Y-13909949D02*
X14427488Y-13900426D01*
X14427488Y-13900426D02*
X14417964Y-13881378D01*
X14417964Y-13881378D02*
X14417964Y-13871854D01*
X14417964Y-13871854D02*
X14427488Y-13852806D01*
X14427488Y-13852806D02*
X14446536Y-13843283D01*
X14446536Y-13843283D02*
X14475107Y-13843283D01*
X14475107Y-13843283D02*
X14494155Y-13852806D01*
X14617964Y-13976616D02*
X14598917Y-13967092D01*
X14598917Y-13967092D02*
X14589393Y-13948045D01*
X14589393Y-13948045D02*
X14589393Y-13776616D01*
X14722726Y-13976616D02*
X14703679Y-13967092D01*
X14703679Y-13967092D02*
X14694155Y-13957568D01*
X14694155Y-13957568D02*
X14684631Y-13938521D01*
X14684631Y-13938521D02*
X14684631Y-13881378D01*
X14684631Y-13881378D02*
X14694155Y-13862330D01*
X14694155Y-13862330D02*
X14703679Y-13852806D01*
X14703679Y-13852806D02*
X14722726Y-13843283D01*
X14722726Y-13843283D02*
X14751298Y-13843283D01*
X14751298Y-13843283D02*
X14770345Y-13852806D01*
X14770345Y-13852806D02*
X14779869Y-13862330D01*
X14779869Y-13862330D02*
X14789393Y-13881378D01*
X14789393Y-13881378D02*
X14789393Y-13938521D01*
X14789393Y-13938521D02*
X14779869Y-13957568D01*
X14779869Y-13957568D02*
X14770345Y-13967092D01*
X14770345Y-13967092D02*
X14751298Y-13976616D01*
X14751298Y-13976616D02*
X14722726Y-13976616D01*
X14846536Y-13843283D02*
X14922726Y-13843283D01*
X14875107Y-13776616D02*
X14875107Y-13948045D01*
X14875107Y-13948045D02*
X14884631Y-13967092D01*
X14884631Y-13967092D02*
X14903679Y-13976616D01*
X14903679Y-13976616D02*
X14922726Y-13976616D01*
X14979869Y-13967092D02*
X14998917Y-13976616D01*
X14998917Y-13976616D02*
X15037012Y-13976616D01*
X15037012Y-13976616D02*
X15056060Y-13967092D01*
X15056060Y-13967092D02*
X15065584Y-13948045D01*
X15065584Y-13948045D02*
X15065584Y-13938521D01*
X15065584Y-13938521D02*
X15056060Y-13919473D01*
X15056060Y-13919473D02*
X15037012Y-13909949D01*
X15037012Y-13909949D02*
X15008441Y-13909949D01*
X15008441Y-13909949D02*
X14989393Y-13900426D01*
X14989393Y-13900426D02*
X14979869Y-13881378D01*
X14979869Y-13881378D02*
X14979869Y-13871854D01*
X14979869Y-13871854D02*
X14989393Y-13852806D01*
X14989393Y-13852806D02*
X15008441Y-13843283D01*
X15008441Y-13843283D02*
X15037012Y-13843283D01*
X15037012Y-13843283D02*
X15056060Y-13852806D01*
X15132250Y-14052806D02*
X15141774Y-14043283D01*
X15141774Y-14043283D02*
X15160822Y-14014711D01*
X15160822Y-14014711D02*
X15170345Y-13995664D01*
X15170345Y-13995664D02*
X15179869Y-13967092D01*
X15179869Y-13967092D02*
X15189393Y-13919473D01*
X15189393Y-13919473D02*
X15189393Y-13881378D01*
X15189393Y-13881378D02*
X15179869Y-13833759D01*
X15179869Y-13833759D02*
X15170345Y-13805187D01*
X15170345Y-13805187D02*
X15160822Y-13786140D01*
X15160822Y-13786140D02*
X15141774Y-13757568D01*
X15141774Y-13757568D02*
X15132250Y-13748045D01*
D12*
X8658140Y-14109132D02*
X8738140Y-14189132D01*
X8738140Y-14109132D02*
X8658140Y-14189132D01*
X8738140Y-14149132D02*
G75*
G02*
X8658140Y-14149132I-40000J0D01*
G01*
X8658140Y-14149132D02*
G75*
G02*
X8738140Y-14149132I40000J0D01*
G01*
D11*
X9037012Y-14040616D02*
X9056059Y-14040616D01*
X9056059Y-14040616D02*
X9075107Y-14050140D01*
X9075107Y-14050140D02*
X9084631Y-14059664D01*
X9084631Y-14059664D02*
X9094154Y-14078711D01*
X9094154Y-14078711D02*
X9103678Y-14116806D01*
X9103678Y-14116806D02*
X9103678Y-14164426D01*
X9103678Y-14164426D02*
X9094154Y-14202521D01*
X9094154Y-14202521D02*
X9084631Y-14221568D01*
X9084631Y-14221568D02*
X9075107Y-14231092D01*
X9075107Y-14231092D02*
X9056059Y-14240616D01*
X9056059Y-14240616D02*
X9037012Y-14240616D01*
X9037012Y-14240616D02*
X9017964Y-14231092D01*
X9017964Y-14231092D02*
X9008440Y-14221568D01*
X9008440Y-14221568D02*
X8998916Y-14202521D01*
X8998916Y-14202521D02*
X8989393Y-14164426D01*
X8989393Y-14164426D02*
X8989393Y-14116806D01*
X8989393Y-14116806D02*
X8998916Y-14078711D01*
X8998916Y-14078711D02*
X9008440Y-14059664D01*
X9008440Y-14059664D02*
X9017964Y-14050140D01*
X9017964Y-14050140D02*
X9037012Y-14040616D01*
X9189393Y-14221568D02*
X9198916Y-14231092D01*
X9198916Y-14231092D02*
X9189393Y-14240616D01*
X9189393Y-14240616D02*
X9179869Y-14231092D01*
X9179869Y-14231092D02*
X9189393Y-14221568D01*
X9189393Y-14221568D02*
X9189393Y-14240616D01*
X9313202Y-14126330D02*
X9294154Y-14116806D01*
X9294154Y-14116806D02*
X9284631Y-14107283D01*
X9284631Y-14107283D02*
X9275107Y-14088235D01*
X9275107Y-14088235D02*
X9275107Y-14078711D01*
X9275107Y-14078711D02*
X9284631Y-14059664D01*
X9284631Y-14059664D02*
X9294154Y-14050140D01*
X9294154Y-14050140D02*
X9313202Y-14040616D01*
X9313202Y-14040616D02*
X9351297Y-14040616D01*
X9351297Y-14040616D02*
X9370345Y-14050140D01*
X9370345Y-14050140D02*
X9379869Y-14059664D01*
X9379869Y-14059664D02*
X9389393Y-14078711D01*
X9389393Y-14078711D02*
X9389393Y-14088235D01*
X9389393Y-14088235D02*
X9379869Y-14107283D01*
X9379869Y-14107283D02*
X9370345Y-14116806D01*
X9370345Y-14116806D02*
X9351297Y-14126330D01*
X9351297Y-14126330D02*
X9313202Y-14126330D01*
X9313202Y-14126330D02*
X9294154Y-14135854D01*
X9294154Y-14135854D02*
X9284631Y-14145378D01*
X9284631Y-14145378D02*
X9275107Y-14164426D01*
X9275107Y-14164426D02*
X9275107Y-14202521D01*
X9275107Y-14202521D02*
X9284631Y-14221568D01*
X9284631Y-14221568D02*
X9294154Y-14231092D01*
X9294154Y-14231092D02*
X9313202Y-14240616D01*
X9313202Y-14240616D02*
X9351297Y-14240616D01*
X9351297Y-14240616D02*
X9370345Y-14231092D01*
X9370345Y-14231092D02*
X9379869Y-14221568D01*
X9379869Y-14221568D02*
X9389393Y-14202521D01*
X9389393Y-14202521D02*
X9389393Y-14164426D01*
X9389393Y-14164426D02*
X9379869Y-14145378D01*
X9379869Y-14145378D02*
X9370345Y-14135854D01*
X9370345Y-14135854D02*
X9351297Y-14126330D01*
X9513202Y-14040616D02*
X9532250Y-14040616D01*
X9532250Y-14040616D02*
X9551297Y-14050140D01*
X9551297Y-14050140D02*
X9560821Y-14059664D01*
X9560821Y-14059664D02*
X9570345Y-14078711D01*
X9570345Y-14078711D02*
X9579869Y-14116806D01*
X9579869Y-14116806D02*
X9579869Y-14164426D01*
X9579869Y-14164426D02*
X9570345Y-14202521D01*
X9570345Y-14202521D02*
X9560821Y-14221568D01*
X9560821Y-14221568D02*
X9551297Y-14231092D01*
X9551297Y-14231092D02*
X9532250Y-14240616D01*
X9532250Y-14240616D02*
X9513202Y-14240616D01*
X9513202Y-14240616D02*
X9494154Y-14231092D01*
X9494154Y-14231092D02*
X9484631Y-14221568D01*
X9484631Y-14221568D02*
X9475107Y-14202521D01*
X9475107Y-14202521D02*
X9465583Y-14164426D01*
X9465583Y-14164426D02*
X9465583Y-14116806D01*
X9465583Y-14116806D02*
X9475107Y-14078711D01*
X9475107Y-14078711D02*
X9484631Y-14059664D01*
X9484631Y-14059664D02*
X9494154Y-14050140D01*
X9494154Y-14050140D02*
X9513202Y-14040616D01*
X9703678Y-14040616D02*
X9722726Y-14040616D01*
X9722726Y-14040616D02*
X9741774Y-14050140D01*
X9741774Y-14050140D02*
X9751297Y-14059664D01*
X9751297Y-14059664D02*
X9760821Y-14078711D01*
X9760821Y-14078711D02*
X9770345Y-14116806D01*
X9770345Y-14116806D02*
X9770345Y-14164426D01*
X9770345Y-14164426D02*
X9760821Y-14202521D01*
X9760821Y-14202521D02*
X9751297Y-14221568D01*
X9751297Y-14221568D02*
X9741774Y-14231092D01*
X9741774Y-14231092D02*
X9722726Y-14240616D01*
X9722726Y-14240616D02*
X9703678Y-14240616D01*
X9703678Y-14240616D02*
X9684631Y-14231092D01*
X9684631Y-14231092D02*
X9675107Y-14221568D01*
X9675107Y-14221568D02*
X9665583Y-14202521D01*
X9665583Y-14202521D02*
X9656059Y-14164426D01*
X9656059Y-14164426D02*
X9656059Y-14116806D01*
X9656059Y-14116806D02*
X9665583Y-14078711D01*
X9665583Y-14078711D02*
X9675107Y-14059664D01*
X9675107Y-14059664D02*
X9684631Y-14050140D01*
X9684631Y-14050140D02*
X9703678Y-14040616D01*
X9856059Y-14240616D02*
X9856059Y-14107283D01*
X9856059Y-14126330D02*
X9865583Y-14116806D01*
X9865583Y-14116806D02*
X9884631Y-14107283D01*
X9884631Y-14107283D02*
X9913202Y-14107283D01*
X9913202Y-14107283D02*
X9932250Y-14116806D01*
X9932250Y-14116806D02*
X9941774Y-14135854D01*
X9941774Y-14135854D02*
X9941774Y-14240616D01*
X9941774Y-14135854D02*
X9951297Y-14116806D01*
X9951297Y-14116806D02*
X9970345Y-14107283D01*
X9970345Y-14107283D02*
X9998916Y-14107283D01*
X9998916Y-14107283D02*
X10017964Y-14116806D01*
X10017964Y-14116806D02*
X10027488Y-14135854D01*
X10027488Y-14135854D02*
X10027488Y-14240616D01*
X10122726Y-14240616D02*
X10122726Y-14107283D01*
X10122726Y-14126330D02*
X10132250Y-14116806D01*
X10132250Y-14116806D02*
X10151297Y-14107283D01*
X10151297Y-14107283D02*
X10179869Y-14107283D01*
X10179869Y-14107283D02*
X10198916Y-14116806D01*
X10198916Y-14116806D02*
X10208440Y-14135854D01*
X10208440Y-14135854D02*
X10208440Y-14240616D01*
X10208440Y-14135854D02*
X10217964Y-14116806D01*
X10217964Y-14116806D02*
X10237012Y-14107283D01*
X10237012Y-14107283D02*
X10265583Y-14107283D01*
X10265583Y-14107283D02*
X10284631Y-14116806D01*
X10284631Y-14116806D02*
X10294155Y-14135854D01*
X10294155Y-14135854D02*
X10294155Y-14240616D01*
X10684631Y-14031092D02*
X10513202Y-14288235D01*
X10941774Y-14040616D02*
X10960821Y-14040616D01*
X10960821Y-14040616D02*
X10979869Y-14050140D01*
X10979869Y-14050140D02*
X10989393Y-14059664D01*
X10989393Y-14059664D02*
X10998917Y-14078711D01*
X10998917Y-14078711D02*
X11008440Y-14116806D01*
X11008440Y-14116806D02*
X11008440Y-14164426D01*
X11008440Y-14164426D02*
X10998917Y-14202521D01*
X10998917Y-14202521D02*
X10989393Y-14221568D01*
X10989393Y-14221568D02*
X10979869Y-14231092D01*
X10979869Y-14231092D02*
X10960821Y-14240616D01*
X10960821Y-14240616D02*
X10941774Y-14240616D01*
X10941774Y-14240616D02*
X10922726Y-14231092D01*
X10922726Y-14231092D02*
X10913202Y-14221568D01*
X10913202Y-14221568D02*
X10903678Y-14202521D01*
X10903678Y-14202521D02*
X10894155Y-14164426D01*
X10894155Y-14164426D02*
X10894155Y-14116806D01*
X10894155Y-14116806D02*
X10903678Y-14078711D01*
X10903678Y-14078711D02*
X10913202Y-14059664D01*
X10913202Y-14059664D02*
X10922726Y-14050140D01*
X10922726Y-14050140D02*
X10941774Y-14040616D01*
X11094155Y-14221568D02*
X11103678Y-14231092D01*
X11103678Y-14231092D02*
X11094155Y-14240616D01*
X11094155Y-14240616D02*
X11084631Y-14231092D01*
X11084631Y-14231092D02*
X11094155Y-14221568D01*
X11094155Y-14221568D02*
X11094155Y-14240616D01*
X11227488Y-14040616D02*
X11246536Y-14040616D01*
X11246536Y-14040616D02*
X11265583Y-14050140D01*
X11265583Y-14050140D02*
X11275107Y-14059664D01*
X11275107Y-14059664D02*
X11284631Y-14078711D01*
X11284631Y-14078711D02*
X11294155Y-14116806D01*
X11294155Y-14116806D02*
X11294155Y-14164426D01*
X11294155Y-14164426D02*
X11284631Y-14202521D01*
X11284631Y-14202521D02*
X11275107Y-14221568D01*
X11275107Y-14221568D02*
X11265583Y-14231092D01*
X11265583Y-14231092D02*
X11246536Y-14240616D01*
X11246536Y-14240616D02*
X11227488Y-14240616D01*
X11227488Y-14240616D02*
X11208440Y-14231092D01*
X11208440Y-14231092D02*
X11198916Y-14221568D01*
X11198916Y-14221568D02*
X11189393Y-14202521D01*
X11189393Y-14202521D02*
X11179869Y-14164426D01*
X11179869Y-14164426D02*
X11179869Y-14116806D01*
X11179869Y-14116806D02*
X11189393Y-14078711D01*
X11189393Y-14078711D02*
X11198916Y-14059664D01*
X11198916Y-14059664D02*
X11208440Y-14050140D01*
X11208440Y-14050140D02*
X11227488Y-14040616D01*
X11360821Y-14040616D02*
X11484631Y-14040616D01*
X11484631Y-14040616D02*
X11417964Y-14116806D01*
X11417964Y-14116806D02*
X11446536Y-14116806D01*
X11446536Y-14116806D02*
X11465583Y-14126330D01*
X11465583Y-14126330D02*
X11475107Y-14135854D01*
X11475107Y-14135854D02*
X11484631Y-14154902D01*
X11484631Y-14154902D02*
X11484631Y-14202521D01*
X11484631Y-14202521D02*
X11475107Y-14221568D01*
X11475107Y-14221568D02*
X11465583Y-14231092D01*
X11465583Y-14231092D02*
X11446536Y-14240616D01*
X11446536Y-14240616D02*
X11389393Y-14240616D01*
X11389393Y-14240616D02*
X11370345Y-14231092D01*
X11370345Y-14231092D02*
X11360821Y-14221568D01*
X11675107Y-14240616D02*
X11560821Y-14240616D01*
X11617964Y-14240616D02*
X11617964Y-14040616D01*
X11617964Y-14040616D02*
X11598916Y-14069187D01*
X11598916Y-14069187D02*
X11579869Y-14088235D01*
X11579869Y-14088235D02*
X11560821Y-14097759D01*
X11856059Y-14040616D02*
X11760821Y-14040616D01*
X11760821Y-14040616D02*
X11751297Y-14135854D01*
X11751297Y-14135854D02*
X11760821Y-14126330D01*
X11760821Y-14126330D02*
X11779869Y-14116806D01*
X11779869Y-14116806D02*
X11827488Y-14116806D01*
X11827488Y-14116806D02*
X11846536Y-14126330D01*
X11846536Y-14126330D02*
X11856059Y-14135854D01*
X11856059Y-14135854D02*
X11865583Y-14154902D01*
X11865583Y-14154902D02*
X11865583Y-14202521D01*
X11865583Y-14202521D02*
X11856059Y-14221568D01*
X11856059Y-14221568D02*
X11846536Y-14231092D01*
X11846536Y-14231092D02*
X11827488Y-14240616D01*
X11827488Y-14240616D02*
X11779869Y-14240616D01*
X11779869Y-14240616D02*
X11760821Y-14231092D01*
X11760821Y-14231092D02*
X11751297Y-14221568D01*
X11941774Y-14040616D02*
X11941774Y-14078711D01*
X12017964Y-14040616D02*
X12017964Y-14078711D01*
X12313202Y-14316806D02*
X12303678Y-14307283D01*
X12303678Y-14307283D02*
X12284631Y-14278711D01*
X12284631Y-14278711D02*
X12275107Y-14259664D01*
X12275107Y-14259664D02*
X12265583Y-14231092D01*
X12265583Y-14231092D02*
X12256059Y-14183473D01*
X12256059Y-14183473D02*
X12256059Y-14145378D01*
X12256059Y-14145378D02*
X12265583Y-14097759D01*
X12265583Y-14097759D02*
X12275107Y-14069187D01*
X12275107Y-14069187D02*
X12284631Y-14050140D01*
X12284631Y-14050140D02*
X12303678Y-14021568D01*
X12303678Y-14021568D02*
X12313202Y-14012045D01*
X12379869Y-14059664D02*
X12389393Y-14050140D01*
X12389393Y-14050140D02*
X12408440Y-14040616D01*
X12408440Y-14040616D02*
X12456059Y-14040616D01*
X12456059Y-14040616D02*
X12475107Y-14050140D01*
X12475107Y-14050140D02*
X12484631Y-14059664D01*
X12484631Y-14059664D02*
X12494155Y-14078711D01*
X12494155Y-14078711D02*
X12494155Y-14097759D01*
X12494155Y-14097759D02*
X12484631Y-14126330D01*
X12484631Y-14126330D02*
X12370345Y-14240616D01*
X12370345Y-14240616D02*
X12494155Y-14240616D01*
X12732250Y-14240616D02*
X12732250Y-14040616D01*
X12817964Y-14240616D02*
X12817964Y-14135854D01*
X12817964Y-14135854D02*
X12808440Y-14116806D01*
X12808440Y-14116806D02*
X12789393Y-14107283D01*
X12789393Y-14107283D02*
X12760821Y-14107283D01*
X12760821Y-14107283D02*
X12741774Y-14116806D01*
X12741774Y-14116806D02*
X12732250Y-14126330D01*
X12941774Y-14240616D02*
X12922726Y-14231092D01*
X12922726Y-14231092D02*
X12913202Y-14221568D01*
X12913202Y-14221568D02*
X12903679Y-14202521D01*
X12903679Y-14202521D02*
X12903679Y-14145378D01*
X12903679Y-14145378D02*
X12913202Y-14126330D01*
X12913202Y-14126330D02*
X12922726Y-14116806D01*
X12922726Y-14116806D02*
X12941774Y-14107283D01*
X12941774Y-14107283D02*
X12970345Y-14107283D01*
X12970345Y-14107283D02*
X12989393Y-14116806D01*
X12989393Y-14116806D02*
X12998917Y-14126330D01*
X12998917Y-14126330D02*
X13008440Y-14145378D01*
X13008440Y-14145378D02*
X13008440Y-14202521D01*
X13008440Y-14202521D02*
X12998917Y-14221568D01*
X12998917Y-14221568D02*
X12989393Y-14231092D01*
X12989393Y-14231092D02*
X12970345Y-14240616D01*
X12970345Y-14240616D02*
X12941774Y-14240616D01*
X13122726Y-14240616D02*
X13103679Y-14231092D01*
X13103679Y-14231092D02*
X13094155Y-14212045D01*
X13094155Y-14212045D02*
X13094155Y-14040616D01*
X13275107Y-14231092D02*
X13256060Y-14240616D01*
X13256060Y-14240616D02*
X13217964Y-14240616D01*
X13217964Y-14240616D02*
X13198917Y-14231092D01*
X13198917Y-14231092D02*
X13189393Y-14212045D01*
X13189393Y-14212045D02*
X13189393Y-14135854D01*
X13189393Y-14135854D02*
X13198917Y-14116806D01*
X13198917Y-14116806D02*
X13217964Y-14107283D01*
X13217964Y-14107283D02*
X13256060Y-14107283D01*
X13256060Y-14107283D02*
X13275107Y-14116806D01*
X13275107Y-14116806D02*
X13284631Y-14135854D01*
X13284631Y-14135854D02*
X13284631Y-14154902D01*
X13284631Y-14154902D02*
X13189393Y-14173949D01*
X13360821Y-14231092D02*
X13379869Y-14240616D01*
X13379869Y-14240616D02*
X13417964Y-14240616D01*
X13417964Y-14240616D02*
X13437012Y-14231092D01*
X13437012Y-14231092D02*
X13446536Y-14212045D01*
X13446536Y-14212045D02*
X13446536Y-14202521D01*
X13446536Y-14202521D02*
X13437012Y-14183473D01*
X13437012Y-14183473D02*
X13417964Y-14173949D01*
X13417964Y-14173949D02*
X13389393Y-14173949D01*
X13389393Y-14173949D02*
X13370345Y-14164426D01*
X13370345Y-14164426D02*
X13360821Y-14145378D01*
X13360821Y-14145378D02*
X13360821Y-14135854D01*
X13360821Y-14135854D02*
X13370345Y-14116806D01*
X13370345Y-14116806D02*
X13389393Y-14107283D01*
X13389393Y-14107283D02*
X13417964Y-14107283D01*
X13417964Y-14107283D02*
X13437012Y-14116806D01*
X13513202Y-14316806D02*
X13522726Y-14307283D01*
X13522726Y-14307283D02*
X13541774Y-14278711D01*
X13541774Y-14278711D02*
X13551298Y-14259664D01*
X13551298Y-14259664D02*
X13560821Y-14231092D01*
X13560821Y-14231092D02*
X13570345Y-14183473D01*
X13570345Y-14183473D02*
X13570345Y-14145378D01*
X13570345Y-14145378D02*
X13560821Y-14097759D01*
X13560821Y-14097759D02*
X13551298Y-14069187D01*
X13551298Y-14069187D02*
X13541774Y-14050140D01*
X13541774Y-14050140D02*
X13522726Y-14021568D01*
X13522726Y-14021568D02*
X13513202Y-14012045D01*
D12*
X8638140Y-14363132D02*
X8738140Y-14463132D01*
X8738140Y-14363132D02*
X8638140Y-14463132D01*
X8688140Y-14363132D02*
X8688140Y-14463132D01*
X8638140Y-14413132D02*
X8738140Y-14413132D01*
D11*
X9103678Y-14504616D02*
X8989393Y-14504616D01*
X9046535Y-14504616D02*
X9046535Y-14304616D01*
X9046535Y-14304616D02*
X9027488Y-14333187D01*
X9027488Y-14333187D02*
X9008440Y-14352235D01*
X9008440Y-14352235D02*
X8989393Y-14361759D01*
X9189393Y-14485568D02*
X9198916Y-14495092D01*
X9198916Y-14495092D02*
X9189393Y-14504616D01*
X9189393Y-14504616D02*
X9179869Y-14495092D01*
X9179869Y-14495092D02*
X9189393Y-14485568D01*
X9189393Y-14485568D02*
X9189393Y-14504616D01*
X9322726Y-14304616D02*
X9341774Y-14304616D01*
X9341774Y-14304616D02*
X9360821Y-14314140D01*
X9360821Y-14314140D02*
X9370345Y-14323664D01*
X9370345Y-14323664D02*
X9379869Y-14342711D01*
X9379869Y-14342711D02*
X9389393Y-14380806D01*
X9389393Y-14380806D02*
X9389393Y-14428426D01*
X9389393Y-14428426D02*
X9379869Y-14466521D01*
X9379869Y-14466521D02*
X9370345Y-14485568D01*
X9370345Y-14485568D02*
X9360821Y-14495092D01*
X9360821Y-14495092D02*
X9341774Y-14504616D01*
X9341774Y-14504616D02*
X9322726Y-14504616D01*
X9322726Y-14504616D02*
X9303678Y-14495092D01*
X9303678Y-14495092D02*
X9294154Y-14485568D01*
X9294154Y-14485568D02*
X9284631Y-14466521D01*
X9284631Y-14466521D02*
X9275107Y-14428426D01*
X9275107Y-14428426D02*
X9275107Y-14380806D01*
X9275107Y-14380806D02*
X9284631Y-14342711D01*
X9284631Y-14342711D02*
X9294154Y-14323664D01*
X9294154Y-14323664D02*
X9303678Y-14314140D01*
X9303678Y-14314140D02*
X9322726Y-14304616D01*
X9513202Y-14304616D02*
X9532250Y-14304616D01*
X9532250Y-14304616D02*
X9551297Y-14314140D01*
X9551297Y-14314140D02*
X9560821Y-14323664D01*
X9560821Y-14323664D02*
X9570345Y-14342711D01*
X9570345Y-14342711D02*
X9579869Y-14380806D01*
X9579869Y-14380806D02*
X9579869Y-14428426D01*
X9579869Y-14428426D02*
X9570345Y-14466521D01*
X9570345Y-14466521D02*
X9560821Y-14485568D01*
X9560821Y-14485568D02*
X9551297Y-14495092D01*
X9551297Y-14495092D02*
X9532250Y-14504616D01*
X9532250Y-14504616D02*
X9513202Y-14504616D01*
X9513202Y-14504616D02*
X9494154Y-14495092D01*
X9494154Y-14495092D02*
X9484631Y-14485568D01*
X9484631Y-14485568D02*
X9475107Y-14466521D01*
X9475107Y-14466521D02*
X9465583Y-14428426D01*
X9465583Y-14428426D02*
X9465583Y-14380806D01*
X9465583Y-14380806D02*
X9475107Y-14342711D01*
X9475107Y-14342711D02*
X9484631Y-14323664D01*
X9484631Y-14323664D02*
X9494154Y-14314140D01*
X9494154Y-14314140D02*
X9513202Y-14304616D01*
X9703678Y-14304616D02*
X9722726Y-14304616D01*
X9722726Y-14304616D02*
X9741774Y-14314140D01*
X9741774Y-14314140D02*
X9751297Y-14323664D01*
X9751297Y-14323664D02*
X9760821Y-14342711D01*
X9760821Y-14342711D02*
X9770345Y-14380806D01*
X9770345Y-14380806D02*
X9770345Y-14428426D01*
X9770345Y-14428426D02*
X9760821Y-14466521D01*
X9760821Y-14466521D02*
X9751297Y-14485568D01*
X9751297Y-14485568D02*
X9741774Y-14495092D01*
X9741774Y-14495092D02*
X9722726Y-14504616D01*
X9722726Y-14504616D02*
X9703678Y-14504616D01*
X9703678Y-14504616D02*
X9684631Y-14495092D01*
X9684631Y-14495092D02*
X9675107Y-14485568D01*
X9675107Y-14485568D02*
X9665583Y-14466521D01*
X9665583Y-14466521D02*
X9656059Y-14428426D01*
X9656059Y-14428426D02*
X9656059Y-14380806D01*
X9656059Y-14380806D02*
X9665583Y-14342711D01*
X9665583Y-14342711D02*
X9675107Y-14323664D01*
X9675107Y-14323664D02*
X9684631Y-14314140D01*
X9684631Y-14314140D02*
X9703678Y-14304616D01*
X9856059Y-14504616D02*
X9856059Y-14371283D01*
X9856059Y-14390330D02*
X9865583Y-14380806D01*
X9865583Y-14380806D02*
X9884631Y-14371283D01*
X9884631Y-14371283D02*
X9913202Y-14371283D01*
X9913202Y-14371283D02*
X9932250Y-14380806D01*
X9932250Y-14380806D02*
X9941774Y-14399854D01*
X9941774Y-14399854D02*
X9941774Y-14504616D01*
X9941774Y-14399854D02*
X9951297Y-14380806D01*
X9951297Y-14380806D02*
X9970345Y-14371283D01*
X9970345Y-14371283D02*
X9998916Y-14371283D01*
X9998916Y-14371283D02*
X10017964Y-14380806D01*
X10017964Y-14380806D02*
X10027488Y-14399854D01*
X10027488Y-14399854D02*
X10027488Y-14504616D01*
X10122726Y-14504616D02*
X10122726Y-14371283D01*
X10122726Y-14390330D02*
X10132250Y-14380806D01*
X10132250Y-14380806D02*
X10151297Y-14371283D01*
X10151297Y-14371283D02*
X10179869Y-14371283D01*
X10179869Y-14371283D02*
X10198916Y-14380806D01*
X10198916Y-14380806D02*
X10208440Y-14399854D01*
X10208440Y-14399854D02*
X10208440Y-14504616D01*
X10208440Y-14399854D02*
X10217964Y-14380806D01*
X10217964Y-14380806D02*
X10237012Y-14371283D01*
X10237012Y-14371283D02*
X10265583Y-14371283D01*
X10265583Y-14371283D02*
X10284631Y-14380806D01*
X10284631Y-14380806D02*
X10294155Y-14399854D01*
X10294155Y-14399854D02*
X10294155Y-14504616D01*
X10684631Y-14295092D02*
X10513202Y-14552235D01*
X10941774Y-14304616D02*
X10960821Y-14304616D01*
X10960821Y-14304616D02*
X10979869Y-14314140D01*
X10979869Y-14314140D02*
X10989393Y-14323664D01*
X10989393Y-14323664D02*
X10998917Y-14342711D01*
X10998917Y-14342711D02*
X11008440Y-14380806D01*
X11008440Y-14380806D02*
X11008440Y-14428426D01*
X11008440Y-14428426D02*
X10998917Y-14466521D01*
X10998917Y-14466521D02*
X10989393Y-14485568D01*
X10989393Y-14485568D02*
X10979869Y-14495092D01*
X10979869Y-14495092D02*
X10960821Y-14504616D01*
X10960821Y-14504616D02*
X10941774Y-14504616D01*
X10941774Y-14504616D02*
X10922726Y-14495092D01*
X10922726Y-14495092D02*
X10913202Y-14485568D01*
X10913202Y-14485568D02*
X10903678Y-14466521D01*
X10903678Y-14466521D02*
X10894155Y-14428426D01*
X10894155Y-14428426D02*
X10894155Y-14380806D01*
X10894155Y-14380806D02*
X10903678Y-14342711D01*
X10903678Y-14342711D02*
X10913202Y-14323664D01*
X10913202Y-14323664D02*
X10922726Y-14314140D01*
X10922726Y-14314140D02*
X10941774Y-14304616D01*
X11094155Y-14485568D02*
X11103678Y-14495092D01*
X11103678Y-14495092D02*
X11094155Y-14504616D01*
X11094155Y-14504616D02*
X11084631Y-14495092D01*
X11084631Y-14495092D02*
X11094155Y-14485568D01*
X11094155Y-14485568D02*
X11094155Y-14504616D01*
X11227488Y-14304616D02*
X11246536Y-14304616D01*
X11246536Y-14304616D02*
X11265583Y-14314140D01*
X11265583Y-14314140D02*
X11275107Y-14323664D01*
X11275107Y-14323664D02*
X11284631Y-14342711D01*
X11284631Y-14342711D02*
X11294155Y-14380806D01*
X11294155Y-14380806D02*
X11294155Y-14428426D01*
X11294155Y-14428426D02*
X11284631Y-14466521D01*
X11284631Y-14466521D02*
X11275107Y-14485568D01*
X11275107Y-14485568D02*
X11265583Y-14495092D01*
X11265583Y-14495092D02*
X11246536Y-14504616D01*
X11246536Y-14504616D02*
X11227488Y-14504616D01*
X11227488Y-14504616D02*
X11208440Y-14495092D01*
X11208440Y-14495092D02*
X11198916Y-14485568D01*
X11198916Y-14485568D02*
X11189393Y-14466521D01*
X11189393Y-14466521D02*
X11179869Y-14428426D01*
X11179869Y-14428426D02*
X11179869Y-14380806D01*
X11179869Y-14380806D02*
X11189393Y-14342711D01*
X11189393Y-14342711D02*
X11198916Y-14323664D01*
X11198916Y-14323664D02*
X11208440Y-14314140D01*
X11208440Y-14314140D02*
X11227488Y-14304616D01*
X11360821Y-14304616D02*
X11484631Y-14304616D01*
X11484631Y-14304616D02*
X11417964Y-14380806D01*
X11417964Y-14380806D02*
X11446536Y-14380806D01*
X11446536Y-14380806D02*
X11465583Y-14390330D01*
X11465583Y-14390330D02*
X11475107Y-14399854D01*
X11475107Y-14399854D02*
X11484631Y-14418902D01*
X11484631Y-14418902D02*
X11484631Y-14466521D01*
X11484631Y-14466521D02*
X11475107Y-14485568D01*
X11475107Y-14485568D02*
X11465583Y-14495092D01*
X11465583Y-14495092D02*
X11446536Y-14504616D01*
X11446536Y-14504616D02*
X11389393Y-14504616D01*
X11389393Y-14504616D02*
X11370345Y-14495092D01*
X11370345Y-14495092D02*
X11360821Y-14485568D01*
X11579869Y-14504616D02*
X11617964Y-14504616D01*
X11617964Y-14504616D02*
X11637012Y-14495092D01*
X11637012Y-14495092D02*
X11646536Y-14485568D01*
X11646536Y-14485568D02*
X11665583Y-14456997D01*
X11665583Y-14456997D02*
X11675107Y-14418902D01*
X11675107Y-14418902D02*
X11675107Y-14342711D01*
X11675107Y-14342711D02*
X11665583Y-14323664D01*
X11665583Y-14323664D02*
X11656059Y-14314140D01*
X11656059Y-14314140D02*
X11637012Y-14304616D01*
X11637012Y-14304616D02*
X11598916Y-14304616D01*
X11598916Y-14304616D02*
X11579869Y-14314140D01*
X11579869Y-14314140D02*
X11570345Y-14323664D01*
X11570345Y-14323664D02*
X11560821Y-14342711D01*
X11560821Y-14342711D02*
X11560821Y-14390330D01*
X11560821Y-14390330D02*
X11570345Y-14409378D01*
X11570345Y-14409378D02*
X11579869Y-14418902D01*
X11579869Y-14418902D02*
X11598916Y-14428426D01*
X11598916Y-14428426D02*
X11637012Y-14428426D01*
X11637012Y-14428426D02*
X11656059Y-14418902D01*
X11656059Y-14418902D02*
X11665583Y-14409378D01*
X11665583Y-14409378D02*
X11675107Y-14390330D01*
X11846536Y-14371283D02*
X11846536Y-14504616D01*
X11798916Y-14295092D02*
X11751297Y-14437949D01*
X11751297Y-14437949D02*
X11875107Y-14437949D01*
X11941774Y-14304616D02*
X11941774Y-14342711D01*
X12017964Y-14304616D02*
X12017964Y-14342711D01*
X12313202Y-14580806D02*
X12303678Y-14571283D01*
X12303678Y-14571283D02*
X12284631Y-14542711D01*
X12284631Y-14542711D02*
X12275107Y-14523664D01*
X12275107Y-14523664D02*
X12265583Y-14495092D01*
X12265583Y-14495092D02*
X12256059Y-14447473D01*
X12256059Y-14447473D02*
X12256059Y-14409378D01*
X12256059Y-14409378D02*
X12265583Y-14361759D01*
X12265583Y-14361759D02*
X12275107Y-14333187D01*
X12275107Y-14333187D02*
X12284631Y-14314140D01*
X12284631Y-14314140D02*
X12303678Y-14285568D01*
X12303678Y-14285568D02*
X12313202Y-14276045D01*
X12370345Y-14304616D02*
X12503678Y-14304616D01*
X12503678Y-14304616D02*
X12417964Y-14504616D01*
X12732250Y-14504616D02*
X12732250Y-14304616D01*
X12817964Y-14504616D02*
X12817964Y-14399854D01*
X12817964Y-14399854D02*
X12808440Y-14380806D01*
X12808440Y-14380806D02*
X12789393Y-14371283D01*
X12789393Y-14371283D02*
X12760821Y-14371283D01*
X12760821Y-14371283D02*
X12741774Y-14380806D01*
X12741774Y-14380806D02*
X12732250Y-14390330D01*
X12941774Y-14504616D02*
X12922726Y-14495092D01*
X12922726Y-14495092D02*
X12913202Y-14485568D01*
X12913202Y-14485568D02*
X12903679Y-14466521D01*
X12903679Y-14466521D02*
X12903679Y-14409378D01*
X12903679Y-14409378D02*
X12913202Y-14390330D01*
X12913202Y-14390330D02*
X12922726Y-14380806D01*
X12922726Y-14380806D02*
X12941774Y-14371283D01*
X12941774Y-14371283D02*
X12970345Y-14371283D01*
X12970345Y-14371283D02*
X12989393Y-14380806D01*
X12989393Y-14380806D02*
X12998917Y-14390330D01*
X12998917Y-14390330D02*
X13008440Y-14409378D01*
X13008440Y-14409378D02*
X13008440Y-14466521D01*
X13008440Y-14466521D02*
X12998917Y-14485568D01*
X12998917Y-14485568D02*
X12989393Y-14495092D01*
X12989393Y-14495092D02*
X12970345Y-14504616D01*
X12970345Y-14504616D02*
X12941774Y-14504616D01*
X13122726Y-14504616D02*
X13103679Y-14495092D01*
X13103679Y-14495092D02*
X13094155Y-14476045D01*
X13094155Y-14476045D02*
X13094155Y-14304616D01*
X13275107Y-14495092D02*
X13256060Y-14504616D01*
X13256060Y-14504616D02*
X13217964Y-14504616D01*
X13217964Y-14504616D02*
X13198917Y-14495092D01*
X13198917Y-14495092D02*
X13189393Y-14476045D01*
X13189393Y-14476045D02*
X13189393Y-14399854D01*
X13189393Y-14399854D02*
X13198917Y-14380806D01*
X13198917Y-14380806D02*
X13217964Y-14371283D01*
X13217964Y-14371283D02*
X13256060Y-14371283D01*
X13256060Y-14371283D02*
X13275107Y-14380806D01*
X13275107Y-14380806D02*
X13284631Y-14399854D01*
X13284631Y-14399854D02*
X13284631Y-14418902D01*
X13284631Y-14418902D02*
X13189393Y-14437949D01*
X13360821Y-14495092D02*
X13379869Y-14504616D01*
X13379869Y-14504616D02*
X13417964Y-14504616D01*
X13417964Y-14504616D02*
X13437012Y-14495092D01*
X13437012Y-14495092D02*
X13446536Y-14476045D01*
X13446536Y-14476045D02*
X13446536Y-14466521D01*
X13446536Y-14466521D02*
X13437012Y-14447473D01*
X13437012Y-14447473D02*
X13417964Y-14437949D01*
X13417964Y-14437949D02*
X13389393Y-14437949D01*
X13389393Y-14437949D02*
X13370345Y-14428426D01*
X13370345Y-14428426D02*
X13360821Y-14409378D01*
X13360821Y-14409378D02*
X13360821Y-14399854D01*
X13360821Y-14399854D02*
X13370345Y-14380806D01*
X13370345Y-14380806D02*
X13389393Y-14371283D01*
X13389393Y-14371283D02*
X13417964Y-14371283D01*
X13417964Y-14371283D02*
X13437012Y-14380806D01*
X13513202Y-14580806D02*
X13522726Y-14571283D01*
X13522726Y-14571283D02*
X13541774Y-14542711D01*
X13541774Y-14542711D02*
X13551298Y-14523664D01*
X13551298Y-14523664D02*
X13560821Y-14495092D01*
X13560821Y-14495092D02*
X13570345Y-14447473D01*
X13570345Y-14447473D02*
X13570345Y-14409378D01*
X13570345Y-14409378D02*
X13560821Y-14361759D01*
X13560821Y-14361759D02*
X13551298Y-14333187D01*
X13551298Y-14333187D02*
X13541774Y-14314140D01*
X13541774Y-14314140D02*
X13522726Y-14285568D01*
X13522726Y-14285568D02*
X13513202Y-14276045D01*
D13*
X8618140Y-14617132D02*
X8738140Y-14737132D01*
X8738140Y-14617132D02*
X8618140Y-14737132D01*
X8720566Y-14719559D02*
X8720566Y-14634705D01*
X8635713Y-14634705D01*
X8635713Y-14719559D01*
X8720566Y-14719559D01*
D11*
X9103678Y-14768616D02*
X8989393Y-14768616D01*
X9046535Y-14768616D02*
X9046535Y-14568616D01*
X9046535Y-14568616D02*
X9027488Y-14597187D01*
X9027488Y-14597187D02*
X9008440Y-14616235D01*
X9008440Y-14616235D02*
X8989393Y-14625759D01*
X9189393Y-14749568D02*
X9198916Y-14759092D01*
X9198916Y-14759092D02*
X9189393Y-14768616D01*
X9189393Y-14768616D02*
X9179869Y-14759092D01*
X9179869Y-14759092D02*
X9189393Y-14749568D01*
X9189393Y-14749568D02*
X9189393Y-14768616D01*
X9275107Y-14587664D02*
X9284631Y-14578140D01*
X9284631Y-14578140D02*
X9303678Y-14568616D01*
X9303678Y-14568616D02*
X9351297Y-14568616D01*
X9351297Y-14568616D02*
X9370345Y-14578140D01*
X9370345Y-14578140D02*
X9379869Y-14587664D01*
X9379869Y-14587664D02*
X9389393Y-14606711D01*
X9389393Y-14606711D02*
X9389393Y-14625759D01*
X9389393Y-14625759D02*
X9379869Y-14654330D01*
X9379869Y-14654330D02*
X9265583Y-14768616D01*
X9265583Y-14768616D02*
X9389393Y-14768616D01*
X9513202Y-14568616D02*
X9532250Y-14568616D01*
X9532250Y-14568616D02*
X9551297Y-14578140D01*
X9551297Y-14578140D02*
X9560821Y-14587664D01*
X9560821Y-14587664D02*
X9570345Y-14606711D01*
X9570345Y-14606711D02*
X9579869Y-14644806D01*
X9579869Y-14644806D02*
X9579869Y-14692426D01*
X9579869Y-14692426D02*
X9570345Y-14730521D01*
X9570345Y-14730521D02*
X9560821Y-14749568D01*
X9560821Y-14749568D02*
X9551297Y-14759092D01*
X9551297Y-14759092D02*
X9532250Y-14768616D01*
X9532250Y-14768616D02*
X9513202Y-14768616D01*
X9513202Y-14768616D02*
X9494154Y-14759092D01*
X9494154Y-14759092D02*
X9484631Y-14749568D01*
X9484631Y-14749568D02*
X9475107Y-14730521D01*
X9475107Y-14730521D02*
X9465583Y-14692426D01*
X9465583Y-14692426D02*
X9465583Y-14644806D01*
X9465583Y-14644806D02*
X9475107Y-14606711D01*
X9475107Y-14606711D02*
X9484631Y-14587664D01*
X9484631Y-14587664D02*
X9494154Y-14578140D01*
X9494154Y-14578140D02*
X9513202Y-14568616D01*
X9703678Y-14568616D02*
X9722726Y-14568616D01*
X9722726Y-14568616D02*
X9741774Y-14578140D01*
X9741774Y-14578140D02*
X9751297Y-14587664D01*
X9751297Y-14587664D02*
X9760821Y-14606711D01*
X9760821Y-14606711D02*
X9770345Y-14644806D01*
X9770345Y-14644806D02*
X9770345Y-14692426D01*
X9770345Y-14692426D02*
X9760821Y-14730521D01*
X9760821Y-14730521D02*
X9751297Y-14749568D01*
X9751297Y-14749568D02*
X9741774Y-14759092D01*
X9741774Y-14759092D02*
X9722726Y-14768616D01*
X9722726Y-14768616D02*
X9703678Y-14768616D01*
X9703678Y-14768616D02*
X9684631Y-14759092D01*
X9684631Y-14759092D02*
X9675107Y-14749568D01*
X9675107Y-14749568D02*
X9665583Y-14730521D01*
X9665583Y-14730521D02*
X9656059Y-14692426D01*
X9656059Y-14692426D02*
X9656059Y-14644806D01*
X9656059Y-14644806D02*
X9665583Y-14606711D01*
X9665583Y-14606711D02*
X9675107Y-14587664D01*
X9675107Y-14587664D02*
X9684631Y-14578140D01*
X9684631Y-14578140D02*
X9703678Y-14568616D01*
X9856059Y-14768616D02*
X9856059Y-14635283D01*
X9856059Y-14654330D02*
X9865583Y-14644806D01*
X9865583Y-14644806D02*
X9884631Y-14635283D01*
X9884631Y-14635283D02*
X9913202Y-14635283D01*
X9913202Y-14635283D02*
X9932250Y-14644806D01*
X9932250Y-14644806D02*
X9941774Y-14663854D01*
X9941774Y-14663854D02*
X9941774Y-14768616D01*
X9941774Y-14663854D02*
X9951297Y-14644806D01*
X9951297Y-14644806D02*
X9970345Y-14635283D01*
X9970345Y-14635283D02*
X9998916Y-14635283D01*
X9998916Y-14635283D02*
X10017964Y-14644806D01*
X10017964Y-14644806D02*
X10027488Y-14663854D01*
X10027488Y-14663854D02*
X10027488Y-14768616D01*
X10122726Y-14768616D02*
X10122726Y-14635283D01*
X10122726Y-14654330D02*
X10132250Y-14644806D01*
X10132250Y-14644806D02*
X10151297Y-14635283D01*
X10151297Y-14635283D02*
X10179869Y-14635283D01*
X10179869Y-14635283D02*
X10198916Y-14644806D01*
X10198916Y-14644806D02*
X10208440Y-14663854D01*
X10208440Y-14663854D02*
X10208440Y-14768616D01*
X10208440Y-14663854D02*
X10217964Y-14644806D01*
X10217964Y-14644806D02*
X10237012Y-14635283D01*
X10237012Y-14635283D02*
X10265583Y-14635283D01*
X10265583Y-14635283D02*
X10284631Y-14644806D01*
X10284631Y-14644806D02*
X10294155Y-14663854D01*
X10294155Y-14663854D02*
X10294155Y-14768616D01*
X10684631Y-14559092D02*
X10513202Y-14816235D01*
X10941774Y-14568616D02*
X10960821Y-14568616D01*
X10960821Y-14568616D02*
X10979869Y-14578140D01*
X10979869Y-14578140D02*
X10989393Y-14587664D01*
X10989393Y-14587664D02*
X10998917Y-14606711D01*
X10998917Y-14606711D02*
X11008440Y-14644806D01*
X11008440Y-14644806D02*
X11008440Y-14692426D01*
X11008440Y-14692426D02*
X10998917Y-14730521D01*
X10998917Y-14730521D02*
X10989393Y-14749568D01*
X10989393Y-14749568D02*
X10979869Y-14759092D01*
X10979869Y-14759092D02*
X10960821Y-14768616D01*
X10960821Y-14768616D02*
X10941774Y-14768616D01*
X10941774Y-14768616D02*
X10922726Y-14759092D01*
X10922726Y-14759092D02*
X10913202Y-14749568D01*
X10913202Y-14749568D02*
X10903678Y-14730521D01*
X10903678Y-14730521D02*
X10894155Y-14692426D01*
X10894155Y-14692426D02*
X10894155Y-14644806D01*
X10894155Y-14644806D02*
X10903678Y-14606711D01*
X10903678Y-14606711D02*
X10913202Y-14587664D01*
X10913202Y-14587664D02*
X10922726Y-14578140D01*
X10922726Y-14578140D02*
X10941774Y-14568616D01*
X11094155Y-14749568D02*
X11103678Y-14759092D01*
X11103678Y-14759092D02*
X11094155Y-14768616D01*
X11094155Y-14768616D02*
X11084631Y-14759092D01*
X11084631Y-14759092D02*
X11094155Y-14749568D01*
X11094155Y-14749568D02*
X11094155Y-14768616D01*
X11227488Y-14568616D02*
X11246536Y-14568616D01*
X11246536Y-14568616D02*
X11265583Y-14578140D01*
X11265583Y-14578140D02*
X11275107Y-14587664D01*
X11275107Y-14587664D02*
X11284631Y-14606711D01*
X11284631Y-14606711D02*
X11294155Y-14644806D01*
X11294155Y-14644806D02*
X11294155Y-14692426D01*
X11294155Y-14692426D02*
X11284631Y-14730521D01*
X11284631Y-14730521D02*
X11275107Y-14749568D01*
X11275107Y-14749568D02*
X11265583Y-14759092D01*
X11265583Y-14759092D02*
X11246536Y-14768616D01*
X11246536Y-14768616D02*
X11227488Y-14768616D01*
X11227488Y-14768616D02*
X11208440Y-14759092D01*
X11208440Y-14759092D02*
X11198916Y-14749568D01*
X11198916Y-14749568D02*
X11189393Y-14730521D01*
X11189393Y-14730521D02*
X11179869Y-14692426D01*
X11179869Y-14692426D02*
X11179869Y-14644806D01*
X11179869Y-14644806D02*
X11189393Y-14606711D01*
X11189393Y-14606711D02*
X11198916Y-14587664D01*
X11198916Y-14587664D02*
X11208440Y-14578140D01*
X11208440Y-14578140D02*
X11227488Y-14568616D01*
X11465583Y-14635283D02*
X11465583Y-14768616D01*
X11417964Y-14559092D02*
X11370345Y-14701949D01*
X11370345Y-14701949D02*
X11494155Y-14701949D01*
X11551297Y-14568616D02*
X11684631Y-14568616D01*
X11684631Y-14568616D02*
X11598916Y-14768616D01*
X11751297Y-14587664D02*
X11760821Y-14578140D01*
X11760821Y-14578140D02*
X11779869Y-14568616D01*
X11779869Y-14568616D02*
X11827488Y-14568616D01*
X11827488Y-14568616D02*
X11846536Y-14578140D01*
X11846536Y-14578140D02*
X11856059Y-14587664D01*
X11856059Y-14587664D02*
X11865583Y-14606711D01*
X11865583Y-14606711D02*
X11865583Y-14625759D01*
X11865583Y-14625759D02*
X11856059Y-14654330D01*
X11856059Y-14654330D02*
X11741774Y-14768616D01*
X11741774Y-14768616D02*
X11865583Y-14768616D01*
X11941774Y-14568616D02*
X11941774Y-14606711D01*
X12017964Y-14568616D02*
X12017964Y-14606711D01*
X12313202Y-14844806D02*
X12303678Y-14835283D01*
X12303678Y-14835283D02*
X12284631Y-14806711D01*
X12284631Y-14806711D02*
X12275107Y-14787664D01*
X12275107Y-14787664D02*
X12265583Y-14759092D01*
X12265583Y-14759092D02*
X12256059Y-14711473D01*
X12256059Y-14711473D02*
X12256059Y-14673378D01*
X12256059Y-14673378D02*
X12265583Y-14625759D01*
X12265583Y-14625759D02*
X12275107Y-14597187D01*
X12275107Y-14597187D02*
X12284631Y-14578140D01*
X12284631Y-14578140D02*
X12303678Y-14549568D01*
X12303678Y-14549568D02*
X12313202Y-14540045D01*
X12370345Y-14568616D02*
X12494155Y-14568616D01*
X12494155Y-14568616D02*
X12427488Y-14644806D01*
X12427488Y-14644806D02*
X12456059Y-14644806D01*
X12456059Y-14644806D02*
X12475107Y-14654330D01*
X12475107Y-14654330D02*
X12484631Y-14663854D01*
X12484631Y-14663854D02*
X12494155Y-14682902D01*
X12494155Y-14682902D02*
X12494155Y-14730521D01*
X12494155Y-14730521D02*
X12484631Y-14749568D01*
X12484631Y-14749568D02*
X12475107Y-14759092D01*
X12475107Y-14759092D02*
X12456059Y-14768616D01*
X12456059Y-14768616D02*
X12398917Y-14768616D01*
X12398917Y-14768616D02*
X12379869Y-14759092D01*
X12379869Y-14759092D02*
X12370345Y-14749568D01*
X12560821Y-14568616D02*
X12684631Y-14568616D01*
X12684631Y-14568616D02*
X12617964Y-14644806D01*
X12617964Y-14644806D02*
X12646536Y-14644806D01*
X12646536Y-14644806D02*
X12665583Y-14654330D01*
X12665583Y-14654330D02*
X12675107Y-14663854D01*
X12675107Y-14663854D02*
X12684631Y-14682902D01*
X12684631Y-14682902D02*
X12684631Y-14730521D01*
X12684631Y-14730521D02*
X12675107Y-14749568D01*
X12675107Y-14749568D02*
X12665583Y-14759092D01*
X12665583Y-14759092D02*
X12646536Y-14768616D01*
X12646536Y-14768616D02*
X12589393Y-14768616D01*
X12589393Y-14768616D02*
X12570345Y-14759092D01*
X12570345Y-14759092D02*
X12560821Y-14749568D01*
X12922726Y-14768616D02*
X12922726Y-14568616D01*
X13008440Y-14768616D02*
X13008440Y-14663854D01*
X13008440Y-14663854D02*
X12998917Y-14644806D01*
X12998917Y-14644806D02*
X12979869Y-14635283D01*
X12979869Y-14635283D02*
X12951298Y-14635283D01*
X12951298Y-14635283D02*
X12932250Y-14644806D01*
X12932250Y-14644806D02*
X12922726Y-14654330D01*
X13132250Y-14768616D02*
X13113202Y-14759092D01*
X13113202Y-14759092D02*
X13103679Y-14749568D01*
X13103679Y-14749568D02*
X13094155Y-14730521D01*
X13094155Y-14730521D02*
X13094155Y-14673378D01*
X13094155Y-14673378D02*
X13103679Y-14654330D01*
X13103679Y-14654330D02*
X13113202Y-14644806D01*
X13113202Y-14644806D02*
X13132250Y-14635283D01*
X13132250Y-14635283D02*
X13160821Y-14635283D01*
X13160821Y-14635283D02*
X13179869Y-14644806D01*
X13179869Y-14644806D02*
X13189393Y-14654330D01*
X13189393Y-14654330D02*
X13198917Y-14673378D01*
X13198917Y-14673378D02*
X13198917Y-14730521D01*
X13198917Y-14730521D02*
X13189393Y-14749568D01*
X13189393Y-14749568D02*
X13179869Y-14759092D01*
X13179869Y-14759092D02*
X13160821Y-14768616D01*
X13160821Y-14768616D02*
X13132250Y-14768616D01*
X13313202Y-14768616D02*
X13294155Y-14759092D01*
X13294155Y-14759092D02*
X13284631Y-14740045D01*
X13284631Y-14740045D02*
X13284631Y-14568616D01*
X13465583Y-14759092D02*
X13446536Y-14768616D01*
X13446536Y-14768616D02*
X13408440Y-14768616D01*
X13408440Y-14768616D02*
X13389393Y-14759092D01*
X13389393Y-14759092D02*
X13379869Y-14740045D01*
X13379869Y-14740045D02*
X13379869Y-14663854D01*
X13379869Y-14663854D02*
X13389393Y-14644806D01*
X13389393Y-14644806D02*
X13408440Y-14635283D01*
X13408440Y-14635283D02*
X13446536Y-14635283D01*
X13446536Y-14635283D02*
X13465583Y-14644806D01*
X13465583Y-14644806D02*
X13475107Y-14663854D01*
X13475107Y-14663854D02*
X13475107Y-14682902D01*
X13475107Y-14682902D02*
X13379869Y-14701949D01*
X13551298Y-14759092D02*
X13570345Y-14768616D01*
X13570345Y-14768616D02*
X13608440Y-14768616D01*
X13608440Y-14768616D02*
X13627488Y-14759092D01*
X13627488Y-14759092D02*
X13637012Y-14740045D01*
X13637012Y-14740045D02*
X13637012Y-14730521D01*
X13637012Y-14730521D02*
X13627488Y-14711473D01*
X13627488Y-14711473D02*
X13608440Y-14701949D01*
X13608440Y-14701949D02*
X13579869Y-14701949D01*
X13579869Y-14701949D02*
X13560821Y-14692426D01*
X13560821Y-14692426D02*
X13551298Y-14673378D01*
X13551298Y-14673378D02*
X13551298Y-14663854D01*
X13551298Y-14663854D02*
X13560821Y-14644806D01*
X13560821Y-14644806D02*
X13579869Y-14635283D01*
X13579869Y-14635283D02*
X13608440Y-14635283D01*
X13608440Y-14635283D02*
X13627488Y-14644806D01*
X13703679Y-14844806D02*
X13713202Y-14835283D01*
X13713202Y-14835283D02*
X13732250Y-14806711D01*
X13732250Y-14806711D02*
X13741774Y-14787664D01*
X13741774Y-14787664D02*
X13751298Y-14759092D01*
X13751298Y-14759092D02*
X13760821Y-14711473D01*
X13760821Y-14711473D02*
X13760821Y-14673378D01*
X13760821Y-14673378D02*
X13751298Y-14625759D01*
X13751298Y-14625759D02*
X13741774Y-14597187D01*
X13741774Y-14597187D02*
X13732250Y-14578140D01*
X13732250Y-14578140D02*
X13713202Y-14549568D01*
X13713202Y-14549568D02*
X13703679Y-14540045D01*
X8538140Y-14841132D02*
X8738140Y-15041132D01*
X8738140Y-14841132D02*
X8538140Y-15041132D01*
X8638140Y-15041132D02*
X8738140Y-14941132D01*
X8638140Y-14841132D01*
X8538140Y-14941132D01*
X8638140Y-15041132D01*
X8979869Y-14832616D02*
X9103678Y-14832616D01*
X9103678Y-14832616D02*
X9037012Y-14908806D01*
X9037012Y-14908806D02*
X9065583Y-14908806D01*
X9065583Y-14908806D02*
X9084631Y-14918330D01*
X9084631Y-14918330D02*
X9094154Y-14927854D01*
X9094154Y-14927854D02*
X9103678Y-14946902D01*
X9103678Y-14946902D02*
X9103678Y-14994521D01*
X9103678Y-14994521D02*
X9094154Y-15013568D01*
X9094154Y-15013568D02*
X9084631Y-15023092D01*
X9084631Y-15023092D02*
X9065583Y-15032616D01*
X9065583Y-15032616D02*
X9008440Y-15032616D01*
X9008440Y-15032616D02*
X8989393Y-15023092D01*
X8989393Y-15023092D02*
X8979869Y-15013568D01*
X9189393Y-15013568D02*
X9198916Y-15023092D01*
X9198916Y-15023092D02*
X9189393Y-15032616D01*
X9189393Y-15032616D02*
X9179869Y-15023092D01*
X9179869Y-15023092D02*
X9189393Y-15013568D01*
X9189393Y-15013568D02*
X9189393Y-15032616D01*
X9275107Y-14851664D02*
X9284631Y-14842140D01*
X9284631Y-14842140D02*
X9303678Y-14832616D01*
X9303678Y-14832616D02*
X9351297Y-14832616D01*
X9351297Y-14832616D02*
X9370345Y-14842140D01*
X9370345Y-14842140D02*
X9379869Y-14851664D01*
X9379869Y-14851664D02*
X9389393Y-14870711D01*
X9389393Y-14870711D02*
X9389393Y-14889759D01*
X9389393Y-14889759D02*
X9379869Y-14918330D01*
X9379869Y-14918330D02*
X9265583Y-15032616D01*
X9265583Y-15032616D02*
X9389393Y-15032616D01*
X9513202Y-14832616D02*
X9532250Y-14832616D01*
X9532250Y-14832616D02*
X9551297Y-14842140D01*
X9551297Y-14842140D02*
X9560821Y-14851664D01*
X9560821Y-14851664D02*
X9570345Y-14870711D01*
X9570345Y-14870711D02*
X9579869Y-14908806D01*
X9579869Y-14908806D02*
X9579869Y-14956426D01*
X9579869Y-14956426D02*
X9570345Y-14994521D01*
X9570345Y-14994521D02*
X9560821Y-15013568D01*
X9560821Y-15013568D02*
X9551297Y-15023092D01*
X9551297Y-15023092D02*
X9532250Y-15032616D01*
X9532250Y-15032616D02*
X9513202Y-15032616D01*
X9513202Y-15032616D02*
X9494154Y-15023092D01*
X9494154Y-15023092D02*
X9484631Y-15013568D01*
X9484631Y-15013568D02*
X9475107Y-14994521D01*
X9475107Y-14994521D02*
X9465583Y-14956426D01*
X9465583Y-14956426D02*
X9465583Y-14908806D01*
X9465583Y-14908806D02*
X9475107Y-14870711D01*
X9475107Y-14870711D02*
X9484631Y-14851664D01*
X9484631Y-14851664D02*
X9494154Y-14842140D01*
X9494154Y-14842140D02*
X9513202Y-14832616D01*
X9703678Y-14832616D02*
X9722726Y-14832616D01*
X9722726Y-14832616D02*
X9741774Y-14842140D01*
X9741774Y-14842140D02*
X9751297Y-14851664D01*
X9751297Y-14851664D02*
X9760821Y-14870711D01*
X9760821Y-14870711D02*
X9770345Y-14908806D01*
X9770345Y-14908806D02*
X9770345Y-14956426D01*
X9770345Y-14956426D02*
X9760821Y-14994521D01*
X9760821Y-14994521D02*
X9751297Y-15013568D01*
X9751297Y-15013568D02*
X9741774Y-15023092D01*
X9741774Y-15023092D02*
X9722726Y-15032616D01*
X9722726Y-15032616D02*
X9703678Y-15032616D01*
X9703678Y-15032616D02*
X9684631Y-15023092D01*
X9684631Y-15023092D02*
X9675107Y-15013568D01*
X9675107Y-15013568D02*
X9665583Y-14994521D01*
X9665583Y-14994521D02*
X9656059Y-14956426D01*
X9656059Y-14956426D02*
X9656059Y-14908806D01*
X9656059Y-14908806D02*
X9665583Y-14870711D01*
X9665583Y-14870711D02*
X9675107Y-14851664D01*
X9675107Y-14851664D02*
X9684631Y-14842140D01*
X9684631Y-14842140D02*
X9703678Y-14832616D01*
X9856059Y-15032616D02*
X9856059Y-14899283D01*
X9856059Y-14918330D02*
X9865583Y-14908806D01*
X9865583Y-14908806D02*
X9884631Y-14899283D01*
X9884631Y-14899283D02*
X9913202Y-14899283D01*
X9913202Y-14899283D02*
X9932250Y-14908806D01*
X9932250Y-14908806D02*
X9941774Y-14927854D01*
X9941774Y-14927854D02*
X9941774Y-15032616D01*
X9941774Y-14927854D02*
X9951297Y-14908806D01*
X9951297Y-14908806D02*
X9970345Y-14899283D01*
X9970345Y-14899283D02*
X9998916Y-14899283D01*
X9998916Y-14899283D02*
X10017964Y-14908806D01*
X10017964Y-14908806D02*
X10027488Y-14927854D01*
X10027488Y-14927854D02*
X10027488Y-15032616D01*
X10122726Y-15032616D02*
X10122726Y-14899283D01*
X10122726Y-14918330D02*
X10132250Y-14908806D01*
X10132250Y-14908806D02*
X10151297Y-14899283D01*
X10151297Y-14899283D02*
X10179869Y-14899283D01*
X10179869Y-14899283D02*
X10198916Y-14908806D01*
X10198916Y-14908806D02*
X10208440Y-14927854D01*
X10208440Y-14927854D02*
X10208440Y-15032616D01*
X10208440Y-14927854D02*
X10217964Y-14908806D01*
X10217964Y-14908806D02*
X10237012Y-14899283D01*
X10237012Y-14899283D02*
X10265583Y-14899283D01*
X10265583Y-14899283D02*
X10284631Y-14908806D01*
X10284631Y-14908806D02*
X10294155Y-14927854D01*
X10294155Y-14927854D02*
X10294155Y-15032616D01*
X10684631Y-14823092D02*
X10513202Y-15080235D01*
X10941774Y-14832616D02*
X10960821Y-14832616D01*
X10960821Y-14832616D02*
X10979869Y-14842140D01*
X10979869Y-14842140D02*
X10989393Y-14851664D01*
X10989393Y-14851664D02*
X10998917Y-14870711D01*
X10998917Y-14870711D02*
X11008440Y-14908806D01*
X11008440Y-14908806D02*
X11008440Y-14956426D01*
X11008440Y-14956426D02*
X10998917Y-14994521D01*
X10998917Y-14994521D02*
X10989393Y-15013568D01*
X10989393Y-15013568D02*
X10979869Y-15023092D01*
X10979869Y-15023092D02*
X10960821Y-15032616D01*
X10960821Y-15032616D02*
X10941774Y-15032616D01*
X10941774Y-15032616D02*
X10922726Y-15023092D01*
X10922726Y-15023092D02*
X10913202Y-15013568D01*
X10913202Y-15013568D02*
X10903678Y-14994521D01*
X10903678Y-14994521D02*
X10894155Y-14956426D01*
X10894155Y-14956426D02*
X10894155Y-14908806D01*
X10894155Y-14908806D02*
X10903678Y-14870711D01*
X10903678Y-14870711D02*
X10913202Y-14851664D01*
X10913202Y-14851664D02*
X10922726Y-14842140D01*
X10922726Y-14842140D02*
X10941774Y-14832616D01*
X11094155Y-15013568D02*
X11103678Y-15023092D01*
X11103678Y-15023092D02*
X11094155Y-15032616D01*
X11094155Y-15032616D02*
X11084631Y-15023092D01*
X11084631Y-15023092D02*
X11094155Y-15013568D01*
X11094155Y-15013568D02*
X11094155Y-15032616D01*
X11294155Y-15032616D02*
X11179869Y-15032616D01*
X11237012Y-15032616D02*
X11237012Y-14832616D01*
X11237012Y-14832616D02*
X11217964Y-14861187D01*
X11217964Y-14861187D02*
X11198916Y-14880235D01*
X11198916Y-14880235D02*
X11179869Y-14889759D01*
X11370345Y-14851664D02*
X11379869Y-14842140D01*
X11379869Y-14842140D02*
X11398916Y-14832616D01*
X11398916Y-14832616D02*
X11446536Y-14832616D01*
X11446536Y-14832616D02*
X11465583Y-14842140D01*
X11465583Y-14842140D02*
X11475107Y-14851664D01*
X11475107Y-14851664D02*
X11484631Y-14870711D01*
X11484631Y-14870711D02*
X11484631Y-14889759D01*
X11484631Y-14889759D02*
X11475107Y-14918330D01*
X11475107Y-14918330D02*
X11360821Y-15032616D01*
X11360821Y-15032616D02*
X11484631Y-15032616D01*
X11656059Y-14832616D02*
X11617964Y-14832616D01*
X11617964Y-14832616D02*
X11598916Y-14842140D01*
X11598916Y-14842140D02*
X11589393Y-14851664D01*
X11589393Y-14851664D02*
X11570345Y-14880235D01*
X11570345Y-14880235D02*
X11560821Y-14918330D01*
X11560821Y-14918330D02*
X11560821Y-14994521D01*
X11560821Y-14994521D02*
X11570345Y-15013568D01*
X11570345Y-15013568D02*
X11579869Y-15023092D01*
X11579869Y-15023092D02*
X11598916Y-15032616D01*
X11598916Y-15032616D02*
X11637012Y-15032616D01*
X11637012Y-15032616D02*
X11656059Y-15023092D01*
X11656059Y-15023092D02*
X11665583Y-15013568D01*
X11665583Y-15013568D02*
X11675107Y-14994521D01*
X11675107Y-14994521D02*
X11675107Y-14946902D01*
X11675107Y-14946902D02*
X11665583Y-14927854D01*
X11665583Y-14927854D02*
X11656059Y-14918330D01*
X11656059Y-14918330D02*
X11637012Y-14908806D01*
X11637012Y-14908806D02*
X11598916Y-14908806D01*
X11598916Y-14908806D02*
X11579869Y-14918330D01*
X11579869Y-14918330D02*
X11570345Y-14927854D01*
X11570345Y-14927854D02*
X11560821Y-14946902D01*
X11798916Y-14832616D02*
X11817964Y-14832616D01*
X11817964Y-14832616D02*
X11837012Y-14842140D01*
X11837012Y-14842140D02*
X11846536Y-14851664D01*
X11846536Y-14851664D02*
X11856059Y-14870711D01*
X11856059Y-14870711D02*
X11865583Y-14908806D01*
X11865583Y-14908806D02*
X11865583Y-14956426D01*
X11865583Y-14956426D02*
X11856059Y-14994521D01*
X11856059Y-14994521D02*
X11846536Y-15013568D01*
X11846536Y-15013568D02*
X11837012Y-15023092D01*
X11837012Y-15023092D02*
X11817964Y-15032616D01*
X11817964Y-15032616D02*
X11798916Y-15032616D01*
X11798916Y-15032616D02*
X11779869Y-15023092D01*
X11779869Y-15023092D02*
X11770345Y-15013568D01*
X11770345Y-15013568D02*
X11760821Y-14994521D01*
X11760821Y-14994521D02*
X11751297Y-14956426D01*
X11751297Y-14956426D02*
X11751297Y-14908806D01*
X11751297Y-14908806D02*
X11760821Y-14870711D01*
X11760821Y-14870711D02*
X11770345Y-14851664D01*
X11770345Y-14851664D02*
X11779869Y-14842140D01*
X11779869Y-14842140D02*
X11798916Y-14832616D01*
X11941774Y-14832616D02*
X11941774Y-14870711D01*
X12017964Y-14832616D02*
X12017964Y-14870711D01*
X12313202Y-15108806D02*
X12303678Y-15099283D01*
X12303678Y-15099283D02*
X12284631Y-15070711D01*
X12284631Y-15070711D02*
X12275107Y-15051664D01*
X12275107Y-15051664D02*
X12265583Y-15023092D01*
X12265583Y-15023092D02*
X12256059Y-14975473D01*
X12256059Y-14975473D02*
X12256059Y-14937378D01*
X12256059Y-14937378D02*
X12265583Y-14889759D01*
X12265583Y-14889759D02*
X12275107Y-14861187D01*
X12275107Y-14861187D02*
X12284631Y-14842140D01*
X12284631Y-14842140D02*
X12303678Y-14813568D01*
X12303678Y-14813568D02*
X12313202Y-14804045D01*
X12475107Y-14899283D02*
X12475107Y-15032616D01*
X12427488Y-14823092D02*
X12379869Y-14965949D01*
X12379869Y-14965949D02*
X12503678Y-14965949D01*
X12732250Y-15032616D02*
X12732250Y-14832616D01*
X12817964Y-15032616D02*
X12817964Y-14927854D01*
X12817964Y-14927854D02*
X12808440Y-14908806D01*
X12808440Y-14908806D02*
X12789393Y-14899283D01*
X12789393Y-14899283D02*
X12760821Y-14899283D01*
X12760821Y-14899283D02*
X12741774Y-14908806D01*
X12741774Y-14908806D02*
X12732250Y-14918330D01*
X12941774Y-15032616D02*
X12922726Y-15023092D01*
X12922726Y-15023092D02*
X12913202Y-15013568D01*
X12913202Y-15013568D02*
X12903679Y-14994521D01*
X12903679Y-14994521D02*
X12903679Y-14937378D01*
X12903679Y-14937378D02*
X12913202Y-14918330D01*
X12913202Y-14918330D02*
X12922726Y-14908806D01*
X12922726Y-14908806D02*
X12941774Y-14899283D01*
X12941774Y-14899283D02*
X12970345Y-14899283D01*
X12970345Y-14899283D02*
X12989393Y-14908806D01*
X12989393Y-14908806D02*
X12998917Y-14918330D01*
X12998917Y-14918330D02*
X13008440Y-14937378D01*
X13008440Y-14937378D02*
X13008440Y-14994521D01*
X13008440Y-14994521D02*
X12998917Y-15013568D01*
X12998917Y-15013568D02*
X12989393Y-15023092D01*
X12989393Y-15023092D02*
X12970345Y-15032616D01*
X12970345Y-15032616D02*
X12941774Y-15032616D01*
X13122726Y-15032616D02*
X13103679Y-15023092D01*
X13103679Y-15023092D02*
X13094155Y-15004045D01*
X13094155Y-15004045D02*
X13094155Y-14832616D01*
X13275107Y-15023092D02*
X13256060Y-15032616D01*
X13256060Y-15032616D02*
X13217964Y-15032616D01*
X13217964Y-15032616D02*
X13198917Y-15023092D01*
X13198917Y-15023092D02*
X13189393Y-15004045D01*
X13189393Y-15004045D02*
X13189393Y-14927854D01*
X13189393Y-14927854D02*
X13198917Y-14908806D01*
X13198917Y-14908806D02*
X13217964Y-14899283D01*
X13217964Y-14899283D02*
X13256060Y-14899283D01*
X13256060Y-14899283D02*
X13275107Y-14908806D01*
X13275107Y-14908806D02*
X13284631Y-14927854D01*
X13284631Y-14927854D02*
X13284631Y-14946902D01*
X13284631Y-14946902D02*
X13189393Y-14965949D01*
X13360821Y-15023092D02*
X13379869Y-15032616D01*
X13379869Y-15032616D02*
X13417964Y-15032616D01*
X13417964Y-15032616D02*
X13437012Y-15023092D01*
X13437012Y-15023092D02*
X13446536Y-15004045D01*
X13446536Y-15004045D02*
X13446536Y-14994521D01*
X13446536Y-14994521D02*
X13437012Y-14975473D01*
X13437012Y-14975473D02*
X13417964Y-14965949D01*
X13417964Y-14965949D02*
X13389393Y-14965949D01*
X13389393Y-14965949D02*
X13370345Y-14956426D01*
X13370345Y-14956426D02*
X13360821Y-14937378D01*
X13360821Y-14937378D02*
X13360821Y-14927854D01*
X13360821Y-14927854D02*
X13370345Y-14908806D01*
X13370345Y-14908806D02*
X13389393Y-14899283D01*
X13389393Y-14899283D02*
X13417964Y-14899283D01*
X13417964Y-14899283D02*
X13437012Y-14908806D01*
X13513202Y-15108806D02*
X13522726Y-15099283D01*
X13522726Y-15099283D02*
X13541774Y-15070711D01*
X13541774Y-15070711D02*
X13551298Y-15051664D01*
X13551298Y-15051664D02*
X13560821Y-15023092D01*
X13560821Y-15023092D02*
X13570345Y-14975473D01*
X13570345Y-14975473D02*
X13570345Y-14937378D01*
X13570345Y-14937378D02*
X13560821Y-14889759D01*
X13560821Y-14889759D02*
X13551298Y-14861187D01*
X13551298Y-14861187D02*
X13541774Y-14842140D01*
X13541774Y-14842140D02*
X13522726Y-14813568D01*
X13522726Y-14813568D02*
X13513202Y-14804045D01*
M02*
